<?xml version="1.0" standalone="no"?>
<!DOCTYPE svg PUBLIC "-//W3C//DTD SVG 1.1//EN" "http://www.w3.org/Graphics/SVG/1.1/DTD/svg11.dtd" >
<svg xmlns="http://www.w3.org/2000/svg" xmlns:xlink="http://www.w3.org/1999/xlink" version="1.1">
<metadata></metadata>
<defs>
<font id="effra_ccsemibold" horiz-adv-x="1116" >
<font-face units-per-em="2048" ascent="1638" descent="-410" />
<missing-glyph horiz-adv-x="360" />
<glyph horiz-adv-x="0" />
<glyph horiz-adv-x="0" />
<glyph unicode="&#xd;" horiz-adv-x="370" />
<glyph unicode=" "  horiz-adv-x="360" />
<glyph unicode="&#x09;" horiz-adv-x="360" />
<glyph unicode="&#xa0;" horiz-adv-x="360" />
<glyph unicode="!" horiz-adv-x="550" d="M135 0v274h279v-274h-279zM135 1366h281l-21 -946h-241z" />
<glyph unicode="&#x22;" horiz-adv-x="944" d="M154 1366h245l-24 -494h-197zM547 1366h245l-24 -494h-197z" />
<glyph unicode="#" horiz-adv-x="1435" d="M86 315v195h244l71 264h-215v193h267l86 317h219l-86 -317h266l86 317h217l-86 -317h193v-193h-244l-72 -264h217v-195h-268l-86 -315h-217l86 315h-266l-86 -315h-219l86 315h-193zM549 510h266l72 264h-266z" />
<glyph unicode="$" d="M59 188l140 177q137 -137 301 -162v366q-379 96 -379 373q0 152 102.5 248t276.5 115v188h166v-190q215 -25 344 -164l-146 -164q-76 86 -198 110v-329q383 -100 383 -379q0 -156 -104.5 -259.5t-278.5 -127.5v-193h-166v187q-133 10 -248 62t-193 142zM362 950 q0 -49 32 -84t106 -63v284q-137 -25 -138 -137zM666 205q137 33 137 162q0 53 -31 90t-106 65v-317z" />
<glyph unicode="%" horiz-adv-x="1748" d="M45 942q0 170 87 269.5t237 99.5t236.5 -99.5t86.5 -269.5t-87 -270t-236 -100q-150 0 -237 100t-87 270zM231 940q0 -100 37 -157.5t101 -57.5q66 0 101.5 57.5t35.5 159.5t-36 158.5t-101 56.5q-63 0 -100.5 -57.5t-37.5 -159.5zM352 0l823 1290h221l-819 -1290h-225z M1057 350q0 170 87 269.5t237 99.5t236.5 -99.5t86.5 -269.5t-87 -270t-236 -100q-150 0 -237 100t-87 270zM1243 348q0 -100 37 -157.5t101 -57.5q66 0 101.5 57.5t35.5 159.5t-36 158.5t-101 56.5q-63 0 -100.5 -57.5t-37.5 -159.5z" />
<glyph unicode="&#x26;" horiz-adv-x="1353" d="M70 350q0 246 276 416q-123 143 -123 289q0 100 52.5 178t144.5 123t209 45q260 0 372 -227l-174 -123q-39 72 -85 104.5t-105 32.5q-74 0 -118 -39t-44 -105q0 -39 22.5 -78.5t75.5 -103.5l351 -387l186 217l168 -151l-205 -234l279 -307h-324l-121 135 q-96 -88 -189 -128t-204 -40q-133 0 -233.5 48t-155.5 134t-55 201zM322 385q0 -92 57 -145.5t156 -53.5q61 0 115.5 26t113.5 83l-291 326q-82 -57 -116.5 -113.5t-34.5 -122.5z" />
<glyph unicode="'" horiz-adv-x="550" d="M154 1366h245l-24 -494h-197z" />
<glyph unicode="(" horiz-adv-x="645" d="M123 629q0 219 54 430t155 387h246q-94 -180 -143.5 -391t-49.5 -426t49 -426t144 -391h-246q-100 176 -154.5 387t-54.5 430z" />
<glyph unicode=")" horiz-adv-x="645" d="M70 -188q92 180 141 391t49 426t-49 426t-141 391h243q102 -176 155.5 -387t53.5 -430t-53 -430t-156 -387h-243z" />
<glyph unicode="*" horiz-adv-x="966" d="M88 942l274 119l-274 119l96 166l236 -177l-33 293h195l-35 -293l235 177l97 -166l-273 -119l273 -119l-97 -166l-235 176l35 -293h-195l33 293l-236 -176z" />
<glyph unicode="+" d="M139 555v205h316v309h207v-309h315v-205h-315v-309h-207v309h-316z" />
<glyph unicode="," horiz-adv-x="557" d="M20 -233q138 207 138 514h254q0 -180 -63.5 -342t-178.5 -277z" />
<glyph unicode="-" horiz-adv-x="909" d="M139 457v233h633v-233h-633z" />
<glyph unicode="." horiz-adv-x="557" d="M131 0v281h293v-281h-293z" />
<glyph unicode="/" horiz-adv-x="884" d="M45 -33l539 1432h256l-539 -1432h-256z" />
<glyph unicode="0" d="M53 645q0 319 134.5 498.5t369.5 179.5q238 0 372 -180t134 -498q0 -317 -134 -497.5t-372 -180.5q-236 0 -370 179.5t-134 498.5zM309 645q0 -215 64.5 -330.5t183.5 -115.5q121 0 185.5 115.5t64.5 330.5t-64.5 331t-185.5 116q-119 0 -183.5 -116t-64.5 -331z" />
<glyph unicode="1" d="M135 1083l379 207h207v-1073h262v-217h-788v217h280v805l-237 -133z" />
<glyph unicode="2" d="M111 1087q72 115 188.5 175.5t263.5 60.5q195 0 311.5 -100.5t116.5 -270.5q0 -115 -66.5 -209t-224.5 -211l-61 -45q-84 -63 -132 -107t-70.5 -82t-26.5 -81h591v-217h-866v123q0 100 32 181t105.5 160t202.5 173l68 51q111 82 152.5 136.5t41.5 115.5q0 76 -53 119 t-145 43q-156 0 -265 -148z" />
<glyph unicode="3" d="M74 127l137 180q135 -117 291 -117q115 0 181.5 58t66.5 158q0 92 -59.5 148t-160.5 56q-66 0 -137 -24l-67 129l344 360h-496v215h789v-194l-312 -326q104 -2 184 -50t125.5 -131t45.5 -192q0 -129 -62.5 -225t-176.5 -150.5t-265 -54.5q-252 0 -428 160z" />
<glyph unicode="4" d="M68 250v192l587 848h250v-831h150v-209h-150v-250h-233v250h-604zM299 455h379v542z" />
<glyph unicode="5" d="M74 127l133 178q70 -59 136.5 -87t137.5 -28q117 0 186.5 62t69.5 164t-67.5 159.5t-186.5 57.5q-100 0 -194 -51l-115 86l109 622h669v-213h-495l-56 -284q68 27 162 26q195 0 310.5 -110.5t115.5 -296.5q0 -133 -61.5 -233.5t-172 -156t-259.5 -55.5q-246 0 -422 160z " />
<glyph unicode="6" d="M100 608q0 221 70 382t200 247t308 86q176 0 313 -86l-100 -195q-94 61 -213 62q-139 0 -225 -96.5t-103 -268.5q129 94 287 95q182 0 288.5 -111t106.5 -299q0 -135 -56 -237.5t-157.5 -161t-234.5 -58.5q-227 0 -355.5 170t-128.5 471zM348 539q6 -170 66.5 -259.5 t173.5 -89.5q96 0 152.5 63.5t56.5 170.5q0 102 -56.5 157.5t-158.5 55.5q-123 0 -234 -98z" />
<glyph unicode="7" d="M125 1075v215h907v-211q-70 -115 -142.5 -254t-139 -286.5t-119.5 -285.5t-88 -253h-260q41 129 99 274.5t125.5 291t138.5 276.5t136 233h-657z" />
<glyph unicode="8" d="M70 348q0 115 67.5 207t188.5 141q-193 100 -193 295q0 150 118 241t312 91q190 0 305 -89t115 -237q0 -96 -53 -174t-150 -123q129 -53 198 -142t69 -206q0 -113 -62.5 -199.5t-173.5 -136t-254 -49.5t-252.5 49.5t-172 134t-62.5 197.5zM317 365q0 -88 67 -142.5 t173 -54.5t171 56.5t65 146.5q0 76 -53.5 129t-182.5 104q-113 -31 -176.5 -93t-63.5 -146zM367 981q0 -135 186 -207q92 29 144.5 83t52.5 122q0 72 -53.5 116t-139.5 44q-84 0 -137 -43t-53 -115z" />
<glyph unicode="9" d="M84 866q0 135 56.5 238.5t157.5 161t234 57.5q227 0 355.5 -170t128.5 -471q0 -221 -69.5 -381t-199 -247t-309.5 -87q-84 0 -163.5 20.5t-149.5 65.5l100 195q94 -61 213 -62q139 0 225.5 96.5t102.5 268.5q-129 -94 -287 -94q-180 0 -287.5 111.5t-107.5 297.5z M319 864q0 -100 56.5 -155.5t159.5 -55.5q123 0 233 99q-6 170 -66.5 259t-173.5 89q-96 0 -152.5 -63.5t-56.5 -172.5z" />
<glyph unicode=":" horiz-adv-x="557" d="M137 0v281h283v-281h-283zM137 678v280h283v-280h-283z" />
<glyph unicode=";" horiz-adv-x="557" d="M20 -233q138 207 138 514h254q0 -180 -63.5 -342t-178.5 -277zM143 678v280h281v-280h-281z" />
<glyph unicode="&#x3c;" d="M119 571v172l764 390l86 -183l-592 -293l592 -292l-86 -183z" />
<glyph unicode="=" d="M139 362v205h838v-205h-838zM139 748v204h838v-204h-838z" />
<glyph unicode="&#x3e;" d="M147 365l592 292l-592 293l86 183l764 -390v-172l-764 -389z" />
<glyph unicode="?" horiz-adv-x="1069" d="M70 1196q86 100 204.5 151.5t257.5 51.5q201 0 321 -98.5t120 -262.5q0 -94 -47 -169.5t-158 -159.5l-37 -29q-76 -57 -105.5 -103.5t-29.5 -111.5v-45h-238v51q0 111 39 189.5t133 148.5l37 29q86 63 118 104t32 88q0 68 -53.5 108t-147.5 40q-168 0 -297 -136zM338 0 v274h280v-274h-280z" />
<glyph unicode="@" horiz-adv-x="1968" d="M88 567q0 254 114.5 442.5t322.5 292t485 103.5q270 0 464.5 -99.5t300 -284.5t105.5 -441q0 -184 -54 -321.5t-151.5 -214.5t-230.5 -77q-193 0 -242 152q-53 -72 -138 -111t-190 -39q-156 0 -245.5 84t-89.5 221q0 156 116.5 243t323.5 87q88 0 192 -16v28 q0 174 -221 175q-160 0 -270 -84l-98 155q162 125 393 125q207 0 321.5 -96t114.5 -270v-363q0 -109 80 -108q57 0 99 53t66.5 145t24.5 211q0 319 -178 497.5t-499 178.5q-217 0 -379 -82t-250 -233.5t-88 -362.5q0 -297 198 -498l-137 -112q-125 106 -192.5 268t-67.5 352 zM778 291q0 -70 44 -108t120 -38q96 0 162.5 55.5t66.5 135.5v102q-88 14 -157 15q-236 0 -236 -162z" />
<glyph unicode="A" horiz-adv-x="1370" d="M23 0l518 1366h290l517 -1366h-287l-119 342h-526l-119 -342h-274zM485 545h387l-192 557z" />
<glyph unicode="B" horiz-adv-x="1247" d="M143 0v1366h512q207 0 322 -86t115 -242q0 -115 -60.5 -200.5t-159.5 -112.5q137 -27 215 -117t78 -227q0 -182 -138 -281.5t-394 -99.5h-490zM399 207h226h3q271 0 271 194q0 100 -69.5 154.5t-202.5 54.5h-228v-403zM399 803h209q104 0 165 51t61 135q0 82 -53.5 126 t-151.5 44h-230v-356z" />
<glyph unicode="C" horiz-adv-x="1390" d="M88 680q0 209 90 371.5t247 255t359 92.5q172 0 314.5 -71t230.5 -198l-178 -161q-128 192 -350 192h-2q-127 0 -225.5 -60.5t-153.5 -168t-55 -250.5q0 -141 54 -248.5t152.5 -168t225.5 -60.5q213 0 366 194l172 -155q-92 -133 -234.5 -205t-318.5 -72 q-203 0 -359.5 91.5t-245.5 252t-89 369.5z" />
<glyph unicode="D" horiz-adv-x="1464" d="M143 0v1366h490q233 0 400 -80t255 -232.5t88 -367.5t-89 -368.5t-255 -235.5t-401 -82h-488zM408 233h217q227 0 351 118t124 333t-124 332t-353 117h-215v-900z" />
<glyph unicode="E" horiz-adv-x="1173" d="M143 0v1366h904v-229h-641v-326h483v-217h-483v-365h690v-229h-953z" />
<glyph unicode="F" horiz-adv-x="1103" d="M143 0v1366h901v-233h-636v-355h485v-225h-485v-553h-265z" />
<glyph unicode="G" horiz-adv-x="1478" d="M88 678q0 211 90 373.5t250 255t365 92.5q170 0 309 -64.5t233 -185.5l-166 -170q-131 184 -362 184q-131 0 -231.5 -60.5t-157 -169t-56.5 -253.5q0 -143 56.5 -250.5t160 -167t242.5 -59.5q158 0 281 73v240h-266v213h516v-573q-96 -88 -238.5 -138.5t-302.5 -50.5 q-215 0 -378 89t-254 250t-91 372z" />
<glyph unicode="H" horiz-adv-x="1464" d="M143 0v1366h265v-545h649v545h264v-1366h-264v590h-649v-590h-265z" />
<glyph unicode="I" horiz-adv-x="550" d="M143 0v1366h265v-1366h-265z" />
<glyph unicode="J" horiz-adv-x="1017" d="M23 150l159 176q98 -119 234 -119q102 0 159.5 63.5t57.5 178.5v917h264v-932q0 -219 -121 -343t-338 -124q-256 0 -415 183z" />
<glyph unicode="K" horiz-adv-x="1327" d="M143 0v1366h265v-612l520 612h303l-486 -551l560 -815h-316l-422 639l-159 -184v-455h-265z" />
<glyph unicode="L" horiz-adv-x="1130" d="M143 0v1366h265v-1133h673v-233h-938z" />
<glyph unicode="M" horiz-adv-x="1638" d="M121 0l63 1366h254l381 -666l381 666h252l64 -1366h-263l-36 965l-338 -590h-134l-333 579l-39 -954h-252z" />
<glyph unicode="N" horiz-adv-x="1458" d="M143 0v1366h246l668 -950v950h258v-1366h-246l-668 952v-952h-258z" />
<glyph unicode="O" horiz-adv-x="1597" d="M88 684q0 154 53.5 284t150.5 226t226 150.5t281 54.5t280.5 -54.5t226 -151.5t150.5 -227t53 -284q0 -152 -53 -282t-149.5 -227t-225.5 -151.5t-280 -54.5q-152 0 -282 54.5t-226 151.5t-150.5 227t-54.5 284zM365 684q0 -139 56 -247.5t155.5 -170t224.5 -61.5 t222 61.5t153.5 170t56.5 245.5q0 139 -56.5 246.5t-153.5 170t-222 62.5t-224.5 -61.5t-155.5 -169t-56 -246.5z" />
<glyph unicode="P" horiz-adv-x="1200" d="M143 0v1366h492q225 0 354 -113.5t129 -314.5t-128 -317.5t-347 -116.5h-240v-504h-260zM403 719h213q115 0 176.5 56.5t61.5 158.5t-62.5 159.5t-175.5 57.5h-213v-432z" />
<glyph unicode="Q" horiz-adv-x="1597" d="M88 684q0 154 53.5 284t150.5 226t226 150.5t281 54.5t280.5 -54.5t226 -151.5t150.5 -227t53 -284q0 -160 -59 -296t-164 -232l158 -187l-144 -121l-167 199q-74 -37 -158 -57.5t-174 -20.5q-152 0 -282 54.5t-226 151.5t-150.5 227t-54.5 284zM365 678q0 -139 56 -250 t155.5 -173t224.5 -62q94 0 176 36l-180 213l143 123l184 -219q51 63 80 147.5t29 182.5q0 141 -56.5 250.5t-153.5 172t-222 62.5t-224.5 -62.5t-155.5 -171t-56 -249.5z" />
<glyph unicode="R" horiz-adv-x="1243" d="M143 0v1366h496q225 0 353 -112.5t128 -309.5q0 -137 -63.5 -235.5t-175.5 -147.5l309 -561h-291l-264 518h-234v-518h-258zM401 731h222q113 0 175 54.5t62 154.5q0 102 -62.5 157.5t-174.5 55.5h-222v-422z" />
<glyph unicode="S" horiz-adv-x="1202" d="M76 186l147 179q170 -172 377 -172q115 0 179.5 49t64.5 135q0 78 -57.5 127t-192.5 84l-78 20q-184 47 -277.5 140.5t-93.5 242.5q0 123 59.5 214t167 142.5t251.5 51.5q139 0 258.5 -48t195.5 -137l-147 -172q-125 131 -307 132q-100 0 -157.5 -42t-57.5 -120 q0 -66 53 -108t186 -77l76 -20q190 -51 289.5 -155.5t99.5 -260.5q0 -127 -64.5 -222t-180 -148.5t-269.5 -53.5t-288 56.5t-234 162.5z" />
<glyph unicode="T" horiz-adv-x="1273" d="M45 1133v233h1184v-233h-461v-1133h-264v1133h-459z" />
<glyph unicode="U" horiz-adv-x="1378" d="M123 530v836h264v-834q0 -160 77 -242.5t224 -82.5q303 0 303 325v834h264v-836q0 -266 -149.5 -414.5t-417.5 -148.5q-266 0 -415.5 148.5t-149.5 414.5z" />
<glyph unicode="V" horiz-adv-x="1347" d="M23 1366h288l371 -1053l369 1053h274l-516 -1366h-270z" />
<glyph unicode="W" horiz-adv-x="1849" d="M31 1366h282l228 -1022l266 985h248l266 -989l225 1026h273l-357 -1366h-280l-256 946l-258 -946h-281z" />
<glyph unicode="X" horiz-adv-x="1300" d="M23 0l471 711l-437 655h305l295 -461l293 461h293l-434 -653l469 -713h-305l-326 514l-325 -514h-299z" />
<glyph unicode="Y" horiz-adv-x="1280" d="M27 1366h292l328 -569l326 569h278l-479 -782v-584h-264v580z" />
<glyph unicode="Z" horiz-adv-x="1271" d="M90 0v215l748 918h-707v233h1036v-215l-749 -918h764v-233h-1092z" />
<glyph unicode="[" horiz-adv-x="679" d="M154 -190v1636h479v-205h-234v-1227h234v-204h-479z" />
<glyph unicode="\" horiz-adv-x="884" d="M45 1399h256l539 -1432h-256z" />
<glyph unicode="]" horiz-adv-x="679" d="M49 14h232v1227h-232v205h477v-1636h-477v204z" />
<glyph unicode="^" d="M90 616l363 750h211l362 -750h-244l-223 498l-225 -498h-244z" />
<glyph unicode="_" horiz-adv-x="1024" d="M0 -139h1024v-230h-1024v230z" />
<glyph unicode="`" horiz-adv-x="587" d="M68 1432h283l168 -326h-213z" />
<glyph unicode="a" horiz-adv-x="1048" d="M66 272q0 158 113.5 247t330.5 89q41 0 88 -3t98 -11v27q0 170 -221 170q-156 0 -270 -84l-99 161q166 119 396 119q209 0 322.5 -96t113.5 -270v-621h-219l-10 113q-47 -68 -127 -106t-187 -38q-147 0 -238 83t-91 220zM303 297q0 -70 44 -105.5t122 -35.5 q96 0 161.5 54t65.5 132v98q-86 14 -157 15q-113 0 -174.5 -39t-61.5 -119z" />
<glyph unicode="b" horiz-adv-x="1150" d="M117 47v1319h250v-512q98 133 288 133q127 0 223.5 -60.5t149.5 -169t53 -253.5q0 -166 -69.5 -286t-194.5 -184.5t-295 -64.5q-106 0 -216.5 21.5t-188.5 56.5zM367 205q76 -20 155 -21q145 0 226 81t81 224q0 127 -62 204t-169 77q-100 0 -165.5 -67.5t-65.5 -180.5 v-317z" />
<glyph unicode="c" horiz-adv-x="1009" d="M70 475q0 150 68.5 264.5t187 181t268.5 66.5q221 0 369 -160l-140 -157q-88 100 -221 100q-121 0 -199.5 -82t-78.5 -211q0 -127 78.5 -209t201.5 -82q135 0 230 105l135 -162q-143 -160 -381 -160q-150 0 -267.5 64.5t-184 179.5t-66.5 262z" />
<glyph unicode="d" horiz-adv-x="1150" d="M70 451q0 158 64.5 278.5t176 189t252.5 68.5q117 0 221 -59v438h250v-1366h-229l-10 119q-45 -72 -123 -111t-178 -39q-125 0 -221.5 60.5t-149.5 169.5t-53 252zM322 469q0 -131 63.5 -207t169.5 -76q102 0 165.5 69t63.5 179v281q-88 55 -188 55q-125 0 -199.5 -81 t-74.5 -220z" />
<glyph unicode="e" horiz-adv-x="1110" d="M82 473q0 152 62.5 267.5t173 181t251.5 65.5t249 -66.5t168.5 -186.5t60.5 -279v-52h-719q14 -109 91 -170t202 -61q160 0 290 107l109 -156q-74 -74 -183.5 -114t-234.5 -40q-156 0 -273.5 62.5t-182 176t-64.5 265.5zM330 563h477q-12 101 -73.5 158t-158.5 57 q-100 0 -165.5 -58t-79.5 -157z" />
<glyph unicode="f" horiz-adv-x="706" d="M27 760v196h161v45q0 186 99.5 291t275.5 105q158 0 277 -97l-97 -163q-70 59 -147 59q-158 0 -158 -188v-52h248v-196h-248v-760h-250v760h-161z" />
<glyph unicode="g" horiz-adv-x="1148" d="M70 461q0 162 70.5 279.5t199.5 182t303 64.5q96 0 200.5 -19.5t190.5 -54.5v-872q0 -236 -131 -358.5t-381 -122.5q-244 0 -403 123l100 176q135 -94 293 -95q276 1 276 261v100q-96 -135 -294 -135q-127 0 -222.5 59.5t-148.5 164.5t-53 247zM319 469q0 -125 65 -198.5 t171 -73.5q102 0 165.5 67t63.5 178v308q-82 20 -147 20q-147 0 -232.5 -79t-85.5 -222z" />
<glyph unicode="h" horiz-adv-x="1138" d="M117 0v1366h250v-537q47 76 129 117t184 41q164 0 256 -104.5t92 -290.5v-592h-250v549q0 217 -184 217q-104 0 -165.5 -72.5t-61.5 -199.5v-494h-250z" />
<glyph unicode="i" horiz-adv-x="483" d="M109 1110v236h264v-236h-264zM117 0v956h250v-956h-250z" />
<glyph unicode="j" horiz-adv-x="483" d="M-213 -365l90 177q33 -23 60.5 -32t58.5 -9q63 0 92 44t29 142v1001h250v-1003q0 -393 -334 -393q-76 0 -134.5 19.5t-111.5 53.5zM109 1110v236h264v-236h-264z" />
<glyph unicode="k" horiz-adv-x="1064" d="M117 0v1366h250v-768l354 358h285l-363 -356l406 -600h-285l-289 449l-108 -109v-340h-250z" />
<glyph unicode="l" horiz-adv-x="483" d="M117 0v1366h250v-1366h-250z" />
<glyph unicode="m" horiz-adv-x="1757" d="M117 0v956h229l12 -133q43 76 123 120t185 44q215 0 290 -178q49 86 134.5 132t197.5 46q170 0 264.5 -104.5t94.5 -292.5v-590h-250v549q0 217 -174 217q-100 0 -157.5 -72.5t-57.5 -199.5v-494h-250v549q0 106 -46 161.5t-130 55.5q-98 0 -156.5 -72.5t-58.5 -199.5 v-494h-250z" />
<glyph unicode="n" horiz-adv-x="1138" d="M117 0v956h229l12 -131q47 76 130 119t190 43q166 0 258 -104.5t92 -290.5v-592h-250v549q0 217 -184 217q-104 0 -165.5 -72.5t-61.5 -199.5v-494h-250z" />
<glyph unicode="o" horiz-adv-x="1171" d="M70 479q0 147 67.5 262t184 180.5t264.5 65.5q147 0 264 -65.5t184.5 -180t67.5 -262.5q0 -145 -67.5 -261t-184.5 -182.5t-264 -66.5t-264 66.5t-184.5 181.5t-67.5 262zM319 477q0 -129 75 -210t192 -81q115 0 189.5 81t74.5 212q0 129 -74 210t-190 81 q-117 0 -192 -81t-75 -212z" />
<glyph unicode="p" horiz-adv-x="1150" d="M117 -410v1366h229l12 -110q96 141 299 141q127 0 222.5 -60.5t148.5 -169t53 -251.5q0 -156 -62.5 -278t-172 -190.5t-252.5 -68.5q-119 0 -227 58v-437h-250zM367 236q90 -53 188 -54q127 0 200.5 83t73.5 222q0 129 -62 205t-171 76q-100 0 -164.5 -67.5t-64.5 -178.5 v-286z" />
<glyph unicode="q" horiz-adv-x="1150" d="M70 451q0 166 70.5 286.5t199.5 185t305 64.5q100 0 206.5 -20.5t182.5 -53.5v-1323h-250v514q-45 -63 -119.5 -99t-170.5 -36q-127 0 -223.5 59.5t-148.5 168t-52 254.5zM322 465q0 -127 63.5 -203t169.5 -76q102 0 165.5 68t63.5 178v320q-76 18 -147 18 q-147 0 -231 -80t-84 -225z" />
<glyph unicode="r" horiz-adv-x="778" d="M117 0v956h229l12 -149q49 78 126 121t169 43q29 0 55.5 -3t49.5 -12l-37 -223q-23 10 -47.5 13.5t-46.5 3.5q-113 0 -186.5 -75t-73.5 -196v-479h-250z" />
<glyph unicode="s" horiz-adv-x="978" d="M57 111l117 168q66 -53 141.5 -85t167.5 -32q176 0 176 98q0 49 -42 77t-150 48l-68 14q-150 31 -221.5 105t-71.5 178q0 139 112 222t300 83q209 0 356 -119l-98 -163q-57 43 -123.5 66.5t-142.5 23.5q-164 0 -164 -95q0 -45 37 -68.5t131 -41.5l74 -17 q166 -33 240.5 -106.5t74.5 -181.5q0 -156 -118.5 -236t-311.5 -80q-127 0 -236.5 38t-179.5 104z" />
<glyph unicode="t" horiz-adv-x="811" d="M33 760v196h162v314h249v-314h263v-196h-263v-428q0 -158 127 -158q72 0 136 55l94 -159q-113 -100 -275 -101q-162 0 -246.5 90.5t-84.5 264.5v436h-162z" />
<glyph unicode="u" horiz-adv-x="1130" d="M111 365v591h249v-544q0 -106 46.5 -164t132.5 -58q102 0 163.5 78t61.5 209v479h250v-956h-228l-12 135q-47 -78 -130 -122t-185 -44q-164 0 -256 105t-92 291z" />
<glyph unicode="v" horiz-adv-x="1081" d="M12 956h279l256 -680l256 680h264l-410 -956h-233z" />
<glyph unicode="w" horiz-adv-x="1538" d="M23 956h258l194 -663l207 663h186l209 -661l193 661h248l-328 -956h-221l-199 614l-199 -614h-223z" />
<glyph unicode="x" horiz-adv-x="1040" d="M16 0l361 489l-334 467h289l196 -297l201 297h268l-331 -452l360 -504h-295l-217 332l-223 -332h-275z" />
<glyph unicode="y" horiz-adv-x="1081" d="M12 956h279l266 -684l246 684h264l-440 -1050q-80 -190 -162 -268t-205 -78q-129 0 -233 73l90 174q63 -43 121 -43q51 0 91 38t79 137l30 75z" />
<glyph unicode="z" horiz-adv-x="1003" d="M94 0v180l520 580h-501v196h800v-180l-520 -577h527v-199h-826z" />
<glyph unicode="{" horiz-adv-x="645" d="M59 559v139q143 10 156 162l27 338q8 96 31.5 153.5t70.5 94.5h250q-43 -43 -67.5 -100.5t-30.5 -135.5l-31 -364q-16 -178 -160 -217q143 -39 160 -217l29 -357q12 -156 100 -243h-250q-47 37 -70.5 94t-31.5 153l-27 338q-12 152 -156 162z" />
<glyph unicode="|" horiz-adv-x="509" d="M143 -336v2042h224v-2042h-224z" />
<glyph unicode="}" horiz-adv-x="645" d="M49 -188q88 88 101 243l30 357q14 176 160 217q-145 39 -160 217l-33 364q-12 152 -98 236h252q47 -37 70.5 -94.5t31.5 -153.5l27 -338q12 -152 154 -162v-139q-141 -10 -154 -162l-27 -338q-8 -96 -31.5 -153.5t-70.5 -93.5h-252z" />
<glyph unicode="~" d="M84 666q127 152 285 151q41 0 86 -12t108 -43q47 -23 86 -35t76 -12q94 0 182 90l125 -150q-127 -152 -282 -151q-41 0 -85 12t-110 43q-47 23 -87 35t-77 12q-47 0 -91 -21.5t-91 -68.5z" />
<glyph unicode="&#xa1;" horiz-adv-x="550" d="M135 -408l19 947h241l21 -947h-281zM135 684v274h279v-274h-279z" />
<glyph unicode="&#xa2;" d="M135 639q0 133 54.5 240.5t149.5 177t220 90.5v176h160v-174q180 -20 303 -162l-156 -158q-57 78 -147 101v-570q92 20 158 105l151 -164q-117 -137 -309 -160v-174h-160v176q-127 18 -222 86t-148.5 172.5t-53.5 237.5zM385 643q0 -100 48 -173t126 -101v553 q-78 -29 -126 -103t-48 -176z" />
<glyph unicode="&#xa3;" d="M76 573v170h147v127q0 213 114 333t318 120q217 0 369 -149l-145 -173q-88 94 -203 95q-197 0 -197 -246v-107h381v-170h-381v-356h565v-217h-821v573h-147z" />
<glyph unicode="&#xa4;" d="M78 328l133 133q-59 96 -59 213q0 115 57 213l-131 131l133 137l133 -133q98 61 215 61t215 -61l133 133l133 -137l-131 -131q57 -98 58 -213q0 -117 -60 -213l133 -133l-133 -135l-133 131q-98 -59 -215 -60q-117 0 -215 60l-133 -131zM348 674q0 -92 60.5 -153.5 t150.5 -61.5t150.5 61.5t60.5 153.5q0 90 -60.5 151.5t-150.5 61.5t-150.5 -61.5t-60.5 -151.5z" />
<glyph unicode="&#xa5;" d="M14 1290h281l268 -573l268 573h273l-336 -606h215v-152h-293v-137h293v-151h-293v-244h-262v244h-293v151h293v137h-293v152h215z" />
<glyph unicode="&#xa6;" horiz-adv-x="509" d="M143 -336v776h224v-776h-224zM143 930v776h224v-776h-224z" />
<glyph unicode="&#xa7;" horiz-adv-x="989" d="M121 367l131 198l383 -246q236 -154 235 -378q0 -106 -51 -193.5t-142 -137.5t-210 -50q-178 0 -313 116l118 179q98 -76 179 -76q76 0 123 45t47 119q0 98 -121 180zM131 1018q0 109 51 194.5t142.5 136t210.5 50.5q178 0 313 -117l-119 -178q-98 76 -178 76 q-76 0 -123 -45t-47 -117q0 -100 123 -182l377 -244l-131 -199l-383 248q-236 154 -236 377z" />
<glyph unicode="&#xa8;" horiz-adv-x="747" d="M70 1126v215h233v-215h-233zM447 1126v215h233v-215h-233z" />
<glyph unicode="&#xa9;" horiz-adv-x="1656" d="M111 684q0 152 54 282t152.5 227t229.5 151.5t284 54.5q152 0 282 -54.5t227.5 -151.5t151.5 -227t54 -282q0 -154 -54 -284t-151.5 -227t-227.5 -151.5t-282 -54.5q-154 0 -284.5 54.5t-229 151.5t-152.5 227t-54 284zM270 684q0 -166 73 -294t199 -201.5t287 -73.5 q162 0 288 73.5t199 201.5t73 294q0 164 -73 292t-199 201.5t-288 73.5t-287.5 -73.5t-198.5 -201.5t-73 -292zM453 678q0 115 51 204t141 140t205 51q174 0 283 -127l-111 -112q-70 88 -174 88q-94 0 -156.5 -68t-62.5 -172t61.5 -171t159.5 -67q55 0 101 24t79 64 l111 -112q-109 -127 -293 -127q-117 0 -206 49t-139 136t-50 200z" />
<glyph unicode="&#xaa;" horiz-adv-x="784" d="M82 850q0 102 83 160.5t226 58.5q55 0 109 -10v18q0 102 -140 103q-98 0 -182 -60l-76 117q55 43 127 64.5t152 21.5q139 0 216 -63.5t77 -178.5v-405h-162l-8 69q-31 -41 -86.5 -64.5t-118.5 -23.5q-98 0 -157.5 53.5t-59.5 139.5zM256 866q0 -80 98 -80q61 0 103.5 31 t42.5 78v55q-53 10 -92 11q-152 -1 -152 -95z" />
<glyph unicode="&#xab;" horiz-adv-x="1128" d="M117 487l223 402h242l-211 -402l211 -401h-242zM539 487l223 402h242l-211 -402l211 -401h-242z" />
<glyph unicode="&#xac;" d="M131 555v205h838v-477h-207v272h-631z" />
<glyph unicode="&#xad;" horiz-adv-x="909" d="M139 457v233h633v-233h-633z" />
<glyph unicode="&#xae;" horiz-adv-x="1071" d="M68 936q0 137 59 241.5t164.5 163t243.5 58.5q139 0 243.5 -58.5t163.5 -163t59 -241.5t-59 -241.5t-163.5 -163t-243.5 -58.5q-137 0 -243 58.5t-165 163t-59 241.5zM184 936q0 -162 96.5 -260t254.5 -98q160 0 256 98t96 260q0 164 -96.5 261t-255.5 97 q-158 0 -254.5 -97t-96.5 -261zM373 723v448h182q78 0 121 -38.5t43 -104.5q0 -94 -80 -131l106 -174h-118l-86 158h-64v-158h-104zM477 961h64q74 0 73 63q1 63 -73 63h-64v-126z" />
<glyph unicode="&#xaf;" horiz-adv-x="710" d="M69 1145v178h574v-178h-574z" />
<glyph unicode="&#xb0;" horiz-adv-x="706" d="M63 1079q0 125 82 206t209 81t209 -81t82 -206q0 -123 -82 -204.5t-209 -81.5q-84 0 -149.5 37.5t-103.5 102t-38 146.5zM223 1079q0 -61 37 -98t94 -37q59 0 94 37t35 98t-34.5 98t-94.5 37q-57 0 -94 -37t-37 -98z" />
<glyph unicode="&#xb1;" d="M139 0v205h838v-205h-838zM139 612v205h316v309h207v-309h315v-205h-315v-309h-207v309h-316z" />
<glyph unicode="&#xb2;" horiz-adv-x="737" d="M74 1356q102 139 282 139q125 0 200 -56.5t75 -152.5q0 -63 -39 -119.5t-131 -116.5l-60 -36q-84 -57 -104 -91h338v-147h-547v82q0 68 42 125t134 117l60 36q66 41 92 71t26 58q0 35 -26.5 54.5t-71.5 19.5q-90 0 -154 -82z" />
<glyph unicode="&#xb3;" horiz-adv-x="737" d="M51 837l86 134q82 -63 172 -64q59 0 96 26.5t37 71.5q0 84 -123 84q-23 0 -47 -3t-47 -11l-39 84l209 172h-278v143h485v-129l-180 -145q96 -6 152.5 -59.5t56.5 -143.5q0 -113 -86 -177t-228 -64q-154 0 -266 81z" />
<glyph unicode="&#xb4;" horiz-adv-x="587" d="M69 1106l166 326h283l-236 -326h-213z" />
<glyph unicode="&#xb5;" horiz-adv-x="1136" d="M117 -410v1366h250v-546q0 -221 178 -222q102 0 163.5 77t61.5 206v485h250v-956h-229l-11 123q-41 -66 -112.5 -104.5t-155.5 -38.5q-90 0 -150 55v-445h-245z" />
<glyph unicode="&#xb6;" horiz-adv-x="1130" d="M76 991q0 184 125 279.5t366 95.5h47v-752h-47q-491 0 -491 377zM377 -250v774q53 -12 102 -16t135 -4v-754h-237zM750 -250v1616h237v-1616h-237z" />
<glyph unicode="&#xb7;" horiz-adv-x="557" d="M131 332v281h293v-281h-293z" />
<glyph unicode="&#xb8;" horiz-adv-x="612" d="M67 -467l27 129q39 -16 78 -23.5t76 -7.5q118 0 118 70t-112 70q-33 0 -70 -6.5t-72 -20.5l25 123q68 27 154 27q119 0 185.5 -49.5t66.5 -135.5q0 -94 -79 -151.5t-206 -57.5q-47 0 -95 8.5t-96 24.5z" />
<glyph unicode="&#xb9;" horiz-adv-x="737" d="M109 1339l253 135h170v-698h-188v512l-166 -84z" />
<glyph unicode="&#xba;" horiz-adv-x="847" d="M88 991q0 150 93 241t243 91q152 0 245 -91t93 -241t-93.5 -242t-244.5 -92q-150 0 -243 92t-93 242zM264 991q0 -80 43 -126t117 -46t117 46t43 126t-43 125t-117 45t-117 -45t-43 -125z" />
<glyph unicode="&#xbb;" horiz-adv-x="1128" d="M125 86l211 401l-211 402h242l223 -402l-223 -401h-242zM547 86l211 401l-211 402h242l223 -402l-223 -401h-242z" />
<glyph unicode="&#xbc;" horiz-adv-x="1748" d="M109 1155l253 135h170v-698h-188v512l-166 -84zM352 0l823 1290h221l-819 -1290h-225zM1065 129v137l344 432h199v-430h84v-139h-84v-129h-174v129h-369zM1219 262h219v270z" />
<glyph unicode="&#xbd;" horiz-adv-x="1748" d="M109 1155l253 135h170v-698h-188v512l-166 -84zM352 0l823 1290h221l-819 -1290h-225zM1086 580q102 139 282 139q125 0 200 -56.5t75 -152.5q0 -63 -39 -119.5t-131 -116.5l-60 -36q-84 -57 -104 -91h338v-147h-547v82q0 68 42 125t134 117l60 36q66 41 92 71t26 58 q0 35 -26.5 54.5t-71.5 19.5q-90 0 -154 -82z" />
<glyph unicode="&#xbe;" horiz-adv-x="1748" d="M51 653l86 134q82 -63 172 -64q59 0 96 26.5t37 71.5q0 84 -123 84q-23 0 -47 -3t-47 -11l-39 84l209 172h-278v143h485v-129l-180 -145q96 -6 152.5 -59.5t56.5 -143.5q0 -113 -86 -177t-228 -64q-154 0 -266 81zM352 0l823 1290h221l-819 -1290h-225zM1065 129v137 l344 432h199v-430h84v-139h-84v-129h-174v129h-369zM1219 262h219v270z" />
<glyph unicode="&#xbf;" horiz-adv-x="1069" d="M68 -82q0 96 48 172t158 160l37 29q76 57 104.5 103t28.5 112v45h240v-52q0 -111 -39 -188.5t-133 -148.5l-39 -29q-84 -63 -115.5 -104.5t-31.5 -88.5q0 -68 53 -107.5t147 -39.5q170 0 295 135l152 -154q-178 -203 -463 -202q-201 0 -321.5 98t-120.5 260zM422 684v274 h280v-274h-280z" />
<glyph unicode="&#xc0;" horiz-adv-x="1370" d="M23 0l518 1366h290l517 -1366h-287l-119 342h-526l-119 -342h-274zM326 1786h301l184 -301h-217zM485 545h387l-192 557z" />
<glyph unicode="&#xc1;" horiz-adv-x="1370" d="M23 0l518 1366h290l517 -1366h-287l-119 342h-526l-119 -342h-274zM485 545h387l-192 557zM559 1485l184 301h301l-268 -301h-217z" />
<glyph unicode="&#xc2;" horiz-adv-x="1370" d="M23 0l518 1366h290l517 -1366h-287l-119 342h-526l-119 -342h-274zM340 1485l244 301h208l240 -301h-223l-123 166l-123 -166h-223zM485 545h387l-192 557z" />
<glyph unicode="&#xc3;" horiz-adv-x="1370" d="M23 0l518 1366h290l517 -1366h-287l-119 342h-526l-119 -342h-274zM272 1630q119 139 267 139q39 0 75.5 -10t83.5 -39q88 -45 146 -45q41 0 76.5 17.5t74.5 60.5l105 -123q-121 -139 -269 -139q-70 0 -159 49q-43 23 -78 35t-66 12q-80 0 -153 -80zM485 545h387 l-192 557z" />
<glyph unicode="&#xc4;" horiz-adv-x="1370" d="M23 0l518 1366h290l517 -1366h-287l-119 342h-526l-119 -342h-274zM356 1516v229h244v-229h-244zM485 545h387l-192 557zM772 1516v229h246v-229h-246z" />
<glyph unicode="&#xc5;" horiz-adv-x="1370" d="M23 0l503 1329q-49 35 -76.5 89t-27.5 122q0 113 73.5 185.5t190.5 72.5q115 0 188.5 -72.5t73.5 -185.5q0 -68 -27.5 -122t-76.5 -89l504 -1329h-287l-119 342h-526l-119 -342h-274zM485 545h387l-192 557zM582 1540q0 -51 27.5 -80.5t76.5 -29.5q47 0 74.5 29.5 t27.5 80.5t-27.5 81t-74.5 30q-49 0 -76.5 -30t-27.5 -81z" />
<glyph unicode="&#xc6;" horiz-adv-x="2007" d="M23 0l819 1366h1038v-229h-641v-326h483v-217h-483v-365h690v-229h-942v328h-489l-191 -328h-284zM614 530h373v611h-18z" />
<glyph unicode="&#xc7;" horiz-adv-x="1390" d="M88 680q0 209 90 371.5t247 255t359 92.5q172 0 314.5 -71t230.5 -198l-178 -161q-129 193 -352 192q-127 0 -225.5 -60.5t-153.5 -168t-55 -250.5q0 -141 54 -248.5t152.5 -168t225.5 -60.5q213 0 366 194l172 -155q-92 -133 -234.5 -205t-318.5 -72q-203 0 -359.5 91.5 t-245.5 252t-89 369.5zM544 -479l29 139q80 -31 154 -31q112 0 112 68q0 63 -106 63q-35 0 -73 -7t-73 -17l25 129q82 29 168 29q117 0 185.5 -51.5t68.5 -141.5q0 -96 -81 -155.5t-214 -59.5q-113 0 -195 35z" />
<glyph unicode="&#xc8;" horiz-adv-x="1173" d="M143 0v1366h904v-229h-641v-326h483v-217h-483v-365h690v-229h-953zM230 1786h301l184 -301h-217z" />
<glyph unicode="&#xc9;" horiz-adv-x="1173" d="M143 0v1366h904v-229h-641v-326h483v-217h-483v-365h690v-229h-953zM463 1485l184 301h301l-268 -301h-217z" />
<glyph unicode="&#xca;" horiz-adv-x="1173" d="M143 0v1366h904v-229h-641v-326h483v-217h-483v-365h690v-229h-953zM244 1485l244 301h208l240 -301h-223l-123 166l-123 -166h-223z" />
<glyph unicode="&#xcb;" horiz-adv-x="1173" d="M143 0v1366h904v-229h-641v-326h483v-217h-483v-365h690v-229h-953zM260 1516v229h244v-229h-244zM676 1516v229h246v-229h-246z" />
<glyph unicode="&#xcc;" horiz-adv-x="550" d="M-86 1786h301l184 -301h-217zM143 0v1366h265v-1366h-265z" />
<glyph unicode="&#xcd;" horiz-adv-x="550" d="M143 0v1366h265v-1366h-265zM147 1485l184 301h301l-268 -301h-217z" />
<glyph unicode="&#xce;" horiz-adv-x="550" d="M-72 1485l244 301h208l240 -301h-223l-123 166l-123 -166h-223zM143 0v1366h265v-1366h-265z" />
<glyph unicode="&#xcf;" horiz-adv-x="550" d="M-56 1516v229h244v-229h-244zM143 0v1366h265v-1366h-265zM360 1516v229h246v-229h-246z" />
<glyph unicode="&#xd0;" horiz-adv-x="1476" d="M18 608v174h140v584h487q233 0 400 -80t255.5 -232.5t88.5 -367.5t-89.5 -368.5t-256 -235.5t-400.5 -82h-485v608h-140zM422 233h215q227 0 350 118t123 333t-124 332t-353 117h-211v-351h295v-174h-295v-375z" />
<glyph unicode="&#xd1;" horiz-adv-x="1458" d="M143 0v1366h246l668 -950v950h258v-1366h-246l-668 952v-952h-258zM315 1630q119 139 267 139q39 0 75.5 -10t83.5 -39q88 -45 146 -45q41 0 76.5 17.5t74.5 60.5l105 -123q-121 -139 -269 -139q-70 0 -159 49q-43 23 -78 35t-66 12q-80 0 -153 -80z" />
<glyph unicode="&#xd2;" horiz-adv-x="1597" d="M88 684q0 154 53.5 284t150.5 226t226 150.5t281 54.5t280.5 -54.5t226 -151.5t150.5 -227t53 -284q0 -152 -53 -282t-149.5 -227t-225.5 -151.5t-280 -54.5q-152 0 -282 54.5t-226 151.5t-150.5 227t-54.5 284zM365 684q0 -139 56 -247.5t155.5 -170t224.5 -61.5 t222 61.5t153.5 170t56.5 245.5q0 139 -56.5 246.5t-153.5 170t-222 62.5t-224.5 -61.5t-155.5 -169t-56 -246.5zM441 1786h301l184 -301h-217z" />
<glyph unicode="&#xd3;" horiz-adv-x="1597" d="M88 684q0 154 53.5 284t150.5 226t226 150.5t281 54.5t280.5 -54.5t226 -151.5t150.5 -227t53 -284q0 -152 -53 -282t-149.5 -227t-225.5 -151.5t-280 -54.5q-152 0 -282 54.5t-226 151.5t-150.5 227t-54.5 284zM365 684q0 -139 56 -247.5t155.5 -170t224.5 -61.5 t222 61.5t153.5 170t56.5 245.5q0 139 -56.5 246.5t-153.5 170t-222 62.5t-224.5 -61.5t-155.5 -169t-56 -246.5zM674 1485l184 301h301l-268 -301h-217z" />
<glyph unicode="&#xd4;" horiz-adv-x="1597" d="M88 684q0 154 53.5 284t150.5 226t226 150.5t281 54.5t280.5 -54.5t226 -151.5t150.5 -227t53 -284q0 -152 -53 -282t-149.5 -227t-225.5 -151.5t-280 -54.5q-152 0 -282 54.5t-226 151.5t-150.5 227t-54.5 284zM365 684q0 -139 56 -247.5t155.5 -170t224.5 -61.5 t222 61.5t153.5 170t56.5 245.5q0 139 -56.5 246.5t-153.5 170t-222 62.5t-224.5 -61.5t-155.5 -169t-56 -246.5zM455 1485l244 301h208l240 -301h-223l-123 166l-123 -166h-223z" />
<glyph unicode="&#xd5;" horiz-adv-x="1597" d="M88 684q0 154 53.5 284t150.5 226t226 150.5t281 54.5t280.5 -54.5t226 -151.5t150.5 -227t53 -284q0 -152 -53 -282t-149.5 -227t-225.5 -151.5t-280 -54.5q-152 0 -282 54.5t-226 151.5t-150.5 227t-54.5 284zM365 684q0 -139 56 -247.5t155.5 -170t224.5 -61.5 t222 61.5t153.5 170t56.5 245.5q0 139 -56.5 246.5t-153.5 170t-222 62.5t-224.5 -61.5t-155.5 -169t-56 -246.5zM387 1630q119 139 267 139q39 0 75.5 -10t83.5 -39q88 -45 146 -45q41 0 76.5 17.5t74.5 60.5l105 -123q-121 -139 -269 -139q-70 0 -159 49q-43 23 -78 35 t-66 12q-80 0 -153 -80z" />
<glyph unicode="&#xd6;" horiz-adv-x="1597" d="M88 684q0 154 53.5 284t150.5 226t226 150.5t281 54.5t280.5 -54.5t226 -151.5t150.5 -227t53 -284q0 -152 -53 -282t-149.5 -227t-225.5 -151.5t-280 -54.5q-152 0 -282 54.5t-226 151.5t-150.5 227t-54.5 284zM365 684q0 -139 56 -247.5t155.5 -170t224.5 -61.5 t222 61.5t153.5 170t56.5 245.5q0 139 -56.5 246.5t-153.5 170t-222 62.5t-224.5 -61.5t-155.5 -169t-56 -246.5zM471 1516v229h244v-229h-244zM887 1516v229h246v-229h-246z" />
<glyph unicode="&#xd7;" d="M164 401l252 250l-252 250l143 143l252 -249l250 249l143 -143l-252 -250l252 -250l-143 -141l-250 250l-252 -250z" />
<glyph unicode="&#xd8;" horiz-adv-x="1597" d="M88 684q0 154 53.5 284t150.5 226t226 150.5t281 54.5q92 0 177 -20.5t161 -61.5l131 190l139 -96l-131 -190q109 -96 171 -235.5t62 -303.5q0 -152 -53 -282t-149.5 -227t-225.5 -151.5t-280 -54.5q-92 0 -178 20.5t-160 59.5l-131 -188l-142 96l132 190 q-109 96 -171.5 235.5t-62.5 303.5zM365 684q0 -96 27.5 -179t78.5 -145l524 754q-90 47 -194 47q-125 0 -224.5 -61.5t-155.5 -169t-56 -246.5zM604 252q90 -47 197 -47q125 0 222 61.5t153.5 170t56.5 245.5q0 96 -27.5 179t-79.5 145z" />
<glyph unicode="&#xd9;" horiz-adv-x="1378" d="M123 530v836h264v-834q0 -160 77 -242.5t224 -82.5q303 0 303 325v834h264v-836q0 -266 -149.5 -414.5t-417.5 -148.5q-266 0 -415.5 148.5t-149.5 414.5zM324 1786h301l184 -301h-217z" />
<glyph unicode="&#xda;" horiz-adv-x="1378" d="M123 530v836h264v-834q0 -160 77 -242.5t224 -82.5q303 0 303 325v834h264v-836q0 -266 -149.5 -414.5t-417.5 -148.5q-266 0 -415.5 148.5t-149.5 414.5zM557 1485l184 301h301l-268 -301h-217z" />
<glyph unicode="&#xdb;" horiz-adv-x="1378" d="M123 530v836h264v-834q0 -160 77 -242.5t224 -82.5q303 0 303 325v834h264v-836q0 -266 -149.5 -414.5t-417.5 -148.5q-266 0 -415.5 148.5t-149.5 414.5zM338 1485l244 301h208l240 -301h-223l-123 166l-123 -166h-223z" />
<glyph unicode="&#xdc;" horiz-adv-x="1378" d="M123 530v836h264v-834q0 -160 77 -242.5t224 -82.5q303 0 303 325v834h264v-836q0 -266 -149.5 -414.5t-417.5 -148.5q-266 0 -415.5 148.5t-149.5 414.5zM354 1516v229h244v-229h-244zM770 1516v229h246v-229h-246z" />
<glyph unicode="&#xdd;" horiz-adv-x="1280" d="M27 1366h292l328 -569l326 569h278l-479 -782v-584h-264v580zM512 1485l184 301h301l-268 -301h-217z" />
<glyph unicode="&#xde;" horiz-adv-x="1200" d="M143 0v1366h260v-236h232q225 0 354 -114.5t129 -315.5t-128 -316.5t-347 -115.5h-240v-268h-260zM403 483h213q115 0 176.5 56.5t61.5 158.5t-62.5 159.5t-175.5 57.5h-213v-432z" />
<glyph unicode="&#xdf;" horiz-adv-x="1218" d="M113 0v956q0 213 116.5 327t331.5 114q190 0 305 -86t115 -230q0 -63 -31.5 -124.5t-99.5 -135.5q-41 -41 -57.5 -68.5t-16.5 -56.5q0 -39 27.5 -65.5t91.5 -48.5l35 -13q127 -45 184 -111.5t57 -174.5q0 -150 -100 -232t-276 -82q-190 0 -322 103l105 164 q94 -76 202 -76q150 0 150 112q0 47 -34 80t-124 66l-41 16q-104 41 -151.5 96.5t-47.5 137.5q0 57 26 108t89 121q55 59 73.5 97t18.5 71q0 66 -47 100.5t-127 34.5q-207 0 -207 -250v-950h-245z" />
<glyph unicode="&#xe0;" horiz-adv-x="1046" d="M66 272q0 158 113.5 247t330.5 89q41 0 88 -3t98 -11v27q0 170 -221 170q-156 0 -270 -84l-99 161q166 119 396 119q209 0 322.5 -96t113.5 -270v-621h-219l-10 113q-47 -68 -127 -106t-187 -38q-147 0 -238 83t-91 220zM176 1432h283l168 -326h-213zM303 297 q0 -70 44 -105.5t122 -35.5q96 0 161.5 54t65.5 132v98q-86 14 -157 15q-113 0 -174.5 -39t-61.5 -119z" />
<glyph unicode="&#xe1;" horiz-adv-x="1046" d="M66 272q0 158 113.5 247t330.5 89q41 0 88 -3t98 -11v27q0 170 -221 170q-156 0 -270 -84l-99 161q166 119 396 119q209 0 322.5 -96t113.5 -270v-621h-219l-10 113q-47 -68 -127 -106t-187 -38q-147 0 -238 83t-91 220zM303 297q0 -70 44 -105.5t122 -35.5 q96 0 161.5 54t65.5 132v98q-86 14 -157 15q-113 0 -174.5 -39t-61.5 -119zM399 1106l166 326h283l-236 -326h-213z" />
<glyph unicode="&#xe2;" horiz-adv-x="1046" d="M66 272q0 158 113.5 247t330.5 89q41 0 88 -3t98 -11v27q0 170 -221 170q-156 0 -270 -84l-99 161q166 119 396 119q209 0 322.5 -96t113.5 -270v-621h-219l-10 113q-47 -68 -127 -106t-187 -38q-147 0 -238 83t-91 220zM199 1106l209 326h212l209 -326h-206l-109 194 l-109 -194h-206zM303 297q0 -70 44 -105.5t122 -35.5q96 0 161.5 54t65.5 132v98q-86 14 -157 15q-113 0 -174.5 -39t-61.5 -119z" />
<glyph unicode="&#xe3;" horiz-adv-x="1046" d="M66 272q0 158 113.5 247t330.5 89q41 0 88 -3t98 -11v27q0 170 -221 170q-156 0 -270 -84l-99 161q166 119 396 119q209 0 322.5 -96t113.5 -270v-621h-219l-10 113q-47 -68 -127 -106t-187 -38q-147 0 -238 83t-91 220zM125 1260q55 70 118.5 101.5t133.5 31.5 q35 0 69.5 -10.5t77.5 -36.5q45 -25 77 -36.5t65 -11.5q72 0 141 78l94 -112q-51 -70 -116.5 -103t-133.5 -33t-149 48q-84 49 -140 49q-76 0 -141 -78zM303 297q0 -70 44 -105.5t122 -35.5q96 0 161.5 54t65.5 132v98q-86 14 -157 15q-113 0 -174.5 -39t-61.5 -119z" />
<glyph unicode="&#xe4;" horiz-adv-x="1046" d="M66 272q0 158 113.5 247t330.5 89q41 0 88 -3t98 -11v27q0 170 -221 170q-156 0 -270 -84l-99 161q166 119 396 119q209 0 322.5 -96t113.5 -270v-621h-219l-10 113q-47 -68 -127 -106t-187 -38q-147 0 -238 83t-91 220zM209 1126v215h233v-215h-233zM303 297 q0 -70 44 -105.5t122 -35.5q96 0 161.5 54t65.5 132v98q-86 14 -157 15q-113 0 -174.5 -39t-61.5 -119zM586 1126v215h233v-215h-233z" />
<glyph unicode="&#xe5;" horiz-adv-x="1046" d="M66 272q0 158 113.5 247t330.5 89q41 0 88 -3t98 -11v27q0 170 -221 170q-156 0 -270 -84l-99 161q166 119 396 119q209 0 322.5 -96t113.5 -270v-621h-219l-10 113q-47 -68 -127 -106t-187 -38q-147 0 -238 83t-91 220zM281 1313q0 100 66.5 164.5t166.5 64.5 q102 0 167.5 -64.5t65.5 -164.5q0 -98 -65.5 -163t-167.5 -65q-100 0 -166.5 65t-66.5 163zM303 297q0 -70 44 -105.5t122 -35.5q96 0 161.5 54t65.5 132v98q-86 14 -157 15q-113 0 -174.5 -39t-61.5 -119zM420 1313q0 -45 26.5 -72t67.5 -27t67.5 27t26.5 72t-26.5 72.5 t-67.5 27.5t-67.5 -27.5t-26.5 -72.5z" />
<glyph unicode="&#xe6;" horiz-adv-x="1720" d="M66 270q0 152 110.5 241t333.5 89q43 0 89 -4t97 -10v35q0 170 -221 170q-156 0 -270 -84l-99 161q168 119 390 119q252 0 344 -162q57 78 147 120t199 42q139 0 245.5 -66.5t166 -186.5t59.5 -279v-52h-719q14 -109 91 -170t202 -61q162 0 291 107l108 -156 q-72 -70 -183.5 -112t-232.5 -42q-131 0 -235.5 50.5t-167.5 142.5q-131 -193 -379 -193q-170 0 -268 80t-98 221zM303 289q0 -63 43 -98t121 -35q100 0 164.5 54t64.5 136v86q-86 12 -155 12q-238 1 -238 -155zM940 563h477q-12 101 -73.5 158t-157.5 57q-98 0 -165 -58 t-81 -157z" />
<glyph unicode="&#xe7;" horiz-adv-x="1009" d="M70 475q0 150 68.5 264.5t187 181t268.5 66.5q221 0 369 -160l-140 -157q-88 100 -221 100q-121 0 -199.5 -82t-78.5 -211q0 -127 78.5 -209t201.5 -82q135 0 230 105l135 -162q-143 -160 -381 -160q-150 0 -267.5 64.5t-184 179.5t-66.5 262zM327 -467l27 129 q39 -16 78 -23.5t76 -7.5q118 0 118 70t-112 70q-33 0 -70 -6.5t-72 -20.5l25 123q68 27 154 27q119 0 185.5 -49.5t66.5 -135.5q0 -94 -79 -151.5t-206 -57.5q-47 0 -95 8.5t-96 24.5z" />
<glyph unicode="&#xe8;" horiz-adv-x="1103" d="M82 473q0 152 62.5 267.5t173 181t251.5 65.5t249 -66.5t168.5 -186.5t60.5 -279v-52h-719q14 -109 91 -170t202 -61q160 0 290 107l109 -156q-74 -74 -183.5 -114t-234.5 -40q-156 0 -273.5 62.5t-182 176t-64.5 265.5zM211 1432h283l168 -326h-213zM330 563h477 q-12 101 -73.5 158t-158.5 57q-100 0 -165.5 -58t-79.5 -157z" />
<glyph unicode="&#xe9;" horiz-adv-x="1103" d="M82 473q0 152 62.5 267.5t173 181t251.5 65.5t249 -66.5t168.5 -186.5t60.5 -279v-52h-719q14 -109 91 -170t202 -61q160 0 290 107l109 -156q-74 -74 -183.5 -114t-234.5 -40q-156 0 -273.5 62.5t-182 176t-64.5 265.5zM330 563h477q-12 101 -73.5 158t-158.5 57 q-100 0 -165.5 -58t-79.5 -157zM434 1106l166 326h283l-236 -326h-213z" />
<glyph unicode="&#xea;" horiz-adv-x="1103" d="M82 473q0 152 62.5 267.5t173 181t251.5 65.5t249 -66.5t168.5 -186.5t60.5 -279v-52h-719q14 -109 91 -170t202 -61q160 0 290 107l109 -156q-74 -74 -183.5 -114t-234.5 -40q-156 0 -273.5 62.5t-182 176t-64.5 265.5zM234 1106l209 326h212l209 -326h-206l-109 194 l-109 -194h-206zM330 563h477q-12 101 -73.5 158t-158.5 57q-100 0 -165.5 -58t-79.5 -157z" />
<glyph unicode="&#xeb;" horiz-adv-x="1103" d="M82 473q0 152 62.5 267.5t173 181t251.5 65.5t249 -66.5t168.5 -186.5t60.5 -279v-52h-719q14 -109 91 -170t202 -61q160 0 290 107l109 -156q-74 -74 -183.5 -114t-234.5 -40q-156 0 -273.5 62.5t-182 176t-64.5 265.5zM244 1126v215h233v-215h-233zM330 563h477 q-12 101 -73.5 158t-158.5 57q-100 0 -165.5 -58t-79.5 -157zM621 1126v215h233v-215h-233z" />
<glyph unicode="&#xec;" horiz-adv-x="483" d="M-96 1432h283l168 -326h-213zM117 0v956h250v-956h-250z" />
<glyph unicode="&#xed;" horiz-adv-x="483" d="M117 0v956h250v-956h-250zM127 1106l166 326h283l-236 -326h-213z" />
<glyph unicode="&#xee;" horiz-adv-x="483" d="M-73 1106l209 326h212l209 -326h-206l-109 194l-109 -194h-206zM117 0v956h250v-956h-250z" />
<glyph unicode="&#xef;" horiz-adv-x="483" d="M-63 1126v215h233v-215h-233zM117 0v956h250v-956h-250zM314 1126v215h233v-215h-233z" />
<glyph unicode="&#xf0;" horiz-adv-x="1138" d="M70 426q0 137 61.5 242.5t169 166t248.5 60.5q125 0 229 -53q-59 170 -203 264l-221 -164l-84 111l164 121q-96 33 -215 43l33 180q201 -16 360 -90l154 114l84 -110l-107 -80q158 -109 242 -282t84 -392q0 -289 -137 -438.5t-377 -149.5q-143 0 -252.5 58.5t-171 162 t-61.5 236.5zM317 434q0 -119 69 -193.5t175 -74.5q125 0 192.5 97.5t67.5 283.5q0 45 -6 98q-113 66 -219 66q-125 0 -202 -76t-77 -201z" />
<glyph unicode="&#xf1;" horiz-adv-x="1138" d="M117 0v956h229l12 -131q47 76 130 119t190 43q166 0 258 -104.5t92 -290.5v-592h-250v549q0 217 -184 217q-104 0 -165.5 -72.5t-61.5 -199.5v-494h-250zM191 1260q55 70 118.5 101.5t133.5 31.5q35 0 69.5 -10.5t77.5 -36.5q45 -25 77 -36.5t65 -11.5q72 0 141 78 l94 -112q-51 -70 -116.5 -103t-133.5 -33t-149 48q-84 49 -140 49q-76 0 -141 -78z" />
<glyph unicode="&#xf2;" horiz-adv-x="1171" d="M70 479q0 147 67.5 262t184 180.5t264.5 65.5q147 0 264 -65.5t184.5 -180t67.5 -262.5q0 -145 -67.5 -261t-184.5 -182.5t-264 -66.5t-264 66.5t-184.5 181.5t-67.5 262zM248 1432h283l168 -326h-213zM319 477q0 -129 75 -210t192 -81q115 0 189.5 81t74.5 212 q0 129 -74 210t-190 81q-117 0 -192 -81t-75 -212z" />
<glyph unicode="&#xf3;" horiz-adv-x="1171" d="M70 479q0 147 67.5 262t184 180.5t264.5 65.5q147 0 264 -65.5t184.5 -180t67.5 -262.5q0 -145 -67.5 -261t-184.5 -182.5t-264 -66.5t-264 66.5t-184.5 181.5t-67.5 262zM319 477q0 -129 75 -210t192 -81q115 0 189.5 81t74.5 212q0 129 -74 210t-190 81 q-117 0 -192 -81t-75 -212zM471 1106l166 326h283l-236 -326h-213z" />
<glyph unicode="&#xf4;" horiz-adv-x="1171" d="M70 479q0 147 67.5 262t184 180.5t264.5 65.5q147 0 264 -65.5t184.5 -180t67.5 -262.5q0 -145 -67.5 -261t-184.5 -182.5t-264 -66.5t-264 66.5t-184.5 181.5t-67.5 262zM271 1106l209 326h212l209 -326h-206l-109 194l-109 -194h-206zM319 477q0 -129 75 -210t192 -81 q115 0 189.5 81t74.5 212q0 129 -74 210t-190 81q-117 0 -192 -81t-75 -212z" />
<glyph unicode="&#xf5;" horiz-adv-x="1171" d="M70 479q0 147 67.5 262t184 180.5t264.5 65.5q147 0 264 -65.5t184.5 -180t67.5 -262.5q0 -145 -67.5 -261t-184.5 -182.5t-264 -66.5t-264 66.5t-184.5 181.5t-67.5 262zM197 1260q55 70 118.5 101.5t133.5 31.5q35 0 69.5 -10.5t77.5 -36.5q45 -25 77 -36.5t65 -11.5 q72 0 141 78l94 -112q-51 -70 -116.5 -103t-133.5 -33t-149 48q-84 49 -140 49q-76 0 -141 -78zM319 477q0 -129 75 -210t192 -81q115 0 189.5 81t74.5 212q0 129 -74 210t-190 81q-117 0 -192 -81t-75 -212z" />
<glyph unicode="&#xf6;" horiz-adv-x="1171" d="M70 479q0 147 67.5 262t184 180.5t264.5 65.5q147 0 264 -65.5t184.5 -180t67.5 -262.5q0 -145 -67.5 -261t-184.5 -182.5t-264 -66.5t-264 66.5t-184.5 181.5t-67.5 262zM281 1126v215h233v-215h-233zM319 477q0 -129 75 -210t192 -81q115 0 189.5 81t74.5 212 q0 129 -74 210t-190 81q-117 0 -192 -81t-75 -212zM658 1126v215h233v-215h-233z" />
<glyph unicode="&#xf7;" d="M139 555v205h838v-205h-838zM440 203v217h236v-217h-236zM440 895v217h236v-217h-236z" />
<glyph unicode="&#xf8;" horiz-adv-x="1163" d="M70 479q0 147 66.5 262t182 180.5t263.5 65.5q127 0 235 -51l101 143l116 -78l-100 -143q76 -68 119 -165t43 -214q0 -145 -66.5 -261t-183.5 -182.5t-264 -66.5q-127 0 -236 51l-100 -143l-115 80l98 141q-74 70 -116.5 167t-42.5 214zM293 477q0 -121 59 -205l350 500 q-55 25 -118 25q-129 0 -210 -88t-81 -232zM461 184q55 -25 121 -24q129 0 208.5 88t79.5 231q0 121 -59 205z" />
<glyph unicode="&#xf9;" horiz-adv-x="1130" d="M111 365v591h249v-544q0 -106 46.5 -164t132.5 -58q102 0 163.5 78t61.5 209v479h250v-956h-228l-12 135q-47 -78 -130 -122t-185 -44q-164 0 -256 105t-92 291zM223 1432h283l168 -326h-213z" />
<glyph unicode="&#xfa;" horiz-adv-x="1130" d="M111 365v591h249v-544q0 -106 46.5 -164t132.5 -58q102 0 163.5 78t61.5 209v479h250v-956h-228l-12 135q-47 -78 -130 -122t-185 -44q-164 0 -256 105t-92 291zM446 1106l166 326h283l-236 -326h-213z" />
<glyph unicode="&#xfb;" horiz-adv-x="1130" d="M111 365v591h249v-544q0 -106 46.5 -164t132.5 -58q102 0 163.5 78t61.5 209v479h250v-956h-228l-12 135q-47 -78 -130 -122t-185 -44q-164 0 -256 105t-92 291zM246 1106l209 326h212l209 -326h-206l-109 194l-109 -194h-206z" />
<glyph unicode="&#xfc;" horiz-adv-x="1130" d="M111 365v591h249v-544q0 -106 46.5 -164t132.5 -58q102 0 163.5 78t61.5 209v479h250v-956h-228l-12 135q-47 -78 -130 -122t-185 -44q-164 0 -256 105t-92 291zM256 1126v215h233v-215h-233zM633 1126v215h233v-215h-233z" />
<glyph unicode="&#xfd;" horiz-adv-x="1081" d="M12 956h279l266 -684l246 684h264l-440 -1050q-80 -190 -162 -268t-205 -78q-129 0 -233 73l90 174q63 -43 121 -43q51 0 91 38t79 137l30 75zM426 1106l166 326h283l-236 -326h-213z" />
<glyph unicode="&#xfe;" horiz-adv-x="1150" d="M117 -410v1776h250v-512q47 63 120.5 98t165.5 35q129 0 226.5 -60.5t150.5 -169t53 -251.5q0 -156 -63.5 -278t-173 -190.5t-250.5 -68.5q-63 0 -119.5 14.5t-109.5 43.5v-437h-250zM367 236q90 -53 188 -54q127 0 200.5 83t73.5 222q0 129 -62 205t-169 76 q-102 0 -166.5 -67.5t-64.5 -178.5v-286z" />
<glyph unicode="&#xff;" horiz-adv-x="1081" d="M12 956h279l266 -684l246 684h264l-440 -1050q-80 -190 -162 -268t-205 -78q-129 0 -233 73l90 174q63 -43 121 -43q51 0 91 38t79 137l30 75zM236 1126v215h233v-215h-233zM613 1126v215h233v-215h-233z" />
<glyph unicode="&#x152;" horiz-adv-x="2263" d="M88 686q0 152 51 282t144.5 226t217.5 150.5t269 54.5q160 0 289 -66.5t196 -179.5v213h881v-229h-641v-326h483v-217h-483v-365h690v-229h-930v217q-68 -115 -196.5 -182.5t-286.5 -67.5q-145 0 -269 54.5t-217 152.5t-145.5 229.5t-52.5 282.5zM365 684 q0 -139 56 -247.5t154.5 -170t225.5 -61.5q125 0 222 61.5t153.5 170t56.5 245.5q0 139 -56.5 246.5t-153.5 170t-224 62.5q-125 0 -223.5 -61.5t-154.5 -169t-56 -246.5z" />
<glyph unicode="&#x153;" horiz-adv-x="1878" d="M82 479q0 145 66.5 260t181 181.5t258.5 66.5q125 0 225 -51t162 -141q61 94 157.5 143t210.5 49q141 0 247 -66.5t165.5 -186.5t59.5 -279v-52h-719q14 -109 91 -170t202 -61q160 0 290 107l109 -156q-74 -72 -183.5 -113t-230.5 -41q-129 0 -233.5 50.5t-167.5 140.5 q-63 -88 -161.5 -139.5t-223.5 -51.5q-143 0 -258 66.5t-181.5 181.5t-66.5 262zM330 479q0 -131 73.5 -212t190.5 -81q115 0 189.5 82t74.5 211t-73.5 210t-188.5 81q-117 0 -191.5 -81t-74.5 -210zM1098 563h477q-12 101 -73.5 158t-158.5 57q-100 0 -165.5 -58 t-79.5 -157z" />
<glyph unicode="&#x178;" horiz-adv-x="1280" d="M27 1366h292l328 -569l326 569h278l-479 -782v-584h-264v580zM309 1516v229h244v-229h-244zM725 1516v229h246v-229h-246z" />
<glyph unicode="&#x2c6;" horiz-adv-x="768" d="M68 1106l209 326h212l209 -326h-206l-109 194l-109 -194h-206z" />
<glyph unicode="&#x2dc;" horiz-adv-x="913" d="M68 1260q55 70 118.5 101.5t133.5 31.5q35 0 69.5 -10.5t77.5 -36.5q45 -25 77 -36.5t65 -11.5q72 0 141 78l94 -112q-51 -70 -116.5 -103t-133.5 -33t-149 48q-84 49 -140 49q-76 0 -141 -78z" />
<glyph unicode="&#x2000;" horiz-adv-x="899" />
<glyph unicode="&#x2001;" horiz-adv-x="1798" />
<glyph unicode="&#x2002;" horiz-adv-x="899" />
<glyph unicode="&#x2003;" horiz-adv-x="1798" />
<glyph unicode="&#x2004;" horiz-adv-x="599" />
<glyph unicode="&#x2005;" horiz-adv-x="449" />
<glyph unicode="&#x2006;" horiz-adv-x="299" />
<glyph unicode="&#x2007;" horiz-adv-x="299" />
<glyph unicode="&#x2008;" horiz-adv-x="224" />
<glyph unicode="&#x2009;" horiz-adv-x="359" />
<glyph unicode="&#x200a;" horiz-adv-x="99" />
<glyph unicode="&#x2010;" horiz-adv-x="909" d="M139 457v233h633v-233h-633z" />
<glyph unicode="&#x2011;" horiz-adv-x="909" d="M139 457v233h633v-233h-633z" />
<glyph unicode="&#x2012;" horiz-adv-x="909" d="M139 457v233h633v-233h-633z" />
<glyph unicode="&#x2013;" horiz-adv-x="1024" d="M0 457v233h1024v-233h-1024z" />
<glyph unicode="&#x2014;" horiz-adv-x="2048" d="M0 457v233h2048v-233h-2048z" />
<glyph unicode="&#x2018;" horiz-adv-x="550" d="M104 856q0 160 52.5 302t150.5 249l152 -98q-57 -100 -84 -210t-27 -243h-244z" />
<glyph unicode="&#x2019;" horiz-adv-x="550" d="M94 911q57 102 83 212t26 243h243q0 -162 -52 -304t-150 -247z" />
<glyph unicode="&#x201a;" horiz-adv-x="550" d="M94 -174q57 102 83 212t26 243h243q0 -162 -52 -304t-150 -247z" />
<glyph unicode="&#x201c;" horiz-adv-x="946" d="M104 856q0 160 52.5 302t150.5 249l152 -98q-57 -100 -84 -210t-27 -243h-244zM499 854q0 160 52.5 302t150.5 249l152 -98q-57 -100 -84 -210t-27 -243h-244z" />
<glyph unicode="&#x201d;" horiz-adv-x="946" d="M94 911q57 102 83 212t26 243h243q0 -162 -52 -304t-150 -247zM489 911q57 102 83 212t26 243h243q0 -162 -52 -304t-150 -247z" />
<glyph unicode="&#x201e;" horiz-adv-x="946" d="M94 -174q57 102 83 212t26 243h243q0 -162 -52 -304t-150 -247zM489 -174q57 102 83 212t26 243h243q0 -162 -52 -304t-150 -247z" />
<glyph unicode="&#x2022;" horiz-adv-x="768" d="M109 512q0 78 36.5 140.5t99 98t138.5 35.5q78 0 140.5 -35.5t99 -98t36.5 -140.5t-36.5 -140.5t-99 -98t-140.5 -35.5q-76 0 -138.5 35.5t-99 98t-36.5 140.5z" />
<glyph unicode="&#x2026;" horiz-adv-x="2048" d="M197 0v281h293v-281h-293zM881 0v281h293v-281h-293zM1563 0v281h293v-281h-293z" />
<glyph unicode="&#x202f;" horiz-adv-x="359" />
<glyph unicode="&#x2039;" horiz-adv-x="706" d="M117 487l223 402h242l-211 -402l211 -401h-242z" />
<glyph unicode="&#x203a;" horiz-adv-x="706" d="M125 86l211 401l-211 402h242l223 -402l-223 -401h-242z" />
<glyph unicode="&#x205f;" horiz-adv-x="449" />
<glyph unicode="&#x20ac;" d="M-14 424l49 151h158q-3 35 -3 70q0 29 3 55h-140l49 152h109q45 217 183 344t343 127q213 0 363 -143l-133 -176q-92 94 -219 94q-106 0 -176 -63.5t-101 -182.5h440l-51 -152h-409q-2 -25 -2 -51q0 -39 2 -74h387l-50 -151h-311q33 -113 101.5 -172t171.5 -59 q127 0 219 92l135 -170q-147 -147 -363 -148q-203 0 -341 122t-187 335h-227z" />
<glyph unicode="&#x2122;" horiz-adv-x="1806" d="M57 1200v166h725v-166h-266v-618h-190v618h-269zM879 582l26 784h174l221 -373l222 373h172l26 -784h-178l-10 508l-184 -310h-99l-184 310l-12 -508h-174z" />
<glyph unicode="&#x25fc;" horiz-adv-x="952" d="M0 0v952h952v-952h-952z" />
<glyph unicode="&#xfb01;" horiz-adv-x="1187" />
<glyph unicode="&#xfb02;" horiz-adv-x="1187" />
<glyph unicode="&#xfb03;" horiz-adv-x="1845" />
<glyph unicode="&#xfb04;" horiz-adv-x="1845" />
</font>
</defs>
</svg>
