<?xml version="1.0" standalone="no"?>
<!DOCTYPE svg PUBLIC "-//W3C//DTD SVG 1.1//EN" "http://www.w3.org/Graphics/SVG/1.1/DTD/svg11.dtd" >
<svg xmlns="http://www.w3.org/2000/svg" xmlns:xlink="http://www.w3.org/1999/xlink" version="1.1">
<metadata></metadata>
<defs>
<font id="quincy_cfextra_bold" horiz-adv-x="1495" >
<font-face units-per-em="2048" ascent="1638" descent="-410" />
<missing-glyph horiz-adv-x="378" />
<glyph unicode="&#xfb01;" horiz-adv-x="1402" d="M41 819v64q88 12 127 31.5t39 66.5q0 197 123.5 306.5t324.5 109.5q87 0 161 -21t122.5 -65.5t48.5 -104.5q0 -50 -31 -84.5t-98 -34.5q-52 0 -90 24.5t-60 59.5t-41.5 70t-46 59.5t-61.5 24.5q-49 0 -62.5 -45.5t-13.5 -167.5v-133q0 -40 25.5 -53t101.5 -13h142v-98 l-142 4q-77 2 -102 -13.5t-25 -66.5v-534q0 -73 37 -101t146 -32v-72h-605v72q83 5 114.5 33t31.5 100v538q0 46 -12.5 61t-44.5 15h-109zM817 0v72q73 5 102 34.5t29 104.5v494q0 67 -32 89.5t-99 16.5v74l309 53q49 7 74 -13t25 -63v-651q0 -75 28.5 -104.5t98.5 -34.5 v-72h-535z" />
<glyph unicode="&#xfb02;" horiz-adv-x="1351" d="M41 819v64q88 12 127 31.5t39 66.5v18q0 124 66 215t177.5 137t254.5 46q72 0 137 -11.5t131.5 -42t114.5 -78t78 -126t30 -178.5v-766q0 -54 23.5 -77.5t66.5 -6.5v-43q-19 -41 -64 -60.5t-98 -19.5q-93 0 -148.5 52.5t-55.5 154.5v747q0 103 -29 188t-93.5 140 t-154.5 55q-49 0 -82.5 -17.5t-49.5 -50t-22 -66t-6 -77.5v-135q0 -40 25.5 -53t101.5 -13h142v-98l-142 4q-77 2 -102 -13.5t-25 -66.5v-534q0 -73 37 -101t146 -32v-72h-605v72q83 5 114.5 33t31.5 100v538q0 46 -12.5 61t-44.5 15h-109z" />
<glyph horiz-adv-x="0" />
<glyph horiz-adv-x="682" />
<glyph unicode=" "  horiz-adv-x="378" />
<glyph unicode="&#x09;" horiz-adv-x="378" />
<glyph unicode="&#xa0;" horiz-adv-x="378" />
<glyph unicode="!" horiz-adv-x="512" d="M92 1137q0 75 47 121.5t117 46.5q73 0 118.5 -46t45.5 -122q0 -79 -24 -189t-49 -246.5t-28 -273.5h-126q-3 137 -28 273.5t-49 246.5t-24 189zM106 139q0 63 44 107.5t106 44.5t106 -44.5t44 -107.5t-44 -107t-106 -44t-106 44t-44 107z" />
<glyph unicode="&#x22;" horiz-adv-x="743" d="M74 1198q-12 77 22 115.5t103 38.5q67 0 99.5 -38.5t20.5 -115.5l-38 -254q-11 -55 -82 -55q-75 0 -86 55zM424 1198q-12 77 22 115.5t103 38.5q67 0 100 -38.5t21 -115.5l-39 -254q-11 -55 -82 -55q-75 0 -86 55z" />
<glyph unicode="#" horiz-adv-x="1120" d="M51 340v96h242l113 438h-213v97h237l105 405h100l-105 -405h222l104 405h100l-104 -405h217v-97h-242l-112 -438h213v-96h-238l-104 -401h-101l105 401h-221l-105 -401h-100l104 401h-217zM393 436h221l113 438h-221z" />
<glyph unicode="$" horiz-adv-x="1058" d="M81 427q1 43 19 71t52 28q18 0 26 -9t17 -38q40 -108 118.5 -174t175.5 -84v346l-47 15q-56 17 -105.5 40.5t-95 56.5t-78 73t-52 92t-19.5 110q0 147 112 233.5t285 92.5v131h62v-131q100 -5 198 -30t152 -60q26 -67 35 -133.5t-7.5 -114t-60.5 -47.5q-19 0 -27 9.5 t-16 37.5q-38 103 -112.5 167.5t-161.5 80.5v-352l20 -7q47 -14 81 -25t80.5 -30.5t79.5 -39t68 -49t57 -62.5t36 -77t14 -95q0 -70 -26 -126t-68.5 -92t-100.5 -60t-117.5 -35t-123.5 -13v-127h-62v127q-110 6 -211 36.5t-159 69.5q-19 48 -29 99.5t-9 94.5zM324 1044 q0 -66 41.5 -110t123.5 -76v338q-86 -1 -125.5 -45.5t-39.5 -106.5zM551 215h2q93 0 136.5 39t43.5 104q0 70 -46.5 113t-135.5 76v-332z" />
<glyph unicode="%" horiz-adv-x="1441" d="M102 938q0 148 101 248t250 100q85 0 180 -24t176.5 -48t134.5 -24q45 0 78 20.5t82 81.5l108 -67l-847 -1225h-218l836 1114q-45 -29 -92 -29q-76 0 -211 60q16 -50 16 -105q0 -148 -100 -248t-246 -100q-125 0 -186.5 68.5t-61.5 177.5zM293 952q0 -180 90 -180 q60 0 91.5 73t31.5 183q0 178 -88 178q-61 0 -93 -72.5t-32 -181.5zM743 223q0 148 101 248t250 100q124 0 184.5 -68t60.5 -177q0 -148 -100 -248.5t-246 -100.5q-126 0 -188 68.5t-62 177.5zM934 236q0 -179 90 -179q61 0 93 72.5t32 181.5q0 181 -90 181q-61 0 -93 -73 t-32 -183z" />
<glyph unicode="&#x26;" horiz-adv-x="1626" d="M82 399q0 83 35 151.5t87.5 109.5t109.5 63t106 22q-92 23 -146.5 92t-54.5 164q0 137 116 220.5t294 83.5q156 0 263 -61.5t107 -164.5q0 -64 -37.5 -101.5t-93.5 -37.5q-54 0 -91.5 35.5t-37.5 95.5q0 34 -2.5 55t-12 47t-32.5 39t-59 13q-70 0 -111 -49.5t-41 -137.5 q0 -39 8 -78.5t28.5 -86t64.5 -85.5t108 -61l-31 -70q-7 1 -19 4.5t-23 5t-25 1.5q-97 0 -154 -74t-57 -188q0 -68 21.5 -128t64 -109.5t115.5 -78.5t168 -29q79 0 141 21t99 53t61.5 76t33.5 85.5t9 84.5q0 95 -45 155t-123 60q-52 0 -82.5 -29t-30.5 -67q0 -31 27 -70h-68 q-57 31 -57 100q0 46 31.5 85.5t82 69.5t111 59t121.5 59t111.5 63t82 79t31.5 99q0 73 -49 108.5t-117 -1.5l-33 47q69 82 197 82q111 0 185.5 -58.5t74.5 -164.5q0 -58 -27.5 -108t-61 -82.5t-107 -70.5t-118 -56.5t-141.5 -55.5q-38 -15 -57 -22q171 0 259.5 -78.5 t90.5 -196.5q3 -118 -85 -212t-239 -144.5t-335 -50.5q-176 0 -319 46t-232.5 143t-89.5 230z" />
<glyph unicode="'" horiz-adv-x="393" d="M74 1198q-12 77 22 115.5t103 38.5q67 0 99.5 -38.5t20.5 -115.5l-38 -254q-11 -55 -82 -55q-75 0 -86 55z" />
<glyph unicode="(" horiz-adv-x="720" d="M92 606q0 298 109 539t331 393q17 14 39 14h68q20 0 27.5 -8t-2.5 -18q-132 -157 -214 -401t-79 -519q-3 -270 75.5 -511t206.5 -398q26 -37 -10 -37h-72q-22 0 -39 14q-222 152 -331 393t-109 539z" />
<glyph unicode=")" horiz-adv-x="720" d="M54.5 1544q7.5 8 27.5 8h68q21 0 38 -14q222 -152 331.5 -393.5t109.5 -538.5t-109.5 -538.5t-331.5 -393.5q-17 -14 -38 -14h-72q-36 0 -10 37q128 157 206.5 398t75.5 511q3 275 -79 519t-214 401q-10 10 -2.5 18z" />
<glyph unicode="*" horiz-adv-x="700" d="M52 881q7 38 42 45l168 37q23 4 31.5 -11t-4.5 -32l-109 -138q-23 -26 -58.5 -15t-55.5 44q-21 32 -14 70zM52 1077q-7 38 14 68q20 34 55.5 45t58.5 -16l109 -138q13 -15 4 -30t-31 -11l-168 37q-35 7 -42 45zM264 737l60 160q9 22 24 22t23 -22l61 -160 q14 -33 -15 -57.5t-69 -24.5q-38 0 -66.5 24.5t-17.5 57.5zM264 1223q-11 33 17.5 57.5t66.5 24.5q40 0 69 -24.5t15 -57.5l-61 -160q-8 -22 -23 -22t-24 22zM406 1006q-9 15 4 30l110 138q23 27 58 16t57 -45q20 -29 12.5 -67.5t-41.5 -45.5l-170 -37q-21 -4 -30 11z M406.5 952q8.5 15 29.5 11l170 -37q34 -9 41.5 -47t-12.5 -68q-22 -33 -57 -44t-58 15l-110 138q-12 17 -3.5 32z" />
<glyph unicode="+" horiz-adv-x="962" d="M102 471v88h336v336h88v-336h334v-88h-334v-336h-88v336h-336z" />
<glyph unicode="," horiz-adv-x="454" d="M61 131q0 69 46 113.5t118 44.5q81 0 124.5 -56t43.5 -147q0 -110 -60 -199t-147 -149l-47 51q105 89 105 162q0 31 -35 31q-65 0 -106.5 42.5t-41.5 106.5z" />
<glyph unicode="-" horiz-adv-x="757" d="M102 440v158h553v-158h-553z" />
<glyph unicode="." horiz-adv-x="462" d="M82 139q0 63 43.5 107.5t105.5 44.5t106 -44.5t44 -107.5t-44 -107t-106 -44t-105.5 44t-43.5 107z" />
<glyph unicode="/" horiz-adv-x="864" d="M72 0l546 1313h175l-547 -1313h-174z" />
<glyph unicode="0" horiz-adv-x="1271" d="M72 643q0 133 39 252.5t109.5 211t178.5 145t238 53.5q129 0 236.5 -53.5t178 -145t109.5 -211t39 -252.5q0 -134 -39 -254t-109.5 -211t-178 -144.5t-236.5 -53.5q-130 0 -238 53.5t-178.5 144.5t-109.5 211t-39 254zM367 694q0 -123 15.5 -229t47.5 -194.5t89.5 -139.5 t135.5 -51q248 0 248 510q0 123 -15.5 229t-48 194.5t-90 139.5t-135.5 51q-69 0 -118.5 -41.5t-76.5 -115t-39.5 -160.5t-12.5 -193z" />
<glyph unicode="1" horiz-adv-x="763" d="M61 0v80q107 6 146 34t39 97v760q0 51 -16.5 67t-61.5 13l-96 -7v78l354 158q35 14 65.5 2.5t30.5 -35.5v-1036q0 -69 38 -97t142 -34v-80h-641z" />
<glyph unicode="2" horiz-adv-x="1181" d="M82 0q0 81 23.5 156.5t63.5 136t92 117.5t109.5 106.5t115 96.5t109.5 94t92 93.5t63.5 99.5t23.5 108q0 53 -18 98.5t-62 78t-108 32.5q-87 0 -139 -55t-52 -144q0 -35 14.5 -82t14.5 -72q0 -61 -44 -92t-101 -31q-79 0 -128 55t-49 150q0 159 138 259t362 100 q214 0 347.5 -93.5t133.5 -261.5q0 -81 -35 -148.5t-95 -117t-134.5 -92t-158.5 -82.5t-161 -80t-148.5 -93.5t-114.5 -113.5h462q154 0 225 30t97 112h80l-37 -185q-24 -133 10 -180h-991z" />
<glyph unicode="3" horiz-adv-x="1226" d="M72 328q0 79 38.5 116t102.5 37q35 0 58.5 -11t37.5 -36t20.5 -47t15.5 -61.5t17 -63.5q71 -199 238 -199q63 0 113.5 30t80 79t45 106t15.5 117q0 119 -58.5 190.5t-152.5 71.5q-75 0 -139 -39l-27 74q170 59 232.5 123t62.5 174q0 111 -50.5 172.5t-150.5 61.5 q-178 0 -178 -219q0 -64 -33 -102t-98 -38q-63 0 -95 42t-32 102q0 51 25 100.5t76.5 95t145 73.5t216.5 28q212 0 325 -81t113 -210q0 -101 -65.5 -164.5t-155.5 -89.5q41 2 85.5 -9t88.5 -37.5t78.5 -64.5t56 -96t21.5 -127q0 -131 -77 -233.5t-206.5 -157.5t-286.5 -55 q-134 0 -247 40t-184.5 120.5t-71.5 187.5z" />
<glyph unicode="4" horiz-adv-x="1212" d="M51 487l596 818l271 -33v-723h212v-207h-212v-131q0 -69 34.5 -97t124.5 -34v-80h-600v80q93 6 128.5 34t35.5 97v131h-549zM236.5 568.5q10.5 -19.5 44.5 -19.5h360v610l-395 -543q-20 -28 -9.5 -47.5z" />
<glyph unicode="5" horiz-adv-x="1161" d="M72 328q0 82 40 120.5t111 38.5q38 0 61.5 -11.5t36 -37t18 -49t13 -67t15.5 -72.5q13 -44 25 -71t34.5 -57t57.5 -44.5t83 -14.5q110 0 165.5 89.5t55.5 248.5q0 180 -74.5 280.5t-203.5 100.5q-84 0 -161 -40t-122 -119h-67l49 649h393q300 0 377 28l-29 -276h-678 l-18 -262q132 112 350 112q72 0 139.5 -13t131.5 -45t111 -79t75.5 -120.5t28.5 -165.5q0 -216 -148.5 -343.5t-384.5 -127.5q-136 0 -245 40.5t-174.5 120.5t-65.5 187z" />
<glyph unicode="6" horiz-adv-x="1150" d="M72 608q1 145 39 270.5t109.5 221t183.5 150.5t253 55q176 0 281 -78l-43 -68q-96 51 -195 51q-91 0 -159.5 -36.5t-107.5 -100t-58 -140t-19 -165.5q0 -52 47 -23q121 86 283 86q82 0 153.5 -25t128 -73.5t89.5 -128.5t33 -182q0 -205 -137 -323.5t-353 -118.5 q-258 0 -394 170.5t-134 457.5zM354 420q0 -60 13.5 -118.5t41.5 -114t80 -90t121 -34.5q60 0 102.5 28.5t63.5 77.5t30 100t9 110q0 153 -59 246.5t-172 93.5q-111 0 -170.5 -86t-59.5 -213z" />
<glyph unicode="7" horiz-adv-x="1116" d="M72 901l127 387q65 -16 338 -16h528l-651 -1272h-174l591 981q11 17 4.5 30t-26.5 13h-311q-152 0 -223 -26t-136 -97h-67z" />
<glyph unicode="8" horiz-adv-x="1204" d="M72 342q0 211 247 305q-169 126 -169 301q0 89 39 159t104.5 112t146 64t168.5 22q82 0 158 -19.5t137.5 -56.5t98 -97t36.5 -135q0 -91 -55.5 -164t-173.5 -112q324 -105 324 -356q0 -121 -73.5 -209.5t-195.5 -132t-278 -43.5q-234 0 -374 97.5t-140 264.5zM303 369 q0 -56 17.5 -108.5t53 -97.5t96 -72.5t138.5 -27.5q69 0 118 22t74 58.5t35.5 74t10.5 79.5q0 74 -50.5 129t-199.5 111q-55 19 -100.5 24.5t-75 -1t-52 -23t-34.5 -35.5t-19.5 -45t-9.5 -46t-2 -42zM416 1030q0 -159 190 -233q52 -23 90.5 -18.5t64.5 21t41.5 48t22 64 t6.5 67.5q0 33 -5.5 64.5t-20.5 64.5t-39 57.5t-64 40t-92 15.5q-102 0 -148 -57t-46 -134z" />
<glyph unicode="9" horiz-adv-x="1150" d="M61 862q0 205 137 324t353 119q258 0 394 -171t134 -458q-1 -145 -39 -270.5t-109.5 -221t-183.5 -150t-253 -54.5q-178 0 -281 77l43 68q96 -51 195 -51q91 0 159.5 36.5t107.5 100t58 140t19 165.5q0 52 -47 23q-121 -86 -283 -86q-82 0 -153.5 25t-128 73.5 t-89.5 128.5t-33 182zM336 905q0 -153 59 -246.5t172 -93.5q111 0 170.5 86t59.5 213q0 60 -13.5 118.5t-41.5 114t-80 90t-121 34.5q-60 0 -102.5 -28.5t-63.5 -77.5t-30 -100t-9 -110z" />
<glyph unicode=":" horiz-adv-x="464" d="M82 784q0 63 43.5 107.5t105.5 44.5t106 -44.5t44 -107.5t-44 -107t-106 -44t-105.5 44t-43.5 107zM84 139q0 63 43.5 107.5t105.5 44.5t106 -44.5t44 -107.5t-44 -107t-106 -44t-105.5 44t-43.5 107z" />
<glyph unicode=";" horiz-adv-x="454" d="M61 131q0 69 46 113.5t118 44.5q81 0 124.5 -56t43.5 -147q0 -110 -60 -199t-147 -149l-47 51q105 89 105 162q0 31 -35 31q-65 0 -106.5 42.5t-41.5 106.5zM76 782q0 63 43.5 107.5t105.5 44.5t106 -44.5t44 -107.5t-44 -107t-106 -44t-105.5 44t-43.5 107z" />
<glyph unicode="&#x3c;" horiz-adv-x="976" d="M102 451v127l772 327v-96l-684 -295l684 -295v-96z" />
<glyph unicode="=" horiz-adv-x="962" d="M102 287v88h758v-88h-758zM102 655v88h758v-88h-758z" />
<glyph unicode="&#x3e;" horiz-adv-x="976" d="M102 123v96l684 295l-684 295v96l772 -327v-127z" />
<glyph unicode="?" horiz-adv-x="1019" d="M72 948q0 155 121 256t329 101q191 0 308.5 -88t117.5 -236q0 -60 -20.5 -111t-53.5 -87.5t-73.5 -69t-81.5 -64.5t-76 -66t-59 -81t-29 -101h-115q-10 80 -1.5 137.5t31 106.5t51.5 83t60 69t57 64t43 67.5t17 79.5q0 76 -55 132t-145 56q-75 0 -128 -38t-53 -109 q0 -49 34 -108t34 -89q0 -53 -42 -88t-97 -35q-71 0 -122.5 57.5t-51.5 161.5zM350 139q0 63 44 107.5t106 44.5t105.5 -44.5t43.5 -107.5t-43.5 -107t-105.5 -44t-106 44t-44 107z" />
<glyph unicode="@" horiz-adv-x="1568" d="M61 510q0 192 94 347t262 243t378 88q152 0 284 -49t226 -134.5t148 -208.5t54 -266q0 -191 -94 -301t-250 -110q-95 0 -154 39t-83 94q-34 -56 -101.5 -94.5t-148.5 -38.5q-97 0 -163.5 52t-66.5 151q0 35 8 63t31.5 57.5t63 52.5t106 43t156.5 33q72 11 72 60 q0 190 -95 190q-35 0 -53.5 -21t-22 -45t-3.5 -63q0 -41 -38 -68.5t-85 -27.5q-48 0 -75.5 27.5t-27.5 76.5q0 62 51 108t127 67.5t164 21.5q291 0 291 -281v-342q0 -34 15 -52.5t40 -18.5q28 0 49.5 24t32.5 63.5t16 81.5t5 87q0 187 -55.5 333.5t-170.5 234t-274 87.5 q-217 0 -345 -157.5t-128 -415.5q0 -129 33.5 -242t98.5 -201.5t169 -140t236 -51.5q102 0 196 31l23 -62q-88 -45 -260 -45q-159 0 -296.5 52t-234 142t-151 216t-54.5 270zM686 338q0 -44 21 -75.5t61 -31.5q42 0 78.5 32.5t36.5 98.5v78q0 33 -13.5 48t-50.5 8 q-133 -24 -133 -158z" />
<glyph unicode="A" d="M41 0v74q84 19 127.5 66.5t85.5 142.5l342 770q55 117 55 219l168 14l436 -954q7 -15 22 -49t20.5 -45t18 -36.5t18.5 -34t17.5 -26.5t21 -24.5t22.5 -17.5t27.5 -16.5t31.5 -10.5v-72h-580v74q59 10 83.5 34t21.5 56.5t-25 83.5l-14 33q-17 40 -46 51.5t-75 11.5h-313 q-46 0 -73 -12.5t-44 -50.5l-8 -21q-16 -37 -16 -67q0 -92 155 -119v-74h-479zM479 483q-7 -18 5 -29.5t28 -11.5h301q19 0 27.5 13.5t-0.5 38.5l-162 354q-8 18 -14 23.5t-11.5 0t-11.5 -23.5z" />
<glyph unicode="B" horiz-adv-x="1411" d="M61 0v74q148 18 148 131v862q0 113 -148 131v74h625q569 0 569 -301q0 -101 -70.5 -174.5t-230.5 -100.5q189 -27 282 -113t93 -221q0 -169 -133 -265.5t-348 -96.5q-39 0 -196.5 10.5t-312.5 10.5t-278 -21zM522 180q0 -80 88 -80h111q134 0 206 61t72 201 q0 147 -91.5 217t-284.5 70q-46 0 -73.5 -29.5t-27.5 -87.5v-352zM522 854q0 -60 32 -88.5t99 -28.5h72q56 0 97 18t62.5 50t31.5 68.5t10 80.5q0 109 -57.5 167.5t-166.5 58.5h-49q-68 0 -99.5 -27.5t-31.5 -87.5v-211z" />
<glyph unicode="C" horiz-adv-x="1366" d="M61 643q0 153 56.5 279t153.5 209t226.5 128.5t276.5 45.5q120 0 221 -31t165.5 -81t100 -112t35.5 -127q0 -74 -43.5 -125t-130.5 -51q-81 0 -124 47.5t-48 122.5q-3 55 -17.5 102.5t-42 88t-74.5 63.5t-109 23q-147 1 -227 -123q-78 -119 -77 -319v-15 q1 -119 29.5 -220.5t77.5 -172.5t114 -121t138.5 -74t150.5 -24q193 0 326 149l55 -45q-18 -33 -45.5 -67t-75.5 -73.5t-105 -69.5t-138.5 -50t-171.5 -20q-139 0 -264 45t-222 127.5t-154 209.5t-57 281z" />
<glyph unicode="D" horiz-adv-x="1468" d="M61 0v74q148 18 148 131v862q0 113 -148 131v74h598q727 0 727 -625q0 -117 -27 -213.5t-70 -161.5t-103 -115t-120.5 -78t-129.5 -46t-122 -23.5t-105 -5.5q-39 0 -174.5 6t-200.5 6q-132 0 -273 -16zM522 207q0 -111 140 -111q128 0 215 74.5t126 195.5t39 281 q0 258 -100.5 395.5t-265.5 137.5h-23q-68 0 -99.5 -27.5t-31.5 -87.5v-858z" />
<glyph unicode="E" horiz-adv-x="1261" d="M61 0v74q148 18 148 131v864q0 111 -148 129v74h1018q24 0 27 -23q13 -123 45 -262h-51q-53 100 -110 145.5t-146 45.5h-191q-131 0 -131 -123v-244q0 -62 32 -91.5t99 -29.5h107q59 0 96 7.5t59.5 27t33 45.5t16.5 70h41v-394h-41q-9 57 -25.5 86.5t-59 46.5t-120.5 17 h-107q-67 0 -99 -29.5t-32 -91.5v-260q0 -125 125 -125h225q92 0 143 29.5t91 87.5l49 72h49q-43 -95 -61 -250q-3 -29 -33 -29h-1049z" />
<glyph unicode="F" horiz-adv-x="1206" d="M61 0v74q148 18 148 131v864q0 111 -148 129v74h1018q24 0 27 -23q13 -123 45 -262h-51q-53 100 -110 145.5t-146 45.5h-191q-131 0 -131 -123v-244q0 -62 32 -91.5t99 -29.5h107q77 0 120 15t59.5 40.5t25.5 73.5h41v-352h-41q-9 46 -25.5 71.5t-59.5 41.5t-120 16h-107 q-67 0 -99 -29.5t-32 -91.5v-270q0 -60 40.5 -91t127.5 -40v-74h-629z" />
<glyph unicode="G" horiz-adv-x="1454" d="M61 641q0 154 56 280.5t153.5 209.5t228 128.5t279.5 45.5q119 0 219 -29t164.5 -77t99.5 -108t35 -124q0 -72 -43.5 -122t-124.5 -50q-78 0 -118.5 43t-48.5 114q-13 115 -78.5 194t-182.5 79q-143 0 -220 -122.5t-77 -328.5q0 -124 30 -236.5t79.5 -195t112.5 -143.5 t130 -92t130 -31q61 0 86.5 30.5t25.5 92.5v147q0 116 -33 150t-145 43v49h584v-49q-56 -8 -81 -22.5t-36.5 -52.5t-11.5 -118v-156q0 -119 6 -172q1 -17 -9.5 -21.5t-25.5 3.5q-79 31 -141 31q-55 0 -163.5 -25.5t-197.5 -25.5q-135 0 -257 44.5t-217 126t-151.5 209 t-56.5 281.5z" />
<glyph unicode="H" horiz-adv-x="1527" d="M61 0v74q148 18 148 131v864q0 111 -148 129v74h609v-74q-148 -19 -148 -129v-332q0 -33 26.5 -50t67.5 -17h295q42 0 68.5 16.5t26.5 50.5v332q0 111 -148 129v74h608v-74q-147 -19 -147 -129v-864q0 -112 147 -131v-74h-608v74q148 18 148 131v307q0 34 -26 51t-67 17 h-299q-40 0 -66 -17.5t-26 -50.5v-307q0 -112 148 -131v-74h-609z" />
<glyph unicode="I" horiz-adv-x="731" d="M61 0v74q148 18 148 131v864q0 111 -148 129v74h609v-74q-148 -19 -148 -129v-864q0 -112 148 -131v-74h-609z" />
<glyph unicode="J" horiz-adv-x="962" d="M-41 227q0 75 42 116.5t108 41.5q73 0 108 -48.5t35 -111.5q0 -172 94 -172t94 170v846q0 58 -40 89t-128 40v74h629v-74q-147 -19 -147 -129v-702q0 -90 -26.5 -160t-68 -112t-99 -68.5t-113 -36.5t-115.5 -10q-161 0 -267 65t-106 182z" />
<glyph unicode="K" horiz-adv-x="1529" d="M61 0v74q148 18 148 131v864q0 111 -148 129v74h609v-74q-148 -19 -148 -129v-498l479 494q28 33 28 60q-1 15 -9 27q-24 36 -96 46v74h491v-74q-72 -10 -158 -49t-137 -92l-198 -205q-50 -48 -50 -88q0 -37 37 -90l279 -393q72 -102 140 -147t151 -60v-74h-672v74 q32 9 51.5 20.5t31 28.5t6 41.5t-27.5 56.5l-137 219q-24 35 -33 47t-27.5 24.5t-39.5 12.5q-44 0 -76.5 -45t-32.5 -162v-112q0 -112 148 -131v-74h-609z" />
<glyph unicode="L" horiz-adv-x="1251" d="M61 0v74q148 18 148 131v864q0 111 -148 129v74h609v-74q-148 -19 -148 -129v-864q0 -63 39 -92q34 -25 106 -25h21l154 8q99 4 154.5 35t99.5 100l45 76h69l-30 -123q-11 -41 -15 -59.5t-8 -56.5q-2 -15 -2 -29q0 -21 4 -39h-1098z" />
<glyph unicode="M" horiz-adv-x="1779" d="M61 0v74q158 20 158 131v864q0 109 -158 129v74h461l379 -801l356 801h461v-74q-149 -19 -149 -129v-864q0 -112 149 -131v-74h-610v74q149 19 149 131v792l-401 -893h-90l-428 900v-799q0 -111 162 -131v-74h-439z" />
<glyph unicode="N" horiz-adv-x="1470" d="M61 0v74q158 20 158 131v864q0 109 -158 129v74h367l705 -813v610q0 109 -160 129v74h436v-74q-158 -20 -158 -129v-1069h-114l-799 920v-715q0 -111 160 -131v-74h-437z" />
<glyph unicode="O" horiz-adv-x="1480" d="M61 631q0 154 57 283.5t152.5 213.5t219 130.5t258.5 46.5q105 0 203.5 -27t183 -81.5t148 -131t100 -181.5t36.5 -227q0 -156 -56.5 -285.5t-152 -214t-219 -131t-258.5 -46.5q-104 0 -202.5 27t-183.5 81.5t-149 131.5t-100.5 182.5t-36.5 228.5zM399 745 q0 -188 53 -341.5t143.5 -239.5t197.5 -86q55 0 104 25.5t91.5 78.5t67.5 146t25 215q0 186 -53 338.5t-143 238.5t-197 86q-55 0 -104.5 -25.5t-92 -78t-67.5 -144.5t-25 -213z" />
<glyph unicode="P" horiz-adv-x="1329" d="M61 0v74q148 18 148 131v864q0 111 -148 129v74h637q285 0 432.5 -106.5t147.5 -297.5q0 -190 -148.5 -299.5t-431.5 -109.5h-63q-62 0 -87.5 -27.5t-25.5 -91.5v-135q0 -60 40.5 -91t127.5 -40v-74h-629zM522 674q0 -64 25.5 -91.5t87.5 -27.5h63q275 0 275 309 q0 149 -63.5 231.5t-211.5 82.5h-61q-62 0 -88.5 -30.5t-26.5 -92.5v-381z" />
<glyph unicode="Q" horiz-adv-x="1480" d="M61 631q0 154 57 283.5t152.5 213.5t219 130.5t258.5 46.5q105 0 203.5 -27t183 -81.5t148 -131t100 -181.5t36.5 -227q0 -141 -46.5 -261.5t-127 -204t-185.5 -136.5t-224 -69l153 -121q116 -96 141 -96q16 0 20.5 23.5t4.5 86.5q0 61 36.5 101t98.5 40q63 0 101.5 -41 t38.5 -96q0 -89 -95.5 -157t-240.5 -68q-190 0 -334 127l-209 182q-78 64 -117 64q-31 0 -45 -21.5t-18 -52t-10.5 -60.5t-31.5 -51.5t-71 -21.5q-61 0 -93 35t-32 88q0 63 46.5 106.5t123.5 65.5q-113 85 -177.5 215.5t-64.5 296.5zM399 745q0 -188 53 -341.5t143.5 -239.5 t197.5 -86q55 0 104 25.5t91.5 78.5t67.5 146t25 215q0 186 -53 338.5t-143 238.5t-197 86q-55 0 -104.5 -25.5t-92 -78t-67.5 -144.5t-25 -213z" />
<glyph unicode="R" horiz-adv-x="1433" d="M61 0v74q148 18 148 131v864q0 111 -148 129v74h709q231 0 368.5 -90.5t137.5 -255.5q0 -125 -84 -212t-244 -104q-10 -2 -10 -12.5t10 -13.5q100 -27 158 -84t104 -183q4 -11 15 -39t17 -42.5t17.5 -39.5t20 -39t22 -32.5t26.5 -27.5t30 -16t35 -7v-74h-131 q-74 0 -129.5 14t-96 38t-75 70.5t-60.5 98.5t-59 135q-43 107 -87.5 150t-121.5 43q-60 0 -85.5 -26.5t-25.5 -86.5v-231q0 -60 40.5 -91t127.5 -40v-74h-629zM522 770q0 -62 25.5 -89.5t87.5 -27.5h70q69 0 120.5 25t78.5 67t39.5 86.5t12.5 92.5q0 49 -12 92t-36.5 80.5 t-67.5 59.5t-101 22h-114q-57 0 -80 -29.5t-23 -93.5v-285z" />
<glyph unicode="S" horiz-adv-x="1196" d="M82 324q2 50 22 82t58 32q21 0 30.5 -10.5t21.5 -42.5q53 -145 166 -224t245 -81q106 0 156 45.5t50 120.5q0 37 -11 67.5t-36 55t-51 42.5t-69.5 35.5t-77 28.5t-88.5 27q-83 25 -152 62t-127.5 88.5t-91.5 123t-33 154.5q0 118 66 204.5t175 128.5t245 42 q121 0 248.5 -30.5t195.5 -74.5q22 -56 34 -115q10 -52 10 -97v-12q-2 -50 -22.5 -82t-58.5 -32q-21 0 -30.5 10.5t-18.5 42.5q-52 140 -158 216.5t-223 76.5q-102 0 -149.5 -51t-47.5 -123q0 -92 71 -147t214 -99q54 -16 93 -29t92.5 -35t91.5 -44.5t78.5 -56.5t65.5 -71.5 t41.5 -88.5t16.5 -109q0 -70 -22.5 -128.5t-62.5 -98t-90.5 -69t-111.5 -46.5t-120.5 -24.5t-122.5 -7.5q-134 0 -265 36t-204 84q-21 56 -33 115q-10 52 -11 97q1 6 1 12z" />
<glyph unicode="T" horiz-adv-x="1353" d="M51 946l39 291q3 39 40 39h5q50 -4 117 -4h848q69 0 119 4h5q37 0 40 -39l39 -291h-76q-46 130 -95.5 176.5t-154.5 46.5q-92 0 -117.5 -22.5t-25.5 -108.5v-831q0 -63 47.5 -93.5t169.5 -39.5v-74h-748v74q122 9 169.5 39.5t47.5 93.5v831q0 86 -25.5 108.5t-117.5 22.5 q-105 0 -154.5 -46.5t-95.5 -176.5h-76z" />
<glyph unicode="U" horiz-adv-x="1497" d="M51 1198v74h608v-74q-147 -19 -147 -129v-494q0 -229 83.5 -337.5t231.5 -108.5q150 0 240 107t90 327v506q0 109 -156 129v74h445v-74q-158 -20 -158 -129v-551q0 -252 -135 -395t-395 -143q-124 0 -224.5 33.5t-176 101t-117 178.5t-41.5 258v518q0 111 -148 129z" />
<glyph unicode="V" d="M41 1198v74h580v-74q-44 -7 -69.5 -22.5t-32.5 -39t-1.5 -50.5t21.5 -62l278 -598q9 -26 18 -26.5t19 24.5l260 588q17 36 17 66q0 32 -19 57q-36 48 -137 63v74h479v-74q-85 -17 -129 -65t-86 -144l-340 -770q-55 -117 -55 -219h-174l-430 940q-7 14 -22.5 48.5 t-20 45.5t-17.5 36.5t-19 34t-18 26t-21 24.5t-22 17t-27.5 16t-31.5 10z" />
<glyph unicode="W" horiz-adv-x="2148" d="M41 1198v74h569v-74q-44 -7 -69.5 -22t-33 -39t-3.5 -51t18 -62l240 -584q10 -26 20 -26t21 26l104 279q6 15 21 51t20 50t13.5 44t8 50t-5 48t-16.5 56q-38 87 -69 125.5t-91 54.5v74h570v-74q-44 -7 -69.5 -22t-33 -39t-3.5 -51t18 -62l239 -584q10 -26 20.5 -26 t20.5 26l219 572q15 36 15 66q0 97 -156 120v74h479v-74q-85 -18 -130.5 -66.5t-82.5 -142.5l-299 -770q-59 -144 -59 -219h-162l-317 756l-209 -537q-57 -146 -57 -219h-164l-394 940q-57 139 -77 173q-39 62 -104 82q-5 2 -11 3z" />
<glyph unicode="X" horiz-adv-x="1431" d="M41 0v74q39 3 83 24t107 68.5t148.5 139t187.5 222.5l33 37l-289 426q-56 82 -128.5 141t-141.5 66v74h637v-74q-50 -5 -76 -28.5t-25 -54t23 -60.5l178 -262q217 250 217 345q0 36 -30 50q-17 8 -41 10v74h460v-74q-84 -7 -208 -105.5t-320 -347.5l-25 -32l293 -434 q54 -81 126 -139.5t141 -65.5v-74h-635v74q50 5 75.5 28.5t24.5 54t-22 62.5l-181 268q-224 -255 -224 -353q0 -46 50 -57q10 -2 21 -3v-74h-459z" />
<glyph unicode="Y" horiz-adv-x="1400" d="M31 1198v74h602v-74q-47 -4 -73 -22q-25 -17 -25 -52q0 -40 38 -96l209 -328q6 -10 14.5 -10t14.5 10l221 332q27 44 27 79q0 33 -30 57q-31 25 -89 30v74h430v-74q-34 -4 -65 -20.5t-58.5 -46t-46 -54.5t-43.5 -63l-256 -387q-25 -37 -33 -73t-8 -101v-248 q0 -60 44.5 -91t146.5 -40v-74h-693v74q102 9 146.5 40t44.5 91v248q0 58 -10 92t-33 69l-242 367q-32 49 -49 74t-42 56.5t-44 46t-44.5 26.5t-53.5 14z" />
<glyph unicode="Z" horiz-adv-x="1267" d="M31 0l745 1128q7 10 9.5 17.5t0 14.5t-11.5 12t-26.5 7.5t-42.5 2.5h-254q-57 0 -100 -14t-77 -46t-58 -67.5t-56 -93.5h-72l74 311h1055l-736 -1114q-15 -23 -15 -38q0 -30 58 -30h314q66 0 109 11.5t79 50.5t53 67t56 106q2 4 3.5 6.5t3 6t3.5 6.5h72l-89 -344h-1097z " />
<glyph unicode="[" horiz-adv-x="636" d="M92 -307v1829q116 0 172 1t150.5 8.5t171.5 22.5v-65q0 -16 -15 -24.5t-55 -18.5l-172 -41v-1595l172 -41q40 -10 55 -18.5t15 -24.5v-66q-78 15 -170.5 23t-153 9t-170.5 1z" />
<glyph unicode="\" horiz-adv-x="864" d="M72 1313h174l547 -1313h-175z" />
<glyph unicode="]" horiz-adv-x="636" d="M51 -274q0 16 15 24.5t55 18.5l172 41v1595l-172 41q-40 10 -55 18.5t-15 24.5v65q77 -15 171.5 -22.5t150.5 -8.5t172 -1v-1829q-110 0 -170.5 -1t-153 -9t-170.5 -23v66z" />
<glyph unicode="^" horiz-adv-x="897" d="M107 952q-13 28 10 62l289 385q20 25 47 22.5t39 -22.5l286 -385q25 -34 11.5 -62t-48.5 -28h-24q-8 0 -17 2.5t-15 5.5t-14.5 8.5t-12 8.5t-11 10t-8.5 8l-190 192l-191 -190q-39 -45 -82 -45h-22q-34 0 -47 28z" />
<glyph unicode="_" horiz-adv-x="1253" d="M102 -41h1049v-149h-1049v149z" />
<glyph unicode="`" horiz-adv-x="628" d="M102 1366q0 39 26.5 67.5t66.5 28.5q58 0 120 -73l193 -211q33 -42 6 -76q-26 -29 -72 -2l-247 149q-93 54 -93 117z" />
<glyph unicode="a" horiz-adv-x="1085" d="M61 213q0 127 121 202.5t402 119.5q51 8 67.5 23.5t16.5 57.5v29q0 111 -34 163t-108 52q-62 0 -92 -28.5t-37 -69.5l-14 -82t-37 -69.5t-92 -28.5q-65 0 -99 35.5t-34 91.5q0 76 68 130t170.5 78.5t226.5 24.5q95 0 159 -17.5t110.5 -61t67.5 -119t21 -189.5v-360 q0 -57 18 -81q11 -15 33 -15q13 0 29 5v-41q-39 -75 -160 -75q-89 0 -135 41t-55 98q-3 20 -14.5 22.5t-26.5 -14.5q-45 -60 -121 -103.5t-182 -43.5q-114 0 -191.5 56t-77.5 169zM342 266q0 -55 31.5 -90t95.5 -35q87 0 143 62t56 155v39q0 36 -18 49q-14 10 -44 10 q-9 0 -20 -1q-71 -5 -121.5 -24.5t-75.5 -48t-36 -57t-11 -59.5z" />
<glyph unicode="b" horiz-adv-x="1218" d="M20 1212v72l310 55q14 2 26 2q72 0 72 -79v-390q0 -18 7 -25.5t17.5 -5t22.5 12.5q35 35 106 61.5t160 26.5q84 0 158.5 -31t132 -88t91.5 -146t34 -198q0 -93 -25 -173t-68 -138t-100 -99t-122 -61t-133 -20q-60 0 -120 16.5t-98 36.5t-76 36.5t-61 16.5 q-28 0 -56 -26.5t-54 -53t-49 -26.5q-20 0 -31.5 12.5t-11.5 32.5v1071q0 68 -32 90q-26 18 -76 19q-12 0 -24 -1zM428 365q0 -79 24 -139t62 -92t78 -47t80 -15q95 0 142.5 83.5t47.5 227.5q0 112 -27 202.5t-82 145.5t-130 55q-38 0 -70 -13t-61.5 -43t-46.5 -87.5 t-17 -138.5v-139z" />
<glyph unicode="c" horiz-adv-x="1042" d="M61 461q0 95 30 175t80.5 135.5t117 94.5t140.5 57.5t151 18.5q167 0 278 -81t111 -189q0 -55 -31.5 -93t-97.5 -38q-116 0 -135 129q-11 84 -24 113q-33 72 -122 73q-102 0 -152.5 -80.5t-50.5 -208.5q0 -192 99 -310t254 -118q125 0 206 109l56 -39q-14 -36 -47.5 -73 t-84 -71t-123.5 -55.5t-155 -21.5q-96 0 -184 30.5t-159.5 88t-114 149.5t-42.5 205z" />
<glyph unicode="d" horiz-adv-x="1220" d="M61 451q0 116 38 211.5t101 155.5t141.5 92t162.5 32q57 0 111.5 -15.5t83 -30t51 -19.5t30.5 14.5t8 73.5v139q0 68 -32 90q-26 18 -75 19q-11 0 -24 -1v72l310 55q14 2 26 2q72 0 72 -79v-1067q-1 -53 23 -77q14 -14 34 -14q15 0 33 7v-43q-20 -41 -65 -60.5t-97 -19.5 q-56 0 -104 21.5t-66 64.5q-21 53 -59 53q-12 0 -31 -14.5t-44.5 -34.5t-57 -40.5t-78 -35t-98.5 -14.5q-76 0 -146.5 31t-126 88t-88.5 146.5t-33 197.5zM354 549q0 -106 31 -198.5t88.5 -150t128.5 -57.5q33 0 64 12t59.5 37t45.5 72t17 109v127q0 92 -22.5 163.5 t-58.5 112.5t-77.5 61.5t-84.5 20.5q-88 0 -139.5 -86.5t-51.5 -222.5z" />
<glyph unicode="e" horiz-adv-x="1062" d="M61 459q0 95 29.5 175.5t79.5 136.5t117 95t141 57.5t152 18.5q164 0 272.5 -78t108.5 -205q0 -37 -10.5 -65.5t-26 -49t-45 -35.5t-55 -24t-69.5 -16t-76 -10.5t-85 -7.5l-166 -11q-53 -3 -53 -65q0 -108 95.5 -173t219.5 -65q154 0 246 107l55 -49q-16 -32 -51.5 -66 t-88 -66.5t-128.5 -53.5t-160 -21q-78 0 -150.5 18t-136.5 56.5t-112 93.5t-75.5 133t-27.5 170zM362 598q0 -47 15 -66t53 -18l90 8q111 7 149 37t38 98q0 83 -39.5 141t-118.5 58q-52 0 -90 -25t-58 -65t-29.5 -82t-9.5 -86z" />
<glyph unicode="f" horiz-adv-x="899" d="M41 819v64q88 12 127 31.5t39 66.5q0 197 113 306.5t298 109.5q121 0 201 -46t80 -130q0 -49 -31.5 -83t-95.5 -34q-50 0 -82 23t-45.5 55t-23.5 64.5t-26 55.5t-44 23q-40 0 -54 -48.5t-14 -164.5v-133q0 -40 25.5 -53t101.5 -13h144v-100l-144 12q-13 1 -25 1 q-55 0 -76 -16q-26 -19 -26 -71v-534q0 -73 37 -101t146 -32v-72h-605v72q83 5 114.5 33t31.5 100v538q0 46 -12.5 61t-44.5 15h-109z" />
<glyph unicode="g" horiz-adv-x="1120" d="M31 -197q0 24 6 45.5t19 38t25 29.5t32 24.5t32.5 17.5t34 14t28.5 11q18 6 25 9t10.5 7t-5.5 8t-29 9q-56 14 -92.5 55.5t-36.5 94.5q0 61 51 106.5t145 57.5q-85 43 -131.5 115t-46.5 165q0 146 104.5 239t301.5 93q233 0 354 -137q0 57 30.5 95t90.5 38q47 0 79 -25.5 t32 -78.5t-34 -80q-24 -18 -55 -18q-12 0 -26 3q-35 7 -51 -8t-13 -47q1 -10 4 -26t5 -29t2 -25q0 -139 -100.5 -232t-280.5 -93q-33 0 -79 5t-63 5q-75 0 -75 -45q0 -26 27.5 -40t97.5 -26l233 -43q83 -16 140 -32t109 -42t77.5 -64t25.5 -89q0 -92 -77.5 -168.5t-209 -120 t-286.5 -43.5q-117 0 -212.5 24t-156.5 76.5t-61 126.5zM285 -182q0 -70 69.5 -119t188.5 -49q111 0 173 45.5t62 120.5q0 57 -40.5 78t-168.5 47l-71 12q-26 5 -49 5q-59 0 -103 -30q-61 -42 -61 -110zM365 668q0 -77 16 -144.5t57 -116.5t101 -49q116 0 116 195 q0 77 -16 144.5t-57 117t-101 49.5q-116 0 -116 -196z" />
<glyph unicode="h" horiz-adv-x="1228" d="M31 0v72q73 5 102 34.5t29 104.5v893q0 68 -32 90q-26 18 -75 19q-11 0 -24 -1v72l309 55q14 2 26 2q72 0 72 -79v-388q0 -35 10.5 -54.5t25 -18t28.5 15.5q45 58 108.5 94.5t169.5 36.5q303 0 303 -354v-399q0 -53 24 -77q14 -14 34 -14q15 0 33 7v-43 q-19 -41 -64 -60.5t-98 -19.5q-93 0 -149 52.5t-56 154.5v352q0 102 -48.5 169.5t-133.5 67.5q-89 0 -138 -67t-49 -170v-336q0 -75 28.5 -104.5t98.5 -34.5v-72h-534z" />
<glyph unicode="i" horiz-adv-x="636" d="M51 0v72q73 5 102 34.5t29 104.5v494q0 67 -32 89q-25 18 -71 18q-12 0 -26 -1v74l307 53q13 2 24 2q32 0 50 -15q25 -20 25 -63v-651q0 -75 28.5 -104.5t98.5 -34.5v-72h-535zM135 1212q0 67 47 112.5t115 45.5q64 0 111 -46t47 -112q0 -68 -47 -113.5t-111 -45.5 q-68 0 -115 45.5t-47 113.5z" />
<glyph unicode="j" horiz-adv-x="612" d="M-154 -240q0 56 34.5 91.5t90.5 35.5q43 0 71.5 -22t41.5 -53.5t22 -62.5t20 -53t28 -22q24 0 36.5 30.5t12.5 76.5v924q0 67 -31 89q-25 18 -72 18q-12 0 -26 -1v74l309 53q14 2 25 2q71 0 71 -78v-946q0 -158 -104 -243t-258 -85q-68 0 -126.5 15t-101.5 55.5 t-43 101.5zM156 1212q0 67 47 112.5t114 45.5q65 0 112.5 -45.5t47.5 -112.5q0 -68 -47 -113.5t-113 -45.5q-67 0 -114 45.5t-47 113.5z" />
<glyph unicode="k" horiz-adv-x="1200" d="M31 0v72q73 5 102 34.5t29 104.5v893q0 68 -32 90q-26 18 -75 19q-11 0 -24 -1v72l309 55q14 2 26 2q72 0 72 -79v-670q0 -45 26 -61t52 8l232 196q22 19 23.5 45t-26 47.5t-79.5 24.5v72h454v-72q-71 -4 -123 -33.5t-123 -91.5l-147 -127l281 -412q37 -55 77.5 -82 t114.5 -34v-72h-549v72q35 5 48.5 23t9.5 39t-19 44l-133 203q-25 41 -53 41q-32 0 -49 -41t-17 -107v-63q0 -75 28.5 -104.5t98.5 -34.5v-72h-534z" />
<glyph unicode="l" horiz-adv-x="583" d="M20 1212v72l310 55q14 2 26 2q72 0 72 -79v-1067q0 -53 24 -77q14 -14 33 -14q15 0 33 7v-43q-20 -41 -65.5 -60.5t-98.5 -19.5q-92 0 -147 52.5t-55 154.5v909q0 68 -32 90q-26 18 -76 19q-12 0 -24 -1z" />
<glyph unicode="m" horiz-adv-x="1818" d="M51 0v72q73 5 102 34.5t29 104.5v494q0 69 -32 91q-26 18 -75 18q-11 0 -24 -1v72l309 53q13 2 25 2q31 0 49 -13q26 -18 25.5 -53t10 -53.5t24.5 -17t28 13.5q53 57 116.5 94t156.5 37q161 0 233 -112q25 -36 49 -36q16 0 31 15q59 69 124.5 101t151.5 32 q287 0 287 -370v-383q-1 -53 23 -77q14 -14 34 -14q15 0 33 7v-43q-19 -41 -64 -60.5t-98 -19.5q-93 0 -148.5 52.5t-55.5 154.5v352q0 105 -41.5 171t-120.5 66q-80 0 -124 -66.5t-44 -170.5v-336q0 -75 29 -104.5t102 -34.5v-72h-532v72q69 5 96.5 34.5t27.5 104.5v336 q0 104 -42 170.5t-119 66.5q-80 0 -124 -66.5t-44 -170.5v-336q0 -75 27.5 -104.5t93.5 -34.5v-72h-529z" />
<glyph unicode="n" horiz-adv-x="1249" d="M51 0v72q73 5 102 34.5t29 104.5v494q0 67 -32 89q-25 18 -72 18q-13 0 -27 -1v74l309 53q13 2 25 2q31 0 49 -13q26 -18 25 -53q0 -34 10.5 -53.5t24.5 -18.5t28 15q47 59 110.5 95t168.5 36q303 0 303 -354v-399q0 -53 23 -76q14 -14 36 -14q14 0 31 6v-43 q-19 -41 -64 -60.5t-98 -19.5q-93 0 -149 52.5t-56 154.5v352q0 102 -48.5 169.5t-133.5 67.5q-88 0 -137 -67t-49 -170v-336q0 -75 28.5 -104.5t98.5 -34.5v-72h-535z" />
<glyph unicode="o" horiz-adv-x="1118" d="M61 469q0 94 28 173t75.5 133.5t111 93t134.5 56t147 17.5q97 0 185 -30.5t159 -88t113.5 -151.5t42.5 -211q0 -94 -28 -173t-75.5 -133.5t-111 -93t-134.5 -56t-147 -17.5q-97 0 -185 30.5t-159 88t-113.5 151.5t-42.5 211zM356 555q0 -128 30 -237.5t86 -176.5t126 -67 q75 0 119.5 74t44.5 229q0 128 -28.5 236.5t-84.5 175.5t-129 67q-76 0 -120 -73.5t-44 -227.5z" />
<glyph unicode="p" horiz-adv-x="1239" d="M41 -317q73 5 102 33.5t29 99.5v889q0 67 -32 89q-25 18 -72 18q-13 0 -27 -1v74l309 53q13 2 24 2q31 0 50 -14q25 -19 25 -60v-18q0 -25 15 -30.5t32 13.5q38 42 109 76.5t163 34.5q81 0 154.5 -31t131 -88t91 -146t33.5 -198q0 -115 -39 -210.5t-103.5 -155.5 t-144.5 -92.5t-166 -32.5q-57 0 -108 14t-84 28.5t-46 14.5q-23 0 -30.5 -21.5t-7.5 -76.5v-131q0 -72 30.5 -100t110.5 -33v-72h-549v72zM449 365q0 -83 23.5 -143.5t61.5 -91t76.5 -44.5t77.5 -14q98 0 146.5 83.5t48.5 227.5q0 112 -27.5 202.5t-82.5 145.5t-130 55 q-38 0 -70 -13t-61 -43t-46 -88.5t-17 -139.5v-137z" />
<glyph unicode="q" horiz-adv-x="1196" d="M61 449q0 95 25 175.5t68.5 138.5t101.5 98.5t125.5 60.5t140.5 20q68 0 129 -18.5t95.5 -41t69 -41t56.5 -18.5q29 0 55.5 29.5t50 58.5t46.5 29q43 0 43 -45v-1079q0 -71 28.5 -99.5t100.5 -33.5v-72h-557v72q88 4 120 32.5t32 100.5v237q0 47 -35 47q-17 0 -29 -12 q-39 -39 -105.5 -69.5t-154.5 -30.5q-171 0 -288.5 123t-117.5 338zM354 551q0 -107 30.5 -199t89 -150.5t132.5 -58.5q35 0 65 13t58.5 43t45 89.5t16.5 141.5v21q0 109 -22.5 191.5t-60 127.5t-78.5 66.5t-85 21.5q-90 0 -140.5 -85.5t-50.5 -221.5z" />
<glyph unicode="r" horiz-adv-x="1011" d="M51 0v72q73 5 102 34.5t29 104.5v494q0 67 -32 89q-25 18 -72 18q-13 0 -27 -1v74l309 53q13 2 25 2q31 0 49 -13q26 -18 25 -53v-38q0 -31 18.5 -35t40.5 22q108 125 240 125q98 0 160.5 -55.5t63.5 -140.5q0 -71 -45.5 -117.5t-121.5 -46.5q-44 0 -70 16t-33.5 40 t-12.5 52.5t-7.5 52.5t-18.5 40t-46 16q-73 0 -120.5 -93t-47.5 -280v-221q0 -76 30 -105t109 -34v-72h-547z" />
<glyph unicode="s" horiz-adv-x="927" d="M76 191q-4 21 -3 40q1 29 9 51q14 37 53 37q48 0 62 -47q35 -108 96.5 -155t150.5 -47q95 0 132.5 38.5t37.5 90.5t-45 80t-153 59q-72 21 -126 46t-104 62t-77 90.5t-27 120.5q0 133 110 209t275 76q94 0 178 -24t139 -64q40 -79 40 -151v-11q-4 -78 -62 -78 q-47 0 -62 48q-65 202 -239 202q-133 0 -133 -114q0 -108 161 -154q143 -42 198 -68q179 -84 179 -245q0 -72 -36 -129.5t-96.5 -93t-136.5 -54t-161 -18.5q-98 0 -182 25t-141 67q-27 57 -37 111z" />
<glyph unicode="t" horiz-adv-x="780" d="M31 834v63q112 28 181 82t122 143q19 31 53 31h33q19 0 30 -11.5t11 -31.5l-2 -131q0 -33 24 -44t99 -11h137v-103l-137 8q-20 2 -36 2q-45 -1 -63 -13q-24 -16 -24 -68v-457q0 -98 22.5 -144.5t91.5 -46.5q64 0 109 35q24 -28 24 -50q0 -16 -12 -28q-76 -69 -223 -69 q-136 0 -212.5 74t-76.5 217v473q0 49 -12.5 64.5t-44.5 15.5h-94z" />
<glyph unicode="u" horiz-adv-x="1259" d="M51 811v74l309 53q13 2 24 2q32 0 50 -15q25 -20 25 -63v-454q0 -114 47.5 -184t134.5 -70q88 0 137 70t49 184v292q1 68 -31 91q-28 20 -85 20h-15v74l312 53q14 2 25 2q71 0 71 -78v-667q0 -53 24 -77q14 -14 33 -14q15 0 33 7v-43q-37 -80 -166 -80q-87 0 -130.5 41 t-53.5 92q-9 39 -33 39q-14 0 -33 -23q-32 -41 -63.5 -69.5t-94.5 -54t-139 -25.5q-299 0 -299 370v342q0 68 -32 91q-28 20 -84 20h-15z" />
<glyph unicode="v" horiz-adv-x="1150" d="M20 852v72h512v-72q-76 -21 -86 -59q-2 -9 -3 -19q0 -37 28 -98l143 -377q25 -63 46.5 -63t46.5 63l67 182q27 73 42.5 126.5t19.5 92.5q2 18 2 34t-2 30q-4 26 -21.5 43.5t-39.5 27t-56 17.5v72h411v-72q-88 -20 -124 -56t-70 -120l-262 -676h-228l-260 676 q-30 78 -65.5 116.5t-100.5 59.5z" />
<glyph unicode="w" horiz-adv-x="1701" d="M20 852v72h508v-72q-76 -20 -86 -59q-3 -10 -2 -22q0 -37 23 -95l123 -377q20 -63 44.5 -63t43.5 63l57 195q25 91 25 159q0 38 -8 68q-31 100 -123 131v72h508v-72q-77 -20 -87 -59q-2 -10 -2 -21q0 -37 23 -96l121 -377q20 -63 44.5 -63t43.5 63l55 182q44 149 50 223 q1 14 1 27q0 52 -20 76q-25 29 -92 45v72h411v-72q-91 -21 -130.5 -58.5t-65.5 -117.5l-234 -676h-227l-188 545l-189 -545h-227l-234 676q-24 76 -61.5 115t-104.5 61z" />
<glyph unicode="x" horiz-adv-x="1058" d="M31 0v72q83 23 145.5 68.5t134.5 125.5l121 137l-188 256q-69 93 -109 130.5t-104 62.5v72h491v-72q-35 -9 -50 -20.5t-9.5 -38.5t19 -52t48.5 -82l52 -81q69 82 101.5 127t39.5 76t-9.5 45t-60.5 26v72h371v-72q-84 -24 -147.5 -69.5t-133.5 -125.5l-112 -131l186 -262 q64 -91 105 -128.5t106 -63.5v-72h-491v72q48 11 60 33.5t-4.5 57.5t-64.5 101l-61 80q-69 -81 -102 -126.5t-38.5 -76t12 -43.5t62.5 -26v-72h-370z" />
<glyph unicode="y" horiz-adv-x="1153" d="M20 852v72h512v-72q-76 -21 -88 -59q-2 -10 -2 -22q0 -36 25 -95l147 -375q17 -43 31.5 -57t29.5 0.5t32 58.5l67 178q40 109 55 177q9 39 9 69q0 22 -4 38q-11 40 -37 57.5t-78 29.5v72h414v-72q-89 -21 -126.5 -57.5t-68.5 -118.5l-303 -782q-63 -165 -135.5 -232.5 t-186.5 -67.5q-103 0 -169 47t-66 119q0 53 34 89t95 36q45 0 70.5 -21t34 -50.5t14 -59t19 -50.5t40.5 -21q28 0 51.5 21.5t32.5 53.5q15 39 15 86q0 68 -33 152l-265 680q-30 78 -65.5 116.5t-100.5 59.5z" />
<glyph unicode="z" horiz-adv-x="956" d="M31 0l493 760q22 34 10 52.5t-53 18.5h-119q-96 0 -142.5 -45.5t-69.5 -130.5h-72l37 269h811l-494 -760q-22 -34 -10 -53t53 -19h143q96 0 144 46t69 130h70l-37 -268h-833z" />
<glyph unicode="{" horiz-adv-x="610" d="M92 567v76q81 36 106 58t25 67v354q0 77 9 134.5t33 115.5t73.5 103t124.5 75l96 -55q-41 -21 -60 -71t-22 -96t-2 -154v-52v-278q0 -101 -45 -157.5t-137 -78.5v-6q93 -22 137.5 -78t44.5 -157v-279v-52v-81t2 -66.5t7.5 -61t14.5 -45.5t24 -40.5t36 -26.5l-96 -55 q-75 30 -124.5 75t-73.5 103t-33 115.5t-9 134.5v354q0 45 -25 67t-106 58z" />
<glyph unicode="|" horiz-adv-x="499" d="M205 -440v2078h90v-2078h-90z" />
<glyph unicode="}" horiz-adv-x="610" d="M51 -285q41 21 60 71t22 96t2 154v52v279q0 101 44.5 157t137.5 78v6q-92 22 -137 78.5t-45 157.5v278v52v81t-2 66.5t-7.5 61t-14.5 45.5t-24 40.5t-36 26.5l96 55q75 -30 124.5 -75t73.5 -103t33 -115.5t9 -134.5v-354q0 -45 25 -67t106 -58v-76q-81 -36 -106 -58 t-25 -67v-354q0 -77 -9 -134.5t-33 -115.5t-73.5 -103t-124.5 -75z" />
<glyph unicode="~" horiz-adv-x="1054" d="M102 410q0 121 65.5 187.5t182.5 66.5q59 0 123.5 -23t110.5 -50t98 -50t90 -23q43 0 72.5 23t29.5 73h78q0 -121 -65.5 -187.5t-181.5 -66.5q-59 0 -123.5 23t-110.5 50t-99 50t-91 23q-41 0 -71 -25.5t-30 -70.5h-78z" />
<glyph unicode="&#xa1;" horiz-adv-x="512" d="M92 -215q0 79 24 189t49 246.5t28 273.5h126q3 -137 28 -273.5t49 -246.5t24 -189q0 -76 -45.5 -122t-118.5 -46q-70 0 -117 46.5t-47 121.5zM106 782q0 63 44 107.5t106 44.5t106 -44.5t44 -107.5t-44 -107t-106 -44t-106 44t-44 107z" />
<glyph unicode="&#xa2;" horiz-adv-x="1042" d="M61 461q0 95 30 175t80.5 135.5t117 94.5t140.5 57.5t151 18.5l38 -2l33 123h58l-35 -129q131 -21 213 -96t82 -166q0 -55 -31.5 -93t-97.5 -38q-116 0 -135 129q-1 4 -3.5 23t-4 26t-5 24t-7 26.5t-9.5 22t-13.5 22t-17.5 17.5l-164 -602q93 -90 228 -90q125 0 206 109 l56 -39q-14 -36 -47.5 -73t-84 -71t-123.5 -55.5t-155 -21.5q-66 0 -141 16l-35 -129h-57l39 145q-136 51 -221 163.5t-85 277.5zM356 567q0 -170 82 -286l156 573q-5 0 -17 1t-18 1q-102 0 -152.5 -80.5t-50.5 -208.5z" />
<glyph unicode="&#xa3;" horiz-adv-x="1155" d="M82 477v62h145q-11 27 -41 94t-46 107t-31 99.5t-15 110.5q0 166 134 260.5t347 94.5q223 0 358.5 -99t135.5 -256q0 -97 -50.5 -154t-125.5 -57q-60 0 -102.5 35.5t-42.5 97.5q0 26 13 74.5t13 85.5q0 88 -54 141.5t-140 53.5q-49 0 -85.5 -20t-56.5 -53t-29.5 -69 t-9.5 -73q0 -54 21.5 -119.5t47.5 -118t51 -118.5t30 -117h319v-62h-319q-19 -171 -279 -254h342q187 0 280 30.5t126 111.5h55l-35 -236q-10 -44 -7 -74t5.5 -37t10.5 -18h-959v164q93 52 136.5 101.5t43.5 113.5q0 45 -18 98h-168z" />
<glyph unicode="&#xa4;" horiz-adv-x="1204" d="M102 70l152 149q-80 110 -80 248q0 132 76 242l-148 147l109 111l147 -150q110 76 240 76q135 0 246 -78l151 152l107 -111l-150 -149q76 -110 76 -240q0 -135 -78 -246l152 -151l-107 -109l-153 154q-113 -76 -244 -76q-129 0 -236 74l-151 -152zM332 467 q0 -114 77.5 -196.5t190.5 -82.5q110 0 190 83t80 196q0 111 -80 193.5t-190 82.5q-112 0 -190 -82t-78 -194z" />
<glyph unicode="&#xa5;" horiz-adv-x="1400" d="M31 1198v74h602v-74q-47 -4 -73 -22t-24.5 -56t37.5 -92l209 -328q6 -10 14.5 -10t14.5 10l221 332q25 41 26.5 76t-29.5 60t-89 30v74h430v-74q-34 -4 -65 -20.5t-58.5 -46t-46 -54.5t-43.5 -63l-256 -387q-38 -55 -41 -144h289v-61h-289v-68h289v-61h-289v-88 q0 -60 44.5 -91t146.5 -40v-74h-693v74q102 9 146.5 40t44.5 91v88h-289v61h289v68h-289v61h289q-5 75 -43 131l-242 367q-32 49 -49 74t-42 56.5t-44 46t-44.5 26.5t-53.5 14z" />
<glyph unicode="&#xa6;" horiz-adv-x="499" d="M205 274h90v-714h-90v714zM205 924v714h90v-714h-90z" />
<glyph unicode="&#xa7;" horiz-adv-x="1093" d="M80 963q0 161 125 251.5t315 90.5q114 0 229 -27.5t177 -67.5q20 -52 30.5 -105t9 -98t-20.5 -73.5t-54 -28.5q-18 0 -26 8.5t-19 36.5q-44 123 -139 188.5t-205 65.5q-91 0 -135.5 -43.5t-44.5 -99.5q0 -85 64 -132t198 -87q50 -15 84 -26.5t84 -32.5t84 -41.5t72 -52 t61 -66t38 -82t15 -101.5q0 -169 -145 -235q147 -104 147 -277q0 -76 -29.5 -135.5t-77.5 -97t-112.5 -62t-128.5 -34t-133 -9.5q-117 0 -234.5 29.5t-181.5 71.5q-29 69 -38.5 138.5t7.5 118t62 48.5q18 0 26 -9t19 -38q50 -129 149.5 -193.5t220.5 -66.5q95 0 141 41.5 t46 111.5q0 36 -17.5 66.5t-42 51t-70 41t-81 32.5t-96.5 30q-76 23 -140 56t-117.5 79.5t-83.5 111.5t-30 141q0 163 141 235q-143 110 -143 277zM324 549q0 -85 64 -132t198 -87q91 -26 153 -54q19 36 19 78q0 23 -5.5 43.5t-20 38t-27.5 30.5t-40 27t-44 22.5t-54 21.5 t-55 19t-61 19q-47 13 -109 41q-18 -34 -18 -67z" />
<glyph unicode="&#xa8;" horiz-adv-x="989" d="M102 1208q0 69 47 115.5t115 46.5q65 0 111.5 -47t46.5 -115q0 -66 -46.5 -111.5t-111.5 -45.5q-68 0 -115 45.5t-47 111.5zM567 1208q0 69 47 115.5t115 46.5q65 0 111.5 -47t46.5 -115q0 -66 -46.5 -111.5t-111.5 -45.5q-68 0 -115 45.5t-47 111.5z" />
<glyph unicode="&#xa9;" horiz-adv-x="1474" d="M61 643q0 186 88 337.5t243 238t345 86.5t345 -86.5t243 -238t88 -337.5q0 -140 -52 -263t-141.5 -211t-215 -138.5t-267.5 -50.5t-267.5 50.5t-215 138.5t-141.5 211t-52 263zM141 643q0 -165 78 -300t214.5 -211.5t303.5 -76.5t303.5 76.5t214.5 211.5t78 300t-78 299 t-214.5 210.5t-303.5 76.5t-303.5 -76.5t-214.5 -210.5t-78 -299zM358 633q0 95 34.5 170t92.5 120t128 68t147 23q132 0 221.5 -62.5t89.5 -146.5q0 -43 -25 -75t-75 -32q-51 0 -78 30.5t-27 72.5q0 15 -1.5 30t-8.5 36t-19 36.5t-35 27t-54 11.5q-83 0 -122.5 -68.5 t-39.5 -175.5q0 -150 74.5 -238.5t201.5 -88.5q47 0 84.5 18.5t77.5 67.5l47 -39q-30 -58 -119 -112t-211 -54q-162 0 -272.5 103t-110.5 278z" />
<glyph unicode="&#xaa;" horiz-adv-x="737" d="M51 819q0 53 29.5 89t113.5 67t234 53v39q0 156 -90 156q-32 0 -46 -17.5t-17.5 -42t-8.5 -49t-27.5 -42t-66.5 -17.5t-64 22.5t-20 55.5q0 72 81.5 111.5t190.5 39.5q122 0 187 -52t65 -173v-232q0 -52 21.5 -71t52.5 0v-62q-27 -30 -92 -30q-50 0 -91 29.5t-52 82.5 q-23 -53 -76.5 -83t-128.5 -31q-49 -1 -90.5 11.5t-73 49.5t-31.5 96zM111 471v84h516v-84h-516zM242 827q0 -37 19 -59.5t52 -22.5q54 0 84.5 51.5t30.5 129.5v53q-57 -7 -96.5 -25t-57.5 -41.5t-25 -44t-7 -41.5z" />
<glyph unicode="&#xab;" horiz-adv-x="960" d="M129 545q-36 29 0 57l279 234q23 19 47 2q21 -18 2 -47l-154 -218l154 -217q9 -12 8 -25.5t-10 -21.5q-23 -16 -47 4zM514 545q-36 29 0 57l279 234q23 19 47 2q21 -18 2 -47l-154 -218l154 -217q9 -12 8 -25.5t-10 -21.5q-23 -16 -47 4z" />
<glyph unicode="&#xac;" horiz-adv-x="1114" d="M102 700v91h910v-498h-90v407h-820z" />
<glyph unicode="&#xad;" horiz-adv-x="757" d="M102 440v158h553v-158h-553z" />
<glyph unicode="&#xae;" horiz-adv-x="1474" d="M61 643q0 186 88 337.5t243 238t345 86.5t345 -86.5t243 -238t88 -337.5q0 -140 -52 -263t-141.5 -211t-215 -138.5t-267.5 -50.5t-267.5 50.5t-215 138.5t-141.5 211t-52 263zM141 643q0 -165 78 -300t214.5 -211.5t303.5 -76.5t303.5 76.5t214.5 211.5t78 300t-78 299 t-214.5 210.5t-303.5 76.5t-303.5 -76.5t-214.5 -210.5t-78 -299zM379 262v51q76 12 76 76v502q0 64 -76 76v51h377q142 0 221.5 -51.5t79.5 -153.5q0 -147 -176 -188q-6 -1 -6 -7t6 -8q58 -14 92.5 -54t58.5 -126q11 -34 19 -54t25 -40.5t38 -22.5l-4 -51q-74 0 -123 11 t-80 38t-47 56.5t-35 81.5q-30 85 -56.5 113t-82.5 28q-53 0 -53 -66v-135q0 -63 78 -76v-51h-332zM633 725q0 -66 51 -66h45q143 0 143 146q0 143 -137 143h-47q-55 0 -55 -57v-166z" />
<glyph unicode="&#xaf;" horiz-adv-x="899" d="M119 1229v82q0 37 43 37h575q43 0 43 -37v-82q0 -37 -43 -37h-575q-43 0 -43 37z" />
<glyph unicode="&#xb0;" horiz-adv-x="655" d="M61 1047q0 104 79 181t188 77q108 0 187 -76.5t79 -181.5q0 -103 -79 -179.5t-187 -76.5t-187.5 76.5t-79.5 179.5zM193 1047q0 -58 36 -100t99 -42t100 42t37 100q0 59 -37 101t-100 42t-99 -42t-36 -101z" />
<glyph unicode="&#xb1;" horiz-adv-x="962" d="M102 0v88h758v-88h-758zM102 678v88h336v336h88v-336h334v-88h-334v-336h-88v336h-336z" />
<glyph unicode="&#xb2;" horiz-adv-x="604" d="M82 776q0 38 15.5 71.5t41 58t55.5 47t60.5 44.5t56 44.5t41 53t15.5 64.5q0 42 -20 65t-56 23t-55.5 -22.5t-18 -52t20.5 -50.5q0 -27 -21.5 -44t-54.5 -17q-28 0 -51 24.5t-23 63.5q0 61 53 104t160 43q99 0 151 -40.5t52 -106.5q0 -43 -22 -78t-59 -60t-76.5 -45.5 t-83.5 -46.5t-70 -51h186q44 0 62 11t38 39h43l-20 -113q-6 -29 -43 -29h-377z" />
<glyph unicode="&#xb3;" horiz-adv-x="587" d="M72 907q0 29 15.5 47.5t45.5 18.5q28 0 43 -16.5t21 -40t12.5 -47t24 -40t49.5 -16.5q43 0 65.5 29.5t22.5 81.5q0 48 -20.5 72t-52 22t-67.5 -17l-20 46q72 27 101.5 55t29.5 65t-20.5 58.5t-49.5 21.5q-26 0 -42.5 -21.5t-18.5 -51t4 -58.5q-47 -35 -85 -14t-38 67 q0 52 49.5 89.5t141.5 37.5t140 -34t48 -93q0 -35 -20 -60.5t-76 -47.5q62 -6 96.5 -42.5t34.5 -88.5q0 -73 -66 -118.5t-164 -45.5q-97 0 -150.5 43t-53.5 98z" />
<glyph unicode="&#xb4;" horiz-adv-x="628" d="M115 1102q-26 36 6 76l192 211q66 73 121 73q40 0 66 -28.5t26 -67.5q0 -64 -92 -117l-248 -149q-45 -27 -71 2z" />
<glyph unicode="&#xb5;" horiz-adv-x="1259" d="M51 811v74l309 53q49 7 74 -13t25 -63v-454q0 -114 47.5 -184t134.5 -70q88 0 137 70t49 184v292q0 68 -31.5 91t-99.5 20v74l312 53q96 15 96 -76v-667q0 -54 23.5 -77.5t66.5 -6.5v-43q-37 -80 -166 -80q-87 0 -130.5 41t-53.5 92q-9 39 -33 39q-14 0 -33 -23 q-24 -31 -45 -52.5t-54.5 -46t-78.5 -37.5t-98 -13q-107 0 -166 59q9 -68 28.5 -121t39.5 -81.5t39 -49.5t29.5 -36.5t8.5 -30.5q-10 -73 -84 -114t-144.5 -18t-70.5 107v997q0 68 -31.5 91t-99.5 20z" />
<glyph unicode="&#xb6;" horiz-adv-x="1689" d="M61 848q0 190 123.5 307t352.5 117h1091v-78q-147 -15 -147 -129v-1049q0 -114 147 -129v-77h-1126v77q147 15 147 129v283q0 58 -25 83.5t-87 25.5q-227 0 -351.5 124t-124.5 316zM961 16q0 -59 29 -94t73 -35q45 0 74.5 35t29.5 94v1049q0 59 -29.5 94t-74.5 35 q-44 0 -73 -35t-29 -94v-1049z" />
<glyph unicode="&#xb7;" horiz-adv-x="503" d="M102 612q0 63 44 107.5t106 44.5t105.5 -44.5t43.5 -107.5t-43.5 -107t-105.5 -44t-106 44t-44 107z" />
<glyph unicode="&#xb8;" horiz-adv-x="612" d="M31 -326q0 42 29.5 72t72.5 29t76 -39q0 -18 4.5 -39.5t14 -44.5t29 -38t44.5 -15q47 0 71.5 39t24.5 92q0 98 -73 98q-14 0 -44.5 -8t-48.5 -8q-36 0 -51.5 25.5t-1.5 56.5l53 106h179l-41 -90q84 2 148.5 -49.5t64.5 -134.5q0 -101 -88.5 -157t-208.5 -56 q-111 0 -182.5 48t-71.5 113z" />
<glyph unicode="&#xb9;" horiz-adv-x="391" d="M61 1171v41l146 74q25 11 43 -0.5t18 -30.5v-368q0 -37 13 -51.5t49 -22.5v-37h-264v37q40 8 53.5 22t13.5 52v284h-72z" />
<glyph unicode="&#xba;" horiz-adv-x="747" d="M51 975q0 143 94.5 226t229.5 83q85 0 157 -35t118 -106.5t46 -167.5q0 -141 -94.5 -227t-226.5 -86q-133 0 -228.5 84.5t-95.5 228.5zM117 471v84h516v-84h-516zM238 1018q0 -122 46 -206.5t113 -84.5q49 0 81 50.5t32 150.5q0 122 -46.5 207.5t-113.5 85.5 q-49 0 -80.5 -50.5t-31.5 -152.5z" />
<glyph unicode="&#xbb;" horiz-adv-x="960" d="M111 330.5q-1 13.5 8 25.5l153 217l-153 218q-19 29 2 47q24 17 47 -2l278 -234q36 -28 0 -57l-278 -232q-24 -20 -47 -4q-9 8 -10 21.5zM496 330.5q-1 13.5 8 25.5l153 217l-153 218q-19 29 2 47q24 17 47 -2l278 -234q36 -28 0 -57l-278 -232q-24 -20 -47 -4 q-9 8 -10 21.5z" />
<glyph unicode="&#xbc;" horiz-adv-x="1361" d="M61 1171v41l146 74q25 11 43 -0.5t18 -30.5v-368q0 -37 13 -51.5t49 -22.5v-37h-264v37q40 8 53.5 22t13.5 52v284h-72zM94 -10l996 1313h84l-994 -1313h-86zM864 141v76l252 301l86 -18v-299h76v-60h-76v-30q0 -39 15.5 -54.5t60.5 -19.5v-37h-293v37q49 4 64.5 19.5 t15.5 54.5v30h-201zM938 201h127v147z" />
<glyph unicode="&#xbd;" horiz-adv-x="1417" d="M61 1171v41l146 74q25 11 43 -0.5t18 -30.5v-368q0 -37 13 -51.5t49 -22.5v-37h-264v37q40 8 53.5 22t13.5 52v284h-72zM94 -10l996 1313h84l-994 -1313h-86zM895 0q0 52 29.5 95.5t71.5 73.5t83.5 59.5t71 68.5t29.5 86q0 42 -20 65t-56 23t-55.5 -22.5t-18 -52 t20.5 -50.5q0 -27 -21.5 -44t-54.5 -17q-28 0 -51 24.5t-23 63.5q0 61 53 104t160 43q99 0 151 -40.5t52 -106.5q0 -43 -22 -78t-59 -60t-76.5 -45.5t-83.5 -46.5t-70 -51h186q44 0 62 10.5t38 38.5h43l-20 -112q-6 -29 -43 -29h-377z" />
<glyph unicode="&#xbe;" horiz-adv-x="1443" d="M72 907q0 29 15.5 47.5t45.5 18.5q28 0 43 -16.5t21 -40t12.5 -47t24 -40t49.5 -16.5q43 0 65.5 29.5t22.5 81.5q0 48 -20.5 72t-52 22t-67.5 -17l-20 46q72 27 101.5 55t29.5 65t-20.5 58.5t-49.5 21.5q-26 0 -42.5 -21.5t-18.5 -51t4 -58.5q-47 -35 -85 -14t-38 67 q0 52 49.5 89.5t141.5 37.5t140 -34t48 -93q0 -35 -20 -60.5t-76 -47.5q62 -6 96.5 -42.5t34.5 -88.5q0 -73 -66 -118.5t-164 -45.5q-97 0 -150.5 43t-53.5 98zM272 -10l996 1313h84l-994 -1313h-86zM948 141v76l252 301l86 -18v-299h76v-60h-76v-30q0 -39 15.5 -54.5 t60.5 -19.5v-37h-293v37q49 4 64.5 19.5t15.5 54.5v30h-201zM1022 201h127v147z" />
<glyph unicode="&#xbf;" horiz-adv-x="1019" d="M72 152q0 60 20.5 111t53.5 87t73.5 69t81.5 65t76 65.5t59 80.5t29 101h115q10 -80 1.5 -137.5t-31 -106t-51.5 -83t-60 -69t-57 -63.5t-43 -67.5t-17 -79.5q0 -76 55 -132t145 -56q75 0 127.5 38t52.5 109q0 49 -33.5 108t-33.5 89q0 53 42 87.5t97 34.5 q71 0 122.5 -57.5t51.5 -161.5q0 -155 -121 -255.5t-329 -100.5q-191 0 -308.5 88t-117.5 236zM373 993q0 63 43.5 107.5t105.5 44.5t106 -44.5t44 -107.5t-44 -107t-106 -44t-105.5 44t-43.5 107z" />
<glyph unicode="&#xc0;" d="M41 0v74q84 19 127.5 66.5t85.5 142.5l342 770q55 117 55 219l168 14l436 -954q7 -15 22 -49t20.5 -45t18 -36.5t18.5 -34t17.5 -26.5t21 -24.5t22.5 -17.5t27.5 -16.5t31.5 -10.5v-72h-580v74q59 10 83.5 34t21.5 56.5t-25 83.5l-14 33q-17 40 -46 51.5t-75 11.5h-313 q-46 0 -73 -12.5t-44 -50.5l-8 -21q-67 -151 139 -186v-74h-479zM455 1714q0 39 26 67.5t66 28.5q59 0 121 -73l192 -211q33 -42 6 -76q-26 -29 -71 -2l-248 149q-92 53 -92 117zM479 483q-7 -18 5 -29.5t28 -11.5h301q19 0 27.5 13.5t-0.5 38.5l-162 354q-8 18 -14 23.5 t-11.5 0t-11.5 -23.5z" />
<glyph unicode="&#xc1;" d="M41 0v74q84 19 127.5 66.5t85.5 142.5l342 770q55 117 55 219l168 14l436 -954q7 -15 22 -49t20.5 -45t18 -36.5t18.5 -34t17.5 -26.5t21 -24.5t22.5 -17.5t27.5 -16.5t31.5 -10.5v-72h-580v74q59 10 83.5 34t21.5 56.5t-25 83.5l-14 33q-17 40 -46 51.5t-75 11.5h-313 q-46 0 -73 -12.5t-44 -50.5l-8 -21q-67 -151 139 -186v-74h-479zM479 483q-7 -18 5 -29.5t28 -11.5h301q19 0 27.5 13.5t-0.5 38.5l-162 354q-8 18 -14 23.5t-11.5 0t-11.5 -23.5zM637 1450q-26 36 6 76l193 211q66 73 120 73q40 0 66.5 -28.5t26.5 -67.5q0 -63 -93 -117 l-247 -149q-46 -27 -72 2z" />
<glyph unicode="&#xc2;" d="M41 0v74q84 19 127.5 66.5t85.5 142.5l342 770q55 117 55 219l168 14l436 -954q7 -15 22 -49t20.5 -45t18 -36.5t18.5 -34t17.5 -26.5t21 -24.5t22.5 -17.5t27.5 -16.5t31.5 -10.5v-72h-580v74q59 10 83.5 34t21.5 56.5t-25 83.5l-14 33q-17 40 -46 51.5t-75 11.5h-313 q-46 0 -73 -12.5t-44 -50.5l-8 -21q-67 -151 139 -186v-74h-479zM463.5 1405.5q0.5 14.5 9.5 24.5l234 276q29 40 57 0l231 -276q9 -11 10 -25t-6 -23q-8 -11 -21.5 -11.5t-25.5 9.5l-217 162l-217 -162q-29 -23 -47 2q-8 9 -7.5 23.5zM479 483q-7 -18 5 -29.5t28 -11.5h301 q19 0 27.5 13.5t-0.5 38.5l-162 354q-8 18 -14 23.5t-11.5 0t-11.5 -23.5z" />
<glyph unicode="&#xc3;" d="M41 0v74q84 19 127.5 66.5t85.5 142.5l342 770q55 117 55 219l168 14l436 -954q7 -15 22 -49t20.5 -45t18 -36.5t18.5 -34t17.5 -26.5t21 -24.5t22.5 -17.5t27.5 -16.5t31.5 -10.5v-72h-580v74q59 10 83.5 34t21.5 56.5t-25 83.5l-14 33q-17 40 -46 51.5t-75 11.5h-313 q-46 0 -73 -12.5t-44 -50.5l-8 -21q-67 -151 139 -186v-74h-479zM397 1524q0 101 52 153t135 52q50 0 97 -21t77 -46t71 -46t80 -21q36 0 62 17.5t30 50.5q3 29 29 29h14q12 0 20.5 -8t8.5 -23q0 -103 -51.5 -155t-134.5 -52q-51 0 -98 21t-77.5 46.5t-71 46.5t-79.5 21 q-37 0 -63.5 -17t-30.5 -52q-3 -27 -29 -27h-12q-29 0 -29 31zM479 483q-7 -18 5 -29.5t28 -11.5h301q19 0 27.5 13.5t-0.5 38.5l-162 354q-8 18 -14 23.5t-11.5 0t-11.5 -23.5z" />
<glyph unicode="&#xc4;" d="M41 0v74q84 19 127.5 66.5t85.5 142.5l342 770q55 117 55 219l168 14l436 -954q7 -15 22 -49t20.5 -45t18 -36.5t18.5 -34t17.5 -26.5t21 -24.5t22.5 -17.5t27.5 -16.5t31.5 -10.5v-72h-580v74q59 10 83.5 34t21.5 56.5t-25 83.5l-14 33q-17 40 -46 51.5t-75 11.5h-313 q-46 0 -73 -12.5t-44 -50.5l-8 -21q-67 -151 139 -186v-74h-479zM342 1556q0 69 47 115.5t115 46.5q65 0 111.5 -47t46.5 -115q0 -66 -46.5 -111.5t-111.5 -45.5q-68 0 -115 45.5t-47 111.5zM479 483q-7 -18 5 -29.5t28 -11.5h301q19 0 27.5 13.5t-0.5 38.5l-162 354 q-8 18 -14 23.5t-11.5 0t-11.5 -23.5zM807 1556q0 69 47 115.5t115 46.5q65 0 111 -47t46 -115q0 -66 -46 -111.5t-111 -45.5q-68 0 -115 45.5t-47 111.5z" />
<glyph unicode="&#xc5;" d="M41 0v74q84 19 127.5 66.5t85.5 142.5l342 770q55 117 55 219l168 14l436 -954q7 -15 22 -49t20.5 -45t18 -36.5t18.5 -34t17.5 -26.5t21 -24.5t22.5 -17.5t27.5 -16.5t31.5 -10.5v-72h-580v74q59 10 83.5 34t21.5 56.5t-25 83.5l-14 33q-17 40 -46 51.5t-75 11.5h-313 q-46 0 -73 -12.5t-44 -50.5l-8 -21q-67 -151 139 -186v-74h-479zM479 483q-7 -18 5 -29.5t28 -11.5h301q19 0 27.5 13.5t-0.5 38.5l-162 354q-8 18 -14 23.5t-11.5 0t-11.5 -23.5zM514 1655q0 87 64.5 150t154.5 63t154.5 -63t64.5 -150t-64 -148t-155 -61t-155 61t-64 148z M647 1655q0 -38 23 -63t63 -25t63 25t23 63q0 37 -23 63.5t-63 26.5t-63 -26.5t-23 -63.5z" />
<glyph unicode="&#xc6;" horiz-adv-x="2025" d="M41 0v74q84 17 123.5 39t83.5 92l543 852q78 125 36 141v74h1016q26 0 29 -23q15 -139 43 -262h-49q-53 100 -110 145.5t-146 45.5h-193q-129 0 -129 -123v-244q0 -62 31 -91.5t98 -29.5h109q59 0 96 7.5t59 27t31.5 45.5t16.5 70h43v-394h-43q-9 57 -25 86.5t-58.5 46.5 t-119.5 17h-109q-67 0 -98 -29.5t-31 -91.5v-260q0 -125 125 -125h223q92 0 144 29.5t90 87.5l49 72h51q-42 -86 -61 -250q-3 -29 -33 -29h-1049v74q148 19 148 131v162h-408q-41 0 -67 -16.5t-58 -63.5l-55 -86q-21 -33 -24 -55t14.5 -36t45.5 -21.5t77 -14.5v-74h-459z M585 484q9 -17 40 -17h350v657l-383 -600q-16 -23 -7 -40z" />
<glyph unicode="&#xc7;" horiz-adv-x="1366" d="M61 643q0 153 56.5 279t153.5 209t226.5 128.5t276.5 45.5q120 0 221 -31t165.5 -81t100 -112t35.5 -127q0 -74 -43.5 -125t-130.5 -51q-81 0 -124 47.5t-48 122.5q-3 55 -17.5 102.5t-42 88t-74.5 63.5t-109 23q-146 0 -226.5 -123.5t-77.5 -333.5q1 -119 29.5 -220.5 t77.5 -172.5t114 -121t138.5 -74t150.5 -24q193 0 326 149l55 -45q-22 -41 -60.5 -83t-99.5 -87t-151.5 -75.5t-194.5 -34.5l-32 -70q84 2 148.5 -49.5t64.5 -134.5q0 -101 -88.5 -157t-208.5 -56q-111 0 -182.5 48t-71.5 113q0 42 29.5 72t72.5 29t76 -39q0 -18 4.5 -39.5 t14 -44.5t29 -38t44.5 -15q47 0 71.5 39t24.5 92q0 98 -73 98q-14 0 -44.5 -8t-48.5 -8q-36 0 -51.5 25.5t-1.5 56.5l49 98q-116 21 -215.5 74t-175 134t-119 195t-43.5 248z" />
<glyph unicode="&#xc8;" horiz-adv-x="1261" d="M61 0v74q148 18 148 131v864q0 111 -148 129v74h1018q24 0 27 -23q13 -123 45 -262h-51q-53 100 -110 145.5t-146 45.5h-191q-131 0 -131 -123v-244q0 -62 32 -91.5t99 -29.5h107q59 0 96 7.5t59.5 27t33 45.5t16.5 70h41v-394h-41q-9 57 -25.5 86.5t-59 46.5t-120.5 17 h-107q-67 0 -99 -29.5t-32 -91.5v-260q0 -125 125 -125h225q92 0 143 29.5t91 87.5l49 72h49q-43 -95 -61 -250q-3 -29 -33 -29h-1049zM369 1714q0 39 26 67.5t66 28.5q59 0 121 -73l192 -211q33 -42 6 -76q-26 -29 -71 -2l-248 149q-92 53 -92 117z" />
<glyph unicode="&#xc9;" horiz-adv-x="1261" d="M61 0v74q148 18 148 131v864q0 111 -148 129v74h1018q24 0 27 -23q13 -123 45 -262h-51q-53 100 -110 145.5t-146 45.5h-191q-131 0 -131 -123v-244q0 -62 32 -91.5t99 -29.5h107q59 0 96 7.5t59.5 27t33 45.5t16.5 70h41v-394h-41q-9 57 -25.5 86.5t-59 46.5t-120.5 17 h-107q-67 0 -99 -29.5t-32 -91.5v-260q0 -125 125 -125h225q92 0 143 29.5t91 87.5l49 72h49q-43 -95 -61 -250q-3 -29 -33 -29h-1049zM551 1450q-26 36 6 76l193 211q66 73 120 73q40 0 66.5 -28.5t26.5 -67.5q0 -63 -93 -117l-247 -149q-46 -27 -72 2z" />
<glyph unicode="&#xca;" horiz-adv-x="1261" d="M61 0v74q148 18 148 131v864q0 111 -148 129v74h1018q24 0 27 -23q13 -123 45 -262h-51q-53 100 -110 145.5t-146 45.5h-191q-131 0 -131 -123v-244q0 -62 32 -91.5t99 -29.5h107q59 0 96 7.5t59.5 27t33 45.5t16.5 70h41v-394h-41q-9 57 -25.5 86.5t-59 46.5t-120.5 17 h-107q-67 0 -99 -29.5t-32 -91.5v-260q0 -125 125 -125h225q92 0 143 29.5t91 87.5l49 72h49q-43 -95 -61 -250q-3 -29 -33 -29h-1049zM375.5 1405.5q0.5 14.5 9.5 24.5l233 276q29 40 58 0l231 -276q9 -11 10 -25t-6 -23q-8 -11 -21.5 -11.5t-25.5 9.5l-217 162l-217 -162 q-29 -23 -47 2q-8 9 -7.5 23.5z" />
<glyph unicode="&#xcb;" horiz-adv-x="1261" d="M61 0v74q148 18 148 131v864q0 111 -148 129v74h1018q24 0 27 -23q13 -123 45 -262h-51q-53 100 -110 145.5t-146 45.5h-191q-131 0 -131 -123v-244q0 -62 32 -91.5t99 -29.5h107q59 0 96 7.5t59.5 27t33 45.5t16.5 70h41v-394h-41q-9 57 -25.5 86.5t-59 46.5t-120.5 17 h-107q-67 0 -99 -29.5t-32 -91.5v-260q0 -125 125 -125h225q92 0 143 29.5t91 87.5l49 72h49q-43 -95 -61 -250q-3 -29 -33 -29h-1049zM254 1556q0 69 47 115.5t115 46.5q65 0 111 -47t46 -115q0 -66 -46 -111.5t-111 -45.5q-68 0 -115 45.5t-47 111.5zM719 1556 q0 69 47 115.5t115 46.5q65 0 111 -47t46 -115q0 -66 -46 -111.5t-111 -45.5q-68 0 -115 45.5t-47 111.5z" />
<glyph unicode="&#xcc;" horiz-adv-x="731" d="M61 0v74q148 18 148 131v864q0 111 -148 129v74h609v-74q-148 -19 -148 -129v-864q0 -112 148 -131v-74h-609zM88 1714q0 39 26 67.5t66 28.5q59 0 121 -73l193 -211q33 -42 6 -76q-26 -29 -72 -2l-248 149q-92 53 -92 117z" />
<glyph unicode="&#xcd;" horiz-adv-x="731" d="M61 0v74q148 18 148 131v864q0 111 -148 129v74h609v-74q-148 -19 -148 -129v-864q0 -112 148 -131v-74h-609zM270 1450q-26 36 6 76l193 211q66 73 121 73q40 0 66 -28.5t26 -67.5q0 -64 -92 -117l-248 -149q-46 -27 -72 2z" />
<glyph unicode="&#xce;" horiz-adv-x="731" d="M61 0v74q148 18 148 131v864q0 111 -148 129v74h609v-74q-148 -19 -148 -129v-864q0 -112 148 -131v-74h-609zM94.5 1405.5q0.5 14.5 9.5 24.5l234 276q28 40 57 0l232 -276q9 -11 10 -25t-6 -23q-8 -11 -21.5 -11.5t-25.5 9.5l-217 162l-217 -162q-14 -10 -27 -9.5 t-21 11.5q-8 9 -7.5 23.5z" />
<glyph unicode="&#xcf;" horiz-adv-x="731" d="M-25 1556q0 69 47 115.5t115 46.5q65 0 111.5 -47t46.5 -115q0 -66 -46.5 -111.5t-111.5 -45.5q-68 0 -115 45.5t-47 111.5zM61 0v74q148 18 148 131v864q0 111 -148 129v74h609v-74q-148 -19 -148 -129v-864q0 -112 148 -131v-74h-609zM440 1556q0 69 47 115.5t115 46.5 q65 0 111.5 -47t46.5 -115q0 -66 -46.5 -111.5t-111.5 -45.5q-68 0 -115 45.5t-47 111.5z" />
<glyph unicode="&#xd0;" horiz-adv-x="1468" d="M61 0v74q148 18 148 131v391h-146v80h146v391q0 113 -148 131v74h598q727 0 727 -625q0 -117 -27 -213.5t-70 -161.5t-103 -115t-120.5 -78t-129.5 -46t-122 -23.5t-105 -5.5q-39 0 -174.5 6t-200.5 6q-132 0 -273 -16zM522 207q0 -111 140 -111q128 0 215 74.5 t126 195.5t39 281q0 258 -100.5 395.5t-265.5 137.5h-23q-68 0 -99.5 -27.5t-31.5 -87.5v-389h205v-80h-205v-389z" />
<glyph unicode="&#xd1;" horiz-adv-x="1482" d="M61 0v74q158 20 158 131v864q0 109 -158 129v74h367l705 -813v610q0 109 -160 129v74h436v-74q-158 -20 -158 -129v-1069h-114l-799 920v-715q0 -111 160 -131v-74h-437zM391 1524q0 101 52 153t135 52q50 0 97 -21t77 -46t71 -46t80 -21q36 0 62 17.5t30 50.5 q3 29 29 29h14q12 0 20.5 -8t8.5 -23q0 -103 -51.5 -155t-134.5 -52q-51 0 -98 21t-77.5 46.5t-71 46.5t-79.5 21q-37 0 -63.5 -17t-30.5 -52q-3 -27 -29 -27h-12q-29 0 -29 31z" />
<glyph unicode="&#xd2;" horiz-adv-x="1480" d="M61 631q0 154 57 283.5t152.5 213.5t219 130.5t258.5 46.5q105 0 203.5 -27t183 -81.5t148 -131t100 -181.5t36.5 -227q0 -156 -56.5 -285.5t-152 -214t-219 -131t-258.5 -46.5q-104 0 -202.5 27t-183.5 81.5t-149 131.5t-100.5 182.5t-36.5 228.5zM399 745 q0 -188 53 -341.5t143.5 -239.5t197.5 -86q55 0 104 25.5t91.5 78.5t67.5 146t25 215q0 186 -53 338.5t-143 238.5t-197 86q-55 0 -104.5 -25.5t-92 -78t-67.5 -144.5t-25 -213zM494 1714q0 39 26 67.5t66 28.5q59 0 121 -73l192 -211q33 -42 6 -76q-26 -29 -71 -2l-248 149 q-92 53 -92 117z" />
<glyph unicode="&#xd3;" horiz-adv-x="1480" d="M61 631q0 154 57 283.5t152.5 213.5t219 130.5t258.5 46.5q105 0 203.5 -27t183 -81.5t148 -131t100 -181.5t36.5 -227q0 -156 -56.5 -285.5t-152 -214t-219 -131t-258.5 -46.5q-104 0 -202.5 27t-183.5 81.5t-149 131.5t-100.5 182.5t-36.5 228.5zM399 745 q0 -188 53 -341.5t143.5 -239.5t197.5 -86q55 0 104 25.5t91.5 78.5t67.5 146t25 215q0 186 -53 338.5t-143 238.5t-197 86q-55 0 -104.5 -25.5t-92 -78t-67.5 -144.5t-25 -213zM625 1450q-26 36 6 76l192 211q66 73 121 73q40 0 66 -28.5t26 -67.5q0 -64 -92 -117 l-248 -149q-45 -27 -71 2z" />
<glyph unicode="&#xd4;" horiz-adv-x="1480" d="M61 631q0 154 57 283.5t152.5 213.5t219 130.5t258.5 46.5q105 0 203.5 -27t183 -81.5t148 -131t100 -181.5t36.5 -227q0 -156 -56.5 -285.5t-152 -214t-219 -131t-258.5 -46.5q-104 0 -202.5 27t-183.5 81.5t-149 131.5t-100.5 182.5t-36.5 228.5zM399 745 q0 -188 53 -341.5t143.5 -239.5t197.5 -86q55 0 104 25.5t91.5 78.5t67.5 146t25 215q0 186 -53 338.5t-143 238.5t-197 86q-55 0 -104.5 -25.5t-92 -78t-67.5 -144.5t-25 -213zM451.5 1405.5q0.5 14.5 9.5 24.5l233 276q29 40 58 0l231 -276q9 -11 10 -25t-6 -23 q-8 -11 -21.5 -11.5t-25.5 9.5l-217 162l-217 -162q-29 -23 -47 2q-8 9 -7.5 23.5z" />
<glyph unicode="&#xd5;" horiz-adv-x="1480" d="M61 631q0 154 57 283.5t152.5 213.5t219 130.5t258.5 46.5q105 0 203.5 -27t183 -81.5t148 -131t100 -181.5t36.5 -227q0 -156 -56.5 -285.5t-152 -214t-219 -131t-258.5 -46.5q-104 0 -202.5 27t-183.5 81.5t-149 131.5t-100.5 182.5t-36.5 228.5zM371 1524 q0 101 51.5 153t134.5 52q50 0 97 -21t77.5 -46t71.5 -46t80 -21q36 0 62 17.5t30 50.5q3 29 29 29h14q12 0 20.5 -8t8.5 -23q0 -102 -52 -154.5t-135 -52.5q-51 0 -98 21t-77 46.5t-70.5 46.5t-79.5 21q-37 0 -64 -17t-31 -52q-3 -27 -28 -27h-13q-28 0 -28 31zM399 745 q0 -188 53 -341.5t143.5 -239.5t197.5 -86q55 0 104 25.5t91.5 78.5t67.5 146t25 215q0 186 -53 338.5t-143 238.5t-197 86q-55 0 -104.5 -25.5t-92 -78t-67.5 -144.5t-25 -213z" />
<glyph unicode="&#xd6;" horiz-adv-x="1480" d="M61 631q0 154 57 283.5t152.5 213.5t219 130.5t258.5 46.5q105 0 203.5 -27t183 -81.5t148 -131t100 -181.5t36.5 -227q0 -156 -56.5 -285.5t-152 -214t-219 -131t-258.5 -46.5q-104 0 -202.5 27t-183.5 81.5t-149 131.5t-100.5 182.5t-36.5 228.5zM330 1556 q0 69 47 115.5t115 46.5q65 0 111 -47t46 -115q0 -66 -46 -111.5t-111 -45.5q-68 0 -115 45.5t-47 111.5zM399 745q0 -188 53 -341.5t143.5 -239.5t197.5 -86q55 0 104 25.5t91.5 78.5t67.5 146t25 215q0 186 -53 338.5t-143 238.5t-197 86q-55 0 -104.5 -25.5t-92 -78 t-67.5 -144.5t-25 -213zM795 1556q0 69 46.5 115.5t114.5 46.5q65 0 111.5 -47t46.5 -115q0 -66 -46.5 -111.5t-111.5 -45.5q-68 0 -114.5 45.5t-46.5 111.5z" />
<glyph unicode="&#xd7;" horiz-adv-x="804" d="M102 754l66 59l235 -235l238 239l61 -65l-235 -238l238 -238l-66 -59l-236 236l-237 -238l-62 61l238 238z" />
<glyph unicode="&#xd8;" horiz-adv-x="1480" d="M61 631q0 154 57 283.5t152.5 213.5t219 130.5t258.5 46.5q229 0 409 -123l70 86l43 -37l-68 -84q102 -85 159.5 -209.5t57.5 -280.5t-56.5 -285.5t-152 -214t-219 -131t-258.5 -46.5q-223 0 -399 116l-80 -96l-43 37l78 94q-107 85 -167.5 212.5t-60.5 287.5zM399 745 q0 -219 72 -393l516 625q-55 109 -132 169t-167 60q-55 0 -104.5 -25.5t-92 -78t-67.5 -144.5t-25 -213zM498 297q56 -104 132 -161.5t163 -57.5q55 0 104 25.5t91.5 78.5t67.5 146t25 215q0 215 -67 377z" />
<glyph unicode="&#xd9;" horiz-adv-x="1497" d="M51 1198v74h608v-74q-147 -19 -147 -129v-494q0 -229 83.5 -337.5t231.5 -108.5q150 0 240 107t90 327v506q0 109 -156 129v74h445v-74q-158 -20 -158 -129v-551q0 -252 -135 -395t-395 -143q-124 0 -224.5 33.5t-176 101t-117 178.5t-41.5 258v518q0 111 -148 129z M555 1714q0 39 26 67.5t66 28.5q59 0 121 -73l193 -211q33 -42 6 -76q-26 -29 -72 -2l-248 149q-92 53 -92 117z" />
<glyph unicode="&#xda;" horiz-adv-x="1497" d="M51 1198v74h608v-74q-147 -19 -147 -129v-494q0 -229 83.5 -337.5t231.5 -108.5q150 0 240 107t90 327v506q0 109 -156 129v74h445v-74q-158 -20 -158 -129v-551q0 -252 -135 -395t-395 -143q-124 0 -224.5 33.5t-176 101t-117 178.5t-41.5 258v518q0 111 -148 129z M686 1450q-26 36 6 76l193 211q66 73 121 73q40 0 66 -28.5t26 -67.5q0 -64 -92 -117l-248 -149q-46 -27 -72 2z" />
<glyph unicode="&#xdb;" horiz-adv-x="1497" d="M51 1198v74h608v-74q-147 -19 -147 -129v-494q0 -229 83.5 -337.5t231.5 -108.5q150 0 240 107t90 327v506q0 109 -156 129v74h445v-74q-158 -20 -158 -129v-551q0 -252 -135 -395t-395 -143q-124 0 -224.5 33.5t-176 101t-117 178.5t-41.5 258v518q0 111 -148 129z M510.5 1405.5q0.5 14.5 9.5 24.5l234 276q29 40 57 0l231 -276q9 -11 10.5 -25t-5.5 -23q-8 -11 -22 -11.5t-26 9.5l-217 162l-217 -162q-29 -23 -47 2q-8 9 -7.5 23.5z" />
<glyph unicode="&#xdc;" horiz-adv-x="1497" d="M51 1198v74h608v-74q-147 -19 -147 -129v-494q0 -229 83.5 -337.5t231.5 -108.5q150 0 240 107t90 327v506q0 109 -156 129v74h445v-74q-158 -20 -158 -129v-551q0 -252 -135 -395t-395 -143q-124 0 -224.5 33.5t-176 101t-117 178.5t-41.5 258v518q0 111 -148 129z M389 1556q0 69 47 115.5t115 46.5q65 0 111.5 -47t46.5 -115q0 -66 -46.5 -111.5t-111.5 -45.5q-68 0 -115 45.5t-47 111.5zM854 1556q0 69 47 115.5t115 46.5q65 0 111.5 -47t46.5 -115q0 -66 -46.5 -111.5t-111.5 -45.5q-68 0 -115 45.5t-47 111.5z" />
<glyph unicode="&#xdd;" horiz-adv-x="1400" d="M31 1198v74h602v-74q-47 -4 -73 -22t-24.5 -56t37.5 -92l209 -328q6 -10 14.5 -10t14.5 10l221 332q25 41 26.5 76t-29.5 60t-89 30v74h430v-74q-34 -4 -65 -20.5t-58.5 -46t-46 -54.5t-43.5 -63l-256 -387q-25 -37 -33 -73t-8 -101v-248q0 -60 44.5 -91t146.5 -40v-74 h-693v74q102 9 146.5 40t44.5 91v248q0 58 -10 92t-33 69l-242 367q-32 49 -49 74t-42 56.5t-44 46t-44.5 26.5t-53.5 14zM707 1450q-26 36 6 76l192 211q66 73 121 73q40 0 66 -28.5t26 -67.5q0 -64 -92 -117l-248 -149q-45 -27 -71 2z" />
<glyph unicode="&#xde;" horiz-adv-x="1298" d="M61 0v74q148 18 148 131v864q0 111 -148 129v74h609v-74q-66 -6 -105 -33t-39 -75q0 -78 109 -78h63q279 0 414 -100.5t135 -274.5t-135 -274.5t-414 -100.5h-63q-113 0 -113 -80q0 -87 148 -108v-74h-609zM522 487q0 -58 25.5 -83t87.5 -25h63q76 0 126 19t75 56.5 t34 80t9 102.5t-9 102.5t-34 80t-75 56.5t-126 19h-63q-62 0 -87.5 -25.5t-25.5 -83.5v-299z" />
<glyph unicode="&#xdf;" horiz-adv-x="1261" d="M41 47v82q71 -17 100 -1t29 67v733q0 121 65 208t168.5 128t231.5 41q192 0 305 -90.5t113 -231.5q0 -91 -49 -162t-132 -114q62 -14 113 -38t97 -61.5t72 -96t26 -132.5q0 -100 -46.5 -175.5t-129.5 -119t-187 -65t-229 -21.5v86q148 9 225.5 79.5t77.5 215.5 q0 36 -4.5 66t-22.5 68.5t-48 65.5t-88 45.5t-136 18.5v84q92 0 148.5 73.5t56.5 192.5q0 46 -9 84.5t-30 72t-59 52.5t-91 19q-96 0 -129 -71t-33 -237v-743q0 -85 -51 -132.5t-143 -47.5q-122 0 -211 57z" />
<glyph unicode="&#xe0;" horiz-adv-x="1085" d="M61 213q0 127 121 202.5t402 119.5q51 8 67.5 23.5t16.5 57.5v29q0 111 -34 163t-108 52q-62 0 -92 -28.5t-37 -69.5l-14 -82t-37 -69.5t-92 -28.5q-65 0 -99 35.5t-34 91.5q0 76 68 130t170.5 78.5t226.5 24.5q95 0 159 -17.5t110.5 -61t67.5 -119t21 -189.5v-360 q0 -57 17.5 -81t62.5 -10v-41q-39 -75 -160 -75q-89 0 -135 41t-55 98q-3 20 -14.5 22.5t-26.5 -14.5q-45 -60 -121 -103.5t-182 -43.5q-114 0 -191.5 56t-77.5 169zM266 1366q0 39 26 67.5t66 28.5q59 0 121 -73l193 -211q33 -42 6 -76q-26 -29 -72 -2l-248 149 q-92 53 -92 117zM342 266q0 -55 31.5 -90t95.5 -35q87 0 143 62t56 155v39q0 36 -18 49t-64 9q-71 -5 -121.5 -24.5t-75.5 -48t-36 -57t-11 -59.5z" />
<glyph unicode="&#xe1;" horiz-adv-x="1085" d="M61 213q0 127 121 202.5t402 119.5q51 8 67.5 23.5t16.5 57.5v29q0 111 -34 163t-108 52q-62 0 -92 -28.5t-37 -69.5l-14 -82t-37 -69.5t-92 -28.5q-65 0 -99 35.5t-34 91.5q0 76 68 130t170.5 78.5t226.5 24.5q95 0 159 -17.5t110.5 -61t67.5 -119t21 -189.5v-360 q0 -57 17.5 -81t62.5 -10v-41q-39 -75 -160 -75q-89 0 -135 41t-55 98q-3 20 -14.5 22.5t-26.5 -14.5q-45 -60 -121 -103.5t-182 -43.5q-114 0 -191.5 56t-77.5 169zM342 266q0 -55 31.5 -90t95.5 -35q87 0 143 62t56 155v39q0 36 -18 49t-64 9q-71 -5 -121.5 -24.5 t-75.5 -48t-36 -57t-11 -59.5zM449 1102q-26 36 6 76l192 211q66 73 121 73q40 0 66 -28.5t26 -67.5q0 -64 -92 -117l-248 -149q-45 -27 -71 2z" />
<glyph unicode="&#xe2;" horiz-adv-x="1085" d="M61 213q0 127 121 202.5t402 119.5q51 8 67.5 23.5t16.5 57.5v29q0 111 -34 163t-108 52q-62 0 -92 -28.5t-37 -69.5l-14 -82t-37 -69.5t-92 -28.5q-65 0 -99 35.5t-34 91.5q0 76 68 130t170.5 78.5t226.5 24.5q95 0 159 -17.5t110.5 -61t67.5 -119t21 -189.5v-360 q0 -57 17.5 -81t62.5 -10v-41q-39 -75 -160 -75q-89 0 -135 41t-55 98q-3 20 -14.5 22.5t-26.5 -14.5q-45 -60 -121 -103.5t-182 -43.5q-114 0 -191.5 56t-77.5 169zM273.5 1057q0.5 14 9.5 24l233 277q28 40 57 0l232 -277q9 -11 10 -24.5t-6 -22.5q-8 -11 -21.5 -11.5 t-25.5 9.5l-217 162l-217 -162q-29 -23 -47 2q-8 9 -7.5 23zM342 266q0 -55 31.5 -90t95.5 -35q87 0 143 62t56 155v39q0 36 -18 49t-64 9q-71 -5 -121.5 -24.5t-75.5 -48t-36 -57t-11 -59.5z" />
<glyph unicode="&#xe3;" horiz-adv-x="1085" d="M61 213q0 127 121 202.5t402 119.5q51 8 67.5 23.5t16.5 57.5v29q0 111 -34 163t-108 52q-62 0 -92 -28.5t-37 -69.5l-14 -82t-37 -69.5t-92 -28.5q-65 0 -99 35.5t-34 91.5q0 76 68 130t170.5 78.5t226.5 24.5q95 0 159 -17.5t110.5 -61t67.5 -119t21 -189.5v-360 q0 -57 17.5 -81t62.5 -10v-41q-39 -75 -160 -75q-89 0 -135 41t-55 98q-3 20 -14.5 22.5t-26.5 -14.5q-45 -60 -121 -103.5t-182 -43.5q-114 0 -191.5 56t-77.5 169zM209 1176q0 101 51.5 152.5t134.5 51.5q50 0 97 -21t77.5 -45.5t71.5 -45.5t80 -21q36 0 62 17.5t30 50.5 q3 28 29 28h14q29 0 29 -30q0 -102 -52 -154.5t-135 -52.5q-51 0 -98 21t-77 46.5t-70.5 46.5t-79.5 21q-37 0 -63.5 -17.5t-30.5 -52.5q-3 -26 -29 -26h-12q-29 0 -29 31zM342 266q0 -55 31.5 -90t95.5 -35q87 0 143 62t56 155v39q0 36 -18 49t-64 9q-71 -5 -121.5 -24.5 t-75.5 -48t-36 -57t-11 -59.5z" />
<glyph unicode="&#xe4;" horiz-adv-x="1085" d="M61 213q0 127 121 202.5t402 119.5q51 8 67.5 23.5t16.5 57.5v29q0 111 -34 163t-108 52q-62 0 -92 -28.5t-37 -69.5l-14 -82t-37 -69.5t-92 -28.5q-65 0 -99 35.5t-34 91.5q0 76 68 130t170.5 78.5t226.5 24.5q95 0 159 -17.5t110.5 -61t67.5 -119t21 -189.5v-360 q0 -57 17.5 -81t62.5 -10v-41q-39 -75 -160 -75q-89 0 -135 41t-55 98q-3 20 -14.5 22.5t-26.5 -14.5q-45 -60 -121 -103.5t-182 -43.5q-114 0 -191.5 56t-77.5 169zM154 1208q0 69 46.5 115.5t114.5 46.5q65 0 111.5 -47t46.5 -115q0 -66 -46.5 -111.5t-111.5 -45.5 q-68 0 -114.5 45.5t-46.5 111.5zM342 266q0 -55 31.5 -90t95.5 -35q87 0 143 62t56 155v39q0 36 -18 49t-64 9q-71 -5 -121.5 -24.5t-75.5 -48t-36 -57t-11 -59.5zM618 1208q0 69 47 115.5t115 46.5q65 0 111.5 -47t46.5 -115q0 -66 -46.5 -111.5t-111.5 -45.5 q-68 0 -115 45.5t-47 111.5z" />
<glyph unicode="&#xe5;" horiz-adv-x="1085" d="M61 213q0 127 121 202.5t402 119.5q51 8 67.5 23.5t16.5 57.5v29q0 111 -34 163t-108 52q-62 0 -92 -28.5t-37 -69.5l-14 -82t-37 -69.5t-92 -28.5q-65 0 -99 35.5t-34 91.5q0 76 68 130t170.5 78.5t226.5 24.5q95 0 159 -17.5t110.5 -61t67.5 -119t21 -189.5v-360 q0 -57 17.5 -81t62.5 -10v-41q-39 -75 -160 -75q-89 0 -135 41t-55 98q-3 20 -14.5 22.5t-26.5 -14.5q-45 -60 -121 -103.5t-182 -43.5q-114 0 -191.5 56t-77.5 169zM326 1307q0 87 64.5 150t154.5 63t154.5 -63t64.5 -150t-64 -148t-155 -61t-155 61t-64 148zM342 266 q0 -55 31.5 -90t95.5 -35q87 0 143 62t56 155v39q0 36 -18 49t-64 9q-71 -5 -121.5 -24.5t-75.5 -48t-36 -57t-11 -59.5zM459 1307q0 -38 23 -63t63 -25t63 25t23 63q0 37 -23 63.5t-63 26.5t-63 -26.5t-23 -63.5z" />
<glyph unicode="&#xe6;" horiz-adv-x="1667" d="M61 209q0 125 120 199t401 116q51 7 67.5 24t16.5 60v23q0 116 -35 170.5t-109 54.5q-127 0 -127 -143q0 -65 -43 -99t-104 -34t-95 36t-34 89q0 73 70 128.5t174.5 82t220.5 26.5q98 0 162.5 -25.5t101.5 -85.5q140 111 334 111q164 0 272.5 -78t108.5 -205 q0 -37 -10.5 -65.5t-26 -49t-44.5 -35.5t-55 -24t-69.5 -16t-76 -10.5t-85.5 -7.5l-164 -11q-28 -2 -40.5 -17t-12.5 -48q0 -108 94.5 -173t218.5 -65q154 0 248 107l55 -49q-16 -31 -51.5 -65.5t-88.5 -67t-129.5 -53.5t-160.5 -21q-224 0 -381 157q-68 68 -127 2 q-55 -60 -140.5 -109.5t-184.5 -49.5q-117 0 -194 55.5t-77 165.5zM344 272q0 -54 36 -84t93 -30q95 0 143 53t48 133v27q0 43 -16.5 58t-63.5 11q-71 -5 -121.5 -22.5t-74.5 -43.5t-34 -50.5t-10 -51.5zM965 598q0 -47 14.5 -66t52.5 -18l90 8q112 7 150.5 36.5t38.5 98.5 q0 83 -40 141t-120 58q-51 0 -89 -25t-58 -65t-29.5 -82.5t-9.5 -85.5z" />
<glyph unicode="&#xe7;" horiz-adv-x="1042" d="M61 461q0 95 30 175t80.5 135.5t117 94.5t140.5 57.5t151 18.5q167 0 278 -81t111 -189q0 -55 -31.5 -93t-97.5 -38q-116 0 -135 129q-11 84 -24 113q-33 72 -122 73q-102 0 -152.5 -80.5t-50.5 -208.5q0 -192 99 -310t254 -118q125 0 206 109l56 -39 q-25 -63 -102.5 -124t-188.5 -85l-41 -90q84 2 148.5 -49.5t64.5 -134.5q0 -101 -88.5 -157t-208.5 -56q-111 0 -182.5 48t-71.5 113q0 42 29.5 72t72.5 29t76 -39q0 -18 4.5 -39.5t14 -44.5t29 -38t44.5 -15q47 0 72 39t25 92q0 98 -74 98q-14 0 -44 -8t-48 -8 q-36 0 -51.5 25.5t-1.5 56.5l49 98q-87 10 -164.5 44.5t-139 91.5t-97.5 143t-36 190z" />
<glyph unicode="&#xe8;" horiz-adv-x="1062" d="M61 459q0 95 29.5 175.5t79.5 136.5t117 95t141 57.5t152 18.5q164 0 272.5 -78t108.5 -205q0 -37 -10.5 -65.5t-26 -49t-45 -35.5t-55 -24t-69.5 -16t-76 -10.5t-85 -7.5l-166 -11q-53 -3 -53 -65q0 -108 95.5 -173t219.5 -65q154 0 246 107l55 -49q-16 -32 -51.5 -66 t-88 -66.5t-128.5 -53.5t-160 -21q-78 0 -150.5 18t-136.5 56.5t-112 93.5t-75.5 133t-27.5 170zM244 1366q0 39 26 67.5t66 28.5q59 0 121 -73l192 -211q33 -42 6 -76q-26 -29 -71 -2l-248 149q-92 53 -92 117zM362 598q0 -47 15 -66t53 -18l90 8q111 7 149 37t38 98 q0 83 -39.5 141t-118.5 58q-52 0 -90 -25t-58 -65t-29.5 -82t-9.5 -86z" />
<glyph unicode="&#xe9;" horiz-adv-x="1062" d="M61 459q0 95 29.5 175.5t79.5 136.5t117 95t141 57.5t152 18.5q164 0 272.5 -78t108.5 -205q0 -37 -10.5 -65.5t-26 -49t-45 -35.5t-55 -24t-69.5 -16t-76 -10.5t-85 -7.5l-166 -11q-53 -3 -53 -65q0 -108 95.5 -173t219.5 -65q154 0 246 107l55 -49q-16 -32 -51.5 -66 t-88 -66.5t-128.5 -53.5t-160 -21q-78 0 -150.5 18t-136.5 56.5t-112 93.5t-75.5 133t-27.5 170zM362 598q0 -47 15 -66t53 -18l90 8q111 7 149 37t38 98q0 83 -39.5 141t-118.5 58q-52 0 -90 -25t-58 -65t-29.5 -82t-9.5 -86zM424 1102q-26 36 6 76l193 211q66 73 120 73 q40 0 66.5 -28.5t26.5 -67.5q0 -63 -93 -117l-247 -149q-46 -27 -72 2z" />
<glyph unicode="&#xea;" horiz-adv-x="1062" d="M61 459q0 95 29.5 175.5t79.5 136.5t117 95t141 57.5t152 18.5q164 0 272.5 -78t108.5 -205q0 -37 -10.5 -65.5t-26 -49t-45 -35.5t-55 -24t-69.5 -16t-76 -10.5t-85 -7.5l-166 -11q-53 -3 -53 -65q0 -108 95.5 -173t219.5 -65q154 0 246 107l55 -49q-16 -32 -51.5 -66 t-88 -66.5t-128.5 -53.5t-160 -21q-78 0 -150.5 18t-136.5 56.5t-112 93.5t-75.5 133t-27.5 170zM250.5 1057q0.5 14 9.5 24l234 277q28 40 57 0l231 -277q9 -11 10 -24.5t-6 -22.5q-8 -11 -21.5 -11.5t-25.5 9.5l-217 162l-217 -162q-29 -23 -47 2q-8 9 -7.5 23zM362 598 q0 -47 15 -66t53 -18l90 8q111 7 149 37t38 98q0 83 -39.5 141t-118.5 58q-52 0 -90 -25t-58 -65t-29.5 -82t-9.5 -86z" />
<glyph unicode="&#xeb;" horiz-adv-x="1062" d="M61 459q0 95 29.5 175.5t79.5 136.5t117 95t141 57.5t152 18.5q164 0 272.5 -78t108.5 -205q0 -37 -10.5 -65.5t-26 -49t-45 -35.5t-55 -24t-69.5 -16t-76 -10.5t-85 -7.5l-166 -11q-53 -3 -53 -65q0 -108 95.5 -173t219.5 -65q154 0 246 107l55 -49q-16 -32 -51.5 -66 t-88 -66.5t-128.5 -53.5t-160 -21q-78 0 -150.5 18t-136.5 56.5t-112 93.5t-75.5 133t-27.5 170zM129 1208q0 69 47 115.5t115 46.5q65 0 111.5 -47t46.5 -115q0 -66 -46.5 -111.5t-111.5 -45.5q-68 0 -115 45.5t-47 111.5zM362 598q0 -47 15 -66t53 -18l90 8q111 7 149 37 t38 98q0 83 -39.5 141t-118.5 58q-52 0 -90 -25t-58 -65t-29.5 -82t-9.5 -86zM594 1208q0 69 47 115.5t115 46.5q65 0 111 -47t46 -115q0 -66 -46 -111.5t-111 -45.5q-68 0 -115 45.5t-47 111.5z" />
<glyph unicode="&#xec;" horiz-adv-x="636" d="M20 1366q0 39 26.5 67.5t66.5 28.5q58 0 120 -73l193 -211q33 -42 6 -76q-26 -29 -72 -2l-247 149q-93 54 -93 117zM51 0v72q73 5 102 34.5t29 104.5v494q0 67 -32 89.5t-99 16.5v74l309 53q49 7 74 -13t25 -63v-651q0 -75 28.5 -104.5t98.5 -34.5v-72h-535z" />
<glyph unicode="&#xed;" horiz-adv-x="636" d="M51 0v72q73 5 102 34.5t29 104.5v494q0 67 -32 89.5t-99 16.5v74l309 53q49 7 74 -13t25 -63v-651q0 -75 28.5 -104.5t98.5 -34.5v-72h-535zM203 1102q-26 36 6 76l192 211q66 73 121 73q40 0 66 -28.5t26 -67.5q0 -64 -92 -117l-248 -149q-45 -27 -71 2z" />
<glyph unicode="&#xee;" horiz-adv-x="636" d="M29.5 1057q0.5 14 9.5 24l233 277q29 40 58 0l231 -277q9 -11 10 -24.5t-6 -22.5q-8 -11 -21.5 -11.5t-25.5 9.5l-217 162l-217 -162q-29 -23 -47 2q-8 9 -7.5 23zM51 0v72q73 5 102 34.5t29 104.5v494q0 67 -32 89.5t-99 16.5v74l309 53q49 7 74 -13t25 -63v-651 q0 -75 28.5 -104.5t98.5 -34.5v-72h-535z" />
<glyph unicode="&#xef;" horiz-adv-x="636" d="M-92 1208q0 69 47 115.5t115 46.5q65 0 111 -47t46 -115q0 -66 -46 -111.5t-111 -45.5q-68 0 -115 45.5t-47 111.5zM51 0v72q73 5 102 34.5t29 104.5v494q0 67 -32 89.5t-99 16.5v74l309 53q49 7 74 -13t25 -63v-651q0 -75 28.5 -104.5t98.5 -34.5v-72h-535zM373 1208 q0 69 47 115.5t115 46.5q65 0 111 -47t46 -115q0 -66 -46 -111.5t-111 -45.5q-68 0 -115 45.5t-47 111.5z" />
<glyph unicode="&#xf0;" horiz-adv-x="1257" d="M61 449q0 93 25.5 173.5t69.5 138t101.5 99t122 62t130.5 20.5q44 0 85 -8.5t67 -19.5t49.5 -21t36.5 -14.5t23 1.5t13.5 26t3.5 59v106l-174 -51l-16 59l172 51q-28 74 -104 111t-189 31v82q20 0 72.5 0.5t76 0.5t70.5 -3t72.5 -9t63.5 -18t63 -29.5t51.5 -44 t46.5 -61.5l131 37l17 -60l-121 -34q45 -115 45 -312v-626q0 -51 29 -67t98 1v-82q-89 -57 -209 -57q-86 0 -136.5 40.5t-58.5 110.5q-116 -153 -315 -153q-82 0 -156 30.5t-131.5 87.5t-91 145.5t-33.5 197.5zM352 551q0 -165 71.5 -286.5t178.5 -121.5q73 0 129.5 55 t56.5 171v131q0 88 -24 156.5t-61.5 107.5t-78.5 58.5t-81 19.5q-92 0 -141.5 -80t-49.5 -211z" />
<glyph unicode="&#xf1;" horiz-adv-x="1249" d="M51 0v72q73 5 102 34.5t29 104.5v494q0 67 -32 89.5t-99 16.5v74l309 53q48 7 73.5 -11t25.5 -53q0 -34 10.5 -53.5t24.5 -18.5t28 15q47 59 110.5 95t168.5 36q303 0 303 -354v-399q0 -53 23 -76t67 -8v-43q-19 -41 -64 -60.5t-98 -19.5q-93 0 -149 52.5t-56 154.5v352 q0 102 -48.5 169.5t-133.5 67.5q-88 0 -137 -67t-49 -170v-336q0 -75 28.5 -104.5t98.5 -34.5v-72h-535zM293 1176q0 101 51.5 152.5t134.5 51.5q50 0 97 -21t77.5 -45.5t71.5 -45.5t80 -21q36 0 62 17.5t30 50.5q3 28 29 28h14q29 0 29 -30q0 -102 -52 -154.5t-135 -52.5 q-51 0 -98 21t-77 46.5t-70.5 46.5t-79.5 21q-37 0 -64 -17.5t-31 -52.5q-3 -26 -28 -26h-12q-29 0 -29 31z" />
<glyph unicode="&#xf2;" horiz-adv-x="1118" d="M61 469q0 94 28 173t75.5 133.5t111 93t134.5 56t147 17.5q97 0 185 -30.5t159 -88t113.5 -151.5t42.5 -211q0 -94 -28 -173t-75.5 -133.5t-111 -93t-134.5 -56t-147 -17.5q-97 0 -185 30.5t-159 88t-113.5 151.5t-42.5 211zM283 1366q0 39 26 67.5t66 28.5q59 0 121 -73 l192 -211q33 -42 6 -76q-26 -29 -71 -2l-248 149q-92 53 -92 117zM356 555q0 -128 30 -237.5t86 -176.5t126 -67q75 0 119.5 74t44.5 229q0 128 -28.5 236.5t-84.5 175.5t-129 67q-76 0 -120 -73.5t-44 -227.5z" />
<glyph unicode="&#xf3;" horiz-adv-x="1118" d="M61 469q0 94 28 173t75.5 133.5t111 93t134.5 56t147 17.5q97 0 185 -30.5t159 -88t113.5 -151.5t42.5 -211q0 -94 -28 -173t-75.5 -133.5t-111 -93t-134.5 -56t-147 -17.5q-97 0 -185 30.5t-159 88t-113.5 151.5t-42.5 211zM356 555q0 -128 30 -237.5t86 -176.5t126 -67 q75 0 119.5 74t44.5 229q0 128 -28.5 236.5t-84.5 175.5t-129 67q-76 0 -120 -73.5t-44 -227.5zM463 1102q-26 36 6 76l193 211q66 73 120 73q40 0 66 -28.5t26 -67.5q0 -64 -92 -117l-247 -149q-46 -27 -72 2z" />
<glyph unicode="&#xf4;" horiz-adv-x="1118" d="M61 469q0 94 28 173t75.5 133.5t111 93t134.5 56t147 17.5q97 0 185 -30.5t159 -88t113.5 -151.5t42.5 -211q0 -94 -28 -173t-75.5 -133.5t-111 -93t-134.5 -56t-147 -17.5q-97 0 -185 30.5t-159 88t-113.5 151.5t-42.5 211zM289.5 1057q0.5 14 9.5 24l233 277 q29 40 58 0l231 -277q9 -11 10 -24.5t-6 -22.5q-8 -11 -21.5 -11.5t-25.5 9.5l-217 162l-217 -162q-29 -23 -47 2q-8 9 -7.5 23zM356 555q0 -128 30 -237.5t86 -176.5t126 -67q75 0 119.5 74t44.5 229q0 128 -28.5 236.5t-84.5 175.5t-129 67q-76 0 -120 -73.5t-44 -227.5z " />
<glyph unicode="&#xf5;" horiz-adv-x="1118" d="M61 469q0 94 28 173t75.5 133.5t111 93t134.5 56t147 17.5q97 0 185 -30.5t159 -88t113.5 -151.5t42.5 -211q0 -94 -28 -173t-75.5 -133.5t-111 -93t-134.5 -56t-147 -17.5q-97 0 -185 30.5t-159 88t-113.5 151.5t-42.5 211zM223 1176q0 101 52 152.5t135 51.5 q50 0 97 -21t77 -45.5t71 -45.5t80 -21q36 0 62 17.5t30 50.5q3 28 29 28h14q29 0 29 -30q0 -103 -51.5 -155t-134.5 -52q-51 0 -98 21t-77.5 46.5t-71 46.5t-79.5 21q-37 0 -63.5 -17.5t-30.5 -52.5q-3 -26 -29 -26h-12q-29 0 -29 31zM356 555q0 -128 30 -237.5t86 -176.5 t126 -67q75 0 119.5 74t44.5 229q0 128 -28.5 236.5t-84.5 175.5t-129 67q-76 0 -120 -73.5t-44 -227.5z" />
<glyph unicode="&#xf6;" horiz-adv-x="1118" d="M61 469q0 94 28 173t75.5 133.5t111 93t134.5 56t147 17.5q97 0 185 -30.5t159 -88t113.5 -151.5t42.5 -211q0 -94 -28 -173t-75.5 -133.5t-111 -93t-134.5 -56t-147 -17.5q-97 0 -185 30.5t-159 88t-113.5 151.5t-42.5 211zM168 1208q0 69 47 115.5t115 46.5 q65 0 111 -47t46 -115q0 -66 -46 -111.5t-111 -45.5q-68 0 -115 45.5t-47 111.5zM356 555q0 -128 30 -237.5t86 -176.5t126 -67q75 0 119.5 74t44.5 229q0 128 -28.5 236.5t-84.5 175.5t-129 67q-76 0 -120 -73.5t-44 -227.5zM633 1208q0 69 47 115.5t115 46.5q65 0 111 -47 t46 -115q0 -66 -46 -111.5t-111 -45.5q-68 0 -115 45.5t-47 111.5z" />
<glyph unicode="&#xf7;" horiz-adv-x="962" d="M102 471v88h758v-88h-758zM352 203q0 53 38.5 91t92.5 38t91.5 -38t37.5 -91q0 -54 -37.5 -92.5t-91.5 -38.5t-92.5 38.5t-38.5 92.5zM352 829q0 53 38.5 91t92.5 38t91.5 -38t37.5 -91q0 -54 -37.5 -92.5t-91.5 -38.5t-92.5 38.5t-38.5 92.5z" />
<glyph unicode="&#xf8;" horiz-adv-x="1118" d="M61 469q0 94 28 173t75.5 133.5t111 93t134.5 56t147 17.5q168 0 293 -82l53 64l43 -37l-49 -60q160 -133 160 -366q0 -94 -28 -173t-75.5 -133.5t-111 -93t-134.5 -56t-147 -17.5q-161 0 -291 80l-55 -68l-43 37l53 63q-164 134 -164 369zM356 555q0 -139 35 -252 l318 383q-72 170 -189 170q-76 0 -120 -73.5t-44 -227.5zM414 240q32 -77 79.5 -121.5t104.5 -44.5q75 0 119.5 74t44.5 229q0 142 -33 248z" />
<glyph unicode="&#xf9;" horiz-adv-x="1259" d="M51 811v74l309 53q49 7 74 -13t25 -63v-454q0 -114 47.5 -184t134.5 -70q88 0 137 70t49 184v292q0 68 -31.5 91t-99.5 20v74l312 53q96 15 96 -76v-667q0 -54 23.5 -77.5t66.5 -6.5v-43q-37 -80 -166 -80q-87 0 -130.5 41t-53.5 92q-9 39 -33 39q-14 0 -33 -23 q-32 -41 -63.5 -69.5t-94.5 -54t-139 -25.5q-299 0 -299 370v342q0 68 -31.5 91t-99.5 20zM362 1366q0 39 26.5 67.5t66.5 28.5q58 0 120 -73l193 -211q33 -42 6 -76q-26 -29 -72 -2l-247 149q-93 54 -93 117z" />
<glyph unicode="&#xfa;" horiz-adv-x="1259" d="M51 811v74l309 53q49 7 74 -13t25 -63v-454q0 -114 47.5 -184t134.5 -70q88 0 137 70t49 184v292q0 68 -31.5 91t-99.5 20v74l312 53q96 15 96 -76v-667q0 -54 23.5 -77.5t66.5 -6.5v-43q-37 -80 -166 -80q-87 0 -130.5 41t-53.5 92q-9 39 -33 39q-14 0 -33 -23 q-32 -41 -63.5 -69.5t-94.5 -54t-139 -25.5q-299 0 -299 370v342q0 68 -31.5 91t-99.5 20zM532 1102q-25 35 7 76l192 211q66 73 121 73q40 0 66 -28.5t26 -67.5q0 -64 -92 -117l-248 -149q-46 -27 -72 2z" />
<glyph unicode="&#xfb;" horiz-adv-x="1259" d="M51 811v74l309 53q49 7 74 -13t25 -63v-454q0 -114 47.5 -184t134.5 -70q88 0 137 70t49 184v292q0 68 -31.5 91t-99.5 20v74l312 53q96 15 96 -76v-667q0 -54 23.5 -77.5t66.5 -6.5v-43q-37 -80 -166 -80q-87 0 -130.5 41t-53.5 92q-9 39 -33 39q-14 0 -33 -23 q-32 -41 -63.5 -69.5t-94.5 -54t-139 -25.5q-299 0 -299 370v342q0 68 -31.5 91t-99.5 20zM314.5 1057q0.5 14 9.5 24l233 277q29 40 57 0l232 -277q9 -11 10 -24.5t-6 -22.5q-8 -11 -21.5 -11.5t-25.5 9.5l-217 162l-217 -162q-29 -23 -47 2q-8 9 -7.5 23z" />
<glyph unicode="&#xfc;" horiz-adv-x="1259" d="M51 811v74l309 53q49 7 74 -13t25 -63v-454q0 -114 47.5 -184t134.5 -70q88 0 137 70t49 184v292q0 68 -31.5 91t-99.5 20v74l312 53q96 15 96 -76v-667q0 -54 23.5 -77.5t66.5 -6.5v-43q-37 -80 -166 -80q-87 0 -130.5 41t-53.5 92q-9 39 -33 39q-14 0 -33 -23 q-32 -41 -63.5 -69.5t-94.5 -54t-139 -25.5q-299 0 -299 370v342q0 68 -31.5 91t-99.5 20zM238 1208q0 69 46.5 115.5t114.5 46.5q65 0 111.5 -47t46.5 -115q0 -66 -46.5 -111.5t-111.5 -45.5q-68 0 -114.5 45.5t-46.5 111.5zM702 1208q0 69 47 115.5t115 46.5 q65 0 111.5 -47t46.5 -115q0 -66 -46.5 -111.5t-111.5 -45.5q-68 0 -115 45.5t-47 111.5z" />
<glyph unicode="&#xfd;" horiz-adv-x="1153" d="M20 852v72h512v-72q-76 -21 -87.5 -59t22.5 -117l147 -375q17 -43 31.5 -57t29.5 0.5t32 58.5l67 178q40 109 55 176.5t4.5 107.5t-36.5 57.5t-78 29.5v72h414v-72q-89 -21 -126.5 -57.5t-68.5 -118.5l-303 -782q-63 -165 -135.5 -232.5t-186.5 -67.5q-103 0 -169 47 t-66 119q0 53 34 89t95 36q45 0 70.5 -21t34 -50.5t14 -59t19 -50.5t40.5 -21q28 0 51.5 21.5t32.5 53.5q38 97 -18 238l-265 680q-30 78 -65.5 116.5t-100.5 59.5zM477 1102q-26 36 6 76l193 211q66 73 121 73q40 0 66 -28.5t26 -67.5q0 -64 -92 -117l-248 -149 q-46 -27 -72 2z" />
<glyph unicode="&#xfe;" horiz-adv-x="1218" d="M20 -317q73 5 102.5 34.5t29.5 104.5v1282q0 68 -32 90.5t-100 17.5v72l310 55q98 15 98 -77v-390q0 -18 7 -25.5t17.5 -5t22.5 12.5q35 35 106.5 61.5t159.5 26.5q84 0 158.5 -31t132 -88t91.5 -146t34 -198q0 -115 -39 -210.5t-103 -155.5t-143 -92.5t-163 -32.5 q-49 0 -99 11.5t-80 24t-55 19t-36 -3t-11 -41.5v-176q0 -75 28.5 -104.5t98.5 -34.5v-72h-535v72zM428 365q0 -80 24 -140t62 -91.5t78 -46.5t80 -15q95 0 142.5 83t47.5 228q0 173 -64 288t-177 115q-37 0 -68.5 -13t-61 -43t-46.5 -88t-17 -138v-139z" />
<glyph unicode="&#xff;" horiz-adv-x="1153" d="M20 852v72h512v-72q-76 -21 -87.5 -59t22.5 -117l147 -375q17 -43 31.5 -57t29.5 0.5t32 58.5l67 178q40 109 55 176.5t4.5 107.5t-36.5 57.5t-78 29.5v72h414v-72q-89 -21 -126.5 -57.5t-68.5 -118.5l-303 -782q-63 -165 -135.5 -232.5t-186.5 -67.5q-103 0 -169 47 t-66 119q0 53 34 89t95 36q45 0 70.5 -21t34 -50.5t14 -59t19 -50.5t40.5 -21q28 0 51.5 21.5t32.5 53.5q38 97 -18 238l-265 680q-30 78 -65.5 116.5t-100.5 59.5zM182 1208q0 69 47 115.5t115 46.5q65 0 111.5 -47t46.5 -115q0 -66 -46.5 -111.5t-111.5 -45.5 q-68 0 -115 45.5t-47 111.5zM647 1208q0 69 47 115.5t115 46.5q65 0 111.5 -47t46.5 -115q0 -66 -46.5 -111.5t-111.5 -45.5q-68 0 -115 45.5t-47 111.5z" />
<glyph unicode="&#x152;" horiz-adv-x="2091" d="M61 631q0 154 57 282.5t153.5 213.5t222 131.5t264.5 46.5q97 0 213 -33h940q23 0 26 -23q13 -123 45 -262h-51q-53 100 -110 145.5t-146 45.5h-190q-131 0 -131 -123v-244q0 -62 32 -91.5t99 -29.5h106q59 0 96 7.5t59.5 27t33 45.5t16.5 70h41v-394h-41 q-9 57 -25.5 86.5t-59 46.5t-120.5 17h-106q-67 0 -99 -29.5t-32 -91.5v-260q0 -125 125 -125h225q91 0 142 29.5t91 87.5l50 72h49q-45 -98 -62 -250q-3 -29 -32 -29h-1043q-79 -20 -176 -20q-101 0 -197 27t-180.5 82t-148 131.5t-100 182.5t-36.5 228zM408 745 q0 -185 51 -336t139.5 -236t194.5 -85q77 0 142.5 44t104.5 136v592q-51 155 -145 245.5t-207 90.5q-55 0 -103 -25t-88.5 -76t-64.5 -141t-24 -209z" />
<glyph unicode="&#x153;" horiz-adv-x="1757" d="M61 469q0 94 28 173t75.5 133.5t111 93t134.5 56t147 17.5q212 0 352 -125q145 127 365 127q164 0 272.5 -77.5t108.5 -204.5q0 -42 -12 -74.5t-39 -54t-55 -35.5t-76.5 -23t-85.5 -13t-99 -9l-166 -11q-53 -3 -53 -65q0 -108 95.5 -173t219.5 -65q154 0 246 107l56 -49 q-16 -32 -51.5 -66t-88 -66.5t-129 -53.5t-160.5 -21q-210 0 -350 119q-136 -121 -346 -121q-97 0 -185 30.5t-159 88t-113.5 151.5t-42.5 211zM356 555q0 -128 30 -237.5t86 -176.5t126 -67q75 0 119.5 74t44.5 229q-6 41 -6 84v24q-18 162 -81 266.5t-155 104.5 q-76 0 -120 -73.5t-44 -227.5zM1057 600q0 -47 14.5 -66t52.5 -18l90 8q111 7 149 37t38 98q0 83 -39.5 141t-118.5 58q-52 0 -90 -25t-58 -65t-29 -82t-9 -86z" />
<glyph unicode="&#x178;" horiz-adv-x="1400" d="M31 1198v74h602v-74q-47 -4 -73 -22t-24.5 -56t37.5 -92l209 -328q6 -10 14.5 -10t14.5 10l221 332q25 41 26.5 76t-29.5 60t-89 30v74h430v-74q-34 -4 -65 -20.5t-58.5 -46t-46 -54.5t-43.5 -63l-256 -387q-25 -37 -33 -73t-8 -101v-248q0 -60 44.5 -91t146.5 -40v-74 h-693v74q102 9 146.5 40t44.5 91v248q0 58 -10 92t-33 69l-242 367q-32 49 -49 74t-42 56.5t-44 46t-44.5 26.5t-53.5 14zM367 1556q0 69 46.5 115.5t114.5 46.5q65 0 111.5 -47t46.5 -115q0 -66 -46.5 -111.5t-111.5 -45.5q-68 0 -114.5 45.5t-46.5 111.5zM831 1556 q0 69 47 115.5t115 46.5q65 0 111.5 -47t46.5 -115q0 -66 -46.5 -111.5t-111.5 -45.5q-68 0 -115 45.5t-47 111.5z" />
<glyph unicode="&#x2c6;" horiz-adv-x="626" d="M41.5 1057q0.5 14 9.5 24l234 277q29 40 57 0l231 -277q22 -26 5 -47q-8 -11 -22 -11.5t-26 9.5l-217 162l-217 -162q-29 -23 -47 2q-8 9 -7.5 23z" />
<glyph unicode="&#x2dc;" horiz-adv-x="901" d="M113 1176q0 101 51.5 152.5t134.5 51.5q50 0 97 -21t77.5 -45.5t71.5 -45.5t80 -21q36 0 62 17.5t30 50.5q3 28 28 28h15q28 0 28 -30q0 -103 -51.5 -155t-134.5 -52q-51 0 -98 21t-77.5 46.5t-71 46.5t-79.5 21q-37 0 -63.5 -17.5t-30.5 -52.5q-3 -26 -28 -26h-13 q-28 0 -28 31z" />
<glyph unicode="&#x2000;" horiz-adv-x="934" />
<glyph unicode="&#x2001;" horiz-adv-x="1868" />
<glyph unicode="&#x2002;" horiz-adv-x="934" />
<glyph unicode="&#x2003;" horiz-adv-x="1868" />
<glyph unicode="&#x2004;" horiz-adv-x="622" />
<glyph unicode="&#x2005;" horiz-adv-x="467" />
<glyph unicode="&#x2006;" horiz-adv-x="311" />
<glyph unicode="&#x2007;" horiz-adv-x="311" />
<glyph unicode="&#x2008;" horiz-adv-x="233" />
<glyph unicode="&#x2009;" horiz-adv-x="373" />
<glyph unicode="&#x200a;" horiz-adv-x="103" />
<glyph unicode="&#x2010;" horiz-adv-x="757" d="M102 440v158h553v-158h-553z" />
<glyph unicode="&#x2011;" horiz-adv-x="757" d="M102 440v158h553v-158h-553z" />
<glyph unicode="&#x2012;" horiz-adv-x="757" d="M102 440v158h553v-158h-553z" />
<glyph unicode="&#x2013;" horiz-adv-x="1396" d="M102 440v158h1192v-158h-1192z" />
<glyph unicode="&#x2014;" horiz-adv-x="1882" d="M102 440v158h1678v-158h-1678z" />
<glyph unicode="&#x2018;" horiz-adv-x="454" d="M61 956q0 110 60.5 199.5t146.5 149.5l47 -52q-104 -88 -104 -161q0 -31 35 -31q65 0 106 -43t41 -107q0 -69 -46 -113t-118 -44q-81 0 -124.5 55.5t-43.5 146.5z" />
<glyph unicode="&#x2019;" horiz-adv-x="454" d="M61 1147q0 69 46 113.5t118 44.5q81 0 124.5 -56t43.5 -147q0 -110 -60 -199t-147 -149l-47 51q105 89 105 162q0 30 -35 30q-65 0 -106.5 43t-41.5 107z" />
<glyph unicode="&#x201a;" horiz-adv-x="454" d="M61 131q0 69 46 113.5t118 44.5q81 0 124.5 -56t43.5 -147q0 -110 -60 -199t-147 -149l-47 51q105 89 105 162q0 31 -35 31q-65 0 -106.5 42.5t-41.5 106.5z" />
<glyph unicode="&#x201c;" horiz-adv-x="864" d="M61 956q0 110 60.5 199.5t146.5 149.5l47 -52q-104 -88 -104 -161q0 -31 35 -31q65 0 106 -43t41 -107q0 -69 -46 -113t-118 -44q-81 0 -124.5 55.5t-43.5 146.5zM471 956q0 110 60.5 199.5t146.5 149.5l47 -52q-104 -88 -104 -161q0 -31 34 -31q65 0 106.5 -43 t41.5 -107q0 -69 -46 -113t-118 -44q-81 0 -124.5 55.5t-43.5 146.5z" />
<glyph unicode="&#x201d;" horiz-adv-x="864" d="M61 1147q0 69 46 113.5t118 44.5q81 0 124.5 -56t43.5 -147q0 -110 -60 -199t-147 -149l-47 51q105 89 105 162q0 30 -35 30q-65 0 -106.5 43t-41.5 107zM473 1147q0 69 46 113.5t118 44.5q81 0 124.5 -56t43.5 -147q0 -110 -60 -199t-147 -149l-47 51q104 88 104 162 q0 30 -34 30q-65 0 -106.5 43t-41.5 107z" />
<glyph unicode="&#x201e;" horiz-adv-x="870" d="M61 131q0 69 46 113.5t118 44.5q81 0 124.5 -56t43.5 -147q0 -110 -60 -199t-147 -149l-47 51q105 89 105 162q0 31 -35 31q-65 0 -106.5 42.5t-41.5 106.5zM477 131q0 69 46 113.5t118 44.5q81 0 124.5 -56t43.5 -147q0 -110 -60 -199t-147 -149l-47 51q104 88 104 162 q0 31 -34 31q-65 0 -106.5 42.5t-41.5 106.5z" />
<glyph unicode="&#x2022;" horiz-adv-x="837" d="M123 598q0 123 86 209t209 86q124 0 210.5 -86t86.5 -209q0 -124 -86.5 -210.5t-210.5 -86.5q-123 0 -209 86.5t-86 210.5z" />
<glyph unicode="&#x2026;" horiz-adv-x="1300" d="M82 139q0 63 43.5 107.5t105.5 44.5t106 -44.5t44 -107.5t-44 -107t-106 -44t-105.5 44t-43.5 107zM500 139q0 63 43.5 107.5t105.5 44.5t106 -44.5t44 -107.5t-44 -107t-106 -44t-105.5 44t-43.5 107zM920 139q0 63 43.5 107.5t105.5 44.5t106 -44.5t44 -107.5t-44 -107 t-106 -44t-105.5 44t-43.5 107z" />
<glyph unicode="&#x202f;" horiz-adv-x="373" />
<glyph unicode="&#x2039;" horiz-adv-x="575" d="M129 545q-36 29 0 57l279 234q23 19 47 2q21 -18 2 -47l-154 -218l154 -217q9 -12 8 -25.5t-10 -21.5q-23 -16 -47 4z" />
<glyph unicode="&#x203a;" horiz-adv-x="575" d="M112 330q0 14 9 26l151 217l-151 218q-20 30 0 47q24 17 47 -2l278 -234q40 -28 0 -57l-278 -232q-24 -20 -47 -4q-9 7 -9 21z" />
<glyph unicode="&#x205f;" horiz-adv-x="467" />
<glyph unicode="&#x20ac;" horiz-adv-x="1505" d="M61 512v59h144q-4 46 -4 72v19h-140v61h144q19 180 119 313.5t252.5 201t336.5 67.5q120 0 221 -31t165.5 -81t100.5 -112t36 -127q0 -74 -43.5 -125t-130.5 -51q-81 0 -124 47.5t-48 122.5q-7 118 -66 197.5t-178 79.5q-146 0 -226 -123.5t-77 -333.5l2 -45h448v-61 h-444q5 -36 16 -91h428v-59h-409q59 -172 187.5 -264t281.5 -92q192 0 325 149l56 -45q-23 -42 -63.5 -86t-105 -90t-161 -75t-207.5 -29q-166 0 -309.5 61t-244.5 183.5t-130 287.5h-152z" />
<glyph unicode="&#x2122;" horiz-adv-x="1277" d="M61 1133l17 139h461l16 -139h-45q-13 41 -29 61t-45 20q-30 0 -43.5 -11t-13.5 -42v-235q0 -40 17.5 -55.5t56.5 -20.5v-43h-289v43q39 5 56.5 20.5t17.5 55.5v235q0 31 -14 42t-44 11t-46 -20t-30 -61h-43zM604 807v43q35 4 45 17.5t10 56.5v231q0 42 -10.5 55.5 t-44.5 18.5v43h187l131 -271l114 271h181v-43q-35 -4 -44.5 -17.5t-9.5 -56.5v-231q0 -43 9.5 -56.5t44.5 -17.5v-43h-248v43q34 5 44.5 18.5t10.5 55.5v190l-111 -258h-71l-123 262v-194q0 -42 11 -55.5t44 -18.5v-43h-170z" />
<glyph unicode="&#x25fc;" horiz-adv-x="921" d="M0 0v922h922v-922h-922z" />
</font>
</defs>
</svg>
