<?xml version="1.0" standalone="no"?>
<!DOCTYPE svg PUBLIC "-//W3C//DTD SVG 1.1//EN" "http://www.w3.org/Graphics/SVG/1.1/DTD/svg11.dtd" >
<svg xmlns="http://www.w3.org/2000/svg" xmlns:xlink="http://www.w3.org/1999/xlink" version="1.1">
<metadata></metadata>
<defs>
<font id="quincy_cfthin" horiz-adv-x="497" >
<font-face units-per-em="2048" ascent="1638" descent="-410" />
<missing-glyph horiz-adv-x="378" />
<glyph unicode="&#xfb01;" horiz-adv-x="1099" d="M41 858v37q86 16 120 37.5t34 66.5q0 199 87.5 298.5t245.5 99.5q114 0 179 -43.5t65 -106.5q0 -61 -63 -61q-26 0 -48.5 15.5t-41 38t-40.5 44.5t-57 37.5t-80 15.5q-33 0 -55.5 -10.5t-35.5 -26t-19.5 -46t-8 -58t-1.5 -74.5v-147q0 -38 18 -50t80 -12h141v-59l-141 4 q-61 1 -79.5 -10.5t-18.5 -46.5v-666q0 -52 36.5 -72.5t145.5 -27.5v-35h-455v35q84 8 115 28.5t31 71.5v670q0 30 -10.5 41.5t-30.5 11.5h-113zM655 858v31l199 49q28 8 46 -6t18 -47v-754q0 -47 29.5 -67.5t103.5 -28.5v-35h-392v35q73 8 102.5 28.5t29.5 67.5v606 q0 38 -4 59t-17 39t-41 22.5t-74 0.5z" />
<glyph unicode="&#xfb02;" horiz-adv-x="1048" d="M41 858v37q86 16 120 37.5t34 66.5v33q0 179 101 272t259 93q342 0 342 -404v-874q0 -35 15 -51.5t39.5 -16.5t54.5 2v-18q-19 -19 -55 -33t-74 -14q-107 0 -107 123v864q0 185 -68.5 273.5t-212.5 88.5q-46 0 -76 -10.5t-48.5 -29t-27.5 -55t-12 -75.5t-3 -104v-88 q0 -38 18 -50t80 -12h141v-59l-141 4q-61 1 -79.5 -10.5t-18.5 -46.5v-666q0 -52 36.5 -72.5t145.5 -27.5v-35h-455v35q84 8 115 28.5t31 71.5v670q0 30 -10.5 41.5t-30.5 11.5h-113z" />
<glyph horiz-adv-x="0" />
<glyph horiz-adv-x="682" />
<glyph unicode=" "  horiz-adv-x="378" />
<glyph unicode="&#x09;" horiz-adv-x="378" />
<glyph unicode="&#xa0;" horiz-adv-x="378" />
<glyph unicode="!" horiz-adv-x="391" d="M92 1159q0 69 26.5 107.5t76.5 38.5q51 0 77.5 -38.5t26.5 -107.5q0 -79 -20.5 -202.5t-42.5 -282t-25 -316.5h-31q-3 158 -25 316.5t-42.5 282t-20.5 202.5zM96 88q0 41 29.5 70.5t69.5 29.5t69 -29.5t29 -70.5t-29 -70.5t-69 -29.5t-69.5 29.5t-29.5 70.5z" />
<glyph unicode="&#x22;" horiz-adv-x="462" d="M74 1282q-3 28 13.5 49t45.5 21q30 0 46.5 -21t13.5 -49l-50 -360q-4 -33 -10 -33t-10 33zM270 1282q-3 28 13.5 49t46.5 21t46 -21t13 -49l-49 -360q-4 -33 -10 -33q-7 0 -11 33z" />
<glyph unicode="#" horiz-adv-x="1050" d="M51 379v24h234l131 510h-223v25h229l113 438h30l-112 -438h290l113 438h31l-113 -438h225v-25h-231l-131 -510h221v-24h-229l-113 -440h-31l113 440h-291l-112 -440h-31l112 440h-225zM315 403h291l131 510h-291z" />
<glyph unicode="$" horiz-adv-x="942" d="M85 339.5q-7 59.5 1.5 96.5t28.5 37h4.5h4.5t3.5 -0.5t3.5 -1t2.5 -2t3 -3.5t2.5 -5q35 -117 114 -192.5t185 -94.5v469q-166 57 -254 136.5t-88 203.5q0 121 89 203t253 92v133h33v-131h14q156 0 297 -80q23 -59 30.5 -119t-1.5 -96.5t-29 -36.5q-8 0 -10.5 0.5t-6 3 t-5.5 9.5q-37 121 -113 190.5t-176 83.5v-455l6 -2q151 -53 210 -85q181 -97 181 -265q0 -72 -32 -129t-88 -92.5t-126 -55.5t-151 -24v-127h-33v127h-6q-67 0 -127.5 14.5t-96 31t-93.5 48.5q-23 59 -30 118.5zM213 1026q0 -49 16.5 -86.5t50 -64.5t69.5 -45t89 -37v444 h-12q-107 0 -160 -62.5t-53 -148.5zM471 170h37q106 3 170.5 55.5t64.5 161.5q0 45 -14.5 81t-36 58.5t-58.5 42.5t-69 32t-81 28q-9 3 -13 4v-463z" />
<glyph unicode="%" horiz-adv-x="1255" d="M102 967q0 125 94.5 222t209.5 97q89 0 174.5 -25t154 -50t117.5 -25q100 0 176 106l53 -35l-827 -1257h-125l821 1176q-48 -52 -121 -52q-19 0 -43 4t-41 8t-48.5 15.5t-43.5 16t-49 19t-43 17.5q43 -61 43 -145q0 -125 -94 -222.5t-211 -97.5q-90 0 -143.5 67.5 t-53.5 160.5zM223 993q0 -90 28.5 -150.5t94.5 -60.5q69 0 103 71t34 179q0 42 -6 77.5t-19.5 67.5t-38.5 50t-59 18q-69 0 -103 -71.5t-34 -180.5zM651 205q0 125 94 222t209 97q91 0 145 -67t54 -160q0 -125 -94 -222.5t-211 -97.5q-90 0 -143.5 67.5t-53.5 160.5z M772 231q0 -42 6 -77.5t19 -66.5t37.5 -49t58.5 -18q70 0 104.5 71t34.5 179q0 90 -28.5 150.5t-94.5 60.5q-69 0 -103 -71t-34 -179z" />
<glyph unicode="&#x26;" horiz-adv-x="1486" d="M82 389q0 73 25.5 135t65 101.5t88 67.5t93.5 40t84 12q-89 21 -152 95t-63 174q0 126 94.5 208.5t260.5 82.5q144 0 233.5 -61t89.5 -152q0 -40 -19 -63t-51 -23t-52.5 22.5t-20.5 65.5q0 84 -42 123.5t-130 39.5q-104 0 -162.5 -53.5t-58.5 -154.5q0 -123 81 -215.5 t211 -128.5l-16 -43q-60 24 -129 24q-130 0 -200 -77.5t-70 -202.5q0 -120 64 -206.5t166.5 -126.5t229.5 -40q104 0 188.5 28.5t138.5 76.5t83 110.5t29 132.5q0 109 -62.5 171t-142.5 62q-59 0 -93 -26.5t-34 -69.5q0 -32 20 -55h-45q-15 11 -23.5 20t-16 26.5t-7.5 39.5 q0 42 29 79.5t75.5 67t102.5 58.5t112.5 60.5t103 66t75.5 82.5t29 104q0 96 -69 127.5t-151 -25.5l-22 25q28 41 75 63.5t103 22.5q89 0 147 -55.5t58 -149.5q0 -26 -6 -50t-14 -44t-27.5 -41t-34.5 -36.5t-47 -37t-54 -35t-67 -37.5t-73 -38.5t-85 -43t-92 -46.5 q168 0 270.5 -83t104.5 -208q0 -166 -175.5 -280.5t-442.5 -114.5q-163 0 -292 45t-208.5 139t-79.5 225z" />
<glyph unicode="'" horiz-adv-x="266" d="M74 1282q-3 28 13.5 49t45.5 21q30 0 46.5 -21t13.5 -49l-50 -360q-4 -33 -10 -33t-10 33z" />
<glyph unicode="(" horiz-adv-x="604" d="M92 606q0 272 111 517.5t282 414.5q17 14 37 14t27.5 -8t-2.5 -18q-157 -147 -238 -388t-78 -532q-3 -287 75 -524.5t231 -384.5q17 -13 12.5 -25t-23.5 -12h-2q-22 0 -39 14q-171 169 -282 414.5t-111 517.5zM522 1552z" />
<glyph unicode=")" horiz-adv-x="604" d="M54.5 1544q7.5 8 27.5 8t37 -14q171 -169 282 -414.5t111 -517.5t-111 -517.5t-282 -414.5q-17 -14 -39 -14h-2q-19 0 -23 12t13 25q152 147 230 384.5t75 524.5q3 291 -78 532t-238 388q-10 10 -2.5 18zM82 1552z" />
<glyph unicode="*" horiz-adv-x="653" d="M51 899.5q5 31.5 33 38.5l166 37q19 5 28.5 -5t-2.5 -22l-114 -137q-23 -22 -51.5 -11.5t-44.5 40.5q-20 28 -15 59.5zM51 1094q-5 32 15 61q16 30 44.5 40.5t51.5 -11.5l114 -137q12 -13 2.5 -23.5t-28.5 -5.5l-166 37q-28 7 -33 39zM252 756l59 159q5 15 14 15t13 -15 l61 -159q11 -26 -14 -47t-59 -21q-35 0 -60 21t-14 47zM252 1235q-11 28 14 49t60 21t59.5 -21t13.5 -49l-61 -160q-3 -9 -8.5 -12t-10.5 0t-8 12zM374.5 970q9.5 10 28.5 5l166 -37q27 -4 32.5 -38t-13.5 -60q-16 -30 -44.5 -40.5t-51.5 11.5l-115 137q-12 12 -2.5 22z M374.5 1023.5q-9.5 10.5 2.5 23.5l115 137q23 22 51.5 11.5t44.5 -40.5q19 -28 13.5 -62t-32.5 -38l-166 -37q-19 -5 -28.5 5.5z" />
<glyph unicode="+" horiz-adv-x="962" d="M102 494v43h359v358h43v-358h356v-43h-356v-359h-43v359h-359z" />
<glyph unicode="," horiz-adv-x="327" d="M61 94q0 42 30 67t69 25q52 0 79 -39t27 -94q0 -61 -33.5 -124.5t-93.5 -102.5l-18 24q23 20 42 56t19 57q0 37 -30 37q-38 0 -64.5 26t-26.5 68z" />
<glyph unicode="-" horiz-adv-x="757" d="M102 532v19h553v-19h-553z" />
<glyph unicode="." horiz-adv-x="360" d="M82 88q0 41 29 70.5t69 29.5t69.5 -29.5t29.5 -70.5t-29.5 -70.5t-69.5 -29.5t-69 29.5t-29 70.5z" />
<glyph unicode="/" horiz-adv-x="747" d="M72 0l546 1313h58l-547 -1313h-57z" />
<glyph unicode="0" horiz-adv-x="1122" d="M72 643q0 102 17.5 196.5t56.5 180t95 148.5t138.5 100t181.5 37t181.5 -37t139 -100t95 -148.5t56.5 -180t18 -196.5t-18 -197t-56.5 -180.5t-95 -148.5t-138.5 -100t-182 -37t-182 37t-138 100t-95 148.5t-56.5 180t-17.5 197.5zM236 698q0 -104 10 -197.5t35 -183.5 t63 -155t98.5 -104.5t137.5 -39.5q148 0 226.5 141.5t78.5 430.5q0 103 -10 195.5t-34.5 182t-62 154.5t-97.5 104.5t-136 39.5q-309 0 -309 -568z" />
<glyph unicode="1" horiz-adv-x="602" d="M61 0v29q102 9 138.5 29.5t36.5 72.5v920q0 37 -4 56t-13.5 28t-26 9t-42.5 -1l-82 -6v26l247 117q17 7 27 8t14 -6t5 -13.5t1 -21.5v-1116q0 -52 37.5 -72.5t141.5 -29.5v-29h-480z" />
<glyph unicode="2" horiz-adv-x="1064" d="M82 0q0 90 41 173t106 148.5t143.5 128.5t157.5 123.5t144 121.5t106 134t41 150q0 113 -71.5 199t-200.5 86q-122 0 -198.5 -78.5t-76.5 -186.5q0 -49 16.5 -81.5t16.5 -49.5q0 -43 -23 -61.5t-53 -18.5q-49 0 -77.5 48t-28.5 120q0 47 13.5 94t46 93.5t80 82 t121.5 57.5t165 22q203 0 309.5 -97.5t106.5 -253.5q0 -83 -35 -154t-94.5 -125t-132.5 -103t-154 -97.5t-154 -98t-137.5 -115.5t-99.5 -140h557q73 0 115 14.5t68 45.5t54 95h29l-31 -143q-23 -95 4 -133h-874z" />
<glyph unicode="3" horiz-adv-x="1087" d="M72 346q0 123 84 123q31 0 45 -17t17 -43t16 -82.5t36 -111.5q36 -89 95 -140.5t165 -51.5q144 0 232 95.5t88 264.5q0 153 -72.5 225t-181.5 72q-14 0 -29.5 -1.5t-27 -3.5t-29.5 -7t-27.5 -8t-31.5 -9.5t-31 -9.5l-19 47q175 57 231 88q99 54 121 142q7 31 7 67 q0 120 -67.5 199.5t-182.5 79.5q-107 0 -167 -71t-60 -189q0 -54 -13.5 -82.5t-58.5 -28.5q-94 0 -94 104q0 56 26.5 110t75.5 99t129.5 72t179.5 27q186 0 283.5 -79t97.5 -202q0 -64 -25 -115t-71 -86t-86 -55.5t-94 -40.5q42 6 91.5 -3.5t99 -36t90.5 -65.5t66.5 -99 t25.5 -130q0 -116 -65.5 -211t-178.5 -148.5t-248 -53.5q-193 0 -317.5 104.5t-124.5 261.5z" />
<glyph unicode="4" horiz-adv-x="1095" d="M51 430l619 875l139 -33v-815h205v-115h-205v-211q0 -51 34 -72t124 -30v-29h-439v29q87 9 120.5 30t33.5 72v211h-600zM143 496q-25 -39 17 -39h522v794z" />
<glyph unicode="5" horiz-adv-x="1091" d="M72 340q0 125 86 125q31 0 42.5 -16t12.5 -41.5t13 -79t38 -107.5q19 -34 42.5 -65t58.5 -63t83 -51t101 -19q136 0 227.5 101t91.5 265q0 78 -23.5 151t-68.5 133t-118.5 96t-165.5 36q-95 0 -168 -37t-115 -98h-37l49 602h414q140 0 203 6t100 22l-20 -159h-668 l-33 -408q51 58 144.5 97.5t191.5 39.5q82 0 163 -28t150 -80.5t111.5 -139.5t42.5 -194q0 -202 -141.5 -325t-358.5 -123q-194 0 -321 101t-127 259z" />
<glyph unicode="6" horiz-adv-x="1034" d="M72 586q1 106 17.5 204.5t56.5 193.5t98.5 165t150 113t205.5 43q144 0 217 -66l-20 -29q-76 41 -154 41q-85 0 -157 -35.5t-119 -92.5t-80 -130t-47.5 -146.5t-14.5 -144.5q0 -45 19 -48q9 -2 14 8q51 64 131.5 105.5t185.5 41.5q115 0 207 -55.5t141.5 -145.5 t49.5 -196q0 -79 -29.5 -155t-84 -138.5t-142 -100.5t-193.5 -38q-102 0 -182.5 35.5t-130.5 93.5t-82.5 138.5t-45 163.5t-11.5 175zM223 410q0 -95 39.5 -183t114.5 -146t168 -58q69 0 123.5 33t86.5 87t48 117.5t16 130.5q0 153 -78 251.5t-204 98.5q-125 0 -219.5 -91 t-94.5 -240z" />
<glyph unicode="7" horiz-adv-x="989" d="M72 1010l80 278q61 -16 309 -16h477l-641 -1272h-119l621 1094q11 20 3.5 33.5t-30.5 13.5h-414q-39 0 -62 -1.5t-54.5 -8.5t-52 -20t-40.5 -38.5t-32 -62.5h-45z" />
<glyph unicode="8" horiz-adv-x="1083" d="M72 354q0 248 276 344q-91 40 -142.5 117t-51.5 172q0 136 104.5 227t284.5 91q91 0 164.5 -26t118.5 -69.5t68.5 -98t23.5 -114.5q0 -82 -47.5 -155t-149.5 -121q141 -47 216 -137t75 -207q0 -165 -138.5 -281t-353.5 -116q-205 0 -326.5 105.5t-121.5 268.5zM195 379 q0 -153 92 -254.5t256 -101.5q152 0 233.5 84.5t81.5 218.5q0 123 -77 188t-261 111q-42 11 -84.5 12t-86.5 -12t-77.5 -41t-55 -80.5t-21.5 -124.5zM285 1040q0 -198 256 -262q69 -15 118.5 -2.5t81.5 50t47 84t15 98.5q0 49 -14.5 92.5t-45 81t-85.5 59t-128 21.5 q-125 0 -185 -63t-60 -159z" />
<glyph unicode="9" horiz-adv-x="1034" d="M61 872q0 79 29.5 155t84 138.5t142 101t193.5 38.5q102 0 182.5 -35.5t130.5 -94t82.5 -139t45.5 -163.5t12 -175q-1 -106 -18 -204.5t-56.5 -193t-98.5 -164.5t-150.5 -113t-205.5 -43q-145 0 -217 65l21 29q76 -41 153 -41q85 0 157 35.5t119 92.5t80 130t47.5 146.5 t14.5 144.5q0 44 -19 49q-8 2 -14 -8q-52 -64 -132.5 -106t-184.5 -42q-115 0 -207 55.5t-141.5 145.5t-49.5 196zM215 893q0 -152 78.5 -251t204.5 -99q125 0 219 91t94 240q0 95 -39.5 183.5t-114.5 146.5t-168 58q-69 0 -123.5 -33t-86.5 -87.5t-48 -118t-16 -130.5z" />
<glyph unicode=":" horiz-adv-x="362" d="M82 780q0 41 29 71t69 30t69.5 -30t29.5 -71t-29.5 -70.5t-69.5 -29.5t-69 29.5t-29 70.5zM84 88q0 41 29 70.5t69 29.5t69.5 -29.5t29.5 -70.5t-29.5 -70.5t-69.5 -29.5t-69 29.5t-29 70.5z" />
<glyph unicode=";" horiz-adv-x="327" d="M61 94q0 42 30 67t69 25q52 0 79 -39t27 -94q0 -61 -33.5 -124.5t-93.5 -102.5l-18 24q23 20 42 56t19 57q0 37 -30 37q-38 0 -64.5 26t-26.5 68zM63 778q0 41 29.5 71t69.5 30t69 -30t29 -71t-29 -70.5t-69 -29.5t-69.5 29.5t-29.5 70.5z" />
<glyph unicode="&#x3c;" horiz-adv-x="954" d="M102 489v52l750 368v-59l-674 -336l674 -336v-59z" />
<glyph unicode="=" horiz-adv-x="962" d="M102 309v43h758v-43h-758zM102 678v43h758v-43h-758z" />
<glyph unicode="&#x3e;" horiz-adv-x="954" d="M102 119v59l674 336l-674 336v59l750 -368v-52z" />
<glyph unicode="?" horiz-adv-x="909" d="M72 977q0 144 111.5 236t291.5 92q171 0 267 -83t96 -218q0 -58 -18.5 -105.5t-48 -82.5t-65.5 -68t-73.5 -71t-69.5 -81.5t-55 -109.5t-29 -146h-51q-7 115 15 204.5t58.5 144t73.5 101.5t64 104.5t27 125.5q0 109 -65.5 171t-168.5 62q-56 0 -97 -19t-62 -51.5 t-30.5 -66.5t-9.5 -72q0 -24 17.5 -73t17.5 -78q0 -27 -27 -51.5t-61 -24.5q-47 0 -77.5 46.5t-30.5 113.5zM354 88q0 41 29.5 70.5t69.5 29.5t69 -29.5t29 -70.5t-29 -70.5t-69 -29.5t-69.5 29.5t-29.5 70.5z" />
<glyph unicode="@" horiz-adv-x="1406" d="M61 510q0 196 89 352t238 241t327 85q131 0 246 -47.5t200.5 -132.5t135 -212t49.5 -278q0 -184 -66.5 -286.5t-185.5 -102.5q-87 0 -132 49t-59 125q-35 -65 -117 -119.5t-186 -54.5q-38 0 -72 9.5t-65 30t-49.5 58.5t-18.5 90q0 68 37.5 117t140 90.5t277.5 69.5 q43 5 43 37q0 209 -213 209q-31 0 -48.5 -2t-36.5 -10.5t-27.5 -27.5t-8.5 -50q0 -55 -13.5 -76t-47.5 -21q-31 0 -48.5 15.5t-17.5 44.5q0 43 30 78t77.5 55t100.5 30.5t105 10.5q131 0 192.5 -66.5t61.5 -204.5v-342q0 -108 84 -108q46 0 78.5 31t48 81.5t21.5 97t6 95.5 q0 104 -23 203.5t-69 186t-110 152t-152 103t-189 37.5q-120 0 -219 -47.5t-164.5 -130.5t-101 -195.5t-35.5 -242.5q0 -189 71 -340t209 -240.5t322 -89.5q72 0 119 12l2 -33q-88 -16 -170 -16q-139 0 -262 50.5t-212 139.5t-140.5 216t-51.5 274zM514 342 q0 -71 37.5 -111.5t107.5 -40.5q98 0 166 69t68 155v73q0 34 -10.5 51.5t-40.5 14.5q-81 -10 -142.5 -30t-95.5 -42t-55.5 -49.5t-28 -48t-6.5 -41.5z" />
<glyph unicode="A" horiz-adv-x="1447" d="M41 0v33q70 13 106.5 38t65.5 91l412 975q37 89 37 135l100 10l457 -1067q43 -108 77 -141t111 -39v-35h-420v33q93 15 109 43q6 10 5 23q0 25 -20 61l-75 168q-19 40 -44.5 56.5t-72.5 16.5h-424q-93 0 -117 -59l-76 -174q-11 -28 -11 -49q0 -27 18 -45q32 -32 120 -41 v-33h-358zM418 512q-7 -18 -7 -31q0 -28 35 -28h455q22 0 34.5 14.5t2.5 36.5l-242 567q-9 25 -19 25q-11 0 -24 -29z" />
<glyph unicode="B" horiz-adv-x="1224" d="M61 0v33q31 6 43 9t30.5 10t24.5 16t11.5 24t5.5 37v1018q0 48 -24 64t-91 28v33h584q196 0 310 -76t114 -215q0 -113 -76.5 -190t-220.5 -113q176 -28 273.5 -113.5t97.5 -220.5q0 -151 -111.5 -247.5t-292.5 -96.5q-24 0 -171.5 6.5t-286 6.5t-220.5 -13zM322 143 q0 -94 69 -94h301q307 0 307 285q0 83 -25.5 141t-85.5 101.5t-165.5 64.5t-259.5 21q-79 0 -110 -14.5t-31 -63.5v-441zM322 788q0 -50 28 -64.5t96 -14.5h177q303 0 303 268q0 122 -68 186t-221 64h-191q-67 0 -95.5 -14.5t-28.5 -63.5v-361z" />
<glyph unicode="C" horiz-adv-x="1290" d="M61 639q0 153 56 281t149.5 211t212.5 128.5t248 45.5q106 0 197.5 -30.5t149.5 -77.5t91 -102.5t33 -107.5q0 -49 -27.5 -79.5t-70.5 -30.5q-37 0 -62.5 27t-29.5 85q-3 44 -24.5 86.5t-61.5 81t-108.5 62.5t-154.5 24q-206 0 -333.5 -136.5t-128.5 -375.5v-6 q1 -134 47 -251q48 -120 129.5 -204t196.5 -132t245 -48q122 0 210.5 45.5t172.5 140.5l21 -16q-18 -33 -45.5 -67t-74 -73.5t-101 -69.5t-130 -50t-157.5 -20q-125 0 -241.5 45.5t-208 128t-146 209t-54.5 276.5z" />
<glyph unicode="D" horiz-adv-x="1261" d="M61 0v33q31 6 43 9t30.5 10t24.5 16t11.5 24t5.5 37v1018q0 48 -24 64t-91 28v33h439q71 0 137 -8.5t135 -29t128 -52t111.5 -81.5t89 -113t58 -150.5t21.5 -190.5q0 -308 -177.5 -475.5t-484.5 -167.5q-39 0 -134 4t-134 4q-88 0 -189 -12zM322 127q0 -82 194 -82 q114 0 203.5 32.5t147.5 87.5t95.5 133t53.5 163.5t16 185.5q0 95 -14.5 175.5t-52 157t-96.5 130t-153.5 85.5t-217.5 32h-52q-67 0 -95.5 -14.5t-28.5 -63.5v-1022z" />
<glyph unicode="E" horiz-adv-x="1116" d="M61 0v33q31 6 43 9t30.5 10t24.5 16t11.5 24t5.5 37v1014q0 51 -24 67.5t-91 28.5v33h902q29 0 32 -27q13 -108 39 -211h-37q-33 96 -96 143.5t-168 47.5h-287q-67 0 -95.5 -16.5t-28.5 -69.5v-385q0 -53 28 -67.5t96 -14.5h234q43 0 71.5 9.5t45.5 30t25.5 44t15.5 61.5 h28v-342h-28q-14 76 -45.5 113t-112.5 37h-234q-68 0 -96 -15t-28 -69v-406q0 -54 41.5 -70t173.5 -16h237q45 0 80.5 7.5t56 16.5t40 27.5t26 28.5t20.5 31l50 78h36q-26 -46 -39 -90.5t-22 -118.5q-3 -29 -33 -29h-928z" />
<glyph unicode="F" horiz-adv-x="1067" d="M61 0v33q31 6 43 9t30.5 10t24.5 16t11.5 24t5.5 37v1014q0 51 -24 67.5t-91 28.5v33h902q29 0 32 -27q13 -108 39 -211h-37q-33 96 -96 143.5t-168 47.5h-287q-67 0 -95.5 -16.5t-28.5 -69.5v-385q0 -53 28 -67.5t96 -14.5h234q80 0 112 31.5t46 93.5h28v-301h-28 q-15 63 -47 96t-111 33h-234q-68 0 -96 -15t-28 -69v-412q0 -22 6 -37t13 -24t28 -16t36 -10t52 -9v-33h-396z" />
<glyph unicode="G" horiz-adv-x="1351" d="M61 629q0 157 55.5 287t148.5 214t213.5 129.5t252.5 45.5q105 0 195.5 -28.5t148.5 -74.5t90.5 -100t32.5 -107q0 -49 -27 -78.5t-71 -29.5q-34 0 -59 23.5t-29 64.5q-5 36 -18.5 71t-41 71.5t-65 63.5t-95.5 44.5t-128 17.5q-210 0 -338.5 -137t-128.5 -379 q0 -144 50 -272.5t134.5 -220.5t200.5 -145.5t245 -53.5q100 0 154.5 36.5t54.5 123.5v141q0 60 -6 94.5t-26 60t-55.5 36.5t-96.5 16v35h448v-35q-82 -10 -105.5 -50.5t-23.5 -156.5v-146q0 -114 7 -176q1 -13 -9 -17.5t-22 3.5q-45 20 -90 20q-41 0 -149.5 -20t-192.5 -20 q-184 0 -331 76t-235 225t-88 348z" />
<glyph unicode="H" horiz-adv-x="1366" d="M61 0v33q31 6 43 9t30.5 10t24.5 16t11.5 24t5.5 37v1014q0 51 -24 67.5t-91 28.5v33h375v-33q-35 -6 -51 -10.5t-33.5 -14.5t-23.5 -27t-6 -44v-416q0 -37 15 -53.5t50 -16.5h590q36 0 51.5 16.5t15.5 53.5v416q0 51 -24.5 67.5t-91.5 28.5v33h377v-33q-29 -5 -43 -8.5 t-31.5 -10t-24.5 -16t-12.5 -24.5t-5.5 -37v-1014q0 -27 6 -43.5t25 -26.5t33.5 -14t52.5 -12v-33h-377v33q31 6 43 9t30.5 10t25 16t12 24t5.5 37v412q0 38 -15 54.5t-50 16.5h-594q-34 0 -48.5 -16.5t-14.5 -54.5v-412q0 -18 2.5 -31.5t11 -23t14 -15t23.5 -11t27 -7.5 l36 -8v-33h-375z" />
<glyph unicode="I" d="M61 0v33q31 6 43 9t30.5 10t24.5 16t11.5 24t5.5 37v1014q0 51 -24 67.5t-91 28.5v33h375v-33q-35 -6 -51 -10.5t-33.5 -14.5t-23.5 -27t-6 -44v-1014q0 -18 2.5 -31.5t11 -23t14 -15t23.5 -11t27 -7.5l36 -8v-33h-375z" />
<glyph unicode="J" horiz-adv-x="659" d="M-41 158q0 38 20.5 64t59.5 26q74 0 74 -92q0 -47 28.5 -89t87.5 -42q54 0 81.5 38t27.5 99v981q0 52 -27 68t-108 28v33h395v-33q-35 -6 -51.5 -10.5t-34 -14.5t-23.5 -27t-6 -44v-887q0 -137 -67.5 -206.5t-210.5 -69.5q-127 0 -186.5 53.5t-59.5 124.5z" />
<glyph unicode="K" horiz-adv-x="1243" d="M61 0v33q31 6 43 9t30.5 10t24.5 16t11.5 24t5.5 37v1014q0 51 -24 67.5t-91 28.5v33h375v-33q-35 -6 -51 -10.5t-33.5 -14.5t-23.5 -27t-6 -44v-584l542 553q32 32 38 57.5t-8.5 39.5t-35 21.5t-43.5 8.5v33h348v-33q-57 -2 -111.5 -28t-131.5 -107l-345 -354 q-18 -20 -18 -41.5t10 -37.5t31 -38l365 -445q24 -30 46 -53.5t42.5 -39t34 -25.5t32.5 -17t26.5 -9.5t26 -6t21.5 -4.5v-33h-389v33q23 -1 40.5 4t27.5 16.5t4.5 32t-29.5 47.5l-363 428q-29 25 -53 25q-44 0 -76 -64t-32 -153v-240q0 -18 2.5 -31.5t11 -23t14 -15 t23.5 -11t27 -7.5l36 -8v-33h-375z" />
<glyph unicode="L" horiz-adv-x="1089" d="M61 0v33q31 6 43 9t30.5 10t24.5 16t11.5 24t5.5 37v1014q0 51 -24 67.5t-91 28.5v33h375v-33q-35 -6 -51 -10.5t-33.5 -14.5t-23.5 -27t-6 -44v-1014q0 -92 94 -92h6l340 18q149 7 217 125l31 58h39l-48 -134q-20 -56 -20 -97v-7h-920z" />
<glyph unicode="M" horiz-adv-x="1593" d="M61 0v33q38 8 52.5 12t33.5 14t25 26.5t6 43.5v1014q0 51 -24.5 67.5t-92.5 28.5v33h275l477 -979l455 979h264v-33q-29 -5 -43 -8.5t-31.5 -10t-24.5 -16t-12.5 -24.5t-5.5 -37v-1014q0 -27 6 -43.5t25 -26.5t33.5 -14t52.5 -12v-33h-377v33q31 6 43 9t30.5 10t24.5 16 t11.5 24t5.5 37v1030l-479 -1032h-54l-508 1036v-1034q0 -22 5.5 -37t11.5 -24t24 -16t29 -9.5t41 -9.5v-33h-279z" />
<glyph unicode="N" horiz-adv-x="1292" d="M61 0v33q38 8 52.5 12t33.5 14t25 26.5t6 43.5v1014q0 51 -24.5 67.5t-92.5 28.5v33h240l762 -1028v899q0 51 -24 67.5t-89 28.5v33h281v-33q-29 -5 -43 -8.5t-31.5 -10t-24.5 -16t-12.5 -24.5t-5.5 -37v-1143h-53l-832 1126v-997q0 -27 5.5 -43.5t23 -26.5t31 -14 t49.5 -12v-33h-277z" />
<glyph unicode="O" horiz-adv-x="1419" d="M61 631q0 185 85.5 339t238 244.5t340.5 90.5q183 0 329 -87.5t225 -236t79 -328.5q0 -138 -50 -262t-137 -214.5t-210.5 -143.5t-264.5 -53q-138 0 -257 51t-201.5 138.5t-129.5 207t-47 254.5zM227 694q0 -145 41.5 -269.5t112 -208.5t165 -131.5t199.5 -47.5 q67 0 129.5 18t121.5 60.5t102 105t69.5 158.5t26.5 215q0 144 -41.5 267.5t-112 207t-165 131t-199.5 47.5q-67 0 -129.5 -18t-121.5 -60t-102.5 -104.5t-69.5 -157.5t-26 -213z" />
<glyph unicode="P" horiz-adv-x="1146" d="M61 0v33q31 6 43 9t30.5 10t24.5 16t11.5 24t5.5 37v1014q0 51 -24 67.5t-91 28.5v33h529q241 0 373.5 -98t132.5 -283q0 -187 -133.5 -290t-372.5 -103h-156q-62 0 -87 -26.5t-25 -84.5v-258q0 -22 6 -37t13 -24t28 -16t36 -10t52 -9v-33h-396zM322 651q0 -57 25 -82.5 t87 -25.5h156q179 0 260.5 92t81.5 252q0 157 -81.5 247.5t-260.5 90.5h-172q-53 0 -74.5 -14.5t-21.5 -67.5v-492z" />
<glyph unicode="Q" horiz-adv-x="1419" d="M61 631q0 185 85.5 339t238 244.5t340.5 90.5q183 0 329 -87.5t225 -236t79 -328.5q0 -174 -76.5 -322t-214.5 -241t-311 -108l266 -183q19 -13 45.5 -31t39.5 -26.5t28.5 -18t25 -13t17.5 -3.5q23 0 28.5 29.5t5.5 109.5q0 29 20.5 52.5t61.5 23.5q36 0 55 -24t19 -62 q0 -77 -71 -129.5t-171 -52.5q-97 0 -217 74l-336 239q-77 53 -135 53q-35 0 -52 -20t-20.5 -48l-7 -56t-20 -48t-51.5 -20q-80 0 -80 78q0 57 43.5 97.5t134.5 53.5q-151 82 -237.5 234.5t-86.5 339.5zM227 694q0 -145 41.5 -269.5t112 -208.5t165 -131.5t199.5 -47.5 q67 0 129.5 18t121.5 60.5t102 105t69.5 158.5t26.5 215q0 144 -41.5 267.5t-112 207t-165 131t-199.5 47.5q-67 0 -129.5 -18t-121.5 -60t-102.5 -104.5t-69.5 -157.5t-26 -213z" />
<glyph unicode="R" horiz-adv-x="1200" d="M61 0v33q31 6 43 9t30.5 10t24.5 16t11.5 24t5.5 37v1014q0 51 -24 67.5t-91 28.5v33h508q237 0 355 -89.5t118 -252.5q0 -125 -67.5 -198t-208.5 -118q-7 -3 -9.5 -6.5t0 -6.5t9.5 -5q80 -24 132 -90t75 -148q59 -198 95 -261.5t91 -63.5v-33h-29q-47 0 -79.5 5t-60 21 t-46 36t-37.5 60t-33.5 81.5t-35.5 111.5q-46 153 -127.5 213t-227.5 60q-96 0 -128.5 -25t-32.5 -86v-348q0 -22 6 -37t13 -24t28 -16t36 -10t52 -9v-33h-396zM322 741q0 -58 25 -82t87 -24h172q152 0 220.5 73.5t68.5 215.5q0 147 -71 224t-238 77h-121q-82 0 -112.5 -15 t-30.5 -67v-402z" />
<glyph unicode="S" horiz-adv-x="1058" d="M86 224q-4 31 -3 58q0 30 5 53q10 42 33 42q8 0 11 -0.5t7.5 -3.5t7.5 -11q48 -156 161 -246q109 -87 255 -87h10q122 3 196.5 64t74.5 186q0 29 -5.5 55t-13.5 46t-23.5 38.5t-28.5 31.5t-37 27t-40.5 22t-47 19.5t-49 17.5t-52.5 17.5t-53 17.5q-93 33 -161 68 t-123.5 82t-83.5 107.5t-28 134.5q0 148 117.5 245t331.5 97q179 0 340 -93q27 -68 35 -136q4 -31 4 -57q0 -30 -5 -53q-10 -42 -32 -42h-4q-7 0 -10.5 0.5t-7 3.5t-5.5 10q-48 154 -151 235.5t-234 81.5q-63 0 -112 -21t-76.5 -56.5t-41.5 -77t-14 -88.5q0 -49 17 -89.5 t41.5 -67.5t68.5 -52.5t81 -40.5t96 -35q163 -58 222 -87q192 -96 222 -250q6 -31 6 -64q0 -71 -27.5 -129.5t-74.5 -98t-111.5 -66.5t-137 -39.5t-151.5 -12.5q-78 0 -147 16.5t-111 36t-106 55.5q-27 68 -35 136z" />
<glyph unicode="T" horiz-adv-x="1167" d="M51 1026l29 240q1 6 18 10q66 -4 142 -4h688q71 0 141 4q14 -4 16 -10l31 -240h-39q-41 116 -90 153.5t-156 37.5q-62 0 -97.5 -5.5t-53 -22t-21.5 -35t-4 -54.5v-973q0 -52 36.5 -66.5t168.5 -27.5v-33h-553v33q132 13 167.5 27.5t35.5 66.5v973q0 37 -4 55t-21 34.5 t-52 22t-97 5.5q-107 0 -156 -37.5t-90 -153.5h-39z" />
<glyph unicode="U" horiz-adv-x="1286" d="M51 1239v33h375v-33q-28 -5 -41.5 -8.5t-31 -10t-24.5 -16t-12.5 -24.5t-5.5 -37v-596q0 -248 96 -375t271 -127q61 0 114.5 14t104.5 49t87.5 89.5t58.5 140.5t22 197v608q0 22 -6.5 37.5t-14.5 24.5t-27.5 16t-33 10t-43.5 8v33h295v-33q-28 -5 -40.5 -8t-30.5 -10 t-25 -16t-13 -24.5t-6 -37.5v-613q0 -268 -125 -409t-348 -141q-104 0 -191 32t-152 95t-101.5 164.5t-36.5 232.5v639q0 51 -24 67.5t-91 28.5z" />
<glyph unicode="V" horiz-adv-x="1447" d="M41 1239v33h420v-33q-39 -6 -62 -13.5t-35.5 -16t-13.5 -24.5t2.5 -30.5t14.5 -42.5l385 -911q8 -18 14.5 -23.5t13 1t13.5 26.5l383 899q11 28 11 50q1 27 -17 44q-32 30 -121 41v33h358v-33q-71 -15 -107 -39.5t-65 -89.5l-412 -975q-37 -84 -37 -135h-106l-451 1057 q-43 108 -77 141.5t-111 40.5z" />
<glyph unicode="W" horiz-adv-x="2056" d="M41 1239v33h410v-33q-93 -13 -107 -39q-5 -8 -4 -21q0 -25 20 -67l340 -901q10 -26 20 -25.5t21 25.5l232 600q8 21 10.5 45t1.5 42t-7.5 41.5t-11 35t-13 31.5t-9.5 24q-48 123 -84.5 161.5t-118.5 47.5v33h410v-33q-33 -5 -54 -10t-34 -13.5t-18.5 -15.5t-4 -22.5 t5.5 -28t13 -37.5l342 -901q10 -26 20.5 -25.5t20.5 25.5l340 893q11 28 11 49q1 27 -17 45q-30 30 -119 41v33h358v-33q-75 -15 -111.5 -39t-60.5 -90l-375 -975q-34 -92 -34 -135h-97l-309 813l-260 -678q-35 -95 -35 -135h-96l-404 1057q-41 106 -77 140t-115 42z" />
<glyph unicode="X" horiz-adv-x="1339" d="M41 0v33q50 4 93.5 31t127 117t225.5 272l125 159l-301 430q-79 116 -123.5 153t-117.5 44v33h393v-33q-28 -4 -41 -6.5t-25.5 -9.5t-11.5 -18.5t9 -30t28 -46.5l291 -411q251 328 279 433q4 16 4 30q0 44 -48 55q-12 3 -28 4v33h376v-33q-38 -3 -67.5 -16.5t-78.5 -58 t-116.5 -125t-177.5 -220.5l-113 -143l312 -445q80 -117 125 -154t118 -44v-33h-393v33q35 4 49.5 8t24 15t1 31.5t-33.5 55.5l-303 428q-266 -342 -295 -451q-4 -16 -4 -30q0 -43 47 -53q11 -3 25 -4v-33h-375z" />
<glyph unicode="Y" horiz-adv-x="1269" d="M31 1239v33h405v-33q-34 -8 -54 -17.5t-29.5 -19.5t-7.5 -26t9 -32t23 -42l285 -453q14 -17 28 0l262 441q22 36 28 62.5t1 41t-23.5 24.5t-34.5 13.5t-44 7.5v33h360v-33q-77 -8 -120.5 -38t-106.5 -130l-279 -455q-26 -40 -26 -106v-381q0 -52 29.5 -67.5t127.5 -28.5 v-33h-458v33q98 13 126.5 28.5t28.5 67.5v381q0 8 -0.5 14.5t-3.5 14t-4.5 12.5t-6.5 14t-7.5 12.5t-10 15.5t-10.5 17l-276 445q-57 92 -100 126.5t-111 57.5z" />
<glyph unicode="Z" horiz-adv-x="1128" d="M31 0l811 1186q6 8 7.5 14.5t-1.5 12.5t-11 10.5t-24 7t-39 2.5h-328q-66 0 -116 -10t-82 -26t-55.5 -43.5t-36 -54t-25.5 -65.5h-39l29 238h956l-807 -1172q-13 -20 -13 -34q0 -27 52 -27h420q129 0 195.5 44.5t111.5 133.5h41l-41 -217h-1005z" />
<glyph unicode="[" d="M92 -326v1866q235 0 354 14v-24q0 -24 -38 -27l-203 -33v-1726l203 -33q38 -3 38 -26v-25q-119 14 -354 14z" />
<glyph unicode="\" horiz-adv-x="747" d="M72 1313h57l547 -1313h-58z" />
<glyph unicode="]" d="M51 -315q0 23 39 26l203 33v1726l-203 33q-39 3 -39 27v24q119 -14 355 -14v-1866q-236 0 -355 -14v25z" />
<glyph unicode="^" horiz-adv-x="860" d="M102 935.5q-2 11.5 11 31.5l305 409q10 10 13.5 8.5t8.5 -8.5l305 -409q9 -13 11 -23t-1.5 -15t-9.5 -5h-32q-3 0 -5 0.5t-4.5 2t-4.5 3.5l-5.5 5.5t-6.5 7t-8.5 9.5t-10.5 11l-238 266l-237 -271q-34 -34 -46 -34h-30q-13 0 -15 11.5z" />
<glyph unicode="_" horiz-adv-x="1253" d="M102 -41h1049v-10h-1049v10z" />
<glyph unicode="`" horiz-adv-x="559" d="M102 1337q0 24 20 42t44 18q31 0 70 -41l202 -215q25 -25 15 -43q-4 -11 -16 -15t-36 7l-239 163q-60 40 -60 84z" />
<glyph unicode="a" horiz-adv-x="987" d="M61 213q0 50 16 90.5t57 80t108 70t173.5 55t248.5 38.5q36 5 36 51v47q0 116 -62.5 185t-186.5 69q-54 0 -89 -14t-50 -36t-22 -49t-10 -54t-9.5 -49t-25.5 -36t-52 -14q-35 0 -53.5 22t-18.5 62q0 55 34 97.5t91 66.5t121.5 35.5t134.5 11.5q175 0 250 -80t75 -241 v-502q0 -26 8.5 -40.5t24.5 -16.5t31 0.5t35 9.5v-19q-13 -25 -43.5 -45t-65.5 -20q-49 0 -85 35.5t-36 115.5q1 13 -8 12q-8 -1 -16 -12q-60 -73 -154.5 -112t-191.5 -39q-112 0 -188.5 56.5t-76.5 168.5zM203 244q0 -77 53 -130t152 -53q119 0 205.5 73.5t86.5 182.5v113 q0 41 -16 60q-12 14 -42 14q-11 0 -24 -2q-99 -12 -173.5 -33t-119.5 -45.5t-73.5 -55.5t-38.5 -60.5t-10 -63.5z" />
<glyph unicode="b" horiz-adv-x="1073" d="M20 1264v30l199 49q28 8 46 -6.5t18 -46.5v-465q0 -7 3 -12t10.5 -4.5t18.5 12.5q36 42 119 81.5t176 39.5q171 0 286.5 -129t115.5 -330q0 -116 -37 -211.5t-99 -156.5t-141 -94t-164 -33q-57 0 -112 15t-88.5 33t-64 33t-44.5 15q-16 0 -28.5 -15t-19 -33t-16.5 -33 t-22 -15q-20 0 -20 22v1135q0 37 -4 58t-17 39t-41 22q-15 2 -35 2q-17 0 -39 -2zM283 369q0 -85 28.5 -152.5t75 -106.5t100 -59t109.5 -20q133 0 214 102t81 268q0 188 -101.5 315.5t-254.5 127.5q-44 0 -85 -11.5t-80 -36.5t-63 -75t-24 -119v-233z" />
<glyph unicode="c" horiz-adv-x="980" d="M61 465q0 145 68 255t178.5 166t243.5 56q156 0 249 -73t93 -156q0 -40 -24 -64t-58 -24q-69 0 -74 77q-9 80 -68.5 137.5t-170.5 57.5q-139 0 -224.5 -98.5t-85.5 -278.5q0 -133 60 -233t157.5 -149.5t215.5 -49.5q174 0 262 137l26 -26q-14 -34 -43 -68.5t-73.5 -68 t-111 -54t-142.5 -20.5q-97 0 -184 33.5t-152.5 94t-103.5 151t-38 198.5z" />
<glyph unicode="d" horiz-adv-x="1071" d="M61 461q0 148 63.5 259.5t165 166.5t224.5 55q49 0 99 -10t79.5 -20t54.5 -16t35.5 2t10.5 34v213q0 37 -4 58t-17 39t-41 22q-15 2 -35 2q-18 0 -39 -2v30l199 49q28 8 46 -6.5t18 -46.5v-1171q0 -35 15 -51.5t39 -16.5t54 2v-18q-19 -19 -55 -33t-72 -14q-93 0 -115 96 q-8 25 -32 25q-20 0 -48 -19t-56 -41.5t-79 -41.5t-112 -19q-172 0 -285 132t-113 341zM182 526q0 -195 99.5 -317.5t263.5 -122.5q44 0 84 11t79 36t62 73.5t23 115.5v270q0 79 -29.5 140.5t-77 96.5t-101.5 52.5t-110 17.5q-139 0 -216 -101.5t-77 -271.5z" />
<glyph unicode="e" horiz-adv-x="952" d="M61 469q0 216 130.5 344.5t330.5 128.5q150 0 236 -73.5t86 -186.5q0 -65 -33 -103.5t-121.5 -61.5t-245.5 -28l-188 -8q-30 -1 -41.5 -16.5t-11.5 -48.5q0 -58 27 -116t75 -106t123 -78t164 -30q172 0 260 121l29 -23q-18 -31 -44.5 -60.5t-69.5 -62.5t-107 -53 t-138 -20q-196 0 -328.5 134t-132.5 347zM195 594q0 -48 15 -60t52 -10l170 2q157 2 213.5 33t56.5 121q0 96 -54 156.5t-165 60.5q-91 0 -158 -45t-98.5 -112.5t-31.5 -145.5z" />
<glyph unicode="f" horiz-adv-x="712" d="M41 858v37q86 16 120 37.5t34 66.5q0 200 84.5 299t240.5 99q87 0 140 -31t53 -88q0 -43 -25.5 -59.5t-52.5 -16.5q-23 0 -41.5 14t-32 34t-28.5 39.5t-40.5 33.5t-58.5 14q-65 0 -88.5 -53t-23.5 -162v-147q0 -38 18 -50t80 -12h143v-61l-143 6q-15 1 -27 1 q-38 0 -52 -9q-19 -13 -19 -49v-666q0 -52 36.5 -72.5t145.5 -27.5v-35h-455v35q84 8 115 28.5t31 71.5v670q0 30 -10.5 41.5t-30.5 11.5h-113z" />
<glyph unicode="g" horiz-adv-x="1017" d="M31 -139q0 141 179 212q32 12 31.5 14t-10.5 3q-70 8 -115.5 48.5t-45.5 97.5q0 53 42.5 88t123.5 47q-148 90 -148 258q0 141 101 227t268 86q105 0 191.5 -38t129.5 -109v11q0 55 26 94q29 42 91 42q43 0 67.5 -20t24.5 -48q0 -36 -31 -51q-17 -9 -36 -9q-14 0 -29 5 q-18 6 -33 6q-23 0 -39 -13q-17 -14 -17 -37q0 -15 7 -34q14 -35 14 -104q0 -142 -99.5 -226.5t-266.5 -84.5q-41 0 -102.5 7t-82.5 7q-41 0 -63.5 -18t-22.5 -46t23.5 -44t60.5 -21l361 -64q151 -25 223 -70.5t72 -135.5q0 -93 -72.5 -167t-188.5 -112.5t-251 -38.5 q-168 0 -275.5 63t-107.5 175zM164 -113q0 -75 45.5 -126t113.5 -72t154 -21q139 0 226.5 58.5t87.5 158.5q0 61 -38.5 94.5t-117.5 45.5l-156 26q-64 9 -113 9q-21 0 -39 -2q-61 -5 -97 -32t-51 -61t-15 -78zM233 668q0 -137 72.5 -221.5t186.5 -84.5q96 0 141 66t45 172 q0 137 -71.5 221t-186.5 84q-95 0 -141 -65.5t-46 -171.5z" />
<glyph unicode="h" horiz-adv-x="1075" d="M31 1264v30l198 49q28 8 46 -6.5t18 -46.5v-411q0 -94 22 -94q8 0 19 10l32 29q31 28 61 50t88 43t120 21q128 0 213.5 -85t85.5 -249v-485q0 -35 15 -51.5t39 -16.5t54 2v-18q-19 -19 -55 -33t-74 -14q-106 0 -106 123v446q0 139 -65 220t-183 81q-120 0 -193 -82.5 t-73 -218.5v-426q0 -47 29.5 -67.5t103.5 -28.5v-35h-391v35q73 8 102 28.5t29 67.5v1014q0 38 -3.5 58.5t-16.5 38.5q-14 18 -42 22q-15 2 -34 2q-17 0 -39 -2z" />
<glyph unicode="i" d="M51 0v35q76 8 105.5 28.5t29.5 67.5v606q0 38 -3.5 59t-16.5 39q-12 19 -40 23q-15 2 -35 2q-17 0 -38 -2v31l197 49q28 8 45.5 -6t17.5 -47v-754q0 -47 29.5 -67.5t103.5 -28.5v-35h-395zM147 1286q0 36 24 60t60 24t60 -24t24 -60t-24 -60t-60 -24t-60 24t-24 60z" />
<glyph unicode="j" horiz-adv-x="421" d="M-106 -297q0 30 15.5 49t43.5 19q27 0 50 -21.5t36.5 -46.5t34 -46.5t43.5 -21.5q45 0 45 107v995q0 38 -3.5 59t-17 39t-41.5 23q-14 2 -34 2q-17 0 -39 -2v31l196 49q30 8 48 -6t18 -47v-1026q0 -123 -62.5 -195t-171.5 -72q-68 0 -114.5 29.5t-46.5 81.5zM123 1286 q0 36 24 60t60 24t60 -24t24 -60t-24 -60t-60 -24t-60 24t-24 60z" />
<glyph unicode="k" horiz-adv-x="989" d="M31 1264v30l198 49q28 8 46 -6.5t18 -46.5v-768q0 -25 11 -31t30 11l348 317q17 16 17 29q0 27 -73 39l-26 4v33h301v-33q-27 -4 -45 -7.5t-34.5 -13.5t-22 -13t-25.5 -22t-26 -24l-254 -223l342 -465q17 -22 31 -37t23.5 -23.5t23.5 -13.5t20.5 -6.5t26 -4t28.5 -3.5 v-35h-327v35q34 5 46 7t19 10t0.5 20t-25.5 37l-229 311q-26 33 -43.5 43t-42.5 10q-39 0 -66.5 -37t-27.5 -100v-205q0 -47 29.5 -67.5t103.5 -28.5v-35h-391v35q73 8 102 28.5t29 67.5v1014q0 38 -3.5 58.5t-16.5 38.5q-14 18 -42 22q-15 2 -34 2q-17 0 -39 -2z" />
<glyph unicode="l" horiz-adv-x="434" d="M20 1264v30l199 49q28 8 46 -6.5t18 -46.5v-1171q0 -35 15 -51.5t39 -16.5t54 2v-18q-19 -19 -55 -33t-74 -14q-106 0 -106 123v1034q0 37 -4 58t-17 39t-41 22q-15 2 -35 2q-17 0 -39 -2z" />
<glyph unicode="m" horiz-adv-x="1603" d="M51 854v35l199 49q29 8 46 -7t17 -52q0 -96 21 -96h3q6 2 13 12q1 1 10 14.5t18 24t24.5 27t34.5 29t43.5 24t56 18t67.5 6.5q158 0 234 -131q17 -32 38 -38.5t46 24.5q1 1 8 13t15.5 23t23 27.5t34 30t44.5 25.5t59 19t72 7q127 0 204.5 -81.5t77.5 -238.5v-499 q0 -35 15.5 -51.5t40.5 -16.5t55 2v-18q-19 -19 -55.5 -33t-75.5 -14q-107 0 -107 123v446q0 140 -53.5 220.5t-157.5 80.5q-105 0 -170 -83t-65 -218v-426q0 -46 27 -67t92 -29v-35h-383v35q77 8 107 28.5t30 67.5v426q0 140 -53.5 220.5t-159.5 80.5q-104 0 -169 -83 t-65 -218v-426q0 -47 30 -67.5t106 -28.5v-35h-394v35q73 8 102 28.5t29 67.5v602q0 38 -3.5 59t-16.5 39q-14 19 -42 23q-15 2 -34 2q-17 0 -39 -2z" />
<glyph unicode="n" horiz-adv-x="1095" d="M51 858v31l199 49q29 8 46 -7t17 -52q0 -94 23 -94h1q7 0 17 10q2 1 16 16.5t28 29t41 32.5t55 32.5t68.5 23t84.5 9.5q133 0 220 -84.5t87 -249.5v-485q0 -51 28 -63q16 -7 41 -7q18 0 40 4v-18q-19 -19 -55 -33t-74 -14q-107 0 -107 123v446q0 140 -63.5 220.5 t-183.5 80.5q-123 0 -195 -82t-72 -219v-426q0 -47 29.5 -67.5t103.5 -28.5v-35h-391v35q73 8 102 28.5t29 67.5v606q0 38 -3.5 59t-16.5 39q-14 19 -42 23q-15 2 -34 2q-17 0 -39 -2z" />
<glyph unicode="o" horiz-adv-x="1048" d="M61 459q0 211 135.5 347t331.5 136q124 0 228.5 -57.5t167.5 -166t63 -247.5q0 -211 -135.5 -347t-331.5 -136q-124 0 -228.5 57.5t-167.5 166t-63 247.5zM203 532q0 -135 46.5 -247.5t132 -180t193.5 -67.5q123 0 197 92t74 266q0 136 -47 250t-133 182t-193 68 q-123 0 -196.5 -93.5t-73.5 -269.5z" />
<glyph unicode="p" horiz-adv-x="1093" d="M41 858v31l199 49q29 8 46 -7.5t17 -53.5v-33q0 -16 8 -20t25 12q34 38 117 72t176 34q173 0 288 -129.5t115 -337.5q0 -113 -36.5 -206.5t-98 -154t-140 -93.5t-163.5 -33q-61 0 -115.5 17t-89 34.5t-47.5 17.5q-39 0 -39 -92v-219q0 -50 30 -71.5t111 -30.5v-33h-399 v33q74 9 102.5 30.5t28.5 71.5v991q0 38 -3.5 59t-17 39t-41.5 23q-14 2 -34 2q-17 0 -39 -2zM303 369q0 -84 28.5 -150.5t75 -106.5t101 -60.5t110.5 -20.5q132 0 212.5 102t80.5 268q0 188 -101.5 315.5t-254.5 127.5q-44 0 -85 -11.5t-80 -36.5t-63 -74.5t-24 -117.5 v-235z" />
<glyph unicode="q" horiz-adv-x="1050" d="M61 467q0 222 127.5 348.5t323.5 126.5q64 0 115.5 -14t76 -31t47.5 -31t37 -14q16 0 32 14t27 30t24.5 30t25.5 14q7 0 14 -7.5t7 -19.5v-1167q0 -50 29 -71.5t104 -30.5v-33h-412v33q88 9 120 30t32 72v326q0 39 -31 39q-16 0 -29 -13q-110 -110 -264 -110 q-179 0 -292.5 134.5t-113.5 344.5zM182 522q0 -194 98.5 -315t256.5 -121q45 0 85.5 11.5t80.5 39t64 83.5t24 134v176q0 101 -29 176t-77 115.5t-100.5 59t-109.5 18.5q-137 0 -215 -102.5t-78 -274.5z" />
<glyph unicode="r" horiz-adv-x="825" d="M51 858v31l199 49q29 8 46 -7t17 -52v-66q0 -12 10 -16.5t27 8.5l15 15t27.5 27t38.5 30.5t50.5 30t62 21.5t74.5 9q51 0 87.5 -15t55 -39.5t26.5 -49t7 -50.5q0 -48 -24 -78t-63 -30q-30 0 -46 18.5t-22.5 45t-15 53t-33 45t-66.5 18.5q-94 0 -152.5 -93t-58.5 -269 v-363q0 -47 30 -67.5t106 -28.5v-35h-394v35q73 8 102 28.5t29 67.5v606q0 38 -3.5 59t-16.5 39q-14 19 -42 23q-15 2 -34 2q-17 0 -39 -2z" />
<glyph unicode="s" horiz-adv-x="843" d="M70 212q2 66 47 67q26 0 39 -39q41 -108 107.5 -159.5t176.5 -51.5q97 0 152 40.5t55 118.5q0 32 -7.5 58.5t-25.5 47t-33.5 34.5t-46.5 28.5t-49 22t-56.5 20.5t-53.5 19q-62 22 -105 43t-87.5 53.5t-67.5 76.5t-23 99q0 115 92.5 183.5t249.5 68.5q168 0 271 -76 q34 -61 34 -122v-7q-2 -65 -47 -65q-25 0 -39 37q-71 194 -254 194q-87 0 -134.5 -40.5t-47.5 -112.5q0 -38 12 -68t30 -50.5t51 -40t62 -32t77 -29.5q11 -4 45.5 -16.5t48 -18t44.5 -18.5t45.5 -21t39.5 -22.5t37 -26.5t29 -30t24.5 -35.5t13.5 -40t6 -47.5 q0 -120 -101 -193t-273 -73q-204 0 -306 92q-32 62 -32 125v7z" />
<glyph unicode="t" horiz-adv-x="618" d="M31 872v37q73 34 125 84t94 129q8 13 20 13h13q6 0 11 -5t5 -10l-2 -145q0 -31 16.5 -41t77.5 -10h166v-64l-166 8h-10q-52 0 -67 -10q-17 -11 -17 -47v-569q0 -102 26 -151.5t97 -49.5q67 0 112 45q12 -7 17 -16t4 -14.5t-4 -6.5q-62 -59 -162 -59q-101 0 -159 54.5 t-58 170.5v600q0 33 -10 45t-31 12h-98z" />
<glyph unicode="u" horiz-adv-x="1105" d="M51 858v31l199 49q28 8 45.5 -6t17.5 -47v-535q0 -128 65.5 -206t182.5 -78q119 0 192.5 79.5t73.5 204.5v389q0 39 -3.5 58.5t-16.5 37t-41 21.5q-16 3 -40 3q-16 0 -34 -1v31l199 49q28 8 45.5 -6t17.5 -47v-766q0 -35 15 -51.5t39.5 -16.5t54.5 2v-18q-19 -19 -55 -33 t-72 -14q-47 0 -80.5 29t-40.5 92q0 18 -14 18q-13 0 -23 -8q-2 -1 -30 -25.5t-57.5 -46t-84.5 -40.5t-114 -19q-133 0 -219.5 82.5t-86.5 236.5v432q0 38 -3.5 58.5t-17 37t-41.5 21.5q-17 3 -41 3q-15 0 -32 -1z" />
<glyph unicode="v" horiz-adv-x="1030" d="M20 891v33h373v-33q-61 -19 -81.5 -36t-18 -50t32.5 -107l186 -460q14 -30 24 -39t20 1t24 42l92 235q28 69 46.5 121t29 93t16.5 68.5t1.5 48.5t-9.5 33t-22.5 22t-30.5 15t-41 13v33h348v-33q-63 -19 -94 -36t-57 -52.5t-54 -104.5l-285 -698h-51l-287 698 q-42 104 -68.5 135t-93.5 58z" />
<glyph unicode="w" horiz-adv-x="1490" d="M20 891v33h369v-33q-61 -19 -81 -36t-17 -50t33 -107l186 -456q14 -32 23.5 -42t19 0t22.5 42l68 172q27 77 33 138q3 28 4 52q0 26 -4 46q-8 38 -27 83q-28 67 -58.5 98.5t-103.5 59.5v33h369v-33q-61 -19 -81 -36t-17 -50t33 -107l186 -456q14 -32 23.5 -42t19 0 t22.5 42l88 235q27 71 45 122.5t28.5 93.5t17 68.5t2 48.5t-8 32.5t-21 21t-29.5 15t-40 12.5v33h346v-33q-88 -27 -123 -59.5t-77 -133.5l-285 -698h-49l-211 512l-209 -512h-49l-285 698q-42 104 -68.5 135t-93.5 58z" />
<glyph unicode="x" horiz-adv-x="1007" d="M31 0v35q99 26 149 62t142 157l133 178l-199 275q-59 86 -104.5 125t-110.5 59v33h389v-33q-36 -10 -55.5 -21.5t-27.5 -24.5t-0.5 -34.5t21.5 -43.5t42 -60l120 -170q73 98 110 161.5t41 102.5t-15 58.5t-64 31.5v33h371v-33q-70 -18 -106.5 -36t-78 -59t-106.5 -126 l-127 -172l205 -281q61 -86 106.5 -125t110.5 -57v-35h-389v35q20 5 34 11t25.5 11t15.5 13.5t7.5 14t-0.5 19t-6.5 21t-14 26.5t-18 29.5t-23.5 36.5l-123 178q-75 -103 -113 -166t-45.5 -103.5t10.5 -59.5t64 -31v-35h-370z" />
<glyph unicode="y" horiz-adv-x="1044" d="M20 891v33h373v-33q-38 -12 -56.5 -20.5t-32.5 -21.5t-12.5 -33t9.5 -46.5t27 -71.5l194 -473q17 -38 32 -38t32 40l100 250q28 69 47 121t29.5 93t16.5 68.5t1.5 48.5t-9.5 33t-22.5 22t-30.5 15t-40 13v33h346v-33q-91 -28 -128 -61t-75 -132l-358 -870 q-20 -49 -31 -73t-33.5 -61t-44 -54.5t-55 -31.5t-74.5 -14q-69 0 -106 32.5t-37 82.5q0 43 26.5 67.5t65.5 24.5q34 0 50.5 -21.5t18 -47t13 -47t37.5 -21.5q63 0 135 178q23 58 25 116v22q0 43 -7 68q-8 31 -24 69l-240 581q-42 104 -68.5 135t-93.5 58z" />
<glyph unicode="z" horiz-adv-x="886" d="M31 0l577 811q15 21 15 35q0 26 -54 26h-282q-60 0 -98.5 -38t-67.5 -117h-33l37 207h731l-577 -811q-16 -22 -16 -36q0 -26 52 -26h303q59 0 97 38t69 118h33l-37 -207h-749z" />
<glyph unicode="{" horiz-adv-x="518" d="M92 590v31q82 37 106.5 58t24.5 66v377q0 77 9 134.5t33 115.5t73.5 103t124.5 75l4 -55q-69 -36 -100 -128t-31 -245v-417q0 -16 -9 -29t-32.5 -26t-39.5 -20t-54 -22v-6q92 -36 114 -55q20 -19 21 -41v-418q0 -153 31 -245t100 -128l-4 -55q-75 30 -124.5 75t-73.5 103 t-33 115.5t-9 134.5v377q0 45 -25 67t-106 58z" />
<glyph unicode="|" horiz-adv-x="452" d="M205 -440v2078h43v-2078h-43z" />
<glyph unicode="}" horiz-adv-x="518" d="M51 -285q69 36 100 128t31 245v418q0 29 31 48.5t95 44.5q3 1 5 1.5t4 1.5v6q-38 15 -54 22t-39.5 20t-32.5 26t-9 29v417q0 153 -31 245t-100 128l4 55q75 -30 124.5 -75t73.5 -103t33 -115.5t9 -134.5v-377q0 -45 24.5 -66t106.5 -58v-31q-81 -36 -106 -58t-25 -67 v-377q0 -77 -9 -134.5t-33 -115.5t-73.5 -103t-124.5 -75z" />
<glyph unicode="~" horiz-adv-x="978" d="M102 410q0 115 61.5 178t149.5 63q59 0 125.5 -22.5t114.5 -50t100 -50t86 -22.5q41 0 70 28.5t29 79.5h39q0 -115 -61.5 -178t-147.5 -63q-61 0 -128.5 22.5t-115.5 50t-100 50t-84 22.5q-42 0 -69.5 -27t-27.5 -81h-41z" />
<glyph unicode="&#xa1;" horiz-adv-x="391" d="M92 -238q0 79 20.5 202.5t42.5 282t25 316.5h31q3 -158 25 -316.5t42.5 -282t20.5 -202.5q0 -69 -26 -107t-78 -38q-50 0 -76.5 38t-26.5 107zM96 834q0 41 29.5 70.5t69.5 29.5t69 -29.5t29 -70.5t-29 -71t-69 -30t-69.5 30t-29.5 71z" />
<glyph unicode="&#xa2;" horiz-adv-x="980" d="M61 465q0 145 68 255t178.5 166t243.5 56l39 -2l33 123h39l-35 -127q123 -18 194.5 -85t71.5 -138q0 -40 -24 -64t-58 -24q-69 0 -74 77q-7 56 -38 103t-89 72l-200 -740q94 -49 211 -49q174 0 262 137l26 -26q-14 -34 -43 -68.5t-73.5 -68t-111 -54t-142.5 -20.5 q-88 0 -164 24l-37 -137h-39l41 152q-127 53 -203 167t-76 271zM188 520q0 -123 50 -216t137 -148l200 733q-46 8 -77 8q-139 0 -224.5 -98.5t-85.5 -278.5z" />
<glyph unicode="&#xa3;" horiz-adv-x="1062" d="M78 0v98q77 46 119.5 78.5t73 80t30.5 103.5q0 40 -12 84h-207v33h194q-16 46 -63.5 139t-77 176t-29.5 162q0 157 114.5 254t314.5 97q93 0 166.5 -23t117.5 -58.5t72.5 -83.5t39.5 -93.5t11 -92.5q0 -73 -25.5 -118t-80.5 -45q-76 0 -76 69q0 20 16.5 54.5t16.5 80.5 q0 109 -73 190t-198 81q-129 0 -194.5 -80.5t-65.5 -202.5q0 -63 22.5 -133.5t50.5 -124t57 -122.5t38 -126h377v-33h-373v-26q0 -40 -8.5 -74t-28 -61.5t-39 -48.5t-55 -42.5t-61 -35t-70.5 -35.5h481q138 0 197 31.5t98 123.5h33l-31 -147q-9 -45 -9.5 -74t3 -37t10.5 -18 h-876z" />
<glyph unicode="&#xa4;" horiz-adv-x="1073" d="M102 70l115 114q-104 120 -104 283q0 155 102 278l-113 111l43 45l113 -113q118 105 279 105q158 0 278 -107l115 115l41 -45l-113 -113q100 -125 100 -276q0 -161 -104 -281l117 -116l-41 -43l-119 116q-117 -104 -274 -104t-277 102l-115 -114zM172 467 q0 -153 105 -262t258 -109q150 0 257 110t107 261q0 154 -106.5 261.5t-257.5 107.5q-154 0 -258.5 -107t-104.5 -262z" />
<glyph unicode="&#xa5;" horiz-adv-x="1269" d="M31 1239v33h405v-33q-34 -8 -54 -17.5t-29.5 -19.5t-7.5 -26t9 -32t23 -42l285 -453q14 -17 28 0l262 441q22 36 28 62.5t1 41t-23.5 24.5t-34.5 13.5t-44 7.5v33h360v-33q-77 -8 -120.5 -38t-106.5 -130l-279 -455q-26 -40 -26 -106v-8h333v-33h-333v-92h333v-33h-333 v-215q0 -52 29.5 -67.5t127.5 -28.5v-33h-458v33q98 13 126.5 28.5t28.5 67.5v215h-334v33h334v92h-334v33h334v8q0 8 -0.5 14.5t-3.5 14t-4.5 12.5t-6.5 14t-7.5 12.5t-10 15.5t-10.5 17l-276 445q-57 92 -100 126.5t-111 57.5z" />
<glyph unicode="&#xa6;" horiz-adv-x="452" d="M205 274h43v-714h-43v714zM205 924v714h43v-714h-43z" />
<glyph unicode="&#xa7;" horiz-adv-x="972" d="M82 489q0 174 188 236q-89 53 -134.5 118.5t-45.5 157.5q0 131 107 217.5t301 86.5q160 0 301 -84q25 -60 33.5 -123.5t-0.5 -102.5t-29 -39q-23 0 -23 17q-45 138 -138.5 213.5t-209.5 75.5q-58 0 -102 -18.5t-68.5 -50.5t-36.5 -69.5t-12 -81.5q0 -58 20.5 -103 t62.5 -77t86 -52.5t110 -43.5q8 -3 51.5 -18.5t57 -20.5t54 -21t56 -25.5t48.5 -28.5t48 -34t37 -38.5t31.5 -46.5t17.5 -53t8 -62q0 -185 -203 -248q195 -98 195 -264q0 -80 -37.5 -142t-101.5 -99t-142.5 -56t-167.5 -19q-105 0 -174.5 22t-152.5 69q-23 61 -30 123.5 t2.5 101.5t31.5 39q16 0 20 -15q51 -139 149 -217t232 -75q107 3 172.5 56t65.5 161q0 28 -5 52t-11.5 43t-21.5 37t-26 30.5t-34 26t-36.5 21t-43 19t-44 16.5t-48 16.5t-48.5 16.5q-86 31 -146.5 62t-111.5 73t-76.5 97.5t-25.5 123.5zM207 530q0 -47 15 -85.5t37 -65 t61 -50.5t74 -39.5t89 -35.5q136 -48 187 -72q98 58 98 185q0 50 -17 90t-37 64t-65.5 47.5t-72.5 34t-89 30.5l-12 4.5t-11 3.5t-13 4q-93 32 -160 70q-84 -56 -84 -185z" />
<glyph unicode="&#xa8;" horiz-adv-x="718" d="M102 1288q0 31 25 56.5t57 25.5q33 0 58.5 -25.5t25.5 -56.5q0 -35 -25 -61.5t-59 -26.5q-32 0 -57 26.5t-25 61.5zM451 1288q0 31 24.5 56.5t56.5 25.5q33 0 58.5 -25.5t25.5 -56.5q0 -35 -25 -61.5t-59 -26.5q-32 0 -56.5 26.5t-24.5 61.5z" />
<glyph unicode="&#xa9;" horiz-adv-x="1474" d="M61 643q0 186 88 337.5t243 238t345 86.5t345 -86.5t243 -238t88 -337.5q0 -140 -52 -263t-141.5 -211t-215 -138.5t-267.5 -50.5t-267.5 50.5t-215 138.5t-141.5 211t-52 263zM113 643q0 -129 48 -243t130.5 -196t198.5 -129.5t247 -47.5q175 0 318.5 81t225 222 t81.5 313q0 171 -81.5 311.5t-225 221.5t-318.5 81t-318.5 -81t-224.5 -221.5t-81 -311.5zM358 629q0 74 22.5 138t61.5 108.5t90.5 76.5t109.5 47t118 15q127 0 208 -61.5t81 -143.5q0 -41 -24 -69.5t-67 -28.5q-44 0 -70 28t-26 62t-5 60t-18.5 51.5t-42 39t-71.5 13.5 q-88 0 -137 -64.5t-49 -183.5q0 -164 88.5 -261.5t212.5 -97.5q125 0 188 86l33 -26q-29 -58 -116.5 -112t-203.5 -54q-74 0 -142 24.5t-122.5 70.5t-86.5 119t-32 163z" />
<glyph unicode="&#xaa;" horiz-adv-x="737" d="M98 823q0 79 87.5 129.5t299.5 75.5v27v27.5t-1 27.5t-3.5 29.5t-7.5 26.5t-12 26t-18 21t-25.5 17.5t-35 10t-44.5 4.5q-39 0 -61.5 -11.5t-27 -29.5t-7 -38t-3 -38t-14 -29.5t-41.5 -11.5q-24 0 -39.5 16t-15.5 48q0 63 68 98t168 35q110 0 160 -55t50 -166v-254 q0 -35 16 -53.5t48 -10.5v-38q-27 -11 -49 -11q-99 0 -107 103q-29 -43 -88.5 -75.5t-130.5 -33.5q-73 -2 -119.5 33t-46.5 100zM111 504v41h505v-41h-505zM195 838q0 -44 24.5 -68.5t65.5 -24.5q75 0 137.5 44.5t62.5 117.5v84q-290 -35 -290 -153z" />
<glyph unicode="&#xab;" horiz-adv-x="774" d="M113 612.5q0 12.5 6 18.5l231 209q18 15 39 -6q11 -14 -8 -33l-148 -189l148 -190q19 -19 8 -33q-21 -21 -39 -6l-231 209q-6 8 -6 20.5zM381 612.5q0 12.5 6 18.5l231 209q18 15 39 -6q11 -14 -8 -33l-147 -189l147 -190q19 -19 8 -33q-21 -21 -39 -6l-231 209 q-6 8 -6 20.5z" />
<glyph unicode="&#xac;" horiz-adv-x="1067" d="M102 700v43h863v-450h-43v407h-820z" />
<glyph unicode="&#xad;" horiz-adv-x="757" d="M102 532v19h553v-19h-553z" />
<glyph unicode="&#xae;" horiz-adv-x="1474" d="M61 643q0 186 88 337.5t243 238t345 86.5t345 -86.5t243 -238t88 -337.5q0 -140 -52 -263t-141.5 -211t-215 -138.5t-267.5 -50.5t-267.5 50.5t-215 138.5t-141.5 211t-52 263zM113 643q0 -129 48 -243t130.5 -196t198.5 -129.5t247 -47.5q175 0 318.5 81t225 222 t81.5 313q0 171 -81.5 311.5t-225 221.5t-318.5 81t-318.5 -81t-224.5 -221.5t-81 -311.5zM391 262v33q76 12 76 76v542q0 64 -76 76v33h361q140 0 220.5 -54.5t80.5 -154.5q0 -138 -176 -188q-6 -1 -6 -7t6 -8q57 -13 89.5 -50t61.5 -120q3 -9 8.5 -26.5t9 -28.5t9 -26 t11 -24.5t12 -19t15 -14.5t17.5 -6l-4 -33q-58 0 -97.5 10.5t-66 37t-42.5 57t-34 82.5q-27 76 -70.5 108.5t-90.5 32.5q-62 0 -83.5 -15t-21.5 -51v-153q0 -63 78 -76v-33h-287zM600 707q0 -36 17.5 -51t62.5 -15h90q82 0 112.5 41.5t30.5 112.5q0 89 -39.5 132.5 t-128.5 43.5h-90q-55 0 -55 -58v-206z" />
<glyph unicode="&#xaf;" horiz-adv-x="899" d="M119 1227v4v2v-6zM119 1231q0 14 6.5 19t24.5 5h600q18 0 24 -5t6 -19t-6 -20.5t-24 -6.5h-600q-18 0 -24.5 6.5t-6.5 20.5zM780 1227v6v-2v-4z" />
<glyph unicode="&#xb0;" horiz-adv-x="534" d="M61 1104q0 85 58 143t147 58q91 0 149 -58t58 -143t-58 -143t-149 -58q-89 0 -147 58t-58 143zM117 1104q0 -70 44 -114t105 -44q62 0 107 44t45 114t-45 113t-107 43q-61 0 -105 -43t-44 -113z" />
<glyph unicode="&#xb1;" horiz-adv-x="962" d="M102 0v43h758v-43h-758zM102 700v43h359v359h43v-359h356v-43h-356v-358h-43v358h-359z" />
<glyph unicode="&#xb2;" horiz-adv-x="557" d="M82 776q0 42 15.5 78t41 60.5t55.5 47t60.5 42.5t56 41t41 49t15.5 61q0 38 -23 70t-76 32q-42 0 -66 -24t-24 -57t12 -66q0 -18 -12.5 -28.5t-27.5 -10.5q-30 0 -48 22.5t-18 59.5q0 60 46.5 101.5t141.5 41.5q89 0 140 -38t51 -105q0 -47 -27 -85t-69 -64.5t-86 -48.5 t-85.5 -47.5t-60.5 -51.5h232q48 0 75 39h33l-20 -90q-6 -29 -43 -29h-330z" />
<glyph unicode="&#xb3;" horiz-adv-x="565" d="M72 920q0 26 14 39.5t35 13.5t35 -17.5t22.5 -43t18.5 -51t30.5 -43t51.5 -17.5q49 0 75.5 35.5t26.5 91.5q0 51 -24.5 78t-58.5 25t-71 -17l-20 37q139 51 139 116q0 43 -25 66.5t-61 23.5q-32 0 -50.5 -15.5t-22.5 -38.5t-2 -44.5t8 -38.5q-38 -20 -67.5 -5.5 t-29.5 54.5q0 51 46.5 89t129.5 38q76 0 123 -31.5t47 -82.5q0 -37 -23.5 -69t-76.5 -48q69 0 105 -37t36 -94q0 -74 -59.5 -121t-151.5 -47q-88 0 -144 43t-56 111z" />
<glyph unicode="&#xb4;" horiz-adv-x="559" d="M104 1098q-7 19 17 43l203 215q39 41 69 41q24 0 44 -18t20 -42q0 -44 -60 -84l-239 -163q-39 -22 -54 8z" />
<glyph unicode="&#xb5;" horiz-adv-x="1105" d="M51 858v31l199 49q28 8 45.5 -6t17.5 -47v-535q0 -128 65.5 -206t182.5 -78q119 0 192.5 79.5t73.5 204.5v389q0 39 -3.5 58.5t-16.5 37t-40.5 22t-74.5 1.5v31l199 49q28 8 45.5 -6t17.5 -47v-766q0 -35 15 -51.5t39.5 -16.5t54.5 2v-18q-19 -19 -55 -33t-72 -14 q-47 0 -80.5 29t-40.5 92q0 18 -14 18q-13 0 -23 -8q-2 -1 -30.5 -25.5t-59 -46t-87.5 -40.5t-118 -19q-150 0 -239 92q1 -79 12.5 -139.5t26.5 -92.5t30 -54t24 -37t7 -29q-11 -84 -60 -123q-41 -32 -70 -2q-28 29 -28 100v1036q0 38 -3.5 58.5t-17 37t-41 21.5t-73.5 2z " />
<glyph unicode="&#xb6;" horiz-adv-x="1339" d="M61 870q0 190 122 296t341 106h754v-31q-31 -6 -43 -9t-30.5 -10t-24.5 -16t-11.5 -24t-5.5 -37v-1208q0 -27 5.5 -43.5t24 -27t33.5 -14.5t52 -12v-30h-758v30q37 8 52.5 12t34 14.5t24.5 27t6 43.5v409q0 58 -25.5 83.5t-87.5 25.5q-217 0 -340 111.5t-123 303.5z M782 -63q0 -54 29 -75.5t90 -21.5q60 0 88.5 22t28.5 75v1208q0 53 -28.5 74.5t-88.5 21.5q-61 0 -90 -21.5t-29 -74.5v-1208z" />
<glyph unicode="&#xb7;" horiz-adv-x="401" d="M102 608q0 41 29.5 71t69.5 30t69 -30t29 -71t-29 -70.5t-69 -29.5t-69.5 29.5t-29.5 70.5z" />
<glyph unicode="&#xb8;" horiz-adv-x="473" d="M31 -289q0 44 31.5 58t66.5 -15q0 -38 5.5 -64.5t26 -47.5t56.5 -21q59 0 96 44.5t37 101.5q0 47 -29 79.5t-77 32.5q-29 0 -57.5 -10t-39.5 -10q-32 0 -10 45l47 96h86l-47 -100q76 27 147.5 -15t71.5 -123q0 -73 -61.5 -119t-147.5 -46q-97 0 -149.5 33t-52.5 81z" />
<glyph unicode="&#xb9;" horiz-adv-x="344" d="M61 1200v25l123 61q13 5 20.5 6.5t11 -6t4.5 -14t1 -17.5v-381q0 -67 62 -71v-27h-217v27q27 2 47 19t20 52v326h-72z" />
<glyph unicode="&#xba;" horiz-adv-x="757" d="M98 987q0 72 24 130t64 93.5t89.5 54.5t103.5 19q53 0 102.5 -19t89.5 -55t64 -94t24 -131q0 -142 -82.5 -218.5t-197.5 -76.5q-53 0 -102.5 18.5t-90 54t-64.5 93.5t-24 131zM127 504v41h506v-41h-506zM190 1028q0 -126 65.5 -211.5t152.5 -85.5q68 0 113.5 55t45.5 160 q0 126 -65 211.5t-152 85.5q-68 0 -114 -56t-46 -159z" />
<glyph unicode="&#xbb;" horiz-adv-x="774" d="M117 389q-11 14 8 33l147 190l-147 189q-19 19 -8 33q21 21 39 6l231 -209q6 -6 6 -18.5t-6 -20.5l-231 -209q-18 -15 -39 6zM385 389q-11 14 8 33l148 190l-148 189q-19 19 -8 33q21 21 39 6l231 -209q6 -6 6 -18.5t-6 -20.5l-231 -209q-18 -15 -39 6z" />
<glyph unicode="&#xbc;" horiz-adv-x="1175" d="M47 -10l907 1313h56l-906 -1313h-57zM61 1200v25l123 61q13 5 20.5 6.5t11 -6t4.5 -14t1 -17.5v-381q0 -67 62 -71v-27h-217v27q27 2 47 19t20 52v326h-72zM702 137v58l252 323l64 -18v-318h76v-45h-76v-39q0 -36 17.5 -51t58.5 -20v-27h-238v27q42 5 56 19t14 52v39 h-224zM754 182h172v217z" />
<glyph unicode="&#xbd;" horiz-adv-x="1206" d="M47 -10l907 1313h56l-906 -1313h-57zM61 1200v25l123 61q13 5 20.5 6.5t11 -6t4.5 -14t1 -17.5v-381q0 -67 62 -71v-27h-217v27q27 2 47 19t20 52v326h-72zM733 0q0 58 29.5 103.5t71.5 74.5t83.5 56.5t71 64t29.5 80.5q0 39 -22.5 70.5t-75.5 31.5q-42 0 -66 -24 t-24 -57t12 -66q0 -17 -13 -28t-28 -11q-30 0 -48 22.5t-18 59.5q0 60 47 101.5t142 41.5q89 0 139.5 -38t50.5 -105q0 -47 -27 -85t-69 -64.5t-86 -48.5t-85.5 -47.5t-60.5 -51.5h232q49 0 76 39h32l-20 -90q-6 -29 -43 -29h-330z" />
<glyph unicode="&#xbe;" horiz-adv-x="1443" d="M72 920q0 26 14 39.5t35 13.5t35 -17.5t22.5 -43t18.5 -51t30.5 -43t51.5 -17.5q49 0 75.5 35.5t26.5 91.5q0 51 -24.5 78t-58.5 25t-71 -17l-20 37q139 51 139 116q0 43 -25 66.5t-61 23.5q-32 0 -50.5 -15.5t-22.5 -38.5t-2 -44.5t8 -38.5q-38 -20 -67.5 -5.5 t-29.5 54.5q0 51 46.5 89t129.5 38q76 0 123 -31.5t47 -82.5q0 -37 -23.5 -69t-76.5 -48q69 0 105 -37t36 -94q0 -74 -59.5 -121t-151.5 -47q-88 0 -144 43t-56 111zM295 -10l907 1313h55l-905 -1313h-57zM971 137v58l252 323l63 -18v-318h76v-45h-76v-39q0 -36 17.5 -51 t58.5 -20v-27h-238v27q42 5 56 19t14 52v39h-223zM1022 182h172v217z" />
<glyph unicode="&#xbf;" horiz-adv-x="909" d="M70 129q0 58 18 105.5t48 82.5t66 68t73 71t69 81.5t55 109.5t29 146h51q7 -115 -15 -204.5t-58 -144t-73 -101.5t-64 -104.5t-27 -125.5q0 -110 65 -172t168 -62q56 0 97 19t62 51.5t30.5 66.5t9.5 72q0 24 -17.5 73t-17.5 79q0 27 27 51t61 24q47 0 78 -46t31 -113 q0 -144 -112 -236t-292 -92q-171 0 -266.5 83t-95.5 218zM358 1044q0 41 29.5 71t69.5 30t69 -30t29 -71t-29 -70.5t-69 -29.5t-69.5 29.5t-29.5 70.5z" />
<glyph unicode="&#xc0;" horiz-adv-x="1447" d="M41 0v33q70 13 106.5 38t65.5 91l412 975q37 89 37 135l100 10l457 -1067q43 -108 77 -141t111 -39v-35h-420v33q92 14 108.5 42.5t-14.5 84.5l-75 168q-19 40 -44.5 56.5t-72.5 16.5h-424q-93 0 -117 -59l-76 -174q-25 -63 7 -94.5t120 -40.5v-33h-358zM418 512 q-22 -59 28 -59h455q22 0 34.5 14.5t2.5 36.5l-242 567q-18 51 -43 -4zM432 1686q0 24 20 41.5t44 17.5q30 0 69 -41l203 -215q25 -25 14 -43q-4 -11 -15.5 -15t-35.5 7l-239 164q-60 40 -60 84z" />
<glyph unicode="&#xc1;" horiz-adv-x="1447" d="M41 0v33q70 13 106.5 38t65.5 91l412 975q37 89 37 135l100 10l457 -1067q43 -108 77 -141t111 -39v-35h-420v33q92 14 108.5 42.5t-14.5 84.5l-75 168q-19 40 -44.5 56.5t-72.5 16.5h-424q-93 0 -117 -59l-76 -174q-25 -63 7 -94.5t120 -40.5v-33h-358zM418 512 q-22 -59 28 -59h455q22 0 34.5 14.5t2.5 36.5l-242 567q-18 51 -43 -4zM637 1446q-8 19 16 43l203 215q39 41 70 41q24 0 43.5 -17.5t19.5 -41.5q0 -44 -59 -84l-240 -164q-38 -22 -53 8z" />
<glyph unicode="&#xc2;" horiz-adv-x="1447" d="M41 0v33q70 13 106.5 38t65.5 91l412 975q37 89 37 135l100 10l457 -1067q43 -108 77 -141t111 -39v-35h-420v33q92 14 108.5 42.5t-14.5 84.5l-75 168q-19 40 -44.5 56.5t-72.5 16.5h-424q-93 0 -117 -59l-76 -174q-25 -63 7 -94.5t120 -40.5v-33h-358zM418 512 q-22 -59 28 -59h455q22 0 34.5 14.5t2.5 36.5l-242 567q-18 51 -43 -4zM481 1452l209 231q8 7 20.5 7t18.5 -7l209 -231q16 -19 -6 -37q-11 -9 -33 6l-188 140l-191 -140q-22 -15 -33 -6q-22 18 -6 37z" />
<glyph unicode="&#xc3;" horiz-adv-x="1447" d="M41 0v33q70 13 106.5 38t65.5 91l412 975q37 89 37 135l100 10l457 -1067q43 -108 77 -141t111 -39v-35h-420v33q92 14 108.5 42.5t-14.5 84.5l-75 168q-19 40 -44.5 56.5t-72.5 16.5h-424q-93 0 -117 -59l-76 -174q-25 -63 7 -94.5t120 -40.5v-33h-358zM397 1546 q0 87 47 132.5t129 45.5q52 0 97.5 -19.5t72.5 -43t64 -43t74 -19.5q40 0 62.5 20.5t35.5 61.5q3 15 18 15h11q18 0 18 -23q0 -86 -48 -132t-128 -46q-51 0 -96.5 20t-73 43.5t-64.5 43.5t-73 20q-74 0 -99 -84q-3 -12 -18 -12h-10q-9 0 -14 6t-5 14zM418 512 q-22 -59 28 -59h455q22 0 34.5 14.5t2.5 36.5l-242 567q-18 51 -43 -4z" />
<glyph unicode="&#xc4;" horiz-adv-x="1447" d="M41 0v33q70 13 106.5 38t65.5 91l412 975q37 89 37 135l100 10l457 -1067q43 -108 77 -141t111 -39v-35h-420v33q92 14 108.5 42.5t-14.5 84.5l-75 168q-19 40 -44.5 56.5t-72.5 16.5h-424q-93 0 -117 -59l-76 -174q-25 -63 7 -94.5t120 -40.5v-33h-358zM418 512 q-22 -59 28 -59h455q22 0 34.5 14.5t2.5 36.5l-242 567q-18 51 -43 -4zM455 1636q0 31 25 56.5t57 25.5q33 0 58.5 -25.5t25.5 -56.5q0 -35 -25 -61.5t-59 -26.5q-32 0 -57 26.5t-25 61.5zM803 1636q0 31 25 56.5t57 25.5q33 0 58.5 -25.5t25.5 -56.5q0 -35 -25 -61.5 t-59 -26.5q-32 0 -57 26.5t-25 61.5z" />
<glyph unicode="&#xc5;" horiz-adv-x="1447" d="M41 0v33q70 13 106.5 38t65.5 91l412 975q37 89 37 135l100 10l457 -1067q43 -108 77 -141t111 -39v-35h-420v33q92 14 108.5 42.5t-14.5 84.5l-75 168q-19 40 -44.5 56.5t-72.5 16.5h-424q-93 0 -117 -59l-76 -174q-25 -63 7 -94.5t120 -40.5v-33h-358zM418 512 q-22 -59 28 -59h455q22 0 34.5 14.5t2.5 36.5l-242 567q-18 51 -43 -4zM543 1655q0 71 46.5 118.5t121.5 47.5t121.5 -47.5t46.5 -118.5q0 -69 -47 -118.5t-121 -49.5t-121 49.5t-47 118.5zM606 1655q0 -49 31 -80t74 -31t73.5 31t30.5 80q0 48 -30.5 78t-73.5 30t-74 -30 t-31 -78z" />
<glyph unicode="&#xc6;" horiz-adv-x="1886" d="M41 0v33q70 14 114 53.5t93 118.5l555 885q25 41 35 77t6.5 54t-13.5 18v33h902q27 0 30 -27q11 -92 41 -211h-37q-33 96 -96.5 143.5t-169.5 47.5h-284q-67 0 -96 -16.5t-29 -69.5v-385q0 -53 28.5 -67.5t96.5 -14.5h233q43 0 71.5 9.5t45.5 30t25.5 44t15.5 61.5h26 v-342h-26q-14 76 -45.5 113t-112.5 37h-233q-68 0 -96.5 -15t-28.5 -69v-406q0 -54 41.5 -70t171.5 -16h239q45 0 80.5 7.5t56 16.5t40 27.5t26 28.5t20.5 31l50 78h36q-26 -46 -39 -90.5t-22 -118.5q-3 -29 -33 -29h-928v33q31 6 43 9t30.5 10t24.5 16t11.5 24t5.5 37v260 h-448q-30 0 -43.5 -1t-29 -8.5t-24.5 -23.5l-98 -155q-40 -64 -10.5 -110t119.5 -58v-33h-371zM477.5 444.5q8.5 -10.5 30.5 -10.5h438v789l-463 -740q-14 -28 -5.5 -38.5z" />
<glyph unicode="&#xc7;" horiz-adv-x="1290" d="M61 639q0 153 56 281t149.5 211t212.5 128.5t248 45.5q106 0 197.5 -30.5t149.5 -77.5t91 -102.5t33 -107.5q0 -49 -27.5 -79.5t-70.5 -30.5q-37 0 -62.5 27t-29.5 85q-3 44 -24.5 86.5t-61.5 81t-108.5 62.5t-154.5 24q-206 0 -333.5 -136.5t-128.5 -375.5 q-1 -137 46.5 -257t129.5 -204t197 -132t245 -48q122 0 210.5 45.5t172.5 140.5l21 -16q-18 -33 -45.5 -67t-74 -73.5t-101 -69.5t-130 -50t-157.5 -20h-17l-37 -80q76 27 148 -15t72 -123q0 -73 -61.5 -119t-147.5 -46q-97 0 -150 33t-53 81q0 44 31.5 58t66.5 -15 q0 -38 5.5 -64.5t26 -47.5t56.5 -21q59 0 96 44.5t37 101.5q0 47 -29 79.5t-77 32.5q-28 0 -57 -10t-39 -10q-33 0 -11 45l41 84q-111 16 -210 68t-175.5 133t-121 197.5t-44.5 252.5z" />
<glyph unicode="&#xc8;" horiz-adv-x="1116" d="M61 0v33q31 6 43 9t30.5 10t24.5 16t11.5 24t5.5 37v1014q0 51 -24 67.5t-91 28.5v33h902q29 0 32 -27q13 -108 39 -211h-37q-33 96 -96 143.5t-168 47.5h-287q-67 0 -95.5 -16.5t-28.5 -69.5v-385q0 -53 28 -67.5t96 -14.5h234q43 0 71.5 9.5t45.5 30t25.5 44t15.5 61.5 h28v-342h-28q-14 76 -45.5 113t-112.5 37h-234q-68 0 -96 -15t-28 -69v-406q0 -54 41.5 -70t173.5 -16h237q45 0 80.5 7.5t56 16.5t40 27.5t26 28.5t20.5 31l50 78h36q-26 -46 -39 -90.5t-22 -118.5q-3 -29 -33 -29h-928zM281 1686q0 24 19.5 41.5t43.5 17.5q31 0 70 -41 l202 -215q26 -26 15 -43q-4 -11 -15.5 -15t-35.5 7l-240 164q-59 40 -59 84z" />
<glyph unicode="&#xc9;" horiz-adv-x="1116" d="M61 0v33q31 6 43 9t30.5 10t24.5 16t11.5 24t5.5 37v1014q0 51 -24 67.5t-91 28.5v33h902q29 0 32 -27q13 -108 39 -211h-37q-33 96 -96 143.5t-168 47.5h-287q-67 0 -95.5 -16.5t-28.5 -69.5v-385q0 -53 28 -67.5t96 -14.5h234q43 0 71.5 9.5t45.5 30t25.5 44t15.5 61.5 h28v-342h-28q-14 76 -45.5 113t-112.5 37h-234q-68 0 -96 -15t-28 -69v-406q0 -54 41.5 -70t173.5 -16h237q45 0 80.5 7.5t56 16.5t40 27.5t26 28.5t20.5 31l50 78h36q-26 -46 -39 -90.5t-22 -118.5q-3 -29 -33 -29h-928zM483 1446q-7 19 17 43l202 215q39 41 70 41 q24 0 44 -17.5t20 -41.5q0 -44 -60 -84l-239 -164q-39 -22 -54 8z" />
<glyph unicode="&#xca;" horiz-adv-x="1116" d="M61 0v33q31 6 43 9t30.5 10t24.5 16t11.5 24t5.5 37v1014q0 51 -24 67.5t-91 28.5v33h902q29 0 32 -27q13 -108 39 -211h-37q-33 96 -96 143.5t-168 47.5h-287q-67 0 -95.5 -16.5t-28.5 -69.5v-385q0 -53 28 -67.5t96 -14.5h234q43 0 71.5 9.5t45.5 30t25.5 44t15.5 61.5 h28v-342h-28q-14 76 -45.5 113t-112.5 37h-234q-68 0 -96 -15t-28 -69v-406q0 -54 41.5 -70t173.5 -16h237q45 0 80.5 7.5t56 16.5t40 27.5t26 28.5t20.5 31l50 78h36q-26 -46 -39 -90.5t-22 -118.5q-3 -29 -33 -29h-928zM330 1452l209 231q7 7 20 7t19 -7l208 -231 q16 -19 -6 -37q-10 -8 -32 6l-189 140l-190 -140q-22 -15 -33 -6q-22 18 -6 37z" />
<glyph unicode="&#xcb;" horiz-adv-x="1116" d="M61 0v33q31 6 43 9t30.5 10t24.5 16t11.5 24t5.5 37v1014q0 51 -24 67.5t-91 28.5v33h902q29 0 32 -27q13 -108 39 -211h-37q-33 96 -96 143.5t-168 47.5h-287q-67 0 -95.5 -16.5t-28.5 -69.5v-385q0 -53 28 -67.5t96 -14.5h234q43 0 71.5 9.5t45.5 30t25.5 44t15.5 61.5 h28v-342h-28q-14 76 -45.5 113t-112.5 37h-234q-68 0 -96 -15t-28 -69v-406q0 -54 41.5 -70t173.5 -16h237q45 0 80.5 7.5t56 16.5t40 27.5t26 28.5t20.5 31l50 78h36q-26 -46 -39 -90.5t-22 -118.5q-3 -29 -33 -29h-928zM301 1636q0 31 25 56.5t57 25.5q33 0 58.5 -25.5 t25.5 -56.5q0 -35 -25 -61.5t-59 -26.5q-32 0 -57 26.5t-25 61.5zM649 1636q0 31 25 56.5t57 25.5q33 0 58.5 -25.5t25.5 -56.5q0 -35 -25 -61.5t-59 -26.5q-32 0 -57 26.5t-25 61.5z" />
<glyph unicode="&#xcc;" d="M-33 1686q0 24 20 41.5t44 17.5q30 0 69 -41l203 -215q25 -25 14 -43q-4 -11 -15.5 -15t-35.5 7l-239 164q-60 40 -60 84zM61 0v33q31 6 43 9t30.5 10t24.5 16t11.5 24t5.5 37v1014q0 51 -24 67.5t-91 28.5v33h375v-33q-35 -6 -51 -10.5t-33.5 -14.5t-23.5 -27t-6 -44 v-1014q0 -18 2.5 -31.5t11 -23t14 -15t23.5 -11t27 -7.5l36 -8v-33h-375z" />
<glyph unicode="&#xcd;" d="M61 0v33q31 6 43 9t30.5 10t24.5 16t11.5 24t5.5 37v1014q0 51 -24 67.5t-91 28.5v33h375v-33q-35 -6 -51 -10.5t-33.5 -14.5t-23.5 -27t-6 -44v-1014q0 -18 2.5 -31.5t11 -23t14 -15t23.5 -11t27 -7.5l36 -8v-33h-375zM172 1446q-8 19 16 43l203 215q39 41 70 41 q24 0 43.5 -17.5t19.5 -41.5q0 -44 -59 -84l-240 -164q-38 -22 -53 8z" />
<glyph unicode="&#xce;" d="M16 1452l209 231q7 7 20 7t19 -7l209 -231q16 -19 -6 -37q-11 -9 -33 6l-188 140l-191 -140q-22 -14 -32 -6q-23 18 -7 37zM61 0v33q31 6 43 9t30.5 10t24.5 16t11.5 24t5.5 37v1014q0 51 -24 67.5t-91 28.5v33h375v-33q-35 -6 -51 -10.5t-33.5 -14.5t-23.5 -27t-6 -44 v-1014q0 -18 2.5 -31.5t11 -23t14 -15t23.5 -11t27 -7.5l36 -8v-33h-375z" />
<glyph unicode="&#xcf;" d="M-12 1636q0 31 25 56.5t57 25.5q33 0 58.5 -25.5t25.5 -56.5q0 -35 -25 -61.5t-59 -26.5q-32 0 -57 26.5t-25 61.5zM61 0v33q31 6 43 9t30.5 10t24.5 16t11.5 24t5.5 37v1014q0 51 -24 67.5t-91 28.5v33h375v-33q-35 -6 -51 -10.5t-33.5 -14.5t-23.5 -27t-6 -44v-1014 q0 -18 2.5 -31.5t11 -23t14 -15t23.5 -11t27 -7.5l36 -8v-33h-375zM336 1636q0 31 25 56.5t57 25.5q33 0 58.5 -25.5t25.5 -56.5q0 -35 -25 -61.5t-59 -26.5q-32 0 -57 26.5t-25 61.5z" />
<glyph unicode="&#xd0;" horiz-adv-x="1261" d="M61 0v33q31 6 43 9t30.5 10t24.5 16t11.5 24t5.5 37v489h-113v35h113v494q0 48 -24 64t-91 28v33h439q71 0 137 -8.5t135 -29t128 -52t111.5 -81.5t89 -113t58 -150.5t21.5 -190.5q0 -308 -177.5 -475.5t-484.5 -167.5q-39 0 -134 4t-134 4q-88 0 -189 -12zM322 127 q0 -82 194 -82q114 0 203.5 32.5t147.5 87.5t95.5 133t53.5 163.5t16 185.5q0 95 -14.5 175.5t-52 157t-96.5 130t-153.5 85.5t-217.5 32h-52q-67 0 -95.5 -14.5t-28.5 -63.5v-496h266v-35h-266v-491z" />
<glyph unicode="&#xd1;" horiz-adv-x="1286" d="M61 0v33q38 8 52.5 12t33.5 14t25 26.5t6 43.5v1014q0 51 -24.5 67.5t-92.5 28.5v33h240l762 -1028v899q0 51 -24 67.5t-89 28.5v33h281v-33q-29 -5 -43 -8.5t-31.5 -10t-24.5 -16t-12.5 -24.5t-5.5 -37v-1143h-53l-832 1126v-997q0 -27 5.5 -43.5t23 -26.5t31 -14 t49.5 -12v-33h-277zM334 1546q0 87 47 132.5t129 45.5q52 0 97.5 -19.5t72.5 -43t63.5 -43t73.5 -19.5q40 0 62.5 20.5t35.5 61.5q3 15 19 15h10q19 0 19 -23q0 -86 -48.5 -132t-128.5 -46q-51 0 -96.5 20t-73 43.5t-64.5 43.5t-73 20q-73 0 -98 -84q-3 -12 -19 -12h-10 q-18 0 -18 20z" />
<glyph unicode="&#xd2;" horiz-adv-x="1419" d="M61 631q0 185 85.5 339t238 244.5t340.5 90.5q183 0 329 -87.5t225 -236t79 -328.5q0 -138 -50 -262t-137 -214.5t-210.5 -143.5t-264.5 -53q-138 0 -257 51t-201.5 138.5t-129.5 207t-47 254.5zM227 694q0 -145 41.5 -269.5t112 -208.5t165 -131.5t199.5 -47.5 q67 0 129.5 18t121.5 60.5t102 105t69.5 158.5t26.5 215q0 144 -41.5 267.5t-112 207t-165 131t-199.5 47.5q-67 0 -129.5 -18t-121.5 -60t-102.5 -104.5t-69.5 -157.5t-26 -213zM383 1686q0 24 19.5 41.5t43.5 17.5q31 0 70 -41l203 -215q25 -25 14 -43q-4 -11 -15.5 -15 t-35.5 7l-240 164q-59 40 -59 84z" />
<glyph unicode="&#xd3;" horiz-adv-x="1419" d="M61 631q0 185 85.5 339t238 244.5t340.5 90.5q183 0 329 -87.5t225 -236t79 -328.5q0 -138 -50 -262t-137 -214.5t-210.5 -143.5t-264.5 -53q-138 0 -257 51t-201.5 138.5t-129.5 207t-47 254.5zM227 694q0 -145 41.5 -269.5t112 -208.5t165 -131.5t199.5 -47.5 q67 0 129.5 18t121.5 60.5t102 105t69.5 158.5t26.5 215q0 144 -41.5 267.5t-112 207t-165 131t-199.5 47.5q-67 0 -129.5 -18t-121.5 -60t-102.5 -104.5t-69.5 -157.5t-26 -213zM614 1446q-7 19 17 43l203 215q39 41 69 41q24 0 44 -17.5t20 -41.5q0 -44 -60 -84l-239 -164 q-39 -22 -54 8z" />
<glyph unicode="&#xd4;" horiz-adv-x="1419" d="M61 631q0 185 85.5 339t238 244.5t340.5 90.5q183 0 329 -87.5t225 -236t79 -328.5q0 -138 -50 -262t-137 -214.5t-210.5 -143.5t-264.5 -53q-138 0 -257 51t-201.5 138.5t-129.5 207t-47 254.5zM227 694q0 -145 41.5 -269.5t112 -208.5t165 -131.5t199.5 -47.5 q67 0 129.5 18t121.5 60.5t102 105t69.5 158.5t26.5 215q0 144 -41.5 267.5t-112 207t-165 131t-199.5 47.5q-67 0 -129.5 -18t-121.5 -60t-102.5 -104.5t-69.5 -157.5t-26 -213zM461 1452l209 231q8 7 20.5 7t18.5 -7l209 -231q16 -19 -7 -37q-10 -8 -32 6l-189 140 l-190 -140q-22 -15 -33 -6q-22 18 -6 37z" />
<glyph unicode="&#xd5;" horiz-adv-x="1419" d="M61 631q0 185 85.5 339t238 244.5t340.5 90.5q183 0 329 -87.5t225 -236t79 -328.5q0 -138 -50 -262t-137 -214.5t-210.5 -143.5t-264.5 -53q-138 0 -257 51t-201.5 138.5t-129.5 207t-47 254.5zM227 694q0 -145 41.5 -269.5t112 -208.5t165 -131.5t199.5 -47.5 q67 0 129.5 18t121.5 60.5t102 105t69.5 158.5t26.5 215q0 144 -41.5 267.5t-112 207t-165 131t-199.5 47.5q-67 0 -129.5 -18t-121.5 -60t-102.5 -104.5t-69.5 -157.5t-26 -213zM383 1546q0 87 47 132.5t129 45.5q52 0 97.5 -19.5t72.5 -43t63.5 -43t73.5 -19.5q74 0 99 82 q3 15 18 15h10q19 0 19 -23q0 -86 -48 -132t-128 -46q-51 0 -96.5 20t-73.5 43.5t-65 43.5t-73 20q-73 0 -98 -84q-3 -12 -18 -12h-11q-18 0 -18 20z" />
<glyph unicode="&#xd6;" horiz-adv-x="1419" d="M61 631q0 185 85.5 339t238 244.5t340.5 90.5q183 0 329 -87.5t225 -236t79 -328.5q0 -138 -50 -262t-137 -214.5t-210.5 -143.5t-264.5 -53q-138 0 -257 51t-201.5 138.5t-129.5 207t-47 254.5zM227 694q0 -145 41.5 -269.5t112 -208.5t165 -131.5t199.5 -47.5 q67 0 129.5 18t121.5 60.5t102 105t69.5 158.5t26.5 215q0 144 -41.5 267.5t-112 207t-165 131t-199.5 47.5q-67 0 -129.5 -18t-121.5 -60t-102.5 -104.5t-69.5 -157.5t-26 -213zM432 1636q0 31 25 56.5t57 25.5q33 0 58.5 -25.5t25.5 -56.5q0 -35 -25 -61.5t-59 -26.5 q-32 0 -57 26.5t-25 61.5zM780 1636q0 31 25 56.5t57 25.5q33 0 58.5 -25.5t25.5 -56.5q0 -35 -25 -61.5t-59 -26.5q-32 0 -57 26.5t-25 61.5z" />
<glyph unicode="&#xd7;" horiz-adv-x="772" d="M100 264l252 252l-250 250l29 35l254 -254l252 252l33 -29l-254 -254l252 -252l-29 -35l-254 256l-252 -252z" />
<glyph unicode="&#xd8;" horiz-adv-x="1419" d="M61 631q0 185 85.5 339t238 244.5t340.5 90.5q234 0 405 -142l78 94l25 -16l-80 -98q98 -90 151.5 -217t53.5 -273q0 -138 -50 -262t-137 -214.5t-210.5 -143.5t-264.5 -53q-230 0 -395 133l-84 -103l-24 17l86 104q-104 90 -161 219.5t-57 280.5zM227 694 q0 -271 140 -458l680 825q-72 90 -168 138t-203 48q-67 0 -129.5 -18t-121.5 -60t-102.5 -104.5t-69.5 -157.5t-26 -213zM385 213q71 -85 163.5 -130.5t196.5 -45.5q67 0 129.5 18t121.5 60.5t102 105t69.5 158.5t26.5 215q0 263 -129 442z" />
<glyph unicode="&#xd9;" horiz-adv-x="1286" d="M51 1239v33h375v-33q-28 -5 -41.5 -8.5t-31 -10t-24.5 -16t-12.5 -24.5t-5.5 -37v-596q0 -248 96 -375t271 -127q61 0 114.5 14t104.5 49t87.5 89.5t58.5 140.5t22 197v608q0 22 -6.5 37.5t-14.5 24.5t-27.5 16t-33 10t-43.5 8v33h295v-33q-28 -5 -40.5 -8t-30.5 -10 t-25 -16t-13 -24.5t-6 -37.5v-613q0 -268 -125 -409t-348 -141q-104 0 -191 32t-152 95t-101.5 164.5t-36.5 232.5v639q0 51 -24 67.5t-91 28.5zM369 1686q0 24 19.5 41.5t43.5 17.5q31 0 70 -41l203 -215q25 -25 14 -43q-4 -11 -15.5 -15t-35.5 7l-240 164q-59 40 -59 84z " />
<glyph unicode="&#xda;" horiz-adv-x="1286" d="M51 1239v33h375v-33q-28 -5 -41.5 -8.5t-31 -10t-24.5 -16t-12.5 -24.5t-5.5 -37v-596q0 -248 96 -375t271 -127q61 0 114.5 14t104.5 49t87.5 89.5t58.5 140.5t22 197v608q0 22 -6.5 37.5t-14.5 24.5t-27.5 16t-33 10t-43.5 8v33h295v-33q-28 -5 -40.5 -8t-30.5 -10 t-25 -16t-13 -24.5t-6 -37.5v-613q0 -268 -125 -409t-348 -141q-104 0 -191 32t-152 95t-101.5 164.5t-36.5 232.5v639q0 51 -24 67.5t-91 28.5zM600 1446q-8 19 16 43l203 215q39 41 70 41q24 0 43.5 -17.5t19.5 -41.5q0 -44 -59 -84l-240 -164q-38 -22 -53 8z" />
<glyph unicode="&#xdb;" horiz-adv-x="1286" d="M51 1239v33h375v-33q-28 -5 -41.5 -8.5t-31 -10t-24.5 -16t-12.5 -24.5t-5.5 -37v-596q0 -248 96 -375t271 -127q61 0 114.5 14t104.5 49t87.5 89.5t58.5 140.5t22 197v608q0 22 -6.5 37.5t-14.5 24.5t-27.5 16t-33 10t-43.5 8v33h295v-33q-28 -5 -40.5 -8t-30.5 -10 t-25 -16t-13 -24.5t-6 -37.5v-613q0 -268 -125 -409t-348 -141q-104 0 -191 32t-152 95t-101.5 164.5t-36.5 232.5v639q0 51 -24 67.5t-91 28.5zM446 1452l209 231q7 7 20 7t19 -7l209 -231q16 -19 -6 -37q-11 -9 -33 6l-188 140l-191 -140q-22 -14 -32 -6q-23 18 -7 37z " />
<glyph unicode="&#xdc;" horiz-adv-x="1286" d="M51 1239v33h375v-33q-28 -5 -41.5 -8.5t-31 -10t-24.5 -16t-12.5 -24.5t-5.5 -37v-596q0 -248 96 -375t271 -127q61 0 114.5 14t104.5 49t87.5 89.5t58.5 140.5t22 197v608q0 22 -6.5 37.5t-14.5 24.5t-27.5 16t-33 10t-43.5 8v33h295v-33q-28 -5 -40.5 -8t-30.5 -10 t-25 -16t-13 -24.5t-6 -37.5v-613q0 -268 -125 -409t-348 -141q-104 0 -191 32t-152 95t-101.5 164.5t-36.5 232.5v639q0 51 -24 67.5t-91 28.5zM418 1636q0 31 25 56.5t57 25.5q33 0 58.5 -25.5t25.5 -56.5q0 -35 -25 -61.5t-59 -26.5q-32 0 -57 26.5t-25 61.5zM766 1636 q0 31 25 56.5t57 25.5q33 0 58.5 -25.5t25.5 -56.5q0 -35 -25 -61.5t-59 -26.5q-32 0 -57 26.5t-25 61.5z" />
<glyph unicode="&#xdd;" horiz-adv-x="1269" d="M31 1239v33h405v-33q-34 -8 -54 -17.5t-29.5 -19.5t-7.5 -26t9 -32t23 -42l285 -453q14 -17 28 0l262 441q22 36 28 62.5t1 41t-23.5 24.5t-34.5 13.5t-44 7.5v33h360v-33q-77 -8 -120.5 -38t-106.5 -130l-279 -455q-26 -40 -26 -106v-381q0 -52 29.5 -67.5t127.5 -28.5 v-33h-458v33q98 13 126.5 28.5t28.5 67.5v381q0 8 -0.5 14.5t-3.5 14t-4.5 12.5t-6.5 14t-7.5 12.5t-10 15.5t-10.5 17l-276 445q-57 92 -100 126.5t-111 57.5zM506 1446q-8 19 16 43l203 215q39 41 70 41q24 0 43.5 -17.5t19.5 -41.5q0 -44 -59 -84l-240 -164 q-38 -22 -53 8z" />
<glyph unicode="&#xde;" horiz-adv-x="1159" d="M61 0v33q31 6 43 9t30.5 10t24.5 16t11.5 24t5.5 37v1014q0 51 -24 67.5t-91 28.5v33h375v-33q-73 -15 -91 -29q-26 -20 -26 -63q0 -57 26 -82t89 -25h156q239 0 378.5 -108t139.5 -295t-140 -295.5t-378 -108.5h-156q-62 0 -87 -24.5t-25 -83.5q0 -17 2.5 -29.5t11 -22 t14 -14.5t24 -10.5t27 -7.5t35.5 -8v-33h-375zM322 389q0 -58 25 -83t87 -25h156q180 0 266 97t86 259t-86 259t-266 97h-156q-62 0 -87 -25t-25 -83v-496z" />
<glyph unicode="&#xdf;" horiz-adv-x="1099" d="M41 35v28q73 -20 103 -2.5t30 72.5v805q0 165 110.5 266t288.5 101q90 0 160.5 -26.5t112.5 -71.5t64 -99.5t22 -114.5q0 -214 -238 -297q135 -10 229.5 -96t94.5 -231q0 -163 -135.5 -267t-382.5 -104v49q191 1 281.5 82t90.5 238q0 54 -9.5 97t-35 83t-66.5 66.5 t-107 42.5t-154 16v45q42 0 80 6.5t78 24.5t69 46.5t47.5 76.5t18.5 110q0 52 -14 99.5t-42 89.5t-79.5 67t-118.5 25q-68 0 -115.5 -25.5t-73.5 -74t-37.5 -109t-11.5 -140.5v-776q0 -85 -30.5 -116t-94.5 -31q-65 0 -135 45z" />
<glyph unicode="&#xe0;" horiz-adv-x="987" d="M61 213q0 50 16 90.5t57 80t108 70t173.5 55t248.5 38.5q36 5 36 51v47q0 116 -62.5 185t-186.5 69q-54 0 -89 -14t-50 -36t-22 -49t-10 -54t-9.5 -49t-25.5 -36t-52 -14q-35 0 -53.5 22t-18.5 62q0 55 34 97.5t91 66.5t121.5 35.5t134.5 11.5q175 0 250 -80t75 -241 v-502q0 -26 8.5 -40.5t24.5 -16.5t31 0.5t35 9.5v-19q-13 -25 -43.5 -45t-65.5 -20q-49 0 -85 35.5t-36 115.5q1 13 -8 12q-8 -1 -16 -12q-60 -73 -154.5 -112t-191.5 -39q-112 0 -188.5 56.5t-76.5 168.5zM203 244q0 -77 53 -130t152 -53q119 0 205.5 73.5t86.5 182.5v113 q0 41 -16 60t-66 12q-99 -12 -173.5 -33t-119.5 -45.5t-73.5 -55.5t-38.5 -60.5t-10 -63.5zM205 1337q0 24 19.5 42t43.5 18q31 0 70 -41l203 -215q25 -25 14 -43q-4 -11 -15.5 -15t-35.5 7l-240 163q-59 40 -59 84z" />
<glyph unicode="&#xe1;" horiz-adv-x="987" d="M61 213q0 50 16 90.5t57 80t108 70t173.5 55t248.5 38.5q36 5 36 51v47q0 116 -62.5 185t-186.5 69q-54 0 -89 -14t-50 -36t-22 -49t-10 -54t-9.5 -49t-25.5 -36t-52 -14q-35 0 -53.5 22t-18.5 62q0 55 34 97.5t91 66.5t121.5 35.5t134.5 11.5q175 0 250 -80t75 -241 v-502q0 -26 8.5 -40.5t24.5 -16.5t31 0.5t35 9.5v-19q-13 -25 -43.5 -45t-65.5 -20q-49 0 -85 35.5t-36 115.5q1 13 -8 12q-8 -1 -16 -12q-60 -73 -154.5 -112t-191.5 -39q-112 0 -188.5 56.5t-76.5 168.5zM203 244q0 -77 53 -130t152 -53q119 0 205.5 73.5t86.5 182.5v113 q0 41 -16 60t-66 12q-99 -12 -173.5 -33t-119.5 -45.5t-73.5 -55.5t-38.5 -60.5t-10 -63.5zM410 1098q-8 19 16 43l203 215q39 41 69 41q24 0 44 -18t20 -42q0 -44 -60 -84l-239 -163q-38 -22 -53 8z" />
<glyph unicode="&#xe2;" horiz-adv-x="987" d="M61 213q0 50 16 90.5t57 80t108 70t173.5 55t248.5 38.5q36 5 36 51v47q0 116 -62.5 185t-186.5 69q-54 0 -89 -14t-50 -36t-22 -49t-10 -54t-9.5 -49t-25.5 -36t-52 -14q-35 0 -53.5 22t-18.5 62q0 55 34 97.5t91 66.5t121.5 35.5t134.5 11.5q175 0 250 -80t75 -241 v-502q0 -26 8.5 -40.5t24.5 -16.5t31 0.5t35 9.5v-19q-13 -25 -43.5 -45t-65.5 -20q-49 0 -85 35.5t-36 115.5q1 13 -8 12q-8 -1 -16 -12q-60 -73 -154.5 -112t-191.5 -39q-112 0 -188.5 56.5t-76.5 168.5zM203 244q0 -77 53 -130t152 -53q119 0 205.5 73.5t86.5 182.5v113 q0 41 -16 60t-66 12q-99 -12 -173.5 -33t-119.5 -45.5t-73.5 -55.5t-38.5 -60.5t-10 -63.5zM256 1104l209 231q7 7 20 7t19 -7l209 -231q16 -19 -6 -37q-11 -9 -33 6l-189 139l-190 -139q-22 -15 -33 -6q-22 18 -6 37z" />
<glyph unicode="&#xe3;" horiz-adv-x="987" d="M61 213q0 50 16 90.5t57 80t108 70t173.5 55t248.5 38.5q36 5 36 51v47q0 116 -62.5 185t-186.5 69q-54 0 -89 -14t-50 -36t-22 -49t-10 -54t-9.5 -49t-25.5 -36t-52 -14q-35 0 -53.5 22t-18.5 62q0 55 34 97.5t91 66.5t121.5 35.5t134.5 11.5q175 0 250 -80t75 -241 v-502q0 -26 8.5 -40.5t24.5 -16.5t31 0.5t35 9.5v-19q-13 -25 -43.5 -45t-65.5 -20q-49 0 -85 35.5t-36 115.5q1 13 -8 12q-8 -1 -16 -12q-60 -73 -154.5 -112t-191.5 -39q-112 0 -188.5 56.5t-76.5 168.5zM172 1198q0 87 47 132.5t129 45.5q52 0 97.5 -19.5t72.5 -43 t63.5 -43t73.5 -19.5q74 0 99 82q3 15 18 15h10q19 0 19 -23q0 -86 -48 -132t-128 -46q-51 0 -96.5 20t-73.5 43.5t-65 43.5t-73 20q-73 0 -98 -84q-3 -12 -18 -12h-11q-18 0 -18 20zM203 244q0 -77 53 -130t152 -53q119 0 205.5 73.5t86.5 182.5v113q0 41 -16 60t-66 12 q-99 -12 -173.5 -33t-119.5 -45.5t-73.5 -55.5t-38.5 -60.5t-10 -63.5z" />
<glyph unicode="&#xe4;" horiz-adv-x="987" d="M61 213q0 50 16 90.5t57 80t108 70t173.5 55t248.5 38.5q36 5 36 51v47q0 116 -62.5 185t-186.5 69q-54 0 -89 -14t-50 -36t-22 -49t-10 -54t-9.5 -49t-25.5 -36t-52 -14q-35 0 -53.5 22t-18.5 62q0 55 34 97.5t91 66.5t121.5 35.5t134.5 11.5q175 0 250 -80t75 -241 v-502q0 -26 8.5 -40.5t24.5 -16.5t31 0.5t35 9.5v-19q-13 -25 -43.5 -45t-65.5 -20q-49 0 -85 35.5t-36 115.5q1 13 -8 12q-8 -1 -16 -12q-60 -73 -154.5 -112t-191.5 -39q-112 0 -188.5 56.5t-76.5 168.5zM203 244q0 -77 53 -130t152 -53q119 0 205.5 73.5t86.5 182.5v113 q0 41 -16 60t-66 12q-99 -12 -173.5 -33t-119.5 -45.5t-73.5 -55.5t-38.5 -60.5t-10 -63.5zM227 1288q0 31 25 56.5t57 25.5q33 0 58.5 -25.5t25.5 -56.5q0 -35 -25 -61.5t-59 -26.5q-32 0 -57 26.5t-25 61.5zM575 1288q0 31 25 56.5t57 25.5q33 0 58.5 -25.5t25.5 -56.5 q0 -35 -25 -61.5t-59 -26.5q-32 0 -57 26.5t-25 61.5z" />
<glyph unicode="&#xe5;" horiz-adv-x="987" d="M61 213q0 50 16 90.5t57 80t108 70t173.5 55t248.5 38.5q36 5 36 51v47q0 116 -62.5 185t-186.5 69q-54 0 -89 -14t-50 -36t-22 -49t-10 -54t-9.5 -49t-25.5 -36t-52 -14q-35 0 -53.5 22t-18.5 62q0 55 34 97.5t91 66.5t121.5 35.5t134.5 11.5q175 0 250 -80t75 -241 v-502q0 -26 8.5 -40.5t24.5 -16.5t31 0.5t35 9.5v-19q-13 -25 -43.5 -45t-65.5 -20q-49 0 -85 35.5t-36 115.5q1 13 -8 12q-8 -1 -16 -12q-60 -73 -154.5 -112t-191.5 -39q-112 0 -188.5 56.5t-76.5 168.5zM203 244q0 -77 53 -130t152 -53q119 0 205.5 73.5t86.5 182.5v113 q0 41 -16 60t-66 12q-99 -12 -173.5 -33t-119.5 -45.5t-73.5 -55.5t-38.5 -60.5t-10 -63.5zM315 1307q0 71 46.5 118.5t121.5 47.5t121.5 -47.5t46.5 -118.5q0 -69 -47 -118.5t-121 -49.5t-121 49.5t-47 118.5zM379 1307q0 -49 30.5 -80t73.5 -31t74 31t31 80q0 48 -31 78 t-74 30t-73.5 -30t-30.5 -78z" />
<glyph unicode="&#xe6;" horiz-adv-x="1591" d="M61 209q0 49 16 87t56.5 74.5t108 63.5t174 49.5t250.5 36.5q39 5 39 47v68q0 113 -66 187.5t-193 74.5q-178 0 -178 -152q0 -100 -71 -100q-33 0 -50.5 22t-17.5 60q0 67 58.5 117.5t142 74t174.5 23.5q227 0 293 -162q128 162 366 162q149 0 234.5 -73.5t85.5 -186.5 q0 -65 -32.5 -103.5t-120.5 -61.5t-245 -28l-190 -8q-29 -1 -41 -16.5t-12 -48.5q0 -58 27 -116t75 -106t123 -78t164 -30q174 0 262 121l27 -23q-18 -31 -44.5 -60.5t-69.5 -62.5t-107 -53t-138 -20q-191 0 -344 153q-37 40 -70.5 39.5t-70.5 -43.5q-128 -149 -354 -149 q-71 0 -127.5 21t-95 72.5t-38.5 127.5zM205 254q0 -76 52.5 -132t150.5 -56q120 0 207 73t87 187v45q0 64 -18.5 89t-71.5 19q-120 -16 -201.5 -38.5t-125.5 -52t-62 -61.5t-18 -73zM834 594q0 -48 15.5 -60t51.5 -10l170 2q158 2 215 33t57 121q0 96 -55 156.5t-166 60.5 q-91 0 -158 -45t-98.5 -112.5t-31.5 -145.5z" />
<glyph unicode="&#xe7;" horiz-adv-x="980" d="M61 465q0 145 68 255t178.5 166t243.5 56q156 0 249 -73t93 -156q0 -40 -24 -64t-58 -24q-69 0 -74 77q-9 80 -68.5 137.5t-170.5 57.5q-139 0 -224.5 -98.5t-85.5 -278.5q0 -133 60 -233t157.5 -149.5t215.5 -49.5q174 0 262 137l26 -26q-30 -73 -116.5 -137t-217.5 -72 l-40 -90q76 27 147.5 -15t71.5 -123q0 -73 -61.5 -119t-147.5 -46q-97 0 -150 33t-53 81q0 44 31.5 58t66.5 -15q0 -38 5.5 -64.5t26 -47.5t56.5 -21q59 0 96.5 44.5t37.5 101.5q0 47 -29.5 79.5t-77.5 32.5q-29 0 -57 -10t-39 -10q-32 0 -10 45l43 86q-90 8 -168.5 44.5 t-137 96.5t-92 146.5t-33.5 187.5z" />
<glyph unicode="&#xe8;" horiz-adv-x="952" d="M61 469q0 216 130.5 344.5t330.5 128.5q150 0 236 -73.5t86 -186.5q0 -65 -33 -103.5t-121.5 -61.5t-245.5 -28l-188 -8q-30 -1 -41.5 -16.5t-11.5 -48.5q0 -58 27 -116t75 -106t123 -78t164 -30q172 0 260 121l29 -23q-18 -31 -44.5 -60.5t-69.5 -62.5t-107 -53 t-138 -20q-196 0 -328.5 134t-132.5 347zM195 594q0 -48 15 -60t52 -10l170 2q157 2 213.5 33t56.5 121q0 96 -54 156.5t-165 60.5q-91 0 -158 -45t-98.5 -112.5t-31.5 -145.5zM207 1337q0 24 19.5 42t43.5 18q31 0 70 -41l203 -215q25 -25 14 -43q-4 -11 -15.5 -15t-35.5 7 l-240 163q-59 40 -59 84z" />
<glyph unicode="&#xe9;" horiz-adv-x="952" d="M61 469q0 216 130.5 344.5t330.5 128.5q150 0 236 -73.5t86 -186.5q0 -65 -33 -103.5t-121.5 -61.5t-245.5 -28l-188 -8q-30 -1 -41.5 -16.5t-11.5 -48.5q0 -58 27 -116t75 -106t123 -78t164 -30q172 0 260 121l29 -23q-18 -31 -44.5 -60.5t-69.5 -62.5t-107 -53 t-138 -20q-196 0 -328.5 134t-132.5 347zM195 594q0 -48 15 -60t52 -10l170 2q157 2 213.5 33t56.5 121q0 96 -54 156.5t-165 60.5q-91 0 -158 -45t-98.5 -112.5t-31.5 -145.5zM410 1098q-8 19 16 43l203 215q39 41 69 41q24 0 44 -18t20 -42q0 -44 -60 -84l-239 -163 q-38 -22 -53 8z" />
<glyph unicode="&#xea;" horiz-adv-x="952" d="M61 469q0 216 130.5 344.5t330.5 128.5q150 0 236 -73.5t86 -186.5q0 -65 -33 -103.5t-121.5 -61.5t-245.5 -28l-188 -8q-30 -1 -41.5 -16.5t-11.5 -48.5q0 -58 27 -116t75 -106t123 -78t164 -30q172 0 260 121l29 -23q-18 -31 -44.5 -60.5t-69.5 -62.5t-107 -53 t-138 -20q-196 0 -328.5 134t-132.5 347zM195 594q0 -48 15 -60t52 -10l170 2q157 2 213.5 33t56.5 121q0 96 -54 156.5t-165 60.5q-91 0 -158 -45t-98.5 -112.5t-31.5 -145.5zM256 1104l209 231q7 7 20 7t19 -7l209 -231q16 -19 -6 -37q-11 -9 -33 6l-189 139l-190 -139 q-22 -15 -33 -6q-22 18 -6 37z" />
<glyph unicode="&#xeb;" horiz-adv-x="952" d="M61 469q0 216 130.5 344.5t330.5 128.5q150 0 236 -73.5t86 -186.5q0 -65 -33 -103.5t-121.5 -61.5t-245.5 -28l-188 -8q-30 -1 -41.5 -16.5t-11.5 -48.5q0 -58 27 -116t75 -106t123 -78t164 -30q172 0 260 121l29 -23q-18 -31 -44.5 -60.5t-69.5 -62.5t-107 -53 t-138 -20q-196 0 -328.5 134t-132.5 347zM195 594q0 -48 15 -60t52 -10l170 2q157 2 213.5 33t56.5 121q0 96 -54 156.5t-165 60.5q-91 0 -158 -45t-98.5 -112.5t-31.5 -145.5zM227 1288q0 31 25 56.5t57 25.5q33 0 58.5 -25.5t25.5 -56.5q0 -35 -25 -61.5t-59 -26.5 q-32 0 -57 26.5t-25 61.5zM575 1288q0 31 25 56.5t57 25.5q33 0 58.5 -25.5t25.5 -56.5q0 -35 -25 -61.5t-59 -26.5q-32 0 -57 26.5t-25 61.5z" />
<glyph unicode="&#xec;" d="M-53 1337q0 24 19.5 42t43.5 18q31 0 70 -41l203 -215q25 -25 14 -43q-4 -11 -15.5 -15t-35.5 7l-240 163q-59 40 -59 84zM51 858v31l199 49q28 8 45.5 -6t17.5 -47v-754q0 -47 29.5 -67.5t103.5 -28.5v-35h-391v35q73 8 102 28.5t29 67.5v606q0 38 -3.5 59t-17 39 t-41 22.5t-73.5 0.5z" />
<glyph unicode="&#xed;" d="M51 858v31l199 49q28 8 45.5 -6t17.5 -47v-754q0 -47 29.5 -67.5t103.5 -28.5v-35h-391v35q73 8 102 28.5t29 67.5v606q0 38 -3.5 59t-17 39t-41 22.5t-73.5 0.5zM152 1098q-8 19 16 43l203 215q39 41 69 41q24 0 44 -18t20 -42q0 -44 -60 -84l-239 -163q-38 -22 -53 8z " />
<glyph unicode="&#xee;" d="M-4 1104l209 231q7 7 20 7t19 -7l209 -231q16 -19 -7 -37q-10 -8 -32 6l-189 139l-190 -139q-22 -15 -33 -6q-22 18 -6 37zM51 858v31l199 49q28 8 45.5 -6t17.5 -47v-754q0 -47 29.5 -67.5t103.5 -28.5v-35h-391v35q73 8 102 28.5t29 67.5v606q0 38 -3.5 59t-17 39 t-41 22.5t-73.5 0.5z" />
<glyph unicode="&#xef;" d="M-31 1288q0 31 25 56.5t57 25.5q33 0 58.5 -25.5t25.5 -56.5q0 -35 -25 -61.5t-59 -26.5q-32 0 -57 26.5t-25 61.5zM51 858v31l199 49q28 8 45.5 -6t17.5 -47v-754q0 -47 29.5 -67.5t103.5 -28.5v-35h-391v35q73 8 102 28.5t29 67.5v606q0 38 -3.5 59t-17 39t-41 22.5 t-73.5 0.5zM317 1288q0 31 25 56.5t57 25.5q33 0 58.5 -25.5t25.5 -56.5q0 -35 -25 -61.5t-59 -26.5q-32 0 -57 26.5t-25 61.5z" />
<glyph unicode="&#xf0;" horiz-adv-x="1095" d="M61 444q0 116 36 211.5t97.5 157.5t141.5 95.5t170 33.5q50 0 101 -10t82 -20.5t56.5 -16.5t36.5 2t11 35v178l-258 -72l-7 29l242 68q-53 128 -213 137v31q80 0 162.5 -32.5t136.5 -113.5l199 57l6 -28l-187 -53q46 -87 46 -220v-780q0 -55 30 -72.5t103 2.5v-28 q-70 -45 -135 -45q-68 0 -98.5 34.5t-26.5 127.5q-138 -164 -330 -164q-171 0 -286.5 127.5t-115.5 328.5zM190 522q0 -193 97 -314.5t258 -121.5q43 0 84 10.5t79 32.5t61.5 64.5t23.5 99.5v344q0 84 -50.5 147t-121.5 91t-148 28q-132 0 -207.5 -103.5t-75.5 -277.5z" />
<glyph unicode="&#xf1;" horiz-adv-x="1095" d="M51 858v31l199 49q29 8 46 -7t17 -52q0 -96 24 -94q7 0 17 10q2 1 16 16.5t28 29t41 32.5t55 32.5t68.5 23t84.5 9.5q133 0 220 -84.5t87 -249.5v-485q0 -51 28.5 -63t80.5 -3v-18q-19 -19 -55 -33t-74 -14q-107 0 -107 123v446q0 140 -63.5 220.5t-183.5 80.5 q-123 0 -195 -82t-72 -219v-426q0 -47 29.5 -67.5t103.5 -28.5v-35h-391v35q73 8 102 28.5t29 67.5v606q0 38 -3.5 59t-17 39t-41 22.5t-73.5 0.5zM236 1198q0 87 47 132.5t129 45.5q52 0 97.5 -19.5t72.5 -43t63.5 -43t73.5 -19.5q40 0 62.5 20.5t35.5 61.5q3 15 19 15h10 q18 0 18 -23q0 -86 -48 -132t-128 -46q-51 0 -96.5 20t-73 43.5t-64.5 43.5t-73 20q-73 0 -98 -84q-3 -12 -19 -12h-10q-18 0 -18 20z" />
<glyph unicode="&#xf2;" horiz-adv-x="1048" d="M61 459q0 211 135.5 347t331.5 136q124 0 228.5 -57.5t167.5 -166t63 -247.5q0 -211 -135.5 -347t-331.5 -136q-124 0 -228.5 57.5t-167.5 166t-63 247.5zM203 532q0 -135 46.5 -247.5t132 -180t193.5 -67.5q123 0 197 92t74 266q0 136 -47 250t-133 182t-193 68 q-123 0 -196.5 -93.5t-73.5 -269.5zM246 1337q0 24 19.5 42t43.5 18q31 0 70 -41l203 -215q25 -25 14 -43q-4 -11 -15.5 -15t-35.5 7l-240 163q-59 40 -59 84z" />
<glyph unicode="&#xf3;" horiz-adv-x="1048" d="M61 459q0 211 135.5 347t331.5 136q124 0 228.5 -57.5t167.5 -166t63 -247.5q0 -211 -135.5 -347t-331.5 -136q-124 0 -228.5 57.5t-167.5 166t-63 247.5zM203 532q0 -135 46.5 -247.5t132 -180t193.5 -67.5q123 0 197 92t74 266q0 136 -47 250t-133 182t-193 68 q-123 0 -196.5 -93.5t-73.5 -269.5zM449 1098q-8 19 16 43l203 215q39 41 69 41q24 0 44 -18t20 -42q0 -44 -60 -84l-239 -163q-38 -22 -53 8z" />
<glyph unicode="&#xf4;" horiz-adv-x="1048" d="M61 459q0 211 135.5 347t331.5 136q124 0 228.5 -57.5t167.5 -166t63 -247.5q0 -211 -135.5 -347t-331.5 -136q-124 0 -228.5 57.5t-167.5 166t-63 247.5zM203 532q0 -135 46.5 -247.5t132 -180t193.5 -67.5q123 0 197 92t74 266q0 136 -47 250t-133 182t-193 68 q-123 0 -196.5 -93.5t-73.5 -269.5zM295 1104l209 231q8 7 20.5 7t18.5 -7l209 -231q16 -19 -7 -37q-10 -8 -32 6l-189 139l-190 -139q-22 -15 -33 -6q-22 18 -6 37z" />
<glyph unicode="&#xf5;" horiz-adv-x="1048" d="M61 459q0 211 135.5 347t331.5 136q124 0 228.5 -57.5t167.5 -166t63 -247.5q0 -211 -135.5 -347t-331.5 -136q-124 0 -228.5 57.5t-167.5 166t-63 247.5zM203 532q0 -135 46.5 -247.5t132 -180t193.5 -67.5q123 0 197 92t74 266q0 136 -47 250t-133 182t-193 68 q-123 0 -196.5 -93.5t-73.5 -269.5zM211 1198q0 87 47 132.5t129 45.5q52 0 97.5 -19.5t72.5 -43t63.5 -43t73.5 -19.5q74 0 99 82q3 15 18 15h10q19 0 19 -23q0 -86 -48 -132t-128 -46q-51 0 -96.5 20t-73.5 43.5t-65 43.5t-73 20q-73 0 -98 -84q-3 -12 -18 -12h-11 q-18 0 -18 20z" />
<glyph unicode="&#xf6;" horiz-adv-x="1048" d="M61 459q0 211 135.5 347t331.5 136q124 0 228.5 -57.5t167.5 -166t63 -247.5q0 -211 -135.5 -347t-331.5 -136q-124 0 -228.5 57.5t-167.5 166t-63 247.5zM203 532q0 -135 46.5 -247.5t132 -180t193.5 -67.5q123 0 197 92t74 266q0 136 -47 250t-133 182t-193 68 q-123 0 -196.5 -93.5t-73.5 -269.5zM266 1288q0 31 25 56.5t57 25.5q33 0 58.5 -25.5t25.5 -56.5q0 -35 -25 -61.5t-59 -26.5q-32 0 -57 26.5t-25 61.5zM614 1288q0 31 25 56.5t57 25.5q33 0 58.5 -25.5t25.5 -56.5q0 -35 -25 -61.5t-59 -26.5q-32 0 -57 26.5t-25 61.5z" />
<glyph unicode="&#xf7;" horiz-adv-x="962" d="M102 494v43h758v-43h-758zM410 203q0 28 21.5 49.5t47.5 21.5q29 0 50.5 -21.5t21.5 -49.5q0 -29 -21.5 -51.5t-50.5 -22.5q-26 0 -47.5 22.5t-21.5 51.5zM410 829q0 28 21.5 50t47.5 22q29 0 50.5 -22t21.5 -50q0 -29 -21.5 -51t-50.5 -22q-27 0 -48 22t-21 51z" />
<glyph unicode="&#xf8;" horiz-adv-x="1048" d="M61 459q0 211 135.5 347t331.5 136q170 0 295 -104l70 86l25 -19l-72 -86q141 -138 141 -348q0 -211 -135.5 -347t-331.5 -136q-162 0 -282 94l-60 -72l-24 17l61 73q-154 138 -154 359zM203 532q0 -196 92 -333l450 544q-110 152 -272 152q-123 0 -196.5 -93.5 t-73.5 -269.5zM313 174q108 -137 262 -137q123 0 197 92t74 266q0 186 -84 322z" />
<glyph unicode="&#xf9;" horiz-adv-x="1105" d="M51 858v31l199 49q28 8 45.5 -6t17.5 -47v-535q0 -128 65.5 -206t182.5 -78q119 0 192.5 79.5t73.5 204.5v389q0 39 -3.5 58.5t-16.5 37t-40.5 22t-74.5 1.5v31l199 49q28 8 45.5 -6t17.5 -47v-766q0 -35 15 -51.5t39.5 -16.5t54.5 2v-18q-19 -19 -55 -33t-72 -14 q-47 0 -80.5 29t-40.5 92q0 18 -14 18q-13 0 -23 -8q-2 -1 -30 -25.5t-57.5 -46t-84.5 -40.5t-114 -19q-133 0 -219.5 82.5t-86.5 236.5v432q0 38 -3.5 58.5t-17 37t-41 21.5t-73.5 2zM297 1337q0 24 19.5 42t43.5 18q31 0 70 -41l203 -215q25 -25 14 -43q-4 -11 -15.5 -15 t-35.5 7l-240 163q-59 40 -59 84z" />
<glyph unicode="&#xfa;" horiz-adv-x="1105" d="M51 858v31l199 49q28 8 45.5 -6t17.5 -47v-535q0 -128 65.5 -206t182.5 -78q119 0 192.5 79.5t73.5 204.5v389q0 39 -3.5 58.5t-16.5 37t-40.5 22t-74.5 1.5v31l199 49q28 8 45.5 -6t17.5 -47v-766q0 -35 15 -51.5t39.5 -16.5t54.5 2v-18q-19 -19 -55 -33t-72 -14 q-47 0 -80.5 29t-40.5 92q0 18 -14 18q-13 0 -23 -8q-2 -1 -30 -25.5t-57.5 -46t-84.5 -40.5t-114 -19q-133 0 -219.5 82.5t-86.5 236.5v432q0 38 -3.5 58.5t-17 37t-41 21.5t-73.5 2zM481 1098q-7 19 17 43l202 215q39 41 70 41q24 0 44 -18t20 -42q0 -44 -60 -84 l-239 -163q-39 -22 -54 8z" />
<glyph unicode="&#xfb;" horiz-adv-x="1105" d="M51 858v31l199 49q28 8 45.5 -6t17.5 -47v-535q0 -128 65.5 -206t182.5 -78q119 0 192.5 79.5t73.5 204.5v389q0 39 -3.5 58.5t-16.5 37t-40.5 22t-74.5 1.5v31l199 49q28 8 45.5 -6t17.5 -47v-766q0 -35 15 -51.5t39.5 -16.5t54.5 2v-18q-19 -19 -55 -33t-72 -14 q-47 0 -80.5 29t-40.5 92q0 18 -14 18q-13 0 -23 -8q-2 -1 -30 -25.5t-57.5 -46t-84.5 -40.5t-114 -19q-133 0 -219.5 82.5t-86.5 236.5v432q0 38 -3.5 58.5t-17 37t-41 21.5t-73.5 2zM287 1104l209 231q8 7 20.5 7t18.5 -7l208 -231q16 -19 -6 -37q-10 -8 -32 6l-189 139 l-190 -139q-22 -15 -33 -6q-22 18 -6 37z" />
<glyph unicode="&#xfc;" horiz-adv-x="1105" d="M51 858v31l199 49q28 8 45.5 -6t17.5 -47v-535q0 -128 65.5 -206t182.5 -78q119 0 192.5 79.5t73.5 204.5v389q0 39 -3.5 58.5t-16.5 37t-40.5 22t-74.5 1.5v31l199 49q28 8 45.5 -6t17.5 -47v-766q0 -35 15 -51.5t39.5 -16.5t54.5 2v-18q-19 -19 -55 -33t-72 -14 q-47 0 -80.5 29t-40.5 92q0 18 -14 18q-13 0 -23 -8q-2 -1 -30 -25.5t-57.5 -46t-84.5 -40.5t-114 -19q-133 0 -219.5 82.5t-86.5 236.5v432q0 38 -3.5 58.5t-17 37t-41 21.5t-73.5 2zM299 1288q0 31 25 56.5t57 25.5q33 0 58.5 -25.5t25.5 -56.5q0 -35 -25 -61.5t-59 -26.5 q-32 0 -57 26.5t-25 61.5zM647 1288q0 31 25 56.5t57 25.5q33 0 58.5 -25.5t25.5 -56.5q0 -35 -25 -61.5t-59 -26.5q-32 0 -57 26.5t-25 61.5z" />
<glyph unicode="&#xfd;" horiz-adv-x="1044" d="M20 891v33h373v-33q-38 -12 -56.5 -20.5t-32.5 -21.5t-12.5 -33t9.5 -46.5t27 -71.5l194 -473q17 -38 32 -38t32 40l100 250q28 69 47 121t29.5 93t16.5 68.5t1.5 48.5t-9.5 33t-22.5 22t-30.5 15t-40 13v33h346v-33q-91 -28 -128 -61t-75 -132l-358 -870 q-20 -49 -31 -73t-33.5 -61t-44 -54.5t-55 -31.5t-74.5 -14q-69 0 -106 32.5t-37 82.5q0 43 26.5 67.5t65.5 24.5q34 0 50.5 -21.5t18 -47t13 -47t37.5 -21.5q63 0 135 178q23 58 25 116.5t-6.5 89.5t-24.5 69l-240 581q-42 104 -68.5 135t-93.5 58zM455 1098q-8 19 16 43 l203 215q39 41 69 41q24 0 44 -18t20 -42q0 -44 -59 -84l-240 -163q-38 -22 -53 8z" />
<glyph unicode="&#xfe;" horiz-adv-x="1073" d="M20 1264v30l199 49q28 8 46 -6.5t18 -46.5v-465q0 -7 3 -12t10.5 -4.5t18.5 12.5q37 43 118.5 82t176.5 39q171 0 286.5 -129t115.5 -330q0 -116 -36.5 -211.5t-98 -156.5t-140.5 -94t-166 -33q-58 0 -112 14t-83 28.5t-52.5 23.5t-32 -0.5t-8.5 -45.5v-266 q0 -47 29.5 -68t103.5 -30v-33h-391v33q73 9 102 30t29 68v1403q0 37 -4 58t-17 38.5t-41 22t-74 0.5zM283 369q0 -84 28.5 -150.5t75 -106.5t100 -60.5t109.5 -20.5q133 0 214 103t81 267q0 188 -101 315.5t-253 127.5q-35 0 -68.5 -6.5t-68 -23.5t-60 -43t-41.5 -69.5 t-16 -99.5v-233z" />
<glyph unicode="&#xff;" horiz-adv-x="1044" d="M20 891v33h373v-33q-38 -12 -56.5 -20.5t-32.5 -21.5t-12.5 -33t9.5 -46.5t27 -71.5l194 -473q17 -38 32 -38t32 40l100 250q28 69 47 121t29.5 93t16.5 68.5t1.5 48.5t-9.5 33t-22.5 22t-30.5 15t-40 13v33h346v-33q-91 -28 -128 -61t-75 -132l-358 -870 q-20 -49 -31 -73t-33.5 -61t-44 -54.5t-55 -31.5t-74.5 -14q-69 0 -106 32.5t-37 82.5q0 43 26.5 67.5t65.5 24.5q34 0 50.5 -21.5t18 -47t13 -47t37.5 -21.5q63 0 135 178q23 58 25 116.5t-6.5 89.5t-24.5 69l-240 581q-42 104 -68.5 135t-93.5 58zM270 1288q0 31 25 56.5 t57 25.5q33 0 58.5 -25.5t25.5 -56.5q0 -35 -25 -61.5t-59 -26.5q-32 0 -57 26.5t-25 61.5zM618 1288q0 31 25 56.5t57 25.5q33 0 58.5 -25.5t25.5 -56.5q0 -35 -25 -61.5t-59 -26.5q-32 0 -57 26.5t-25 61.5z" />
<glyph unicode="&#x152;" horiz-adv-x="1929" d="M61 631q0 184 85 338t237 245t338 91q126 0 213 -33h840q29 0 32 -27q11 -89 39 -211h-35q-33 96 -96.5 143.5t-169.5 47.5h-284q-67 0 -96 -16.5t-29 -69.5v-385q0 -53 28.5 -67.5t96.5 -14.5h233q43 0 71.5 9.5t45.5 30t25.5 44t15.5 61.5h26v-342h-26 q-14 76 -45.5 113t-112.5 37h-233q-68 0 -96.5 -15t-28.5 -69v-406q0 -54 41.5 -70t171.5 -16h239q45 0 80.5 7.5t56 16.5t40 27.5t26 28.5t20.5 31l50 78h36q-26 -46 -39 -90.5t-22 -118.5q-3 -29 -33 -29h-932q-79 -20 -170 -20q-138 0 -258 51.5t-203 139t-130.5 207 t-47.5 253.5zM221 694q0 -147 42 -272.5t113 -210t165.5 -132.5t199.5 -48q131 0 248 51v1089q-137 82 -311 82q-56 0 -109.5 -13t-105.5 -40.5t-95 -73t-76.5 -105.5t-52 -143.5t-18.5 -183.5z" />
<glyph unicode="&#x153;" horiz-adv-x="1767" d="M61 459q0 211 135.5 347t331.5 136q128 0 235 -62t167 -171q57 112 164 173.5t243 61.5q150 0 236 -73.5t86 -186.5q0 -65 -33 -103t-121 -61t-245 -28l-189 -9q-30 -1 -41.5 -16.5t-11.5 -48.5q0 -58 27 -116t75 -106t123 -78t164 -30q172 0 260 121l29 -23 q-18 -31 -44.5 -60.5t-69.5 -62.5t-107 -53t-138 -20q-132 0 -240 64.5t-165 178.5q-60 -114 -170 -179.5t-242 -65.5q-124 0 -228.5 57.5t-167.5 166t-63 247.5zM203 532q0 -135 46.5 -247.5t132 -180t193.5 -67.5q123 0 197 92t74 266q0 136 -47 250t-133 182t-193 68 q-123 0 -196.5 -93.5t-73.5 -269.5zM1010 596q0 -48 15 -60t52 -10l170 2q157 2 214 33t57 121q0 96 -54.5 156.5t-165.5 60.5q-91 0 -158 -45t-98.5 -112.5t-31.5 -145.5z" />
<glyph unicode="&#x178;" horiz-adv-x="1269" d="M31 1239v33h405v-33q-34 -8 -54 -17.5t-29.5 -19.5t-7.5 -26t9 -32t23 -42l285 -453q14 -17 28 0l262 441q22 36 28 62.5t1 41t-23.5 24.5t-34.5 13.5t-44 7.5v33h360v-33q-77 -8 -120.5 -38t-106.5 -130l-279 -455q-26 -40 -26 -106v-381q0 -52 29.5 -67.5t127.5 -28.5 v-33h-458v33q98 13 126.5 28.5t28.5 67.5v381q0 8 -0.5 14.5t-3.5 14t-4.5 12.5t-6.5 14t-7.5 12.5t-10 15.5t-10.5 17l-276 445q-57 92 -100 126.5t-111 57.5zM348 1636q0 31 25 56.5t57 25.5q33 0 58.5 -25.5t25.5 -56.5q0 -35 -25 -61.5t-59 -26.5q-32 0 -57 26.5 t-25 61.5zM696 1636q0 31 25 56.5t57 25.5q33 0 58.5 -25.5t25.5 -56.5q0 -35 -25 -61.5t-59 -26.5q-32 0 -57 26.5t-25 61.5z" />
<glyph unicode="&#x2c6;" horiz-adv-x="550" d="M47 1104l209 231q8 7 20.5 7t18.5 -7l209 -231q16 -19 -6 -37q-11 -9 -33 6l-189 139l-190 -139q-22 -15 -33 -6q-22 18 -6 37z" />
<glyph unicode="&#x2dc;" horiz-adv-x="854" d="M113 1198q0 87 47 132.5t129 45.5q52 0 97.5 -19.5t72.5 -43t63.5 -43t73.5 -19.5q40 0 62.5 20.5t35.5 61.5q3 15 19 15h10q18 0 18 -23q0 -86 -48 -132t-128 -46q-51 0 -96.5 20t-73 43.5t-64.5 43.5t-73 20q-73 0 -98 -84q-3 -12 -19 -12h-10q-18 0 -18 20z" />
<glyph unicode="&#x2000;" horiz-adv-x="910" />
<glyph unicode="&#x2001;" horiz-adv-x="1821" />
<glyph unicode="&#x2002;" horiz-adv-x="910" />
<glyph unicode="&#x2003;" horiz-adv-x="1821" />
<glyph unicode="&#x2004;" horiz-adv-x="607" />
<glyph unicode="&#x2005;" horiz-adv-x="455" />
<glyph unicode="&#x2006;" horiz-adv-x="303" />
<glyph unicode="&#x2007;" horiz-adv-x="303" />
<glyph unicode="&#x2008;" horiz-adv-x="227" />
<glyph unicode="&#x2009;" horiz-adv-x="364" />
<glyph unicode="&#x200a;" horiz-adv-x="101" />
<glyph unicode="&#x2010;" horiz-adv-x="757" d="M102 532v19h553v-19h-553z" />
<glyph unicode="&#x2011;" horiz-adv-x="757" d="M102 532v19h553v-19h-553z" />
<glyph unicode="&#x2012;" horiz-adv-x="757" d="M102 532v19h553v-19h-553z" />
<glyph unicode="&#x2013;" horiz-adv-x="1396" d="M102 532v19h1192v-19h-1192z" />
<glyph unicode="&#x2014;" horiz-adv-x="1882" d="M102 532v19h1678v-19h-1678z" />
<glyph unicode="&#x2018;" horiz-adv-x="327" d="M61 1081q0 61 33.5 125t93.5 103l19 -25q-23 -20 -42.5 -56t-19.5 -57q0 -36 31 -36q38 0 64 -26.5t26 -68.5t-29.5 -67t-68.5 -25q-52 0 -79.5 39.5t-27.5 93.5z" />
<glyph unicode="&#x2019;" horiz-adv-x="327" d="M61 1212q0 42 30 67.5t69 25.5q52 0 79 -39.5t27 -94.5q0 -61 -33.5 -124.5t-93.5 -102.5l-18 25q23 20 42 55.5t19 56.5q0 37 -30 37q-38 0 -64.5 26t-26.5 68z" />
<glyph unicode="&#x201a;" horiz-adv-x="327" d="M61 94q0 42 30 67t69 25q52 0 79 -39t27 -94q0 -61 -33.5 -124.5t-93.5 -102.5l-18 24q23 20 42 56t19 57q0 37 -30 37q-38 0 -64.5 26t-26.5 68z" />
<glyph unicode="&#x201c;" horiz-adv-x="604" d="M61 1077q0 61 33.5 125t93.5 103l19 -25q-23 -20 -42.5 -56t-19.5 -57q0 -37 31 -37q38 0 64 -26t26 -68t-29.5 -67t-68.5 -25q-52 0 -79.5 39.5t-27.5 93.5zM336 1077q0 61 33.5 125t93.5 103l18 -25q-23 -20 -42 -56t-19 -57q0 -37 31 -37q38 0 64 -26t26 -68t-30 -67 t-69 -25q-52 0 -79 39t-27 94z" />
<glyph unicode="&#x201d;" horiz-adv-x="604" d="M61 1212q0 42 30 67.5t69 25.5q52 0 79 -39.5t27 -94.5q0 -61 -33.5 -124.5t-93.5 -102.5l-18 25q23 20 42 55.5t19 56.5q0 37 -30 37q-38 0 -64.5 26t-26.5 68zM336 1212q0 42 29.5 67.5t68.5 25.5q52 0 79.5 -39.5t27.5 -94.5q0 -61 -33.5 -124.5t-93.5 -102.5l-19 25 q23 20 42.5 55.5t19.5 56.5q0 37 -31 37q-38 0 -64 26t-26 68z" />
<glyph unicode="&#x201e;" horiz-adv-x="593" d="M61 94q0 42 30 67t69 25q52 0 79 -39t27 -94q0 -61 -33.5 -124.5t-93.5 -102.5l-18 24q23 20 42 56t19 57q0 37 -30 37q-38 0 -64.5 26t-26.5 68zM328 94q0 42 29.5 67t68.5 25q52 0 79 -39t27 -94q0 -61 -33 -124.5t-93 -102.5l-19 24q23 20 42.5 56t19.5 57 q0 37 -31 37q-38 0 -64 26t-26 68z" />
<glyph unicode="&#x2022;" horiz-adv-x="509" d="M123 602q0 54 39.5 92.5t93.5 38.5q53 0 92 -38.5t39 -92.5t-39 -93.5t-92 -39.5q-54 0 -93.5 39.5t-39.5 93.5z" />
<glyph unicode="&#x2026;" horiz-adv-x="1011" d="M82 88q0 41 29 70.5t69 29.5t69.5 -29.5t29.5 -70.5t-29.5 -70.5t-69.5 -29.5t-69 29.5t-29 70.5zM408 88q0 41 29 70.5t69 29.5t69 -29.5t29 -70.5t-29 -70.5t-69 -29.5t-69 29.5t-29 70.5zM733 88q0 41 29 70.5t69 29.5t69.5 -29.5t29.5 -70.5t-29.5 -70.5t-69.5 -29.5 t-69 29.5t-29 70.5z" />
<glyph unicode="&#x202f;" horiz-adv-x="364" />
<glyph unicode="&#x2039;" horiz-adv-x="505" d="M113 612.5q0 12.5 6 18.5l231 209q18 15 39 -6q11 -14 -8 -33l-148 -189l148 -190q19 -19 8 -33q-21 -21 -39 -6l-231 209q-6 8 -6 20.5z" />
<glyph unicode="&#x203a;" horiz-adv-x="505" d="M117 389q-11 14 8 33l147 190l-147 189q-19 19 -8 33q19 23 39 6l229 -209q7 -6 7 -18.5t-7 -20.5l-229 -209q-20 -17 -39 6z" />
<glyph unicode="&#x205f;" horiz-adv-x="455" />
<glyph unicode="&#x20ac;" horiz-adv-x="1406" d="M61 516v33h123q-6 43 -6 90v23h-117v32h119q10 141 69 258t151 193t206.5 118t237.5 42q106 0 197.5 -30.5t149.5 -77.5t91 -102.5t33 -107.5q0 -49 -27.5 -79.5t-70.5 -30.5q-37 0 -63 27t-30 85q-3 44 -24.5 86.5t-61 81t-108 62.5t-154.5 24q-206 0 -334 -136.5 t-129 -375.5v-37h588v-32h-586q6 -57 21 -113h565v-33h-557q62 -194 220.5 -310t367.5 -116q122 0 210.5 45.5t172.5 140.5l20 -16q-18 -33 -45.5 -67t-74 -73.5t-101 -69.5t-130 -50t-157.5 -20q-151 0 -285 62t-230.5 185.5t-123.5 288.5h-127z" />
<glyph unicode="&#x2122;" horiz-adv-x="1185" d="M61 1145l17 127h442l17 -127h-31q-21 48 -39 63q-22 19 -59 19q-30 0 -44 -11t-14 -42v-261q0 -40 17.5 -55t56.5 -20v-31h-250v31q39 5 56.5 20t17.5 55v261q0 31 -14 42t-44 11q-23 0 -40 -6.5t-28.5 -22t-16 -23.5t-13.5 -30h-31zM575 807v31q34 4 45 22.5t11 63.5 v231q0 44 -11.5 63t-44.5 23v31h136l145 -271l123 271h145v-31q-34 -4 -43.5 -22t-9.5 -64v-231q0 -46 9.5 -64t43.5 -22v-31h-213v31q33 4 44.5 23t11.5 63v223l-133 -291h-15l-137 262v-194q0 -44 11.5 -63t43.5 -23v-31h-162z" />
<glyph unicode="&#x25fc;" horiz-adv-x="921" d="M0 0v922h922v-922h-922z" />
</font>
</defs>
</svg>
