<?xml version="1.0" standalone="no"?>
<!DOCTYPE svg PUBLIC "-//W3C//DTD SVG 1.1//EN" "http://www.w3.org/Graphics/SVG/1.1/DTD/svg11.dtd" >
<svg xmlns="http://www.w3.org/2000/svg" xmlns:xlink="http://www.w3.org/1999/xlink" version="1.1">
<metadata></metadata>
<defs>
<font id="quincy_cflight" horiz-adv-x="1056" >
<font-face units-per-em="2048" ascent="1638" descent="-410" />
<missing-glyph horiz-adv-x="378" />
<glyph unicode="&#xfb01;" horiz-adv-x="1132" d="M41 854v41q86 14 120 35t34 67q0 199 92.5 299.5t255.5 100.5q116 0 184 -44t68 -110q0 -67 -70 -67q-29 0 -53 16.5t-42.5 40t-40 47.5t-56 40.5t-78.5 16.5q-31 0 -52.5 -10t-34.5 -26.5t-19.5 -46t-8.5 -59.5t-2 -75v-145q0 -37 19.5 -49.5t82.5 -12.5h142v-63l-142 4 q-63 1 -82.5 -11t-19.5 -50v-650q0 -54 36.5 -75.5t145.5 -28.5v-39h-471v39q84 8 115 29.5t31 74.5v654q0 33 -10 45t-31 12h-113zM672 854v35l211 49q30 8 48.5 -7t18.5 -48v-744q0 -50 29 -71t102 -29v-39h-405v39q73 8 102 29t29 71v594q0 74 -25 101t-110 20z" />
<glyph unicode="&#xfb02;" horiz-adv-x="1081" d="M41 854v41q86 14 120 35t34 67v31q0 180 105.5 274.5t270.5 94.5q166 0 262.5 -97.5t96.5 -310.5v-862q0 -51 27 -63t79 -5v-20q-18 -21 -55.5 -36t-77.5 -15q-117 0 -117 133v850q0 183 -68.5 274.5t-211.5 91.5q-45 0 -75 -11t-48.5 -29.5t-28.5 -54t-13 -74t-3 -99.5 v-94q0 -37 19.5 -49.5t82.5 -12.5h142v-63l-142 4q-63 1 -82.5 -11t-19.5 -50v-650q0 -54 36.5 -75.5t145.5 -28.5v-39h-471v39q84 8 115 29.5t31 74.5v654q0 33 -10 45t-31 12h-113z" />
<glyph horiz-adv-x="0" />
<glyph horiz-adv-x="682" />
<glyph unicode=" "  horiz-adv-x="378" />
<glyph unicode="&#x09;" horiz-adv-x="378" />
<glyph unicode="&#xa0;" horiz-adv-x="378" />
<glyph unicode="!" horiz-adv-x="403" d="M92 1157q0 69 29 108.5t82 39.5q52 0 80 -39.5t28 -108.5q0 -79 -20.5 -201.5t-42.5 -278t-25 -310.5h-43q-3 155 -25 310.5t-42.5 278t-20.5 201.5zM98 94q0 43 31 75t74 32q41 0 72.5 -32t31.5 -75q0 -44 -31 -75t-73 -31q-43 0 -74 31t-31 75z" />
<glyph unicode="&#x22;" horiz-adv-x="493" d="M74 1272q-3 35 14.5 57.5t50.5 22.5q34 0 52.5 -22.5t15.5 -57.5l-47 -348q-8 -35 -21 -35q-10 0 -18 35zM287 1272q-3 35 14.5 57.5t50.5 22.5q34 0 52.5 -22.5t15.5 -57.5l-47 -348q-8 -35 -21 -35q-10 0 -18 35z" />
<glyph unicode="#" horiz-adv-x="1058" d="M51 375v33h234l129 501h-221v33h229l113 434h38l-112 -434h282l113 434h39l-113 -434h226v-33h-234l-129 -501h221v-33h-229l-113 -436h-39l113 436h-283l-112 -436h-39l112 436h-225zM324 408h282l129 501h-282z" />
<glyph unicode="$" horiz-adv-x="954" d="M84.5 342.5q-7.5 60.5 2 98.5t32.5 38q20 0 24 -16q37 -116 115.5 -190t185.5 -93v453l-4 2q-81 29 -139.5 59.5t-107 71.5t-73 94t-24.5 119q0 124 92 206.5t256 92.5v133h35v-131h10q168 0 306 -80q24 -60 31.5 -121t-2 -99t-31.5 -38q-20 0 -25 16q-37 119 -114 189 t-175 82v-443l8 -2q148 -53 198 -78q173 -87 195 -229q3 -22 3 -45q0 -74 -33 -132t-91 -94t-128.5 -55.5t-151.5 -23.5v-127h-35v127h-2q-99 0 -172.5 24t-154.5 70q-23 61 -30.5 121.5zM225 1026q0 -87 55.5 -136.5t163.5 -90.5v434h-12q-105 0 -156 -60.5t-51 -146.5z M479 176h35q104 2 166.5 53.5t62.5 155.5q0 44 -14 78t-35 56.5t-57 41.5t-68.5 31t-79.5 28q-7 2 -10 3v-447z" />
<glyph unicode="%" horiz-adv-x="1275" d="M102 963q0 128 95 225.5t213 97.5q89 0 176 -25t157 -50t119 -25q98 0 174 106l60 -39l-830 -1253h-135l823 1167q-47 -47 -116 -47q-15 0 -32 2.5t-30 4.5t-34.5 8.5t-32 10t-35.5 13t-31.5 12t-35.5 14.5t-32 13q39 -61 39 -141q0 -127 -95 -224.5t-214 -97.5 q-94 0 -148.5 67.5t-54.5 160.5zM231 989q0 -58 10 -102t37.5 -75.5t71.5 -31.5q68 0 101.5 71.5t33.5 180.5q0 90 -27.5 149.5t-90.5 59.5q-68 0 -102 -72t-34 -180zM662 207q0 126 94.5 223.5t212.5 97.5q95 0 150 -67t55 -160q0 -128 -95 -226t-215 -98q-94 0 -148 67.5 t-54 162.5zM788 231q0 -57 10 -100.5t37.5 -74.5t71.5 -31q69 0 103 71t34 178q0 58 -9.5 102t-37 75.5t-71.5 31.5q-69 0 -103.5 -71.5t-34.5 -180.5z" />
<glyph unicode="&#x26;" horiz-adv-x="1501" d="M82 391q0 73 25.5 134t64.5 100.5t87.5 67.5t93.5 40t83 12q-90 21 -151.5 94.5t-61.5 174.5q0 126 96.5 208.5t264.5 82.5q145 0 236 -60.5t91 -152.5q0 -43 -20.5 -68t-54.5 -25t-57 24.5t-23 68.5q0 83 -39.5 122t-126.5 39q-100 0 -156.5 -53t-56.5 -153 q0 -118 78 -210.5t207 -129.5l-19 -45q-59 22 -123 22q-127 0 -195.5 -77t-68.5 -201q0 -117 61.5 -202t162.5 -126t227 -41q103 0 186.5 28.5t136 77t80 109.5t27.5 129q0 107 -61.5 169t-141.5 62q-57 0 -91 -27t-34 -69q0 -32 22 -57h-47q-49 35 -49 88q0 43 29.5 80.5 t76 67t103 58.5t113.5 60.5t103.5 66t76 82.5t29.5 103q0 94 -67 126t-146 -24l-25 27q59 86 182 86q91 0 150 -55.5t59 -151.5q0 -27 -6.5 -51.5t-14.5 -44.5t-28 -42t-34.5 -37t-48 -37t-54 -35t-66.5 -37t-72.5 -37t-84.5 -41.5t-90 -44.5q168 0 269 -83t103 -208 q0 -109 -79.5 -199.5t-222.5 -143t-320 -52.5q-165 0 -296 45t-211.5 139.5t-80.5 226.5z" />
<glyph unicode="'" horiz-adv-x="280" d="M74 1272q-3 35 14.5 57.5t50.5 22.5q34 0 52.5 -22.5t15.5 -57.5l-47 -348q-8 -35 -21 -35q-10 0 -18 35z" />
<glyph unicode="(" horiz-adv-x="616" d="M92 606q0 274 111 519.5t286 412.5q17 14 39 14h7q20 0 27.5 -8t-3.5 -18q-155 -147 -235.5 -388.5t-77.5 -531.5q-3 -285 75 -523.5t228 -385.5q17 -13 13 -25t-23 -12h-11q-22 0 -39 14q-175 167 -286 412.5t-111 519.5z" />
<glyph unicode=")" horiz-adv-x="616" d="M54.5 1544q7.5 8 27.5 8h6q22 0 39 -14q175 -167 286 -412.5t111 -519.5t-111 -519.5t-286 -412.5q-17 -14 -39 -14h-10q-19 0 -23 12t13 25q150 147 228 385.5t75 523.5q3 289 -78 531t-236 389q-10 10 -2.5 18z" />
<glyph unicode="*" horiz-adv-x="657" d="M51 898q5 33 35 40l164 37q20 4 29 -6.5t-3 -24.5l-112 -137q-23 -23 -52.5 -12t-45.5 41q-20 29 -15 62zM51 1093q-5 33 15 60q16 31 45.5 42t52.5 -13l112 -138q12 -12 3 -22t-29 -6l-164 37q-30 7 -35 40zM252 754l59 159q6 15 16.5 15t14.5 -15l61 -159 q11 -28 -14 -49t-61 -21q-35 0 -61 21t-15 49zM252 1235q-11 28 15 49t61 21q36 0 61 -21t14 -49l-61 -160q-4 -15 -14.5 -15t-16.5 15zM379 968.5q10 11.5 29 6.5l165 -37q27 -6 32.5 -40t-13.5 -62q-16 -30 -44.5 -40.5t-51.5 11.5l-115 137q-12 13 -2 24.5zM379 1021.5 q-10 10.5 2 22.5l115 138q23 24 51.5 13t44.5 -42q19 -26 13.5 -61t-32.5 -39l-165 -37q-19 -5 -29 5.5z" />
<glyph unicode="+" horiz-adv-x="962" d="M102 492v47h357v356h47v-356h354v-47h-354v-357h-47v357h-357z" />
<glyph unicode="," horiz-adv-x="342" d="M61 98q0 45 31.5 73t73.5 28q56 0 85.5 -41.5t29.5 -100.5q0 -67 -37 -133t-101 -106l-20 24q26 23 46.5 60.5t20.5 60.5q0 35 -32 35q-40 0 -68.5 28t-28.5 72z" />
<glyph unicode="-" horiz-adv-x="757" d="M102 522v33h553v-33h-553z" />
<glyph unicode="." horiz-adv-x="372" d="M82 94q0 43 31 75t73 32q41 0 73 -32t32 -75q0 -44 -31.5 -75t-73.5 -31q-43 0 -73.5 31t-30.5 75z" />
<glyph unicode="/" horiz-adv-x="759" d="M72 0l546 1313h70l-547 -1313h-69z" />
<glyph unicode="0" horiz-adv-x="1138" d="M72 643q0 102 18.5 197t58.5 180t97 148t140 100t183 37t183 -37t140.5 -100t97.5 -148t58.5 -180t18.5 -197q0 -129 -30.5 -245.5t-89.5 -211t-156.5 -150.5t-221.5 -56q-100 0 -183 37t-140 100t-97 148t-58.5 180t-18.5 198zM250 698q0 -132 17 -245.5t54 -212.5 t105.5 -156t161.5 -57q299 0 299 563q0 102 -10 193.5t-34 180t-61.5 152t-96 102.5t-132.5 39q-303 0 -303 -559z" />
<glyph unicode="1" horiz-adv-x="618" d="M61 0v35q102 8 139.5 29.5t37.5 74.5v903q0 36 -4 54.5t-13.5 27.5t-26 9.5t-42.5 -0.5l-84 -7v33l260 121q23 12 34.5 7.5t15 -13.5t3.5 -27v-1108q0 -54 37 -75t139 -29v-35h-496z" />
<glyph unicode="2" horiz-adv-x="1077" d="M82 0q0 91 40.5 175t105.5 150.5t143 130t156.5 124t143.5 121t105.5 133t40.5 149.5q0 51 -16.5 99t-47.5 88.5t-83 65t-117 24.5q-119 0 -192.5 -76t-73.5 -183q0 -48 16 -82t16 -51q0 -46 -24.5 -65t-58.5 -19q-51 0 -82 48.5t-31 121.5q0 49 14.5 97t48 94.5 t82.5 81.5t123.5 56.5t165.5 21.5q203 0 312.5 -96.5t109.5 -254.5q0 -83 -35 -154t-94.5 -124.5t-132.5 -101.5t-154.5 -96t-155 -96t-138.5 -112.5t-101 -136.5h547q112 0 160.5 30.5t85.5 121.5h34l-30 -148q-23 -99 4 -137h-887z" />
<glyph unicode="3" horiz-adv-x="1101" d="M72 344q0 125 90 125q33 0 48 -17t19 -43t17 -81.5t35 -108.5q35 -88 94 -140t164 -52q141 0 226 96t85 260q0 151 -71 223t-179 72q-63 0 -170 -39l-20 49q43 15 65 22.5t57.5 20.5t53 21.5t44.5 21.5t40 24.5t31 27t26.5 31.5t17.5 36t12 42.5t3 49.5q0 119 -65 197 t-177 78q-107 0 -165 -70t-58 -186q0 -54 -16 -84.5t-62 -30.5q-50 0 -74 30t-24 80q0 55 26 108.5t76 98t132 72t184 27.5q189 0 288 -79.5t99 -203.5q0 -51 -18 -94t-44 -72.5t-65 -55t-71 -40.5t-73 -29q53 7 115.5 -11t119 -57t94.5 -109t38 -157q0 -118 -66 -214 t-180 -149.5t-252 -53.5q-196 0 -323 103.5t-127 260.5z" />
<glyph unicode="4" horiz-adv-x="1107" d="M51 436l617 869l153 -33v-805h205v-125h-205v-203q0 -53 34 -74.5t124 -29.5v-35h-457v35q88 8 122 29.5t34 74.5v203h-594zM147.5 478q4.5 -11 24.5 -11h506v774l-522 -733q-13 -19 -8.5 -30z" />
<glyph unicode="5" horiz-adv-x="1099" d="M72 340q0 127 92 127q33 0 46.5 -16.5t15 -41.5t13.5 -78.5t37 -105.5q37 -79 106.5 -138.5t168.5 -59.5q133 0 221 100t88 262q0 108 -39 200t-124 153t-203 61q-95 0 -167.5 -37t-115.5 -100h-39l49 606h410q141 0 208 6.5t103 21.5l-20 -172h-670l-31 -391 q52 58 146 95.5t192 37.5q66 0 131.5 -16.5t126.5 -52t108 -86t75 -124.5t28 -161q0 -204 -142 -327t-362 -123q-196 0 -324 100t-128 260z" />
<glyph unicode="6" horiz-adv-x="1046" d="M72 588q1 107 18.5 206.5t58 193.5t100 163.5t151.5 111.5t206 42q147 0 223 -66l-22 -35q-78 43 -158 43q-84 0 -154 -34.5t-116 -89.5t-78.5 -126.5t-46.5 -144t-14 -143.5q0 -43 19 -46q8 -1 15 9q50 59 131 99t183 40q171 0 284 -116t113 -281q0 -83 -30 -159.5 t-85.5 -138.5t-143 -99t-194.5 -37q-103 0 -184 35t-132 92.5t-84.5 137.5t-47 164.5t-12.5 178.5zM238 412q0 -94 37 -181t110.5 -145.5t165.5 -58.5q68 0 121.5 32.5t84.5 86t46.5 116t15.5 129.5q0 152 -76 250t-202 98q-123 0 -213 -90.5t-90 -236.5z" />
<glyph unicode="7" horiz-adv-x="1003" d="M72 997l84 291q63 -16 313 -16h483l-643 -1272h-123l617 1081q11 20 3.5 33.5t-30.5 13.5h-403q-51 0 -82.5 -3.5t-67.5 -15.5t-61 -40t-43 -72h-47z" />
<glyph unicode="8" horiz-adv-x="1095" d="M72 354q0 241 272 338q-90 43 -140 119.5t-50 171.5q0 140 108 231t287 91t280 -89.5t101 -218.5q0 -183 -201 -276q142 -47 218.5 -137t76.5 -207q0 -167 -140 -282t-358 -115q-207 0 -330.5 105t-123.5 269zM207 377q0 -96 37.5 -174t116.5 -127t188 -49 q150 0 229.5 83t79.5 212q0 118 -74.5 182t-255.5 112q-46 12 -90 12.5t-86.5 -13t-74 -42t-51 -79t-19.5 -117.5zM299 1038q0 -191 248 -258q69 -16 118 -4t81 49t46.5 82.5t14.5 96.5q0 49 -14 92t-44 80t-84 59t-126 22q-122 0 -181 -62t-59 -157z" />
<glyph unicode="9" horiz-adv-x="1046" d="M61 870q0 83 30 160t85.5 139t143 99t194.5 37q103 0 184 -35t132.5 -93t85 -138t47 -164.5t12.5 -178.5q-1 -107 -18.5 -206t-58 -193.5t-100.5 -163.5t-152 -111t-206 -42q-149 0 -223 65l23 35q78 -43 157 -43q84 0 154 34.5t116.5 89.5t78.5 126.5t46.5 144 t14.5 143.5q0 43 -20 46q-8 1 -15 -9q-50 -59 -130.5 -99t-182.5 -40q-171 0 -284.5 116t-113.5 281zM227 893q0 -152 76.5 -250t202.5 -98q123 0 213 90.5t90 236.5q0 94 -37 181t-110.5 145.5t-165.5 58.5q-68 0 -121.5 -32.5t-84.5 -86t-47 -116.5t-16 -129z" />
<glyph unicode=":" horiz-adv-x="374" d="M82 782q0 43 31 75t73 32q41 0 73 -32t32 -75q0 -44 -31.5 -75t-73.5 -31q-43 0 -73.5 31t-30.5 75zM84 94q0 43 31 75t73 32q41 0 73 -32t32 -75q0 -44 -31.5 -75t-73.5 -31q-43 0 -73.5 31t-30.5 75z" />
<glyph unicode=";" horiz-adv-x="342" d="M61 98q0 45 31.5 73t73.5 28q56 0 85.5 -41.5t29.5 -100.5q0 -67 -37 -133t-101 -106l-20 24q26 23 46.5 60.5t20.5 60.5q0 35 -32 35q-40 0 -68.5 28t-28.5 72zM63 780q0 43 31 75t74 32q41 0 72.5 -32t31.5 -75q0 -44 -31 -75t-73 -31q-43 0 -74 31t-31 75z" />
<glyph unicode="&#x3c;" horiz-adv-x="956" d="M102 485v60l752 364v-63l-676 -332l676 -332v-63z" />
<glyph unicode="=" horiz-adv-x="962" d="M102 307v47h758v-47h-758zM102 676v47h758v-47h-758z" />
<glyph unicode="&#x3e;" horiz-adv-x="956" d="M102 119v63l676 332l-676 332v63l752 -364v-60z" />
<glyph unicode="?" horiz-adv-x="921" d="M72 973q0 146 112 239t295 93q174 0 272.5 -84t98.5 -220q0 -58 -18.5 -106.5t-48.5 -83t-66.5 -67.5t-74.5 -70t-70.5 -79.5t-55.5 -105.5t-29 -141h-59q-5 83 5.5 152.5t31.5 117t47.5 88.5t54.5 75.5t51 68t37.5 77t14.5 93.5q0 105 -65 166t-167 61t-148 -60.5 t-46 -142.5q0 -26 18.5 -76t18.5 -79q0 -30 -29.5 -55t-65.5 -25q-49 0 -81.5 47t-32.5 117zM354 94q0 43 31 75t74 32q41 0 72.5 -32t31.5 -75q0 -44 -31 -75t-73 -31q-43 0 -74 31t-31 75z" />
<glyph unicode="@" horiz-adv-x="1423" d="M61 510q0 147 52 274.5t141 215.5t211 138t258 50q133 0 250 -47.5t203 -132.5t136 -212t50 -278q0 -184 -69 -287.5t-191 -103.5q-161 0 -197 170q-35 -64 -115.5 -117t-181.5 -53q-84 0 -145.5 46t-61.5 144q0 50 20 89t68.5 74.5t137 63t219.5 48.5q45 4 45 39 q0 207 -199 207q-59 0 -88 -18.5t-29 -76.5q0 -53 -16 -74.5t-53 -21.5q-68 0 -68 66q0 57 52 98.5t122 59.5t142 18q133 0 195.5 -68t62.5 -205v-342q0 -104 80 -104q45 0 76.5 30t46 79.5t20.5 95.5t6 96q0 132 -36.5 253t-103 216t-170 152t-229.5 57q-158 0 -276 -81 t-178 -219t-60 -312q0 -139 40.5 -260.5t115.5 -211.5t188.5 -142t251.5 -52q73 0 125 14l6 -35q-83 -20 -180 -20q-190 0 -343.5 86.5t-242 242.5t-88.5 351zM532 342q0 -68 36.5 -107.5t103.5 -39.5q92 0 155.5 64.5t63.5 148.5v75q0 34 -10 50.5t-41 13.5 q-75 -9 -132.5 -28t-89.5 -40.5t-52.5 -47.5t-27 -47t-6.5 -42z" />
<glyph unicode="A" horiz-adv-x="1452" d="M41 0v37q71 14 108.5 42t67.5 95l404 952q38 85 38 146l109 10l455 -1055q46 -111 79 -146t109 -42v-39h-436v37q48 7 74 17.5t34 27.5t3.5 36t-19.5 50l-68 156q-19 39 -45.5 55t-72.5 16h-412q-94 0 -117 -61l-67 -156q-12 -29 -12 -52q-1 -27 17 -45q32 -33 122 -44 v-37h-371zM421.5 466.5q7.5 -15.5 31.5 -15.5h440q20 0 32.5 15t2.5 36l-234 545q-9 25 -18 25q-11 0 -23 -30l-227 -534q-12 -26 -4.5 -41.5z" />
<glyph unicode="B" horiz-adv-x="1245" d="M61 0v37q36 7 53.5 12t35 16t24 28t6.5 44v1002q0 49 -26 66.5t-93 29.5v37h588q207 0 324 -76t117 -217q0 -111 -75.5 -187.5t-221.5 -111.5q177 -28 273.5 -113t96.5 -221q0 -152 -113.5 -249t-297.5 -97q-26 0 -175 7t-289 7t-227 -14zM344 147q0 -92 72 -92h280 q303 0 303 283q0 81 -25 138.5t-84 100.5t-160.5 64t-248.5 21q-76 0 -106.5 -16.5t-30.5 -67.5v-431zM344 795q0 -51 28.5 -66.5t96.5 -15.5h166q291 0 291 262q0 121 -67.5 184.5t-215.5 63.5h-174q-67 0 -96 -16.5t-29 -67.5v-344z" />
<glyph unicode="C" horiz-adv-x="1298" d="M61 639q0 153 56 281t150 211t214 128.5t250 45.5q108 0 200.5 -30.5t151.5 -78t92 -103.5t33 -110q0 -51 -29.5 -84t-76.5 -33q-41 0 -69 29.5t-32 89.5q-3 44 -23.5 87t-59 82t-104.5 63t-150 24q-199 0 -321.5 -135.5t-123.5 -370.5q0 -185 80 -331.5t218 -227 t308 -80.5q118 0 205.5 45.5t171.5 139.5l25 -21q-18 -33 -45.5 -67t-74 -73.5t-101.5 -69.5t-131.5 -50t-159.5 -20q-127 0 -244 45.5t-208.5 128t-146.5 209t-55 276.5z" />
<glyph unicode="D" horiz-adv-x="1284" d="M61 0v37q36 7 53.5 12t35 16t24 28t6.5 44v1002q0 49 -26 66.5t-93 29.5v37h457q105 0 199 -17.5t184.5 -62.5t155.5 -114t105 -179.5t40 -251.5q0 -158 -49.5 -282t-138.5 -202t-209.5 -118.5t-265.5 -40.5q-39 0 -138 4t-141 4q-98 0 -199 -12zM344 135q0 -84 188 -84 q110 0 196.5 32t143 86.5t94 131.5t53 162t15.5 184q0 96 -15 177.5t-52.5 156.5t-95 127.5t-147.5 83.5t-206 31h-49q-67 0 -96 -16.5t-29 -67.5v-1004z" />
<glyph unicode="E" horiz-adv-x="1132" d="M61 0v37q36 7 53.5 12t35 16t24 28t6.5 44v998q0 52 -26 70t-93 30v37h914q30 0 33 -27q13 -108 39 -215h-37q-36 97 -99 144t-166 47h-276q-66 0 -95.5 -19t-29.5 -74v-368q0 -53 28.5 -69.5t96.5 -16.5h219q85 0 118 34t46 111h29v-348h-29q-7 38 -16 62.5t-26.5 46 t-47.5 31.5t-74 10h-219q-68 0 -96.5 -16.5t-28.5 -69.5v-392q0 -55 40.5 -72.5t164.5 -17.5h235q55 0 94.5 9t65.5 29.5t37 33.5t29 39l49 78h37q-48 -91 -62 -213q-3 -29 -33 -29h-940z" />
<glyph unicode="F" horiz-adv-x="1081" d="M61 0v37q36 7 53.5 12t35 16t24 28t6.5 44v998q0 52 -26 70t-93 30v37h914q30 0 33 -27q13 -108 39 -215h-37q-36 97 -99 144t-166 47h-276q-66 0 -95.5 -19t-29.5 -74v-368q0 -53 28.5 -69.5t96.5 -16.5h219q83 0 116.5 31t47.5 94h29v-307h-29q-14 64 -47.5 96.5 t-116.5 32.5h-219q-68 0 -96.5 -16.5t-28.5 -69.5v-398q0 -52 28 -69.5t111 -30.5v-37h-422z" />
<glyph unicode="G" horiz-adv-x="1363" d="M61 629q0 157 55.5 287t149 214t214.5 129.5t255 45.5q108 0 199.5 -29t150 -74.5t91 -100.5t32.5 -110q0 -52 -27.5 -83t-76.5 -31q-39 0 -65.5 25.5t-32.5 70.5q-7 47 -27.5 90.5t-58 85t-103 67t-149.5 25.5q-203 0 -326 -135.5t-123 -374.5q0 -192 84 -352t225 -250 t306 -90q96 0 147 35.5t51 120.5v143q0 60 -6 94t-26 59.5t-55.5 36t-96.5 15.5v37h465v-37q-83 -10 -106 -49.5t-23 -155.5v-148q0 -123 6 -176q1 -13 -9 -17.5t-24 3.5q-52 23 -96 23q-42 0 -150 -21.5t-192 -21.5q-184 0 -332 76t-237 225.5t-89 347.5z" />
<glyph unicode="H" horiz-adv-x="1382" d="M61 0v37q36 7 53.5 12t35 16t24 28t6.5 44v998q0 52 -26 70t-93 30v37h402v-37q-67 -12 -93 -30t-26 -70v-406q0 -38 16.5 -55t51.5 -17h559q36 0 52.5 17t16.5 55v406q0 51 -26 69.5t-94 30.5v37h401v-37q-67 -12 -93 -30.5t-26 -69.5v-998q0 -51 25.5 -68.5t93.5 -31.5 v-37h-401v37q36 7 53.5 12t35.5 16t24.5 28t6.5 44v400q0 38 -16.5 54.5t-50.5 16.5h-563q-34 0 -50 -16.5t-16 -54.5v-400q0 -51 25 -68.5t94 -31.5v-37h-402z" />
<glyph unicode="I" horiz-adv-x="524" d="M61 0v37q36 7 53.5 12t35 16t24 28t6.5 44v998q0 52 -26 70t-93 30v37h402v-37q-67 -12 -93 -30t-26 -70v-998q0 -51 25 -68.5t94 -31.5v-37h-402z" />
<glyph unicode="J" horiz-adv-x="692" d="M-41 166q0 42 23 70t65 28q41 0 60.5 -28.5t19.5 -71.5q0 -50 29 -92.5t86 -42.5q55 0 81.5 38t26.5 103v965q0 52 -29 70t-110 30v37h420v-37q-67 -12 -93 -30.5t-26 -69.5v-867q0 -288 -293 -288q-130 0 -195 55.5t-65 130.5z" />
<glyph unicode="K" horiz-adv-x="1275" d="M61 0v37q36 7 53.5 12t35 16t24 28t6.5 44v998q0 52 -26 70t-93 30v37h402v-37q-67 -12 -93 -30t-26 -70v-576l537 549q30 30 36 55t-8.5 39.5t-36 22.5t-45.5 10v37h365v-37q-61 -4 -118.5 -31t-131.5 -104l-330 -338q-19 -21 -20 -44t8.5 -40t30.5 -41l356 -438 q39 -49 72.5 -80.5t63.5 -47.5t47 -21t45 -11q7 -1 10 -2v-37h-422v37q24 0 42 6t28 17.5t4.5 32.5t-29.5 48l-338 408q-33 29 -57 29q-45 0 -77 -62t-32 -154v-225q0 -51 25 -68.5t94 -31.5v-37h-402z" />
<glyph unicode="L" horiz-adv-x="1105" d="M61 0v37q36 7 53.5 12t35 16t24 28t6.5 44v998q0 52 -26 70t-93 30v37h402v-37q-67 -12 -93 -30t-26 -70v-998q0 -94 97 -94h10l319 16q152 7 221 127l33 60h41l-43 -133q-22 -58 -22 -100q0 -7 1 -13h-940z" />
<glyph unicode="M" horiz-adv-x="1613" d="M61 0v37q36 7 53.5 12t36 16t25 28t6.5 44v998q0 51 -26.5 69.5t-94.5 30.5v37h295l465 -959l445 959h286v-37q-68 -12 -94 -30.5t-26 -69.5v-998q0 -51 25.5 -68.5t94.5 -31.5v-37h-401v37q36 7 53 12t35 16t24.5 28t6.5 44v1006l-473 -1018h-56l-499 1020v-1008 q0 -51 25 -68.5t91 -31.5v-37h-297z" />
<glyph unicode="N" horiz-adv-x="1312" d="M61 0v37q36 7 53.5 12t36 16t25 28t6.5 44v998q0 51 -26.5 69.5t-94.5 30.5v37h254l756 -1006v869q0 51 -26.5 69.5t-92.5 30.5v37h299v-37q-68 -12 -94.5 -30.5t-26.5 -69.5v-1135h-61l-827 1104v-967q0 -51 24 -68.5t90 -31.5v-37h-295z" />
<glyph unicode="O" horiz-adv-x="1427" d="M61 631q0 187 86.5 341.5t239.5 243.5t340 89q137 0 256.5 -50.5t203 -137t131.5 -207t48 -257.5q0 -187 -87 -341.5t-240 -243t-339 -88.5q-137 0 -256.5 50t-203 137t-131.5 207t-48 257zM246 700q0 -145 40.5 -269.5t109.5 -209.5t160.5 -132.5t193.5 -47.5 q64 0 124.5 18t117 59.5t98.5 103t67 156t25 210.5q0 144 -40.5 267.5t-109.5 208t-161.5 132t-194.5 47.5q-64 0 -124 -18t-116.5 -59.5t-98 -102.5t-66.5 -154.5t-25 -208.5z" />
<glyph unicode="P" horiz-adv-x="1167" d="M61 0v37q36 7 53.5 12t35 16t24 28t6.5 44v998q0 52 -26 70t-93 30v37h541q246 0 380 -98.5t134 -284.5q0 -188 -135 -291.5t-379 -103.5h-145q-62 0 -87.5 -26.5t-25.5 -84.5v-246q0 -52 28 -69.5t111 -30.5v-37h-422zM344 653q0 -58 25.5 -84t87.5 -26h145 q175 0 254.5 91.5t79.5 250.5q0 156 -79.5 246t-254.5 90h-160q-55 0 -76.5 -16.5t-21.5 -69.5v-482z" />
<glyph unicode="Q" horiz-adv-x="1427" d="M61 631q0 187 86.5 341.5t239.5 243.5t340 89q137 0 256.5 -50.5t203 -137t131.5 -207t48 -257.5q0 -176 -77.5 -323.5t-214.5 -239.5t-308 -108l252 -177q14 -10 33.5 -23t30.5 -20t25 -16t22 -13.5t17 -9t15.5 -6.5t12.5 -2q22 0 27 28.5t5 106.5q0 32 22.5 57t65.5 25 q40 0 61 -26t21 -66q0 -78 -74.5 -132t-179.5 -54q-108 0 -229 80l-322 233q-85 56 -133 56q-35 0 -52.5 -20t-21 -48.5t-7 -57.5t-21 -49t-53.5 -20q-39 0 -61.5 20.5t-22.5 61.5q0 57 44.5 98.5t131.5 54.5q-146 84 -230 234t-84 334zM246 700q0 -145 40.5 -269.5 t109.5 -209.5t160.5 -132.5t193.5 -47.5q64 0 124.5 18t117 59.5t98.5 103t67 156t25 210.5q0 144 -40.5 267.5t-109.5 208t-161.5 132t-194.5 47.5q-64 0 -124 -18t-116.5 -59.5t-98 -102.5t-66.5 -154.5t-25 -208.5z" />
<glyph unicode="R" horiz-adv-x="1226" d="M61 0v37q36 7 53.5 12t35 16t24 28t6.5 44v998q0 52 -26 70t-93 30v37h531q237 0 357 -89.5t120 -252.5q0 -124 -70.5 -199.5t-212.5 -116.5q-7 -3 -9.5 -6.5t0 -6.5t9.5 -5q81 -25 134 -90.5t77 -151.5q59 -190 95.5 -253.5t93.5 -63.5v-37h-41q-49 0 -83 5.5t-63 22 t-48.5 37t-39.5 60.5t-35.5 82t-37.5 112q-46 148 -123 206.5t-215 58.5q-92 0 -124 -25t-32 -86v-336q0 -52 28 -69.5t111 -30.5v-37h-422zM344 745q0 -59 25 -83.5t88 -24.5h159q287 0 287 287q0 141 -70.5 219t-230.5 78h-119q-78 0 -108.5 -16.5t-30.5 -69.5v-390z" />
<glyph unicode="S" horiz-adv-x="1075" d="M86 227q-4 31 -4 56q0 33 6 58q11 44 37 44q22 0 29 -20q50 -157 162 -245q109 -86 254 -85h10q119 2 191.5 61t72.5 178q0 29 -5.5 54t-13 45t-23.5 38t-29 31t-37 27t-40.5 22t-47 19.5t-48.5 17.5t-53 17.5t-53 17.5q-92 33 -159.5 68t-123.5 82t-84.5 108.5 t-28.5 136.5q0 152 120 249.5t333 97.5q191 0 352 -93q27 -69 35 -139q4 -31 4 -56q0 -33 -6 -58q-11 -44 -37 -44q-22 0 -29 21q-48 153 -151.5 234t-233.5 81q-62 0 -109 -20t-74 -54.5t-40.5 -75.5t-13.5 -87q0 -48 16 -87t41 -66t67 -51.5t81 -40t96 -34.5 q162 -59 215 -84q188 -91 228 -231q12 -42 12 -90q0 -73 -28.5 -132.5t-76.5 -99t-113.5 -67t-137.5 -39.5t-150 -12q-115 0 -200.5 28t-176.5 80q-27 69 -35 139z" />
<glyph unicode="T" horiz-adv-x="1187" d="M51 1018l31 244q2 10 20 14q66 -4 138 -4h706q73 0 139 4q19 -4 21 -14l31 -244h-43q-41 117 -90.5 155.5t-155.5 38.5q-61 0 -95.5 -5.5t-51.5 -22t-21 -35.5t-4 -57v-957q0 -52 37.5 -68.5t167.5 -29.5v-37h-574v37q130 13 167.5 29.5t37.5 68.5v957q0 38 -4 57 t-21 35.5t-51.5 22t-95.5 5.5q-106 0 -155.5 -38.5t-90.5 -155.5h-43z" />
<glyph unicode="U" horiz-adv-x="1310" d="M51 1235v37h402v-37q-67 -12 -93 -30t-26 -70v-584q0 -247 94 -371.5t266 -124.5q61 0 114 14t103 49t85.5 89t57 139t21.5 193v596q0 51 -29 69.5t-98 30.5v37h312v-37q-66 -12 -93.5 -30.5t-27.5 -69.5v-605q0 -267 -126.5 -408.5t-353.5 -141.5q-106 0 -194 32 t-154.5 95.5t-103.5 166t-37 234.5v627q0 52 -26 70t-93 30z" />
<glyph unicode="V" horiz-adv-x="1452" d="M41 1235v37h438v-37q-91 -14 -107 -43q-6 -10 -6 -24q0 -26 19 -64l373 -879q9 -18 16 -23.5t13.5 1t13.5 26.5l366 865q12 30 12 53q0 27 -17 45q-32 32 -122 43v37h371v-37q-71 -14 -108.5 -42t-67.5 -95l-404 -953q-38 -91 -38 -145h-115l-447 1044q-46 111 -80 146.5 t-110 44.5z" />
<glyph unicode="W" horiz-adv-x="2066" d="M41 1235v37h428v-37q-48 -8 -73.5 -17t-32.5 -26.5t-3.5 -34.5t17.5 -53l332 -868q10 -26 20.5 -26t20.5 26l217 565q13 31 15 65q1 8 0 16q0 26 -6 52q-8 34 -14 50.5t-18 45.5q-47 118 -83 156.5t-116 48.5v37h429v-37q-91 -14 -106 -42q-5 -9 -5 -22q0 -26 20 -67 l330 -868q10 -26 20.5 -26t20.5 26l328 858q10 28 10 50q0 30 -18 48q-32 32 -121 43v37h372v-37q-73 -14 -111.5 -42t-64.5 -95l-366 -953q-37 -99 -37 -145h-105l-309 807l-256 -662q-37 -99 -37 -145h-104l-402 1044q-43 110 -79 146t-113 45z" />
<glyph unicode="X" horiz-adv-x="1349" d="M41 0v37q38 3 70 18t83 58t123.5 127.5t178.5 220.5l116 147l-301 428q-77 112 -125 152t-120 47v37h419v-37q-44 -6 -61.5 -15t-15 -32.5t33.5 -67.5l277 -395q254 324 275 429q2 11 2 21q0 48 -58 58q-8 1 -18 2v37h385v-37q-49 -4 -93.5 -32t-129 -119t-226.5 -273 l-104 -131l311 -444q79 -112 126.5 -152t119.5 -47v-37h-420v37q45 5 62.5 14.5t15 33t-32.5 67.5l-289 409q-262 -333 -289 -439q-4 -15 -4 -27q0 -45 51 -55q11 -2 23 -3v-37h-385z" />
<glyph unicode="Y" horiz-adv-x="1284" d="M31 1235v37h426v-37q-79 -18 -89 -49q-3 -6 -3 -14q0 -30 32 -78l277 -439q6 -9 14 -9t14 9l259 428q26 43 31 72.5t-11.5 45t-38 23t-55.5 11.5v37h366v-37q-75 -8 -119.5 -40t-105.5 -130l-276 -447q-29 -44 -29 -114v-367q0 -52 32 -69.5t130 -30.5v-37h-484v37 q97 13 128.5 30.5t31.5 69.5v367q0 12 -1.5 22.5t-6.5 21.5t-8.5 17.5t-13 21.5t-13.5 23l-274 437q-58 94 -102.5 130.5t-110.5 57.5z" />
<glyph unicode="Z" horiz-adv-x="1142" d="M31 0l805 1180q5 8 6.5 14.5t-2 12.5t-11.5 10.5t-24 7t-39 2.5h-320q-79 0 -134.5 -14t-89.5 -43.5t-52 -61.5t-35 -82h-43l33 246h967l-797 -1166q-20 -29 -10.5 -45t47.5 -16h409q68 0 118 12.5t85 39.5t58 57.5t47 76.5h43l-45 -231h-1016z" />
<glyph unicode="[" horiz-adv-x="512" d="M92 -324v1862q246 0 369 16v-28q0 -23 -41 -29l-201 -33v-1714l201 -33q41 -6 41 -28v-29q-123 16 -369 16z" />
<glyph unicode="\" horiz-adv-x="759" d="M72 1313h69l547 -1313h-70z" />
<glyph unicode="]" horiz-adv-x="512" d="M51 -311q0 22 41 28l201 33v1714l-201 33q-41 6 -41 29v28q123 -16 369 -16v-1862q-246 0 -369 -16v29z" />
<glyph unicode="^" horiz-adv-x="864" d="M102.5 937.5q-3.5 13.5 10.5 33.5l305 407q14 21 28 0l304 -407q14 -20 11 -33.5t-16 -13.5h-32q-4 0 -7.5 1t-8.5 5t-8 7t-11 11.5t-14 14.5l-232 258l-233 -260q-30 -33 -40 -36q-3 -1 -7 -1h-31q-15 0 -18.5 13.5z" />
<glyph unicode="_" horiz-adv-x="1253" d="M102 -41h1049v-25h-1049v25z" />
<glyph unicode="`" horiz-adv-x="567" d="M102 1341q0 25 21 43.5t47 18.5q34 0 74 -43l202 -215q26 -26 15 -47q-19 -29 -55 -6l-240 161q-64 41 -64 88z" />
<glyph unicode="a" horiz-adv-x="997" d="M61 213q0 62 27 111.5t91.5 94t184 77t291.5 51.5q41 4 41 53v45q0 115 -59 182.5t-178 67.5q-53 0 -87.5 -14t-49 -36.5t-21.5 -49.5t-10 -54t-10 -49.5t-26.5 -36.5t-53.5 -14q-39 0 -59.5 23t-20.5 65q0 73 61 123t146 70t184 20q176 0 252 -80.5t76 -247.5v-487 q0 -26 8 -41t23 -18t30 -1t35 9v-21q-12 -27 -45 -47t-70 -20q-53 0 -89.5 36t-37.5 115q0 13 -9 12t-17 -12q-59 -72 -151.5 -111.5t-190.5 -39.5q-112 0 -188.5 56.5t-76.5 168.5zM217 246q0 -74 51.5 -125t147.5 -51q114 0 197 72.5t83 179.5v104q0 42 -16 60 q-12 14 -44 13q-10 0 -22 -1q-397 -50 -397 -252z" />
<glyph unicode="b" horiz-adv-x="1089" d="M20 1257v35l211 51q30 8 49 -7.5t19 -49.5v-457q0 -8 3.5 -13t12 -4t19.5 13q34 41 116 79t175 38q172 0 287.5 -128.5t115.5 -330.5q0 -116 -37 -211.5t-99 -156.5t-140.5 -94t-163.5 -33q-58 0 -114 15.5t-90 33.5t-65.5 33.5t-46.5 15.5q-17 0 -30.5 -15.5t-21 -33.5 t-18.5 -33.5t-24 -15.5q-22 0 -22 24v1129q0 36 -4.5 57.5t-18 37.5t-41.5 20q-15 2 -34 3q-17 0 -38 -2zM299 369q0 -68 18.5 -125t49 -95t70.5 -64t82 -38t85 -12q130 0 206.5 100t76.5 264q0 188 -97 313.5t-247 125.5q-33 0 -64.5 -6.5t-65 -23.5t-58 -44t-40.5 -71 t-16 -101v-223z" />
<glyph unicode="c" horiz-adv-x="989" d="M61 465q0 146 69 256t180 165.5t245 55.5q81 0 148.5 -22t109.5 -56.5t65 -75t23 -79.5q0 -42 -25 -68.5t-61 -26.5q-32 0 -55.5 20t-26.5 64q-9 80 -64.5 137.5t-162.5 57.5q-136 0 -217.5 -97t-81.5 -272q0 -133 58 -232t153 -148.5t211 -49.5q171 0 258 133l31 -26 q-14 -35 -44 -70t-75.5 -68t-113 -54t-144.5 -21q-97 0 -184 33.5t-153 93.5t-104.5 151t-38.5 199z" />
<glyph unicode="d" horiz-adv-x="1087" d="M61 459q0 112 37 205t99.5 153t143.5 92.5t171 32.5q50 0 100.5 -10.5t80.5 -21.5t54.5 -17t35 3.5t10.5 39.5v205q0 36 -4.5 57.5t-18.5 37.5q-12 16 -40 20q-15 2 -35 3q-17 0 -38 -2v35l211 51q30 8 49 -7.5t19 -49.5v-1159q0 -51 27 -63q17 -8 44 -8q16 0 35 3v-20 q-20 -21 -56.5 -36t-74.5 -15q-98 0 -120 94q-8 29 -35 29q-19 0 -47.5 -19t-57 -42.5t-80 -42.5t-112.5 -19q-171 0 -284.5 131t-113.5 340zM201 528q0 -191 96 -313.5t254 -122.5q43 0 82.5 11t77 36t60 73.5t22.5 115.5v254q0 80 -28.5 143t-75.5 98.5t-99.5 53.5 t-106.5 18q-134 0 -208 -99.5t-74 -267.5z" />
<glyph unicode="e" horiz-adv-x="964" d="M61 467q0 145 63.5 254.5t168.5 165t235 55.5q151 0 239.5 -74t88.5 -188q0 -67 -34.5 -106.5t-121 -61.5t-239.5 -27l-187 -8q-29 -1 -41 -16.5t-12 -48.5q0 -58 27 -114.5t74.5 -102.5t121 -74.5t158.5 -28.5q171 0 260 119l31 -25q-17 -31 -45 -61.5t-72 -63 t-109.5 -53t-140.5 -20.5q-128 0 -233.5 58t-168.5 168.5t-63 252.5zM213 594q0 -48 15.5 -61t52.5 -11l159 4q153 2 207.5 33.5t54.5 118.5q0 95 -52.5 155t-160.5 60q-88 0 -152.5 -45.5t-94 -111.5t-29.5 -142z" />
<glyph unicode="f" horiz-adv-x="733" d="M41 854v41q86 14 120 35t34 67q0 199 88.5 299.5t246.5 100.5q92 0 147.5 -32.5t55.5 -92.5q0 -44 -26 -62t-56 -18q-27 0 -47 15t-33.5 36t-28.5 42.5t-39 36.5t-57 15q-62 0 -85 -53.5t-23 -163.5v-145q0 -37 19.5 -49.5t82.5 -12.5h144v-65l-144 6q-15 1 -27 1 q-40 0 -55 -10q-20 -13 -20 -52v-650q0 -54 36.5 -75.5t145.5 -28.5v-39h-471v39q84 8 115 29.5t31 74.5v654q0 33 -10 45t-31 12h-113z" />
<glyph unicode="g" horiz-adv-x="1030" d="M31 -145q0 133 169 203q41 17 42 19q0 3 -9 4q-2 1 -4 1q-68 9 -112.5 49.5t-44.5 95.5q0 54 43 91t125 49q-150 90 -150 260q0 142 101 228.5t270 86.5q106 0 194 -37.5t131 -107.5v8q0 57 27 95q29 42 92 42q43 0 68.5 -21t25.5 -51q0 -39 -31 -54q-18 -10 -38 -10 q-14 0 -29 5q-17 5 -32 5q-22 0 -38.5 -13t-16.5 -36q0 -14 7 -32q13 -38 13 -102q0 -141 -99.5 -226t-267.5 -85q-42 0 -101 6t-79 6q-41 0 -62.5 -17t-21.5 -45q0 -51 88 -65l346 -60q154 -27 227.5 -73t73.5 -137q0 -93 -73 -167t-191 -112.5t-256 -38.5q-169 0 -278 62 t-109 174zM176 -121q0 -72 44.5 -121.5t111.5 -70.5t151 -21q137 0 222.5 57t85.5 154q0 60 -39.5 92.5t-122.5 44.5l-148 27q-58 10 -104 10q-83 0 -129 -31q-72 -49 -72 -141zM248 668q0 -135 69.5 -220.5t178.5 -85.5q93 0 136.5 65.5t43.5 168.5q0 135 -69 220t-179 85 q-94 0 -137 -65t-43 -168z" />
<glyph unicode="h" horiz-adv-x="1091" d="M31 1257v35l211 51q30 8 48.5 -7t18.5 -50v-407q0 -92 23 -92h1q8 1 19 10q1 0 23.5 22.5t43.5 38.5t56 37.5t80.5 33t95.5 11.5q129 0 214 -85t85 -253v-475q0 -35 14.5 -52.5t38.5 -18t54 2.5v-20q-18 -21 -55.5 -36t-77.5 -15q-117 0 -117 133v434q0 135 -63.5 215 t-178.5 80t-185.5 -81.5t-70.5 -213.5v-416q0 -50 29 -71t102 -29v-39h-405v39q73 8 102 29t29 71v1002q0 37 -4 57.5t-18 37t-41 20.5q-14 2 -34 3q-17 0 -38 -2z" />
<glyph unicode="i" horiz-adv-x="512" d="M51 0v39q76 8 105.5 29t29.5 71v594q0 74 -24 101q-19 21 -77 21q-15 0 -32 -1v35l209 49q30 8 49 -7t19 -48v-744q0 -50 29 -71t102 -29v-39h-410zM147 1278q0 40 26.5 66t64.5 26q40 0 66 -26t26 -66t-26 -66t-66 -26q-38 0 -64.5 26t-26.5 66z" />
<glyph unicode="j" horiz-adv-x="442" d="M-111 -291q0 33 17.5 53.5t48.5 20.5q30 0 53.5 -22.5t37 -49t33.5 -49t42 -22.5q45 0 45 106v987q0 74 -25 101q-20 21 -78 21q-15 0 -32 -1v35l211 49q31 8 49 -6.5t18 -48.5v-1018q0 -127 -66.5 -200t-179.5 -73q-73 0 -123.5 30.5t-50.5 86.5zM127 1278 q0 39 26.5 65.5t65.5 26.5t65.5 -26.5t26.5 -65.5t-26.5 -65.5t-65.5 -26.5t-65.5 26.5t-26.5 65.5z" />
<glyph unicode="k" horiz-adv-x="1013" d="M31 1257v35l211 51q30 8 48.5 -7t18.5 -50v-756q0 -28 12.5 -34.5t32.5 10.5l334 303q20 18 20 32q0 23 -50 36l-52 10v37h320v-37q-23 -3 -41.5 -8t-29.5 -8t-26.5 -13.5t-20 -14t-23 -20.5t-23.5 -22l-242 -213l334 -459q14 -19 25 -32t23.5 -22.5t19 -14.5t21 -9 t19.5 -5t25 -3.5t27 -3.5v-39h-355v39q60 8 67 20q1 2 1 6q0 15 -25 52l-219 299q-25 32 -42 41.5t-42 9.5q-38 0 -64 -37t-26 -102v-189q0 -50 29 -71t102 -29v-39h-405v39q73 8 102 29t29 71v1002q0 37 -4 57.5t-18 37t-41 20.5q-14 2 -34 3q-17 0 -38 -2z" />
<glyph unicode="l" horiz-adv-x="450" d="M20 1257v35l211 51q30 8 49 -7.5t19 -49.5v-1159q0 -35 14.5 -52.5t38.5 -18t54 2.5v-20q-20 -21 -57 -36t-77 -15q-116 0 -116 133v1020q0 36 -4.5 57.5t-18 37.5t-41.5 20q-15 2 -34 3q-17 0 -38 -2z" />
<glyph unicode="m" horiz-adv-x="1626" d="M51 850v39l211 49q30 8 49 -7.5t19 -51.5q0 -94 23 -94h1q7 1 15 12q2 2 15 19.5t24 30t34 31.5t46.5 31.5t60 21.5t76.5 9q158 0 233 -129q11 -21 24 -31.5t29 -7.5t31 23q1 1 13.5 19t22.5 30.5t32.5 32t47 32t62 22t80.5 9.5q127 0 206 -82.5t79 -243.5v-487 q0 -51 27 -63q17 -8 44 -8q16 0 35 3v-20q-18 -21 -55.5 -36t-77.5 -15q-117 0 -117 133v434q0 136 -52.5 215.5t-153.5 79.5q-103 0 -165.5 -81.5t-62.5 -213.5v-416q0 -50 27 -71t92 -29v-39h-399v39q78 8 107.5 29t29.5 71v416q0 136 -53 215.5t-156 79.5 q-101 0 -163 -81.5t-62 -213.5v-416q0 -50 29 -71t104 -29v-39h-408v39q73 8 102 29t29 71v590q0 38 -4 60t-18 39q-14 18 -41 22q-14 2 -34 2q-17 0 -38 -2z" />
<glyph unicode="n" horiz-adv-x="1112" d="M51 854v35l211 49q30 8 49 -7.5t19 -51.5q0 -93 24 -93q2 0 4 1q7 2 15 10q1 1 13.5 14.5t23.5 24t30 27t41.5 28.5t50 24t61.5 18.5t71 6.5q134 0 220.5 -84.5t86.5 -253.5v-475q0 -51 28 -65q16 -8 39 -7q17 0 39 4v-20q-18 -21 -55.5 -36t-77.5 -15q-117 0 -117 133 v434q0 136 -62 215.5t-179 79.5q-118 0 -187 -81t-69 -214v-416q0 -50 29 -71t102 -29v-39h-406v39q73 8 102 29t29 71v594q0 74 -25 101q-20 21 -78 21q-14 0 -32 -1z" />
<glyph unicode="o" d="M61 461q0 141 64.5 252t171.5 170t235 59q125 0 229.5 -56.5t169 -166t64.5 -250.5t-64.5 -252t-171.5 -170t-235 -59q-125 0 -229.5 56.5t-169 166t-64.5 250.5zM219 535q0 -134 44.5 -246.5t127.5 -180t187 -67.5q118 0 188 89.5t70 262.5q0 136 -44.5 249t-127.5 181 t-187 68q-117 0 -187.5 -91t-70.5 -265z" />
<glyph unicode="p" horiz-adv-x="1110" d="M41 854v35l211 49q30 8 48.5 -8.5t18.5 -55.5v-30q0 -17 9 -21t26 13q34 38 116 72t173 34q174 0 290 -129.5t116 -337.5q0 -113 -37 -206.5t-99 -154t-141 -93.5t-164 -33q-61 0 -115 17t-88 34.5t-47 17.5q-21 0 -30 -21t-9 -73v-209q0 -53 30.5 -75t111.5 -31v-37 h-416v37q74 9 102.5 31t28.5 75v979q0 74 -25 101q-20 21 -78 21q-15 0 -32 -1zM319 369q0 -84 28 -150t73.5 -105t98.5 -59t108 -20q128 0 204 100t76 264q0 188 -97 313.5t-247 125.5q-33 0 -64.5 -6.5t-65 -23.5t-58 -44t-40.5 -71t-16 -101v-223z" />
<glyph unicode="q" horiz-adv-x="1067" d="M61 465q0 223 128.5 350t324.5 127q64 0 116.5 -14.5t78.5 -32.5t50.5 -32.5t39.5 -14.5q22 0 41.5 23t37 46t33.5 23q8 0 15.5 -8t7.5 -21v-1157q0 -53 29 -75t104 -31v-37h-428v37q89 9 120.5 30.5t31.5 75.5v316q0 39 -31 39q-16 0 -29 -13q-108 -108 -264 -108 q-179 0 -292.5 133t-113.5 344zM201 526q0 -191 95.5 -312.5t248.5 -121.5q43 0 82 11.5t78 39t62.5 84t23.5 135.5v160q0 82 -19 148t-49.5 107t-72 68.5t-83 38.5t-84.5 11q-132 0 -207 -100.5t-75 -268.5z" />
<glyph unicode="r" horiz-adv-x="845" d="M51 854v35l211 49q30 8 49 -7.5t19 -51.5v-64q0 -14 10 -18.5t29 10.5l13 14q13 14 23 22.5t29 25t38.5 27t44.5 22t54.5 17t61.5 5.5q51 0 88.5 -15t56.5 -40t28 -51t9 -54q0 -51 -26 -81.5t-70 -30.5q-32 0 -49 18.5t-24 45.5t-15 54t-30.5 45.5t-63.5 18.5 q-92 0 -149.5 -93t-57.5 -272v-346q0 -50 29.5 -71t105.5 -29v-39h-410v39q73 8 102 29t29 71v594q0 74 -25 101q-20 21 -78 21q-14 0 -32 -1z" />
<glyph unicode="s" horiz-adv-x="854" d="M70 216q2 68 49 67q28 0 41 -39q41 -108 107 -159.5t173 -51.5q97 0 150 41t53 116q0 26 -7 48.5t-16 39t-28 32.5t-33.5 26t-41.5 22t-43.5 18t-48 17t-46.5 17q-49 18 -85.5 33.5t-77 40.5t-66.5 52t-43 66t-17 84q0 117 95 186.5t253 69.5q83 0 155.5 -20.5 t119.5 -55.5q34 -64 34 -127v-7q-2 -66 -47 -66q-30 0 -43 39q-71 194 -249 194q-85 0 -132 -39.5t-47 -109.5q0 -45 15 -78.5t49.5 -58t68 -40t91.5 -36.5q9 -3 45.5 -16t49 -17.5t45.5 -18t46.5 -21t40 -22.5t38.5 -27.5t29.5 -30.5t25.5 -36.5t14 -41.5t6 -48 q0 -122 -104.5 -196t-276.5 -74q-206 0 -308 92q-34 64 -34 128v8z" />
<glyph unicode="t" horiz-adv-x="634" d="M31 868v41q77 32 130.5 82t98.5 131q9 15 23 15h16q6 0 11 -6t5 -13l-2 -143q0 -30 18.5 -40.5t80.5 -10.5h161v-68l-161 8h-9q-55 0 -72 -11q-18 -12 -18 -50v-555q0 -100 26 -149.5t97 -49.5q73 0 113 43q12 -8 16.5 -17.5t3.5 -15t-4 -8.5q-61 -61 -168 -61 q-105 0 -166 56.5t-61 174.5v586q0 36 -10 48.5t-31 12.5h-98z" />
<glyph unicode="u" horiz-adv-x="1122" d="M51 854v35l211 49q30 8 49 -7t19 -48v-527q0 -127 62.5 -204.5t176.5 -77.5q116 0 187 79t71 203v379q0 38 -4 58t-17.5 36.5t-40.5 21.5q-19 4 -48 4q-12 0 -25 -1v35l211 49q31 8 49.5 -7t18.5 -48v-756q0 -51 27 -63q17 -8 44 -8q16 0 35 3v-20q-18 -21 -55 -36 t-76 -15q-52 0 -86 30t-41 91q-1 8 -1.5 9.5l-2 6t-4.5 5.5t-8 1q-12 0 -25 -10q-3 -2 -23 -21t-42 -35t-54.5 -35t-77 -30.5t-92.5 -11.5q-132 0 -217.5 82.5t-85.5 242.5v422q0 73 -24 98q-21 22 -88 22q-11 0 -23 -1z" />
<glyph unicode="v" horiz-adv-x="1042" d="M20 887v37h388v-37q-59 -19 -79.5 -36.5t-18 -50t31.5 -104.5l182 -450q20 -48 34 -47.5t36 49.5l90 229q30 77 48 133t30 98q11 38 11 64q-1 26 -5 50q-4 18 -21.5 30.5t-32.5 19t-46 15.5v37h354v-37q-90 -27 -127.5 -61t-75.5 -130l-282 -696h-70l-285 696 q-41 101 -68.5 133t-93.5 58z" />
<glyph unicode="w" horiz-adv-x="1515" d="M20 887v37h383v-37q-84 -26 -95 -57q-2 -7 -2 -16q0 -36 32 -118l180 -448q14 -34 24.5 -44t20.5 0t23 44l65 174q25 74 33 132q4 30 3 55q0 23 -3 42q-7 39 -25 82q-26 64 -56.5 95.5t-98.5 58.5v37h383v-37q-46 -14 -66.5 -25t-28.5 -33t-0.5 -50t29.5 -83l180 -448 q14 -34 24.5 -44t20.5 0t23 44l84 229q26 69 43 120t27 92t15.5 67.5t1.5 48t-8.5 33t-21 21.5t-29.5 15t-40 13v37h354v-37q-90 -27 -126.5 -60t-76.5 -131l-278 -696h-70l-207 516l-207 -516h-67l-281 696q-39 100 -67 132t-95 59z" />
<glyph unicode="x" horiz-adv-x="1013" d="M31 0v39q97 26 148.5 63t139.5 152l134 174l-197 274q-61 86 -106.5 125.5t-110.5 59.5v37h401v-37q-35 -10 -54 -21.5t-26.5 -24.5t0 -35t21 -44t41.5 -60l115 -161q95 129 128 199q23 48 23 77q0 13 -5 23q-15 30 -75 47v37h371v-37q-98 -26 -149.5 -63.5 t-139.5 -153.5l-127 -168l203 -281q63 -87 108 -125.5t109 -56.5v-39h-401v39q30 8 48 15.5t25.5 20t9 22.5t-9 32.5t-21 39t-34.5 52.5l-117 168q-74 -100 -111.5 -161t-45 -100.5t10.5 -58t64 -30.5v-39h-370z" />
<glyph unicode="y" d="M20 887v37h388v-37q-30 -10 -47.5 -17t-31 -18t-17.5 -22.5t-2.5 -31t9.5 -43t23 -59.5l190 -463q13 -28 23.5 -36.5t20.5 1t22 38.5l96 241q27 67 45.5 118t29 91.5t16 67.5t1.5 48.5t-9.5 33.5t-22.5 22.5t-31 15.5t-41 13v37h354v-37q-90 -27 -126.5 -60.5 t-75.5 -130.5l-353 -862q-20 -49 -33.5 -77.5t-36 -63.5t-45.5 -54t-57 -32t-76 -13q-72 0 -111.5 34t-39.5 87q0 43 27.5 70t68.5 27q30 0 46.5 -15t22 -36.5t9 -43t14.5 -36.5t33 -15q61 0 129 166q23 56 24 113q1 9 1 17q0 45 -7 71q-8 31 -24 71l-244 592 q-41 101 -68.5 133t-93.5 58z" />
<glyph unicode="z" horiz-adv-x="894" d="M31 0l567 805q22 32 13 47.5t-50 15.5h-266q-64 0 -103.5 -39t-66.5 -120h-39l37 215h741l-569 -805q-15 -22 -15 -36q0 -28 54 -28h284q64 0 103.5 39.5t66.5 120.5h39l-36 -215h-760z" />
<glyph unicode="{" horiz-adv-x="528" d="M92 588v35q81 36 106 58t25 67v374q0 77 9 134.5t33 115.5t73.5 103t124.5 75l14 -55q-68 -36 -97.5 -127t-29.5 -246v-403q0 -37 -34.5 -61t-104.5 -50v-6q71 -26 105 -49.5t34 -60.5v-404q0 -155 29.5 -246t97.5 -127l-14 -55q-75 30 -124.5 75t-73.5 103t-33 115.5 t-9 134.5v375q0 45 -25 67t-106 58z" />
<glyph unicode="|" horiz-adv-x="456" d="M205 -440v2078h47v-2078h-47z" />
<glyph unicode="}" horiz-adv-x="528" d="M51 -285q68 36 97.5 127t29.5 246v404q0 37 34 60.5t105 49.5v6q-70 26 -104.5 50t-34.5 61v403q0 155 -29.5 246t-97.5 127l15 55q60 -24 104 -59.5t69.5 -74t40.5 -89t20 -97.5t5 -108v-374q0 -45 25 -67t106 -58v-35q-81 -36 -106 -58t-25 -67v-375q0 -61 -5 -108 t-20 -97.5t-40.5 -89t-69.5 -74t-104 -59.5z" />
<glyph unicode="~" horiz-adv-x="987" d="M102 410q0 116 61.5 178.5t153.5 62.5q59 0 125.5 -22.5t114 -50t99.5 -50t87 -22.5q41 0 70 28.5t29 79.5h43q0 -116 -61.5 -178.5t-151.5 -62.5q-61 0 -128.5 22.5t-115 50t-99.5 50t-85 22.5q-42 0 -69.5 -27t-27.5 -81h-45z" />
<glyph unicode="&#xa1;" horiz-adv-x="403" d="M92 -236q0 79 20.5 201.5t42.5 278.5t25 311h43q3 -155 25 -311t42.5 -278.5t20.5 -201.5q0 -68 -28 -107.5t-80 -39.5q-53 0 -82 39.5t-29 107.5zM98 827q0 44 31 75.5t74 31.5q42 0 73 -31.5t31 -75.5q0 -43 -31.5 -74.5t-72.5 -31.5q-43 0 -74 31.5t-31 74.5z" />
<glyph unicode="&#xa2;" horiz-adv-x="989" d="M61 465q0 146 69 256t180 165.5t245 55.5l39 -2l33 123h39l-35 -127q124 -18 197 -85.5t73 -141.5q0 -42 -25 -68.5t-61 -26.5q-32 0 -55.5 20t-26.5 64q-15 127 -119 174l-198 -727q97 -51 213 -51q171 0 258 133l31 -26q-14 -35 -44 -70t-75.5 -68t-113 -54t-144.5 -21 q-85 0 -162 24l-37 -137h-39l41 150q-128 53 -205.5 168t-77.5 272zM207 524q0 -238 176 -358l195 719q-27 8 -72 8q-136 0 -217.5 -97t-81.5 -272z" />
<glyph unicode="&#xa3;" horiz-adv-x="1073" d="M80 0v104q56 34 90 58.5t66 56.5t46.5 66.5t14.5 76.5q0 46 -14 87h-201v36h188q-15 42 -61.5 135.5t-74.5 174.5t-28 159q0 158 116 254.5t317 96.5q93 0 166.5 -22t119.5 -57.5t76.5 -82.5t42.5 -93.5t12 -95.5q0 -75 -28.5 -122.5t-85.5 -47.5q-32 0 -57 17.5 t-25 58.5q0 22 15.5 58t15.5 81q0 107 -71 185t-192 78q-124 0 -186.5 -79.5t-62.5 -195.5q0 -62 21.5 -131.5t49 -122.5t55.5 -122t37 -126h373v-36h-369v-23q0 -47 -14.5 -86.5t-35 -66.5t-59 -54.5t-70.5 -44.5t-85 -41h467q142 0 205.5 31.5t101.5 120.5h35l-33 -156 q-8 -45 -7.5 -74t3.5 -36.5t11 -18.5h-885z" />
<glyph unicode="&#xa4;" horiz-adv-x="1087" d="M102 70l119 118q-100 117 -100 279q0 155 98 274l-117 115l50 51l116 -116q120 102 277 102q154 0 274 -102l117 116l49 -51l-117 -117q99 -120 99 -272q0 -155 -103 -279l121 -118l-49 -50l-121 119q-117 -100 -270 -100q-158 0 -275 100l-118 -119zM190 467 q0 -148 101 -254.5t250 -106.5q146 0 250 107t104 254q0 149 -103.5 253.5t-250.5 104.5q-150 0 -250.5 -104t-100.5 -254z" />
<glyph unicode="&#xa5;" horiz-adv-x="1284" d="M31 1235v37h426v-37q-79 -18 -89.5 -49t29.5 -92l277 -439q6 -9 14 -9t14 9l259 428q26 43 31 72.5t-11.5 45t-38 23t-55.5 11.5v37h366v-37q-75 -8 -119.5 -40t-105.5 -130l-276 -447q-29 -44 -29 -114v-4h330v-35h-330v-90h330v-37h-330v-201q0 -52 32 -69.5t130 -30.5 v-37h-484v37q97 13 128.5 30.5t31.5 69.5v201h-330v37h330v90h-330v35h330v4q0 12 -1.5 22.5t-6.5 21.5t-8.5 17.5t-13 21.5t-13.5 23l-274 437q-58 94 -102.5 130.5t-110.5 57.5z" />
<glyph unicode="&#xa6;" horiz-adv-x="456" d="M205 274h47v-714h-47v714zM205 924v714h47v-714h-47z" />
<glyph unicode="&#xa7;" horiz-adv-x="985" d="M82 485q0 85 46 145t134 91q-174 108 -174 276q0 134 109.5 221t302.5 87q177 0 313 -86q26 -61 34 -125t-2 -104t-34 -40q-23 0 -25 21q-45 136 -138 210t-208 74q-111 0 -163 -61t-52 -150q0 -57 20 -100.5t61.5 -74.5t85 -51.5t110.5 -43.5q12 -4 37 -13 q48 -17 74 -26.5t72 -29.5t72.5 -36.5t60 -43.5t51.5 -55.5t31 -67t13 -82.5q0 -184 -194 -246q188 -99 188 -266q0 -81 -38 -144t-102.5 -100t-143.5 -55.5t-168 -18.5q-108 0 -183 23t-153 70q-24 61 -31 124.5t3 103.5t34 40q18 0 25 -19q48 -137 146.5 -214t231.5 -74 q105 2 168.5 54.5t63.5 156.5q0 27 -5 50t-11.5 41.5t-21 35.5t-25.5 29t-34 25.5t-36.5 21t-42.5 18.5t-43.5 16t-48 16.5t-48.5 16.5q-86 31 -146 62t-112 73.5t-78 98.5t-26 126zM219 532q0 -57 20 -100t62 -74.5t84.5 -51.5t110.5 -44q148 -52 184 -69q86 54 86 174 q0 49 -16 87.5t-39.5 63t-65 46t-76.5 34.5t-89 30l-10.5 3t-9 3t-9.5 3q-83 29 -156 68q-76 -57 -76 -173z" />
<glyph unicode="&#xa8;" horiz-adv-x="747" d="M102 1280q0 34 28 62t63 28q36 0 64 -28t28 -62q0 -38 -27.5 -67t-64.5 -29q-35 0 -63 29t-28 67zM463 1280q0 34 27.5 62t62.5 28q36 0 64 -28t28 -62q0 -38 -27.5 -67t-64.5 -29q-35 0 -62.5 29t-27.5 67z" />
<glyph unicode="&#xa9;" horiz-adv-x="1474" d="M61 643q0 186 88 337.5t243 238t345 86.5t345 -86.5t243 -238t88 -337.5q0 -140 -52 -263t-141.5 -211t-215 -138.5t-267.5 -50.5t-267.5 50.5t-215 138.5t-141.5 211t-52 263zM117 643q0 -172 80.5 -312t223 -220t316.5 -80t316.5 80t223.5 220t81 312q0 171 -81 310.5 t-223.5 219.5t-316.5 80t-316.5 -80t-223 -219.5t-80.5 -310.5zM358 629q0 74 22.5 138t61.5 108.5t90.5 76.5t109.5 47t118 15q127 0 209 -61.5t82 -143.5q0 -41 -24 -69.5t-69 -28.5q-44 0 -70 27.5t-26 62.5q0 33 -5 58t-18.5 50.5t-41.5 39.5t-70 14q-88 0 -136 -65 t-48 -183q0 -161 87.5 -259t211.5 -98q121 0 186 86l35 -26q-29 -58 -117 -112t-205 -54q-156 0 -269.5 101t-113.5 276z" />
<glyph unicode="&#xaa;" horiz-adv-x="737" d="M94 823q0 52 33.5 89.5t120 67.5t231.5 48v27q0 23 -0.5 35.5t-3 35.5t-7.5 36.5t-15.5 30.5t-25 26.5t-37.5 16.5t-52 7q-45 0 -66 -16.5t-23.5 -40t-3 -47t-14 -40t-47.5 -16.5q-26 0 -42.5 17.5t-16.5 48.5q0 64 70 99.5t170 35.5q111 0 163 -54.5t52 -166.5v-252 q0 -37 16 -55t47 -8v-41q-27 -15 -53 -15q-100 0 -111 105q-28 -45 -87 -77.5t-130 -33.5q-73 -2 -120.5 33.5t-47.5 103.5zM111 500v47h507v-47h-507zM199 836q0 -42 25 -66.5t65 -24.5q71 0 130.5 45.5t59.5 118.5v82q-280 -35 -280 -155z" />
<glyph unicode="&#xab;" horiz-adv-x="794" d="M114 608.5q0 12.5 7 18.5l235 213q20 17 39 -6q13 -13 -6 -35l-147 -191l147 -192q19 -22 6 -35q-19 -23 -39 -6l-235 213q-7 8 -7 20.5zM394 608.5q0 12.5 7 18.5l236 213q20 17 39 -6q13 -13 -6 -35l-148 -191l148 -192q19 -22 6 -35q-19 -23 -39 -6l-236 213 q-7 8 -7 20.5z" />
<glyph unicode="&#xac;" horiz-adv-x="1071" d="M102 700v48h867v-455h-47v407h-820z" />
<glyph unicode="&#xad;" horiz-adv-x="757" d="M102 522v33h553v-33h-553z" />
<glyph unicode="&#xae;" horiz-adv-x="1474" d="M61 643q0 186 88 337.5t243 238t345 86.5t345 -86.5t243 -238t88 -337.5q0 -140 -52 -263t-141.5 -211t-215 -138.5t-267.5 -50.5t-267.5 50.5t-215 138.5t-141.5 211t-52 263zM117 643q0 -172 80.5 -312t223 -220t316.5 -80t316.5 80t223.5 220t81 312q0 171 -81 310.5 t-223.5 219.5t-316.5 80t-316.5 -80t-223 -219.5t-80.5 -310.5zM391 262v35q76 12 76 76v538q0 64 -76 76v35h361q140 0 220.5 -54.5t80.5 -154.5q0 -72 -43 -117.5t-133 -70.5q-6 -1 -6 -7t6 -8q58 -14 90.5 -51t60.5 -121q2 -6 11.5 -35.5t14 -40t13.5 -29.5t19.5 -27 t23.5 -9l-4 -35q-60 0 -100 10.5t-67 37t-43 57t-34 82.5q-50 141 -160 141q-58 0 -78 -15t-20 -51v-151q0 -63 78 -76v-35h-291zM604 709q0 -36 17 -51t59 -15h86q82 0 112.5 41.5t30.5 112.5q0 86 -39.5 129t-126.5 43h-84q-55 0 -55 -58v-202z" />
<glyph unicode="&#xaf;" horiz-adv-x="899" d="M119 1233v4q0 16 6 22.5t25 6.5h600q19 0 24.5 -6.5t5.5 -22.5v-4q0 -18 -5 -23.5t-25 -5.5h-600q-20 0 -25.5 5.5t-5.5 23.5z" />
<glyph unicode="&#xb0;" horiz-adv-x="546" d="M61 1098q0 86 60.5 146.5t152.5 60.5t151.5 -60.5t59.5 -146.5q0 -88 -59.5 -147.5t-151.5 -59.5q-93 0 -153 60t-60 147zM125 1098q0 -69 43.5 -112.5t105.5 -43.5t105 43.5t43 112.5t-43 111t-105 42t-105.5 -42.5t-43.5 -110.5z" />
<glyph unicode="&#xb1;" horiz-adv-x="962" d="M102 0v47h758v-47h-758zM102 698v47h357v357h47v-357h354v-47h-354v-356h-47v356h-357z" />
<glyph unicode="&#xb2;" horiz-adv-x="561" d="M82 776q0 48 21 88.5t53 66t68.5 52t68.5 48.5t53 54t21 70t-23 69t-74 31q-41 0 -64.5 -24t-23 -56.5t12.5 -64.5q0 -18 -13.5 -29.5t-31.5 -11.5q-29 0 -47.5 23t-18.5 61q0 60 48 101.5t144 41.5q89 0 140 -38.5t51 -104.5q0 -47 -26.5 -84.5t-68 -64t-85 -48.5 t-85.5 -48t-61 -52h226q50 0 79 41h33l-20 -92q-6 -29 -43 -29h-334z" />
<glyph unicode="&#xb3;" horiz-adv-x="567" d="M72 920q0 26 14 39.5t35 13.5q22 0 36.5 -17.5t23 -43t18 -51t29.5 -43t51 -17.5q49 0 74.5 35t25.5 92q0 52 -24 78.5t-57.5 24.5t-70.5 -17l-20 37q139 51 139 116q0 42 -25 65t-61 23q-39 0 -58 -26.5t-15.5 -56.5t8.5 -52q-38 -23 -68.5 -7t-30.5 56q0 51 47 89 t131 38q78 0 125 -31.5t47 -82.5q0 -87 -100 -117q67 0 103 -37.5t36 -93.5q0 -74 -60 -121t-153 -47q-89 0 -144.5 43t-55.5 111z" />
<glyph unicode="&#xb4;" horiz-adv-x="567" d="M106 1098q-11 21 15 47l201 215q43 43 75 43q25 0 46.5 -19t21.5 -43q0 -47 -64 -88l-239 -161q-25 -12 -37.5 -9t-18.5 15z" />
<glyph unicode="&#xb5;" horiz-adv-x="1122" d="M51 854v35l211 49q30 8 49 -7t19 -48v-527q0 -127 62.5 -204.5t176.5 -77.5q116 0 187 79t71 203v379q0 38 -4 58t-17.5 36.5t-40.5 21.5t-73 3v35l211 49q31 8 49.5 -7t18.5 -48v-756q0 -51 27 -63t79 -5v-20q-18 -21 -55 -36t-76 -15q-52 0 -86 30t-41 91 q-1 8 -1.5 9.5l-2 6t-4.5 5.5t-8 1q-12 0 -25 -10q-3 -2 -23 -21t-42.5 -35t-56 -35t-78 -30.5t-93.5 -11.5q-146 0 -231 88q2 -78 14 -137.5t28 -91t31.5 -53.5t25 -37t7.5 -29q-11 -83 -63 -122q-45 -33 -78 -5q-33 27 -33 102v1032q0 73 -24.5 98t-110.5 21z" />
<glyph unicode="&#xb6;" horiz-adv-x="1378" d="M61 868q0 189 122.5 296.5t340.5 107.5h793v-35q-36 -7 -53.5 -12t-35 -16t-24 -28t-6.5 -44v-1192q0 -51 25.5 -69t93.5 -32v-34h-799v34q68 14 93.5 32t25.5 69v397q0 58 -25.5 83.5t-87.5 25.5q-216 0 -339.5 113t-123.5 304zM803 -55q0 -54 28.5 -77.5t86.5 -23.5 q59 0 87.5 23.5t28.5 77.5v1192q0 54 -28.5 77t-87.5 23q-58 0 -86.5 -23t-28.5 -77v-1192z" />
<glyph unicode="&#xb7;" horiz-adv-x="413" d="M102 610q0 43 31 75t74 32q41 0 72.5 -32t31.5 -75q0 -44 -31 -75t-73 -31q-43 0 -74 31t-31 75z" />
<glyph unicode="&#xb8;" horiz-adv-x="487" d="M31 -293q0 46 34.5 61.5t71.5 -16.5q0 -133 90 -133q57 0 92 43t35 100q0 48 -27 79.5t-75 31.5q-26 0 -54.5 -9t-39.5 -9q-40 0 -17 47l47 98h97l-45 -98q76 24 146.5 -19.5t70.5 -124.5q0 -76 -64.5 -124t-152.5 -48q-99 0 -154 35t-55 86z" />
<glyph unicode="&#xb9;" horiz-adv-x="348" d="M61 1196v29l125 61q39 22 39 -31v-381q0 -65 62 -69v-29h-221v29q67 4 67 69v322h-72z" />
<glyph unicode="&#xba;" horiz-adv-x="755" d="M94 987q0 141 84 219t201 78q115 0 200 -79t85 -222q0 -141 -84.5 -219t-200.5 -78t-200.5 79.5t-84.5 221.5zM125 500v47h508v-47h-508zM195 1026q0 -125 63 -210t148 -85q66 0 110.5 55t44.5 158q0 125 -63 211t-148 86q-66 0 -110.5 -55t-44.5 -160z" />
<glyph unicode="&#xbb;" horiz-adv-x="794" d="M119 381q-13 13 6 35l147 192l-147 191q-19 22 -6 35q19 23 39 6l235 -213q7 -6 7 -18.5t-7 -20.5l-235 -213q-20 -17 -39 6zM399 381q-12 12 7 35l147 192l-147 191q-19 23 -7 35q19 23 39 6l236 -213q8 -6 8 -18.5t-8 -20.5l-236 -213q-20 -17 -39 6z" />
<glyph unicode="&#xbc;" horiz-adv-x="1196" d="M51 -10l916 1313h59l-913 -1313h-62zM61 1196v29l125 61q39 22 39 -31v-381q0 -65 62 -69v-29h-221v29q67 4 67 69v322h-72zM719 137v60l252 321l65 -18v-316h76v-47h-76v-39q0 -37 17 -50.5t59 -18.5v-29h-244v29q43 5 57.5 18t14.5 51v39h-221zM772 184h168v209z" />
<glyph unicode="&#xbd;" horiz-adv-x="1230" d="M51 -10l916 1313h59l-913 -1313h-62zM61 1196v29l125 61q39 22 39 -31v-381q0 -65 62 -69v-29h-221v29q67 4 67 69v322h-72zM750 0q0 48 21 88.5t52.5 66t68.5 52t68.5 48.5t52.5 54t21 70q0 39 -22.5 69.5t-73.5 30.5q-42 0 -65 -24t-23 -56.5t12 -64.5 q0 -18 -13.5 -29.5t-31.5 -11.5q-29 0 -47 23t-18 61q0 60 48 101.5t144 41.5q89 0 140 -38.5t51 -104.5q0 -47 -26.5 -84.5t-68 -64t-85 -48.5t-85.5 -48t-61 -52h225q51 0 80 41h33l-21 -92q-6 -29 -43 -29h-333z" />
<glyph unicode="&#xbe;" horiz-adv-x="1443" d="M72 920q0 26 14 39.5t35 13.5q22 0 36.5 -17.5t23 -43t18 -51t29.5 -43t51 -17.5q49 0 74.5 35t25.5 92q0 52 -24 78.5t-57.5 24.5t-70.5 -17l-20 37q139 51 139 116q0 42 -25 65t-61 23q-39 0 -58 -26.5t-15.5 -56.5t8.5 -52q-38 -23 -68.5 -7t-30.5 56q0 51 47 89 t131 38q78 0 125 -31.5t47 -82.5q0 -87 -100 -117q67 0 103 -37.5t36 -93.5q0 -74 -60 -121t-153 -47q-89 0 -144.5 43t-55.5 111zM293 -10l915 1313h60l-914 -1313h-61zM969 137v60l252 321l65 -18v-316h76v-47h-76v-39q0 -37 17 -50.5t59 -18.5v-29h-244v29q43 5 57.5 18 t14.5 51v39h-221zM1022 184h168v209z" />
<glyph unicode="&#xbf;" horiz-adv-x="921" d="M70 131q0 58 18.5 106.5t48.5 83t66.5 67.5t74 70t70 79.5t55.5 105.5t29 141h60q5 -83 -5.5 -152.5t-31.5 -117t-47.5 -88t-54.5 -75t-51 -68t-37.5 -77t-14.5 -93.5q0 -105 64.5 -166.5t166.5 -61.5q54 0 93.5 18.5t60.5 49t31 64.5t10 71q0 26 -18.5 76.5t-18.5 79.5 q0 30 29 55t65 25q49 0 82 -47.5t33 -116.5q0 -146 -112.5 -239t-295.5 -93q-174 0 -272 83.5t-98 219.5zM358 1038q0 44 31.5 75.5t73.5 31.5q43 0 73.5 -31.5t30.5 -75.5q0 -43 -30.5 -74.5t-73.5 -31.5q-41 0 -73 32t-32 74z" />
<glyph unicode="&#xc0;" horiz-adv-x="1452" d="M41 0v37q71 14 108.5 42t67.5 95l404 952q38 85 38 146l109 10l455 -1055q46 -111 79 -146t109 -42v-39h-436v37q48 7 74 17.5t34 27.5t3.5 36t-19.5 50l-68 156q-19 39 -45.5 55t-72.5 16h-412q-94 0 -117 -61l-67 -156q-27 -64 5.5 -97t121.5 -44v-37h-371z M421.5 466.5q7.5 -15.5 31.5 -15.5h440q20 0 32.5 15t2.5 36l-234 545q-18 52 -41 -5l-227 -534q-12 -26 -4.5 -41.5zM434 1690q0 24 20.5 42.5t47.5 18.5q33 0 73 -43l203 -215q26 -26 15 -47q-20 -29 -56 -6l-239 162q-64 41 -64 88z" />
<glyph unicode="&#xc1;" horiz-adv-x="1452" d="M41 0v37q71 14 108.5 42t67.5 95l404 952q38 85 38 146l109 10l455 -1055q46 -111 79 -146t109 -42v-39h-436v37q48 7 74 17.5t34 27.5t3.5 36t-19.5 50l-68 156q-19 39 -45.5 55t-72.5 16h-412q-94 0 -117 -61l-67 -156q-27 -64 5.5 -97t121.5 -44v-37h-371z M421.5 466.5q7.5 -15.5 31.5 -15.5h440q20 0 32.5 15t2.5 36l-234 545q-18 52 -41 -5l-227 -534q-12 -26 -4.5 -41.5zM637 1446q-11 22 14 47l201 215q43 43 76 43q25 0 46 -18.5t21 -42.5q0 -47 -63 -88l-240 -162q-39 -25 -55 6z" />
<glyph unicode="&#xc2;" horiz-adv-x="1452" d="M41 0v37q71 14 108.5 42t67.5 95l404 952q38 85 38 146l109 10l455 -1055q46 -111 79 -146t109 -42v-39h-436v37q48 7 74 17.5t34 27.5t3.5 36t-19.5 50l-68 156q-19 39 -45.5 55t-72.5 16h-412q-94 0 -117 -61l-67 -156q-27 -64 5.5 -97t121.5 -44v-37h-371z M421.5 466.5q7.5 -15.5 31.5 -15.5h440q20 0 32.5 15t2.5 36l-234 545q-18 52 -41 -5l-227 -534q-12 -26 -4.5 -41.5zM481 1450l213 236q8 9 20.5 9t18.5 -9l213 -236q17 -20 -6 -39q-10 -8 -35 6l-190 142l-193 -142q-25 -14 -35 -6q-23 19 -6 39z" />
<glyph unicode="&#xc3;" horiz-adv-x="1452" d="M41 0v37q71 14 108.5 42t67.5 95l404 952q38 85 38 146l109 10l455 -1055q46 -111 79 -146t109 -42v-39h-436v37q48 7 74 17.5t34 27.5t3.5 36t-19.5 50l-68 156q-19 39 -45.5 55t-72.5 16h-412q-94 0 -117 -61l-67 -156q-27 -64 5.5 -97t121.5 -44v-37h-371zM397 1544 q0 89 47 134.5t131 45.5q52 0 97 -19.5t72.5 -43t65 -43t75.5 -19.5q74 0 96 80q3 17 20 17h11q18 0 18 -23q0 -88 -48 -135t-128 -47q-51 0 -96.5 20t-73.5 43.5t-65 43.5t-74 20q-77 0 -99 -82q-3 -14 -20 -14h-8q-21 0 -21 22zM421.5 466.5q7.5 -15.5 31.5 -15.5h440 q20 0 32.5 15t2.5 36l-234 545q-18 52 -41 -5l-227 -534q-12 -26 -4.5 -41.5z" />
<glyph unicode="&#xc4;" horiz-adv-x="1452" d="M41 0v37q71 14 108.5 42t67.5 95l404 952q38 85 38 146l109 10l455 -1055q46 -111 79 -146t109 -42v-39h-436v37q48 7 74 17.5t34 27.5t3.5 36t-19.5 50l-68 156q-19 39 -45.5 55t-72.5 16h-412q-94 0 -117 -61l-67 -156q-27 -64 5.5 -97t121.5 -44v-37h-371z M421.5 466.5q7.5 -15.5 31.5 -15.5h440q20 0 32.5 15t2.5 36l-234 545q-18 52 -41 -5l-227 -534q-12 -26 -4.5 -41.5zM442 1628q0 34 27.5 62t62.5 28q36 0 64.5 -28t28.5 -62q0 -38 -28 -67t-65 -29q-35 0 -62.5 29t-27.5 67zM803 1628q0 34 27.5 62t62.5 28q36 0 64 -28 t28 -62q0 -38 -27.5 -67t-64.5 -29q-35 0 -62.5 29t-27.5 67z" />
<glyph unicode="&#xc5;" horiz-adv-x="1452" d="M41 0v37q71 14 108.5 42t67.5 95l404 952q38 85 38 146l109 10l455 -1055q46 -111 79 -146t109 -42v-39h-436v37q48 7 74 17.5t34 27.5t3.5 36t-19.5 50l-68 156q-19 39 -45.5 55t-72.5 16h-412q-94 0 -117 -61l-67 -156q-27 -64 5.5 -97t121.5 -44v-37h-371z M421.5 466.5q7.5 -15.5 31.5 -15.5h440q20 0 32.5 15t2.5 36l-234 545q-18 52 -41 -5l-227 -534q-12 -26 -4.5 -41.5zM539 1655q0 72 48.5 121t125.5 49t125.5 -49t48.5 -121q0 -71 -49 -121.5t-125 -50.5t-125 50.5t-49 121.5zM610 1655q0 -48 30 -78.5t73 -30.5 q42 0 72 30.5t30 78.5q0 46 -30 76t-72 30t-72.5 -30t-30.5 -76z" />
<glyph unicode="&#xc6;" horiz-adv-x="1900" d="M41 0v37q71 14 115 52t92 116l555 880q25 41 35 77t6.5 54t-13.5 19v37h914q28 0 31 -27q11 -91 41 -215h-39q-35 96 -98.5 143.5t-166.5 47.5h-274q-67 0 -97 -19t-30 -74v-368q0 -53 29.5 -69.5t97.5 -16.5h219q84 0 116.5 34t45.5 111h31v-348h-31q-7 39 -15.5 63 t-26 45.5t-47 31.5t-73.5 10h-219q-68 0 -97.5 -16.5t-29.5 -69.5v-392q0 -55 41 -72.5t164 -17.5h237q44 0 80 8t55.5 16t41 28t27 27.5t22.5 31.5l49 78h37q-47 -84 -62 -213q-3 -29 -32 -29h-941v37q36 7 53 12t35 16t24.5 28t6.5 44v250h-444q-42 0 -64 -7t-36 -32 l-93 -147q-41 -65 -12.5 -108.5t119.5 -55.5v-37h-379zM489.5 448.5q7.5 -10.5 30.5 -10.5h430v774l-454 -725q-14 -28 -6.5 -38.5z" />
<glyph unicode="&#xc7;" horiz-adv-x="1298" d="M61 639q0 153 56 281t150 211t214 128.5t250 45.5q108 0 200.5 -30.5t151.5 -78t92 -103.5t33 -110q0 -51 -29.5 -84t-76.5 -33q-41 0 -69 29.5t-32 89.5q-3 44 -23.5 87t-59 82t-104.5 63t-150 24q-199 0 -321.5 -135.5t-123.5 -370.5q0 -185 80 -331.5t218 -227 t308 -80.5q118 0 205.5 45.5t171.5 139.5l25 -21q-18 -33 -45.5 -67t-74 -73.5t-101.5 -69.5t-131.5 -50t-159.5 -20h-10l-35 -78q76 24 146.5 -19.5t70.5 -124.5q0 -76 -64.5 -124t-152.5 -48q-99 0 -154 35t-55 86q0 46 34.5 61.5t71.5 -16.5q0 -133 90 -133q57 0 92 43 t35 100q0 48 -27 79.5t-75 31.5q-26 0 -54.5 -9t-39.5 -9q-40 0 -17 47l41 86q-112 16 -211 68t-175 133.5t-120.5 198t-44.5 251.5z" />
<glyph unicode="&#xc8;" horiz-adv-x="1132" d="M61 0v37q36 7 53.5 12t35 16t24 28t6.5 44v998q0 52 -26 70t-93 30v37h914q30 0 33 -27q13 -108 39 -215h-37q-36 97 -99 144t-166 47h-276q-66 0 -95.5 -19t-29.5 -74v-368q0 -53 28.5 -69.5t96.5 -16.5h219q85 0 118 34t46 111h29v-348h-29q-7 38 -16 62.5t-26.5 46 t-47.5 31.5t-74 10h-219q-68 0 -96.5 -16.5t-28.5 -69.5v-392q0 -55 40.5 -72.5t164.5 -17.5h235q55 0 94.5 9t65.5 29.5t37 33.5t29 39l49 78h37q-48 -91 -62 -213q-3 -29 -33 -29h-940zM289 1690q0 25 20.5 43t46.5 18q34 0 74 -43l203 -215q25 -25 14 -47q-19 -29 -55 -6 l-240 162q-63 41 -63 88z" />
<glyph unicode="&#xc9;" horiz-adv-x="1132" d="M61 0v37q36 7 53.5 12t35 16t24 28t6.5 44v998q0 52 -26 70t-93 30v37h914q30 0 33 -27q13 -108 39 -215h-37q-36 97 -99 144t-166 47h-276q-66 0 -95.5 -19t-29.5 -74v-368q0 -53 28.5 -69.5t96.5 -16.5h219q85 0 118 34t46 111h29v-348h-29q-7 38 -16 62.5t-26.5 46 t-47.5 31.5t-74 10h-219q-68 0 -96.5 -16.5t-28.5 -69.5v-392q0 -55 40.5 -72.5t164.5 -17.5h235q55 0 94.5 9t65.5 29.5t37 33.5t29 39l49 78h37q-48 -91 -62 -213q-3 -29 -33 -29h-940zM492 1446q-11 22 14 47l201 215q43 43 75 43q25 0 46.5 -18.5t21.5 -42.5 q0 -47 -64 -88l-239 -162q-39 -25 -55 6z" />
<glyph unicode="&#xca;" horiz-adv-x="1132" d="M61 0v37q36 7 53.5 12t35 16t24 28t6.5 44v998q0 52 -26 70t-93 30v37h914q30 0 33 -27q13 -108 39 -215h-37q-36 97 -99 144t-166 47h-276q-66 0 -95.5 -19t-29.5 -74v-368q0 -53 28.5 -69.5t96.5 -16.5h219q85 0 118 34t46 111h29v-348h-29q-7 38 -16 62.5t-26.5 46 t-47.5 31.5t-74 10h-219q-68 0 -96.5 -16.5t-28.5 -69.5v-392q0 -55 40.5 -72.5t164.5 -17.5h235q55 0 94.5 9t65.5 29.5t37 33.5t29 39l49 78h37q-48 -91 -62 -213q-3 -29 -33 -29h-940zM336 1450l213 236q7 9 20 9t19 -9l213 -236q17 -20 -6 -39q-10 -8 -35 6l-191 142 l-192 -142q-25 -14 -35 -6q-23 19 -6 39z" />
<glyph unicode="&#xcb;" horiz-adv-x="1132" d="M61 0v37q36 7 53.5 12t35 16t24 28t6.5 44v998q0 52 -26 70t-93 30v37h914q30 0 33 -27q13 -108 39 -215h-37q-36 97 -99 144t-166 47h-276q-66 0 -95.5 -19t-29.5 -74v-368q0 -53 28.5 -69.5t96.5 -16.5h219q85 0 118 34t46 111h29v-348h-29q-7 38 -16 62.5t-26.5 46 t-47.5 31.5t-74 10h-219q-68 0 -96.5 -16.5t-28.5 -69.5v-392q0 -55 40.5 -72.5t164.5 -17.5h235q55 0 94.5 9t65.5 29.5t37 33.5t29 39l49 78h37q-48 -91 -62 -213q-3 -29 -33 -29h-940zM297 1628q0 34 27.5 62t62.5 28q36 0 64 -28t28 -62q0 -38 -27.5 -67t-64.5 -29 q-35 0 -62.5 29t-27.5 67zM657 1628q0 34 28 62t63 28q36 0 64 -28t28 -62q0 -38 -27.5 -67t-64.5 -29q-35 0 -63 29t-28 67z" />
<glyph unicode="&#xcc;" horiz-adv-x="524" d="M-20 1690q0 25 20.5 43t46.5 18q34 0 74 -43l203 -215q25 -25 14 -47q-19 -29 -55 -6l-240 162q-63 41 -63 88zM61 0v37q36 7 53.5 12t35 16t24 28t6.5 44v998q0 52 -26 70t-93 30v37h402v-37q-67 -12 -93 -30t-26 -70v-998q0 -51 25 -68.5t94 -31.5v-37h-402z" />
<glyph unicode="&#xcd;" horiz-adv-x="524" d="M61 0v37q36 7 53.5 12t35 16t24 28t6.5 44v998q0 52 -26 70t-93 30v37h402v-37q-67 -12 -93 -30t-26 -70v-998q0 -51 25 -68.5t94 -31.5v-37h-402zM182 1446q-11 21 15 47l200 215q43 43 76 43q25 0 46.5 -18.5t21.5 -42.5q0 -47 -64 -88l-239 -162q-25 -12 -37.5 -9 t-18.5 15z" />
<glyph unicode="&#xce;" horiz-adv-x="524" d="M27 1450l213 236q8 9 20.5 9t18.5 -9l213 -236q8 -12 5 -22t-12 -17q-10 -8 -34 6l-191 142l-192 -142q-25 -14 -35 -6q-23 19 -6 39zM61 0v37q36 7 53.5 12t35 16t24 28t6.5 44v998q0 52 -26 70t-93 30v37h402v-37q-67 -12 -93 -30t-26 -70v-998q0 -51 25 -68.5 t94 -31.5v-37h-402z" />
<glyph unicode="&#xcf;" horiz-adv-x="524" d="M-12 1628q0 34 27.5 62t62.5 28q36 0 64 -28t28 -62q0 -38 -27.5 -67t-64.5 -29q-35 0 -62.5 29t-27.5 67zM61 0v37q36 7 53.5 12t35 16t24 28t6.5 44v998q0 52 -26 70t-93 30v37h402v-37q-67 -12 -93 -30t-26 -70v-998q0 -51 25 -68.5t94 -31.5v-37h-402zM348 1628 q0 34 27.5 62t62.5 28q36 0 64 -28t28 -62q0 -38 -27.5 -67t-64.5 -29q-35 0 -62.5 29t-27.5 67z" />
<glyph unicode="&#xd0;" horiz-adv-x="1284" d="M61 0v37q36 7 53.5 12t35 16t24 28t6.5 44v479h-117v39h117v484q0 49 -26 66.5t-93 29.5v37h457q105 0 199 -17.5t184.5 -62.5t155.5 -114t105 -179.5t40 -251.5q0 -158 -49.5 -282t-138.5 -202t-209.5 -118.5t-265.5 -40.5q-39 0 -138 4t-141 4q-98 0 -199 -12zM344 135 q0 -84 188 -84q110 0 196.5 32t143 86.5t94 131.5t53 162t15.5 184q0 96 -15 177.5t-52.5 156.5t-95 127.5t-147.5 83.5t-206 31h-49q-67 0 -96 -16.5t-29 -67.5v-484h258v-39h-258v-481z" />
<glyph unicode="&#xd1;" horiz-adv-x="1306" d="M61 0v37q36 7 53.5 12t36 16t25 28t6.5 44v998q0 51 -26.5 69.5t-94.5 30.5v37h254l756 -1006v869q0 51 -26.5 69.5t-92.5 30.5v37h299v-37q-68 -12 -94.5 -30.5t-26.5 -69.5v-1135h-61l-827 1104v-967q0 -51 24 -68.5t90 -31.5v-37h-295zM340 1544q0 89 47 134.5 t131 45.5q43 0 79.5 -13t63 -31t51.5 -36.5t54.5 -31.5t60.5 -13q75 0 97 80q3 17 20 17h10q19 0 19 -23q0 -88 -48 -135t-128 -47q-51 0 -97 20t-74 43.5t-65 43.5t-74 20q-76 0 -98 -82q-3 -14 -20 -14h-9q-20 0 -20 22z" />
<glyph unicode="&#xd2;" horiz-adv-x="1427" d="M61 631q0 187 86.5 341.5t239.5 243.5t340 89q137 0 256.5 -50.5t203 -137t131.5 -207t48 -257.5q0 -187 -87 -341.5t-240 -243t-339 -88.5q-137 0 -256.5 50t-203 137t-131.5 207t-48 257zM246 700q0 -145 40.5 -269.5t109.5 -209.5t160.5 -132.5t193.5 -47.5 q64 0 124.5 18t117 59.5t98.5 103t67 156t25 210.5q0 144 -40.5 267.5t-109.5 208t-161.5 132t-194.5 47.5q-64 0 -124 -18t-116.5 -59.5t-98 -102.5t-66.5 -154.5t-25 -208.5zM395 1690q0 24 20.5 42.5t47.5 18.5q34 0 74 -43l202 -215q26 -26 15 -47q-20 -29 -56 -6 l-239 162q-64 41 -64 88z" />
<glyph unicode="&#xd3;" horiz-adv-x="1427" d="M61 631q0 187 86.5 341.5t239.5 243.5t340 89q137 0 256.5 -50.5t203 -137t131.5 -207t48 -257.5q0 -187 -87 -341.5t-240 -243t-339 -88.5q-137 0 -256.5 50t-203 137t-131.5 207t-48 257zM246 700q0 -145 40.5 -269.5t109.5 -209.5t160.5 -132.5t193.5 -47.5 q64 0 124.5 18t117 59.5t98.5 103t67 156t25 210.5q0 144 -40.5 267.5t-109.5 208t-161.5 132t-194.5 47.5q-64 0 -124 -18t-116.5 -59.5t-98 -102.5t-66.5 -154.5t-25 -208.5zM616 1446q-11 21 15 47l200 215q43 43 76 43q25 0 46.5 -18.5t21.5 -42.5q0 -47 -64 -88 l-239 -162q-25 -12 -37.5 -9t-18.5 15z" />
<glyph unicode="&#xd4;" horiz-adv-x="1427" d="M61 631q0 187 86.5 341.5t239.5 243.5t340 89q137 0 256.5 -50.5t203 -137t131.5 -207t48 -257.5q0 -187 -87 -341.5t-240 -243t-339 -88.5q-137 0 -256.5 50t-203 137t-131.5 207t-48 257zM246 700q0 -145 40.5 -269.5t109.5 -209.5t160.5 -132.5t193.5 -47.5 q64 0 124.5 18t117 59.5t98.5 103t67 156t25 210.5q0 144 -40.5 267.5t-109.5 208t-161.5 132t-194.5 47.5q-64 0 -124 -18t-116.5 -59.5t-98 -102.5t-66.5 -154.5t-25 -208.5zM461 1450l213 236q8 9 20.5 9t18.5 -9l213 -236q17 -20 -6 -39q-10 -8 -35 6l-191 142 l-192 -142q-25 -14 -35 -6q-23 19 -6 39z" />
<glyph unicode="&#xd5;" horiz-adv-x="1427" d="M61 631q0 187 86.5 341.5t239.5 243.5t340 89q137 0 256.5 -50.5t203 -137t131.5 -207t48 -257.5q0 -187 -87 -341.5t-240 -243t-339 -88.5q-137 0 -256.5 50t-203 137t-131.5 207t-48 257zM246 700q0 -145 40.5 -269.5t109.5 -209.5t160.5 -132.5t193.5 -47.5 q64 0 124.5 18t117 59.5t98.5 103t67 156t25 210.5q0 144 -40.5 267.5t-109.5 208t-161.5 132t-194.5 47.5q-64 0 -124 -18t-116.5 -59.5t-98 -102.5t-66.5 -154.5t-25 -208.5zM383 1544q0 89 47 134.5t131 45.5q43 0 79.5 -13t63 -31t51.5 -36.5t54.5 -31.5t60.5 -13 q75 0 97 80q3 17 20 17h10q19 0 19 -23q0 -88 -48 -135t-128 -47q-51 0 -97 20t-74 43.5t-65 43.5t-74 20q-76 0 -98 -82q-3 -14 -20 -14h-9q-20 0 -20 22z" />
<glyph unicode="&#xd6;" horiz-adv-x="1427" d="M61 631q0 187 86.5 341.5t239.5 243.5t340 89q137 0 256.5 -50.5t203 -137t131.5 -207t48 -257.5q0 -187 -87 -341.5t-240 -243t-339 -88.5q-137 0 -256.5 50t-203 137t-131.5 207t-48 257zM246 700q0 -145 40.5 -269.5t109.5 -209.5t160.5 -132.5t193.5 -47.5 q64 0 124.5 18t117 59.5t98.5 103t67 156t25 210.5q0 144 -40.5 267.5t-109.5 208t-161.5 132t-194.5 47.5q-64 0 -124 -18t-116.5 -59.5t-98 -102.5t-66.5 -154.5t-25 -208.5zM420 1628q0 34 27.5 62t62.5 28q36 0 64 -28t28 -62q0 -38 -27.5 -67t-64.5 -29q-35 0 -62.5 29 t-27.5 67zM780 1628q0 34 27.5 62t62.5 28q36 0 64.5 -28t28.5 -62q0 -38 -28 -67t-65 -29q-35 0 -62.5 29t-27.5 67z" />
<glyph unicode="&#xd7;" horiz-adv-x="776" d="M100 264l252 252l-250 250l33 35l252 -250l250 250l37 -33l-252 -252l250 -252l-33 -35l-252 252l-250 -250z" />
<glyph unicode="&#xd8;" horiz-adv-x="1427" d="M61 631q0 187 86.5 341.5t239.5 243.5t340 89q237 0 406 -140l77 95l27 -21l-78 -94q98 -91 152.5 -218t54.5 -274q0 -187 -87 -341.5t-240 -243t-339 -88.5q-230 0 -395 131l-84 -103l-26 21l84 102q-103 91 -160.5 220t-57.5 280zM246 700q0 -267 129 -452l665 805 q-71 91 -165 140.5t-199 49.5q-64 0 -124 -18t-116.5 -59.5t-98 -102.5t-66.5 -154.5t-25 -208.5zM397 221q67 -86 159.5 -133t193.5 -47q64 0 124.5 18t117 59.5t98.5 103t67 156t25 210.5q0 254 -121 436z" />
<glyph unicode="&#xd9;" horiz-adv-x="1310" d="M51 1235v37h402v-37q-67 -12 -93 -30t-26 -70v-584q0 -247 94 -371.5t266 -124.5q61 0 114 14t103 49t85.5 89t57 139t21.5 193v596q0 51 -29 69.5t-98 30.5v37h312v-37q-66 -12 -93.5 -30.5t-27.5 -69.5v-605q0 -267 -126.5 -408.5t-353.5 -141.5q-106 0 -194 32 t-154.5 95.5t-103.5 166t-37 234.5v627q0 52 -26 70t-93 30zM389 1690q0 24 20.5 42.5t47.5 18.5q33 0 73 -43l203 -215q26 -26 15 -47q-20 -29 -56 -6l-239 162q-64 41 -64 88z" />
<glyph unicode="&#xda;" horiz-adv-x="1310" d="M51 1235v37h402v-37q-67 -12 -93 -30t-26 -70v-584q0 -247 94 -371.5t266 -124.5q61 0 114 14t103 49t85.5 89t57 139t21.5 193v596q0 51 -29 69.5t-98 30.5v37h312v-37q-66 -12 -93.5 -30.5t-27.5 -69.5v-605q0 -267 -126.5 -408.5t-353.5 -141.5q-106 0 -194 32 t-154.5 95.5t-103.5 166t-37 234.5v627q0 52 -26 70t-93 30zM610 1446q-11 21 15 47l200 215q43 43 76 43q25 0 46.5 -18.5t21.5 -42.5q0 -47 -64 -88l-239 -162q-25 -12 -37.5 -9t-18.5 15z" />
<glyph unicode="&#xdb;" horiz-adv-x="1310" d="M51 1235v37h402v-37q-67 -12 -93 -30t-26 -70v-584q0 -247 94 -371.5t266 -124.5q61 0 114 14t103 49t85.5 89t57 139t21.5 193v596q0 51 -29 69.5t-98 30.5v37h312v-37q-66 -12 -93.5 -30.5t-27.5 -69.5v-605q0 -267 -126.5 -408.5t-353.5 -141.5q-106 0 -194 32 t-154.5 95.5t-103.5 166t-37 234.5v627q0 52 -26 70t-93 30zM455 1450l213 236q8 9 20.5 9t18.5 -9l213 -236q8 -12 5 -22t-12 -17q-10 -8 -34 6l-191 142l-192 -142q-25 -14 -35 -6q-23 19 -6 39z" />
<glyph unicode="&#xdc;" horiz-adv-x="1310" d="M51 1235v37h402v-37q-67 -12 -93 -30t-26 -70v-584q0 -247 94 -371.5t266 -124.5q61 0 114 14t103 49t85.5 89t57 139t21.5 193v596q0 51 -29 69.5t-98 30.5v37h312v-37q-66 -12 -93.5 -30.5t-27.5 -69.5v-605q0 -267 -126.5 -408.5t-353.5 -141.5q-106 0 -194 32 t-154.5 95.5t-103.5 166t-37 234.5v627q0 52 -26 70t-93 30zM414 1628q0 34 27.5 62t62.5 28q36 0 64 -28t28 -62q0 -38 -27.5 -67t-64.5 -29q-35 0 -62.5 29t-27.5 67zM774 1628q0 34 27.5 62t62.5 28q36 0 64 -28t28 -62q0 -38 -27.5 -67t-64.5 -29q-35 0 -62.5 29 t-27.5 67z" />
<glyph unicode="&#xdd;" horiz-adv-x="1284" d="M31 1235v37h426v-37q-79 -18 -89.5 -49t29.5 -92l277 -439q6 -9 14 -9t14 9l259 428q26 43 31 72.5t-11.5 45t-38 23t-55.5 11.5v37h366v-37q-75 -8 -119.5 -40t-105.5 -130l-276 -447q-29 -44 -29 -114v-367q0 -52 32 -69.5t130 -30.5v-37h-484v37q97 13 128.5 30.5 t31.5 69.5v367q0 12 -1.5 22.5t-6.5 21.5t-8.5 17.5t-13 21.5t-13.5 23l-274 437q-58 94 -102.5 130.5t-110.5 57.5zM528 1446q-11 21 15 47l200 215q43 43 76 43q25 0 46.5 -18.5t21.5 -42.5q0 -47 -64 -88l-239 -162q-25 -12 -37.5 -9t-18.5 15z" />
<glyph unicode="&#xde;" horiz-adv-x="1173" d="M61 0v37q36 7 53.5 12t35 16t24 28t6.5 44v998q0 52 -26 70t-93 30v37h402v-37q-36 -7 -53 -12t-35.5 -15t-25.5 -26t-7 -41q0 -56 26.5 -80.5t88.5 -24.5h145q244 0 382 -107t138 -292t-138 -292t-382 -107h-145q-61 0 -87 -25t-26 -82q0 -47 25.5 -63.5t93.5 -30.5v-37 h-402zM344 399q0 -58 25.5 -83t87.5 -25h145q175 0 257.5 94t82.5 252t-82.5 252t-257.5 94h-145q-62 0 -87.5 -25.5t-25.5 -83.5v-475z" />
<glyph unicode="&#xdf;" horiz-adv-x="1116" d="M41 35v35q73 -19 103 -1.5t30 72.5v795q0 167 113 268t295 101q175 0 268.5 -92t93.5 -222q0 -110 -62 -182.5t-167 -110.5q132 -11 225.5 -97.5t93.5 -229.5q0 -167 -138.5 -270t-387.5 -103v53q366 3 366 316q0 66 -16 116.5t-54 94t-112.5 67t-181.5 23.5v51 q51 0 97.5 12.5t90 40.5t69.5 81.5t26 127.5q0 52 -13 99t-40.5 88t-77 65t-115.5 24t-112 -24.5t-71.5 -72t-36 -107t-10.5 -140.5v-772q0 -86 -33 -118.5t-100 -32.5q-73 0 -143 45z" />
<glyph unicode="&#xe0;" horiz-adv-x="997" d="M61 213q0 62 27 111.5t91.5 94t184 77t291.5 51.5q41 4 41 53v45q0 115 -59 182.5t-178 67.5q-53 0 -87.5 -14t-49 -36.5t-21.5 -49.5t-10 -54t-10 -49.5t-26.5 -36.5t-53.5 -14q-39 0 -59.5 23t-20.5 65q0 73 61 123t146 70t184 20q176 0 252 -80.5t76 -247.5v-487 q0 -26 8 -41t23 -18t30 -1t35 9v-21q-12 -27 -45 -47t-70 -20q-53 0 -89.5 36t-37.5 115q0 13 -9 12t-17 -12q-59 -72 -151.5 -111.5t-190.5 -39.5q-112 0 -188.5 56.5t-76.5 168.5zM213 1341q0 25 21 43.5t47 18.5q33 0 73 -43l203 -215q25 -25 14 -47q-19 -29 -55 -6 l-240 161q-63 41 -63 88zM217 246q0 -74 51.5 -125t147.5 -51q114 0 197 72.5t83 179.5v104q0 41 -16 59.5t-66 12.5q-397 -50 -397 -252z" />
<glyph unicode="&#xe1;" horiz-adv-x="997" d="M61 213q0 62 27 111.5t91.5 94t184 77t291.5 51.5q41 4 41 53v45q0 115 -59 182.5t-178 67.5q-53 0 -87.5 -14t-49 -36.5t-21.5 -49.5t-10 -54t-10 -49.5t-26.5 -36.5t-53.5 -14q-39 0 -59.5 23t-20.5 65q0 73 61 123t146 70t184 20q176 0 252 -80.5t76 -247.5v-487 q0 -26 8 -41t23 -18t30 -1t35 9v-21q-12 -27 -45 -47t-70 -20q-53 0 -89.5 36t-37.5 115q0 13 -9 12t-17 -12q-59 -72 -151.5 -111.5t-190.5 -39.5q-112 0 -188.5 56.5t-76.5 168.5zM217 246q0 -74 51.5 -125t147.5 -51q114 0 197 72.5t83 179.5v104q0 41 -16 59.5t-66 12.5 q-397 -50 -397 -252zM416 1098q-11 22 14 47l201 215q43 43 76 43q25 0 46 -19t21 -43q0 -47 -63 -88l-240 -161q-39 -25 -55 6z" />
<glyph unicode="&#xe2;" horiz-adv-x="997" d="M61 213q0 62 27 111.5t91.5 94t184 77t291.5 51.5q41 4 41 53v45q0 115 -59 182.5t-178 67.5q-53 0 -87.5 -14t-49 -36.5t-21.5 -49.5t-10 -54t-10 -49.5t-26.5 -36.5t-53.5 -14q-39 0 -59.5 23t-20.5 65q0 73 61 123t146 70t184 20q176 0 252 -80.5t76 -247.5v-487 q0 -26 8 -41t23 -18t30 -1t35 9v-21q-12 -27 -45 -47t-70 -20q-53 0 -89.5 36t-37.5 115q0 13 -9 12t-17 -12q-59 -72 -151.5 -111.5t-190.5 -39.5q-112 0 -188.5 56.5t-76.5 168.5zM217 246q0 -74 51.5 -125t147.5 -51q114 0 197 72.5t83 179.5v104q0 41 -16 59.5t-66 12.5 q-397 -50 -397 -252zM258 1102l213 235q7 9 20 9t19 -9l213 -235q17 -20 -6 -39q-10 -8 -35 6l-190 141l-193 -141q-25 -14 -35 -6q-23 19 -6 39z" />
<glyph unicode="&#xe3;" horiz-adv-x="997" d="M61 213q0 62 27 111.5t91.5 94t184 77t291.5 51.5q41 4 41 53v45q0 115 -59 182.5t-178 67.5q-53 0 -87.5 -14t-49 -36.5t-21.5 -49.5t-10 -54t-10 -49.5t-26.5 -36.5t-53.5 -14q-39 0 -59.5 23t-20.5 65q0 73 61 123t146 70t184 20q176 0 252 -80.5t76 -247.5v-487 q0 -26 8 -41t23 -18t30 -1t35 9v-21q-12 -27 -45 -47t-70 -20q-53 0 -89.5 36t-37.5 115q0 13 -9 12t-17 -12q-59 -72 -151.5 -111.5t-190.5 -39.5q-112 0 -188.5 56.5t-76.5 168.5zM176 1196q0 89 47 134.5t131 45.5q52 0 97 -19.5t72.5 -43t65 -43t75.5 -19.5q74 0 96 80 q3 17 20 17h11q18 0 18 -23q0 -88 -48 -135t-128 -47q-51 0 -96.5 20t-73.5 43.5t-65 43.5t-74 20q-77 0 -99 -82q-3 -14 -20 -14h-8q-21 0 -21 22zM217 246q0 -74 51.5 -125t147.5 -51q114 0 197 72.5t83 179.5v104q0 41 -16 59.5t-66 12.5q-397 -50 -397 -252z" />
<glyph unicode="&#xe4;" horiz-adv-x="997" d="M61 213q0 62 27 111.5t91.5 94t184 77t291.5 51.5q41 4 41 53v45q0 115 -59 182.5t-178 67.5q-53 0 -87.5 -14t-49 -36.5t-21.5 -49.5t-10 -54t-10 -49.5t-26.5 -36.5t-53.5 -14q-39 0 -59.5 23t-20.5 65q0 73 61 123t146 70t184 20q176 0 252 -80.5t76 -247.5v-487 q0 -26 8 -41t23 -18t30 -1t35 9v-21q-12 -27 -45 -47t-70 -20q-53 0 -89.5 36t-37.5 115q0 13 -9 12t-17 -12q-59 -72 -151.5 -111.5t-190.5 -39.5q-112 0 -188.5 56.5t-76.5 168.5zM217 246q0 -74 51.5 -125t147.5 -51q114 0 197 72.5t83 179.5v104q0 41 -16 59.5t-66 12.5 q-397 -50 -397 -252zM219 1280q0 34 27.5 62t62.5 28q36 0 64 -28t28 -62q0 -38 -27.5 -67t-64.5 -29q-35 0 -62.5 29t-27.5 67zM580 1280q0 34 27.5 62t62.5 28q36 0 64 -28t28 -62q0 -38 -27.5 -67t-64.5 -29q-35 0 -62.5 29t-27.5 67z" />
<glyph unicode="&#xe5;" horiz-adv-x="997" d="M61 213q0 62 27 111.5t91.5 94t184 77t291.5 51.5q41 4 41 53v45q0 115 -59 182.5t-178 67.5q-53 0 -87.5 -14t-49 -36.5t-21.5 -49.5t-10 -54t-10 -49.5t-26.5 -36.5t-53.5 -14q-39 0 -59.5 23t-20.5 65q0 73 61 123t146 70t184 20q176 0 252 -80.5t76 -247.5v-487 q0 -26 8 -41t23 -18t30 -1t35 9v-21q-12 -27 -45 -47t-70 -20q-53 0 -89.5 36t-37.5 115q0 13 -9 12t-17 -12q-59 -72 -151.5 -111.5t-190.5 -39.5q-112 0 -188.5 56.5t-76.5 168.5zM217 246q0 -74 51.5 -125t147.5 -51q114 0 197 72.5t83 179.5v104q0 41 -16 59.5t-66 12.5 q-397 -50 -397 -252zM317 1307q0 72 49 121t126 49t125.5 -49t48.5 -121q0 -71 -49 -121.5t-125 -50.5t-125.5 50.5t-49.5 121.5zM389 1307q0 -48 30 -78.5t73 -30.5q42 0 72 30.5t30 78.5q0 46 -30 76t-72 30t-72.5 -30t-30.5 -76z" />
<glyph unicode="&#xe6;" horiz-adv-x="1599" d="M61 209q0 61 26.5 107t91.5 87t183.5 70t292.5 47q45 4 45 51v64q0 114 -61.5 186t-183.5 72q-172 0 -172 -152q0 -102 -80 -102q-36 0 -56 23.5t-20 62.5q0 68 60 119t146 74.5t179 23.5q223 0 291 -156q132 156 362 156q151 0 238.5 -74t87.5 -188q0 -67 -34 -106.5 t-120 -61.5t-239 -27l-187 -8q-30 -1 -41.5 -16.5t-11.5 -48.5q0 -58 26.5 -114.5t74 -102.5t121 -74.5t159.5 -28.5q172 0 258 119l31 -25q-17 -31 -44.5 -61.5t-71.5 -63t-109.5 -53t-141.5 -20.5q-195 0 -348 153q-37 40 -70.5 39.5t-68.5 -41.5q-66 -74 -158 -112.5 t-192 -38.5q-112 0 -187.5 54.5t-75.5 166.5zM219 256q0 -73 51 -126.5t144 -53.5q117 0 200.5 71t83.5 181v43q0 62 -18.5 86t-71.5 18q-92 -12 -160.5 -29t-112 -37t-69.5 -45t-36.5 -50.5t-10.5 -57.5zM848 594q0 -48 15 -61t52 -11l162 4q153 2 207.5 33.5t54.5 118.5 q0 95 -52.5 155t-160.5 60q-89 0 -154 -45.5t-94.5 -111.5t-29.5 -142z" />
<glyph unicode="&#xe7;" horiz-adv-x="989" d="M61 465q0 146 69 256t180 165.5t245 55.5q81 0 148.5 -22t109.5 -56.5t65 -75t23 -79.5q0 -42 -25 -68.5t-61 -26.5q-32 0 -55.5 20t-26.5 64q-9 80 -64.5 137.5t-162.5 57.5q-136 0 -217.5 -97t-81.5 -272q0 -133 58 -232t153 -148.5t211 -49.5q171 0 258 133l31 -26 q-30 -72 -116 -136t-214 -75l-41 -88q76 24 146.5 -19.5t70.5 -124.5q0 -76 -64.5 -124t-152.5 -48q-99 0 -154 35t-55 86q0 46 34.5 61.5t71.5 -16.5q0 -133 91 -133q57 0 92 43t35 100q0 48 -27.5 79.5t-75.5 31.5q-26 0 -54.5 -9t-39.5 -9q-39 0 -16 47l43 88 q-186 18 -308.5 145.5t-122.5 329.5z" />
<glyph unicode="&#xe8;" horiz-adv-x="964" d="M61 467q0 145 63.5 254.5t168.5 165t235 55.5q151 0 239.5 -74t88.5 -188q0 -67 -34.5 -106.5t-121 -61.5t-239.5 -27l-187 -8q-29 -1 -41 -16.5t-12 -48.5q0 -58 27 -114.5t74.5 -102.5t121 -74.5t158.5 -28.5q171 0 260 119l31 -25q-17 -31 -45 -61.5t-72 -63 t-109.5 -53t-140.5 -20.5q-128 0 -233.5 58t-168.5 168.5t-63 252.5zM211 1341q0 25 21 43.5t47 18.5q33 0 73 -43l203 -215q25 -25 14 -47q-19 -29 -55 -6l-240 161q-63 41 -63 88zM213 594q0 -48 15.5 -61t52.5 -11l159 4q153 2 207.5 33.5t54.5 118.5q0 95 -52.5 155 t-160.5 60q-88 0 -152.5 -45.5t-94 -111.5t-29.5 -142z" />
<glyph unicode="&#xe9;" horiz-adv-x="964" d="M61 467q0 145 63.5 254.5t168.5 165t235 55.5q151 0 239.5 -74t88.5 -188q0 -67 -34.5 -106.5t-121 -61.5t-239.5 -27l-187 -8q-29 -1 -41 -16.5t-12 -48.5q0 -58 27 -114.5t74.5 -102.5t121 -74.5t158.5 -28.5q171 0 260 119l31 -25q-17 -31 -45 -61.5t-72 -63 t-109.5 -53t-140.5 -20.5q-128 0 -233.5 58t-168.5 168.5t-63 252.5zM213 594q0 -48 15.5 -61t52.5 -11l159 4q153 2 207.5 33.5t54.5 118.5q0 95 -52.5 155t-160.5 60q-88 0 -152.5 -45.5t-94 -111.5t-29.5 -142zM412 1098q-11 22 14 47l201 215q43 43 75 43q25 0 46.5 -19 t21.5 -43q0 -47 -63 -88l-240 -161q-39 -25 -55 6z" />
<glyph unicode="&#xea;" horiz-adv-x="964" d="M61 467q0 145 63.5 254.5t168.5 165t235 55.5q151 0 239.5 -74t88.5 -188q0 -67 -34.5 -106.5t-121 -61.5t-239.5 -27l-187 -8q-29 -1 -41 -16.5t-12 -48.5q0 -58 27 -114.5t74.5 -102.5t121 -74.5t158.5 -28.5q171 0 260 119l31 -25q-17 -31 -45 -61.5t-72 -63 t-109.5 -53t-140.5 -20.5q-128 0 -233.5 58t-168.5 168.5t-63 252.5zM213 594q0 -48 15.5 -61t52.5 -11l159 4q153 2 207.5 33.5t54.5 118.5q0 95 -52.5 155t-160.5 60q-88 0 -152.5 -45.5t-94 -111.5t-29.5 -142zM256 1102l213 235q7 9 20 9t19 -9l213 -235q17 -20 -6 -39 q-10 -8 -35 6l-191 141l-192 -141q-25 -14 -35 -6q-23 19 -6 39z" />
<glyph unicode="&#xeb;" horiz-adv-x="964" d="M61 467q0 145 63.5 254.5t168.5 165t235 55.5q151 0 239.5 -74t88.5 -188q0 -67 -34.5 -106.5t-121 -61.5t-239.5 -27l-187 -8q-29 -1 -41 -16.5t-12 -48.5q0 -58 27 -114.5t74.5 -102.5t121 -74.5t158.5 -28.5q171 0 260 119l31 -25q-17 -31 -45 -61.5t-72 -63 t-109.5 -53t-140.5 -20.5q-128 0 -233.5 58t-168.5 168.5t-63 252.5zM213 594q0 -48 15.5 -61t52.5 -11l159 4q153 2 207.5 33.5t54.5 118.5q0 95 -52.5 155t-160.5 60q-88 0 -152.5 -45.5t-94 -111.5t-29.5 -142zM217 1280q0 34 27.5 62t62.5 28q36 0 64 -28t28 -62 q0 -38 -27.5 -67t-64.5 -29q-35 0 -62.5 29t-27.5 67zM578 1280q0 34 27.5 62t62.5 28q36 0 64 -28t28 -62q0 -38 -27.5 -67t-64.5 -29q-35 0 -62.5 29t-27.5 67z" />
<glyph unicode="&#xec;" horiz-adv-x="512" d="M-45 1341q0 25 21 43.5t47 18.5q33 0 73 -43l203 -215q25 -25 14 -47q-19 -29 -55 -6l-240 161q-63 41 -63 88zM51 854v35l211 49q30 8 49 -7t19 -48v-744q0 -50 29 -71t102 -29v-39h-406v39q73 8 102 29t29 71v594q0 74 -25 101t-110 20z" />
<glyph unicode="&#xed;" horiz-adv-x="512" d="M51 854v35l211 49q30 8 49 -7t19 -48v-744q0 -50 29 -71t102 -29v-39h-406v39q73 8 102 29t29 71v594q0 74 -25 101t-110 20zM158 1098q-11 22 14 47l201 215q43 43 76 43q25 0 46 -19t21 -43q0 -47 -63 -88l-240 -161q-39 -25 -55 6z" />
<glyph unicode="&#xee;" horiz-adv-x="512" d="M0 1102l213 235q7 9 20 9t19 -9l213 -235q17 -20 -6 -39q-10 -8 -35 6l-191 141l-192 -141q-25 -14 -35 -6q-23 19 -6 39zM51 854v35l211 49q30 8 49 -7t19 -48v-744q0 -50 29 -71t102 -29v-39h-406v39q73 8 102 29t29 71v594q0 74 -25 101t-110 20z" />
<glyph unicode="&#xef;" horiz-adv-x="512" d="M-39 1280q0 34 27.5 62t62.5 28q36 0 64 -28t28 -62q0 -38 -27.5 -67t-64.5 -29q-35 0 -62.5 29t-27.5 67zM51 854v35l211 49q30 8 49 -7t19 -48v-744q0 -50 29 -71t102 -29v-39h-406v39q73 8 102 29t29 71v594q0 74 -25 101t-110 20zM322 1280q0 34 27.5 62t62.5 28 q36 0 64 -28t28 -62q0 -38 -27.5 -67t-64.5 -29q-35 0 -62.5 29t-27.5 67z" />
<glyph unicode="&#xf0;" horiz-adv-x="1112" d="M61 444q0 116 36 211.5t98 157.5t142 95.5t169 33.5q51 0 103 -10.5t82.5 -21.5t55.5 -17t35.5 3.5t10.5 39.5v170l-250 -70l-6 31l233 68q-52 128 -221 137v37q227 0 323 -148l191 53l6 -30l-178 -51q45 -88 45 -230v-762q0 -55 29.5 -72.5t101.5 1.5v-35 q-70 -45 -143 -45q-69 0 -102 35.5t-29 124.5q-141 -162 -328 -162q-172 0 -288 127t-116 329zM207 526q0 -190 94.5 -312t249.5 -122q42 0 82 10.5t77.5 33t60 65t22.5 100.5v320q0 67 -28.5 121t-75 86.5t-100 49.5t-108.5 17q-129 0 -201.5 -100.5t-72.5 -268.5z" />
<glyph unicode="&#xf1;" horiz-adv-x="1112" d="M51 854v35l211 49q30 8 49 -7.5t19 -51.5q0 -100 28 -92q7 2 15 10q1 1 13.5 14.5t23.5 24t30 27t41.5 28.5t50 24t61.5 18.5t71 6.5q134 0 220.5 -84.5t86.5 -253.5v-475q0 -51 28 -64.5t78 -3.5v-20q-18 -21 -55.5 -36t-77.5 -15q-117 0 -117 133v434q0 136 -62 215.5 t-179 79.5q-118 0 -187 -81t-69 -214v-416q0 -50 29 -71t102 -29v-39h-406v39q73 8 102 29t29 71v594q0 74 -25 101t-110 20zM242 1196q0 89 47 134.5t131 45.5q43 0 79.5 -13t63 -31t51.5 -36.5t54.5 -31.5t60.5 -13q74 0 96 80q3 17 21 17h10q18 0 18 -23q0 -88 -48 -135 t-128 -47q-51 0 -96.5 20t-73.5 43.5t-65 43.5t-74 20q-76 0 -98 -82q-3 -14 -21 -14h-8q-20 0 -20 22z" />
<glyph unicode="&#xf2;" d="M61 461q0 141 64.5 252t171.5 170t235 59q125 0 229.5 -56.5t169 -166t64.5 -250.5t-64.5 -252t-171.5 -170t-235 -59q-125 0 -229.5 56.5t-169 166t-64.5 250.5zM219 535q0 -134 44.5 -246.5t127.5 -180t187 -67.5q118 0 188 89.5t70 262.5q0 136 -44.5 249t-127.5 181 t-187 68q-117 0 -187.5 -91t-70.5 -265zM250 1341q0 25 20.5 43.5t46.5 18.5q34 0 74 -43l203 -215q25 -25 14 -47q-19 -29 -55 -6l-240 161q-63 41 -63 88z" />
<glyph unicode="&#xf3;" d="M61 461q0 141 64.5 252t171.5 170t235 59q125 0 229.5 -56.5t169 -166t64.5 -250.5t-64.5 -252t-171.5 -170t-235 -59q-125 0 -229.5 56.5t-169 166t-64.5 250.5zM219 535q0 -134 44.5 -246.5t127.5 -180t187 -67.5q118 0 188 89.5t70 262.5q0 136 -44.5 249t-127.5 181 t-187 68q-117 0 -187.5 -91t-70.5 -265zM451 1098q-11 22 14 47l201 215q43 43 75 43q25 0 46.5 -19t21.5 -43q0 -47 -64 -88l-239 -161q-39 -25 -55 6z" />
<glyph unicode="&#xf4;" d="M61 461q0 141 64.5 252t171.5 170t235 59q125 0 229.5 -56.5t169 -166t64.5 -250.5t-64.5 -252t-171.5 -170t-235 -59q-125 0 -229.5 56.5t-169 166t-64.5 250.5zM219 535q0 -134 44.5 -246.5t127.5 -180t187 -67.5q118 0 188 89.5t70 262.5q0 136 -44.5 249t-127.5 181 t-187 68q-117 0 -187.5 -91t-70.5 -265zM295 1102l213 235q8 9 20.5 9t18.5 -9l213 -235q17 -20 -6 -39q-10 -8 -35 6l-191 141l-192 -141q-25 -14 -35 -6q-23 19 -6 39z" />
<glyph unicode="&#xf5;" d="M61 461q0 141 64.5 252t171.5 170t235 59q125 0 229.5 -56.5t169 -166t64.5 -250.5t-64.5 -252t-171.5 -170t-235 -59q-125 0 -229.5 56.5t-169 166t-64.5 250.5zM211 1196q0 89 47 134.5t131 45.5q43 0 79.5 -13t63 -31t51.5 -36.5t54.5 -31.5t60.5 -13q75 0 97 80 q3 17 20 17h10q19 0 19 -23q0 -88 -48 -135t-128 -47q-51 0 -97 20t-74 43.5t-65 43.5t-74 20q-76 0 -98 -82q-3 -14 -20 -14h-9q-20 0 -20 22zM219 535q0 -134 44.5 -246.5t127.5 -180t187 -67.5q118 0 188 89.5t70 262.5q0 136 -44.5 249t-127.5 181t-187 68 q-117 0 -187.5 -91t-70.5 -265z" />
<glyph unicode="&#xf6;" d="M61 461q0 141 64.5 252t171.5 170t235 59q125 0 229.5 -56.5t169 -166t64.5 -250.5t-64.5 -252t-171.5 -170t-235 -59q-125 0 -229.5 56.5t-169 166t-64.5 250.5zM219 535q0 -134 44.5 -246.5t127.5 -180t187 -67.5q118 0 188 89.5t70 262.5q0 136 -44.5 249t-127.5 181 t-187 68q-117 0 -187.5 -91t-70.5 -265zM256 1280q0 34 27.5 62t62.5 28q36 0 64 -28t28 -62q0 -38 -27.5 -67t-64.5 -29q-35 0 -62.5 29t-27.5 67zM616 1280q0 34 28 62t63 28q36 0 64 -28t28 -62q0 -38 -27.5 -67t-64.5 -29q-35 0 -63 29t-28 67z" />
<glyph unicode="&#xf7;" horiz-adv-x="962" d="M102 492v47h758v-47h-758zM403 203q0 31 23.5 54.5t52.5 23.5q32 0 56 -23.5t24 -54.5q0 -32 -24 -56t-56 -24q-30 0 -53 24t-23 56zM403 829q0 31 23.5 54.5t52.5 23.5q32 0 56 -23.5t24 -54.5q0 -32 -24 -55.5t-56 -23.5q-30 0 -53 23.5t-23 55.5z" />
<glyph unicode="&#xf8;" d="M61 461q0 141 64.5 252t171.5 170t235 59q171 0 295 -100l68 82l27 -21l-70 -84q143 -133 143 -350q0 -141 -64.5 -252t-171.5 -170t-235 -59q-157 0 -282 92l-60 -72l-26 21l59 71q-73 63 -113.5 155.5t-40.5 205.5zM219 535q0 -188 86 -326l436 528q-49 72 -116.5 113 t-147.5 41q-117 0 -187.5 -91t-70.5 -265zM324 180q102 -139 254 -139q118 0 188 89.5t70 262.5q0 181 -76 314z" />
<glyph unicode="&#xf9;" horiz-adv-x="1122" d="M51 854v35l211 49q30 8 49 -7t19 -48v-527q0 -127 62.5 -204.5t176.5 -77.5q116 0 187 79t71 203v379q0 38 -4 58t-17.5 36.5t-40.5 21.5t-73 3v35l211 49q31 8 49.5 -7t18.5 -48v-756q0 -51 27 -63t79 -5v-20q-18 -21 -55 -36t-76 -15q-52 0 -86 30t-41 91 q-1 8 -1.5 9.5l-2 6t-4.5 5.5t-8 1q-12 0 -25 -10q-3 -2 -23 -21t-42 -35t-54.5 -35t-77 -30.5t-92.5 -11.5q-132 0 -217.5 82.5t-85.5 242.5v422q0 73 -24.5 98t-110.5 21zM303 1341q0 25 21 43.5t47 18.5q33 0 73 -43l203 -215q26 -26 15 -47q-20 -29 -56 -6l-239 161 q-64 41 -64 88z" />
<glyph unicode="&#xfa;" horiz-adv-x="1122" d="M51 854v35l211 49q30 8 49 -7t19 -48v-527q0 -127 62.5 -204.5t176.5 -77.5q116 0 187 79t71 203v379q0 38 -4 58t-17.5 36.5t-40.5 21.5t-73 3v35l211 49q31 8 49.5 -7t18.5 -48v-756q0 -51 27 -63t79 -5v-20q-18 -21 -55 -36t-76 -15q-52 0 -86 30t-41 91 q-1 8 -1.5 9.5l-2 6t-4.5 5.5t-8 1q-12 0 -25 -10q-3 -2 -23 -21t-42 -35t-54.5 -35t-77 -30.5t-92.5 -11.5q-132 0 -217.5 82.5t-85.5 242.5v422q0 73 -24.5 98t-110.5 21zM487 1098q-11 21 15 47l200 215q43 43 76 43q25 0 46.5 -19t21.5 -43q0 -47 -64 -88l-239 -161 q-25 -12 -37.5 -9t-18.5 15z" />
<glyph unicode="&#xfb;" horiz-adv-x="1122" d="M51 854v35l211 49q30 8 49 -7t19 -48v-527q0 -127 62.5 -204.5t176.5 -77.5q116 0 187 79t71 203v379q0 38 -4 58t-17.5 36.5t-40.5 21.5t-73 3v35l211 49q31 8 49.5 -7t18.5 -48v-756q0 -51 27 -63t79 -5v-20q-18 -21 -55 -36t-76 -15q-52 0 -86 30t-41 91 q-1 8 -1.5 9.5l-2 6t-4.5 5.5t-8 1q-12 0 -25 -10q-3 -2 -23 -21t-42 -35t-54.5 -35t-77 -30.5t-92.5 -11.5q-132 0 -217.5 82.5t-85.5 242.5v422q0 73 -24.5 98t-110.5 21zM291 1102l213 235q8 9 20.5 9t18.5 -9l213 -235q17 -20 -6 -39q-10 -8 -35 6l-191 141l-192 -141 q-25 -14 -35 -6q-23 19 -6 39z" />
<glyph unicode="&#xfc;" horiz-adv-x="1122" d="M51 854v35l211 49q30 8 49 -7t19 -48v-527q0 -127 62.5 -204.5t176.5 -77.5q116 0 187 79t71 203v379q0 38 -4 58t-17.5 36.5t-40.5 21.5t-73 3v35l211 49q31 8 49.5 -7t18.5 -48v-756q0 -51 27 -63t79 -5v-20q-18 -21 -55 -36t-76 -15q-52 0 -86 30t-41 91 q-1 8 -1.5 9.5l-2 6t-4.5 5.5t-8 1q-12 0 -25 -10q-3 -2 -23 -21t-42 -35t-54.5 -35t-77 -30.5t-92.5 -11.5q-132 0 -217.5 82.5t-85.5 242.5v422q0 73 -24.5 98t-110.5 21zM291 1280q0 34 27.5 62t62.5 28q36 0 64 -28t28 -62q0 -38 -27.5 -67t-64.5 -29q-35 0 -62.5 29 t-27.5 67zM651 1280q0 34 27.5 62t62.5 28q36 0 64.5 -28t28.5 -62q0 -38 -28 -67t-65 -29q-35 0 -62.5 29t-27.5 67z" />
<glyph unicode="&#xfd;" d="M20 887v37h388v-37q-30 -10 -47.5 -17t-31 -18t-17.5 -22.5t-2.5 -31t9.5 -43t23 -59.5l190 -463q13 -28 23.5 -36.5t20.5 1t22 38.5l96 241q27 67 45.5 118t29 91.5t16 67.5t1.5 48.5t-9.5 33.5t-22.5 22.5t-31 15.5t-41 13v37h354v-37q-90 -27 -126.5 -60.5 t-75.5 -130.5l-353 -862q-20 -49 -33.5 -77.5t-36 -63.5t-45.5 -54t-57 -32t-76 -13q-72 0 -111.5 34t-39.5 87q0 43 27.5 70t68.5 27q30 0 46.5 -15t22 -36.5t9 -43t14.5 -36.5t33 -15q61 0 129 166q23 56 24.5 113t-6.5 88t-24 71l-244 592q-41 101 -68.5 133t-93.5 58z M457 1098q-11 22 14 47l201 215q43 43 76 43q25 0 46 -19t21 -43q0 -47 -63 -88l-240 -161q-39 -25 -55 6z" />
<glyph unicode="&#xfe;" horiz-adv-x="1089" d="M20 1257v35l211 51q30 8 49 -7.5t19 -49.5v-457q0 -8 3.5 -13t12 -4t19.5 13q34 41 115.5 79t175.5 38q172 0 287.5 -128.5t115.5 -330.5q0 -116 -36.5 -211.5t-98.5 -156.5t-140.5 -94t-164.5 -33q-57 0 -111 13.5t-83.5 28t-53 23t-32.5 -1t-9 -45.5v-256 q0 -50 28.5 -71.5t102.5 -30.5v-37h-405v37q74 9 102.5 30.5t28.5 71.5v1391q0 36 -4.5 57.5t-18 37.5t-41 20.5t-72.5 0.5zM299 369q0 -84 27.5 -150t73 -105t98 -59t106.5 -20q129 0 206 100.5t77 263.5q0 187 -96.5 313t-243.5 126q-34 0 -66.5 -6.5t-66.5 -23.5 t-58.5 -44t-40.5 -71t-16 -101v-223z" />
<glyph unicode="&#xff;" d="M20 887v37h388v-37q-30 -10 -47.5 -17t-31 -18t-17.5 -22.5t-2.5 -31t9.5 -43t23 -59.5l190 -463q13 -28 23.5 -36.5t20.5 1t22 38.5l96 241q27 67 45.5 118t29 91.5t16 67.5t1.5 48.5t-9.5 33.5t-22.5 22.5t-31 15.5t-41 13v37h354v-37q-90 -27 -126.5 -60.5 t-75.5 -130.5l-353 -862q-20 -49 -33.5 -77.5t-36 -63.5t-45.5 -54t-57 -32t-76 -13q-72 0 -111.5 34t-39.5 87q0 43 27.5 70t68.5 27q30 0 46.5 -15t22 -36.5t9 -43t14.5 -36.5t33 -15q61 0 129 166q23 56 24.5 113t-6.5 88t-24 71l-244 592q-41 101 -68.5 133t-93.5 58z M262 1280q0 34 27.5 62t62.5 28q36 0 64 -28t28 -62q0 -38 -27.5 -67t-64.5 -29q-35 0 -62.5 29t-27.5 67zM623 1280q0 34 27.5 62t62.5 28q36 0 64 -28t28 -62q0 -38 -27.5 -67t-64.5 -29q-35 0 -62.5 29t-27.5 67z" />
<glyph unicode="&#x152;" horiz-adv-x="1945" d="M61 631q0 186 86 340.5t239 244t339 89.5q126 0 213 -33h852q28 0 31 -27q11 -91 41 -215h-39q-35 97 -97.5 144t-166.5 47h-275q-66 0 -95.5 -19t-29.5 -74v-368q0 -53 28.5 -69.5t96.5 -16.5h219q85 0 118 34t46 111h29v-348h-29q-7 38 -16 62.5t-26.5 46t-47.5 31.5 t-74 10h-219q-68 0 -96.5 -16.5t-28.5 -69.5v-392q0 -55 40 -72.5t163 -17.5h237q55 0 94.5 9t65.5 29.5t37 33.5t29 39l49 78h37q-48 -91 -62 -213q-3 -29 -32 -29h-943q-79 -20 -172 -20q-183 0 -330.5 86t-229 234.5t-81.5 330.5zM242 700q0 -194 69.5 -347t184.5 -234.5 t252 -81.5q134 0 247 65v1037q-135 108 -315 108q-66 0 -127 -18t-118 -60t-99.5 -103.5t-68 -155.5t-25.5 -210z" />
<glyph unicode="&#x153;" horiz-adv-x="1765" d="M61 461q0 141 64.5 252t171.5 170t235 59q124 0 229.5 -57.5t166.5 -159.5q61 105 167 162t236 57q151 0 239.5 -74t88.5 -188q0 -67 -34.5 -106.5t-121 -61.5t-239.5 -27l-187 -8q-29 -1 -41 -16.5t-12 -48.5q0 -58 27 -114.5t74.5 -102.5t121 -74.5t158.5 -28.5 q171 0 260 119l31 -25q-17 -31 -45 -61.5t-72 -63t-109.5 -53t-140.5 -20.5q-127 0 -233 59.5t-166 163.5q-63 -106 -170.5 -165.5t-235.5 -59.5q-125 0 -229.5 56.5t-169 166t-64.5 250.5zM219 535q0 -134 44.5 -246.5t127.5 -180t187 -67.5q118 0 188 89.5t70 262.5 q0 136 -44.5 249t-127.5 181t-187 68q-117 0 -187.5 -91t-70.5 -265zM1016 596q0 -48 15 -61t52 -11l160 4q153 2 207.5 33.5t54.5 118.5q0 95 -52.5 155t-160.5 60q-88 0 -152.5 -45.5t-94 -111.5t-29.5 -142z" />
<glyph unicode="&#x178;" horiz-adv-x="1284" d="M31 1235v37h426v-37q-79 -18 -89.5 -49t29.5 -92l277 -439q6 -9 14 -9t14 9l259 428q26 43 31 72.5t-11.5 45t-38 23t-55.5 11.5v37h366v-37q-75 -8 -119.5 -40t-105.5 -130l-276 -447q-29 -44 -29 -114v-367q0 -52 32 -69.5t130 -30.5v-37h-484v37q97 13 128.5 30.5 t31.5 69.5v367q0 12 -1.5 22.5t-6.5 21.5t-8.5 17.5t-13 21.5t-13.5 23l-274 437q-58 94 -102.5 130.5t-110.5 57.5zM350 1628q0 34 27.5 62t62.5 28q36 0 64 -28t28 -62q0 -38 -27.5 -67t-64.5 -29q-35 0 -62.5 29t-27.5 67zM711 1628q0 34 27.5 62t62.5 28q36 0 64 -28 t28 -62q0 -38 -27.5 -67t-64.5 -29q-35 0 -62.5 29t-27.5 67z" />
<glyph unicode="&#x2c6;" horiz-adv-x="559" d="M47 1102l213 235q8 9 20.5 9t18.5 -9l213 -235q17 -20 -6 -39q-10 -8 -35 6l-190 141l-193 -141q-25 -14 -35 -6q-23 19 -6 39z" />
<glyph unicode="&#x2dc;" horiz-adv-x="858" d="M113 1196q0 89 47 134.5t131 45.5q43 0 79.5 -13t63 -31t51.5 -36.5t54.5 -31.5t60.5 -13q74 0 96 80q3 17 21 17h10q18 0 18 -23q0 -88 -48 -135t-128 -47q-51 0 -96.5 20t-73.5 43.5t-65 43.5t-74 20q-76 0 -98 -82q-3 -14 -21 -14h-8q-20 0 -20 22z" />
<glyph unicode="&#x2000;" horiz-adv-x="912" />
<glyph unicode="&#x2001;" horiz-adv-x="1825" />
<glyph unicode="&#x2002;" horiz-adv-x="912" />
<glyph unicode="&#x2003;" horiz-adv-x="1825" />
<glyph unicode="&#x2004;" horiz-adv-x="608" />
<glyph unicode="&#x2005;" horiz-adv-x="456" />
<glyph unicode="&#x2006;" horiz-adv-x="304" />
<glyph unicode="&#x2007;" horiz-adv-x="304" />
<glyph unicode="&#x2008;" horiz-adv-x="228" />
<glyph unicode="&#x2009;" horiz-adv-x="365" />
<glyph unicode="&#x200a;" horiz-adv-x="101" />
<glyph unicode="&#x2010;" horiz-adv-x="757" d="M102 522v33h553v-33h-553z" />
<glyph unicode="&#x2011;" horiz-adv-x="757" d="M102 522v33h553v-33h-553z" />
<glyph unicode="&#x2012;" horiz-adv-x="757" d="M102 522v33h553v-33h-553z" />
<glyph unicode="&#x2013;" horiz-adv-x="1396" d="M102 522v33h1192v-33h-1192z" />
<glyph unicode="&#x2014;" horiz-adv-x="1882" d="M102 522v33h1678v-33h-1678z" />
<glyph unicode="&#x2018;" horiz-adv-x="342" d="M61 1067q0 67 37 133.5t101 106.5l20 -25q-26 -23 -46.5 -60.5t-20.5 -60.5q0 -35 32 -35q40 0 68.5 -28t28.5 -72q0 -45 -31.5 -72.5t-73.5 -27.5q-56 0 -85.5 41t-29.5 100z" />
<glyph unicode="&#x2019;" horiz-adv-x="342" d="M61 1204q0 45 31.5 73t73.5 28q56 0 85.5 -41.5t29.5 -100.5q0 -67 -37 -133t-101 -106l-20 24q26 23 46.5 60.5t20.5 60.5q0 35 -32 35q-40 0 -68.5 28t-28.5 72z" />
<glyph unicode="&#x201a;" horiz-adv-x="342" d="M61 98q0 45 31.5 73t73.5 28q56 0 85.5 -41.5t29.5 -100.5q0 -67 -37 -133t-101 -106l-20 24q26 23 46.5 60.5t20.5 60.5q0 35 -32 35q-40 0 -68.5 28t-28.5 72z" />
<glyph unicode="&#x201c;" horiz-adv-x="632" d="M61 1065q0 67 37 133.5t101 106.5l20 -25q-26 -23 -46.5 -60.5t-20.5 -60.5q0 -35 32 -35q40 0 68.5 -28t28.5 -72q0 -45 -31.5 -72.5t-73.5 -27.5q-56 0 -85.5 41t-29.5 100zM350 1065q0 67 36.5 133.5t100.5 106.5l21 -25q-26 -23 -47 -60.5t-21 -60.5q0 -35 33 -35 q40 0 68 -28t28 -72q0 -45 -31 -72.5t-73 -27.5q-56 0 -85.5 41t-29.5 100z" />
<glyph unicode="&#x201d;" horiz-adv-x="632" d="M61 1204q0 45 31.5 73t73.5 28q56 0 85.5 -41.5t29.5 -100.5q0 -67 -37 -133t-101 -106l-20 24q26 23 46.5 60.5t20.5 60.5q0 35 -32 35q-40 0 -68.5 28t-28.5 72zM352 1204q0 45 31.5 73t73.5 28q56 0 85 -41.5t29 -100.5q0 -67 -36.5 -133t-100.5 -106l-20 24 q26 23 46.5 60.5t20.5 60.5q0 35 -32 35q-41 0 -69 28t-28 72z" />
<glyph unicode="&#x201e;" horiz-adv-x="624" d="M61 98q0 45 31.5 73t73.5 28q56 0 85.5 -41.5t29.5 -100.5q0 -67 -37 -133t-101 -106l-20 24q26 23 46.5 60.5t20.5 60.5q0 35 -32 35q-40 0 -68.5 28t-28.5 72zM344 98q0 45 31.5 73t73.5 28q56 0 85 -41.5t29 -100.5q0 -67 -36.5 -133t-100.5 -106l-20 24 q26 23 46.5 60.5t20.5 60.5q0 35 -33 35q-40 0 -68 28t-28 72z" />
<glyph unicode="&#x2022;" horiz-adv-x="546" d="M123 602q0 60 44.5 105t104.5 45q61 0 106.5 -45t45.5 -105q0 -61 -45 -106t-107 -45q-60 0 -104.5 45t-44.5 106z" />
<glyph unicode="&#x2026;" horiz-adv-x="1042" d="M82 94q0 43 31 75t73 32q41 0 73 -32t32 -75q0 -44 -31.5 -75t-73.5 -31q-43 0 -73.5 31t-30.5 75zM418 94q0 43 31 75t73 32q41 0 73 -32t32 -75q0 -44 -31.5 -75t-73.5 -31q-43 0 -73.5 31t-30.5 75zM754 94q0 43 31 75t73 32q41 0 73 -32t32 -75q0 -44 -31.5 -75 t-73.5 -31q-43 0 -73.5 31t-30.5 75z" />
<glyph unicode="&#x202f;" horiz-adv-x="365" />
<glyph unicode="&#x2039;" horiz-adv-x="514" d="M114 608.5q0 12.5 7 18.5l235 213q20 17 39 -6q13 -13 -6 -35l-147 -191l147 -192q19 -22 6 -35q-19 -23 -39 -6l-235 213q-7 8 -7 20.5z" />
<glyph unicode="&#x203a;" horiz-adv-x="514" d="M117 381q-11 13 8 35l147 192l-147 191q-19 22 -8 35q21 21 39 6l237 -213q7 -6 7 -18.5t-7 -20.5l-237 -213q-18 -15 -39 6z" />
<glyph unicode="&#x205f;" horiz-adv-x="456" />
<glyph unicode="&#x20ac;" horiz-adv-x="1417" d="M61 516v35h123q-4 58 -4 88v23h-119v36h121q11 140 70.5 256.5t151.5 192t207 117t239 41.5q108 0 200.5 -30.5t151.5 -78t92 -103.5t33 -110q0 -51 -29.5 -84t-76.5 -33q-41 0 -69 29.5t-32 89.5q-3 44 -23.5 87t-59 82t-105 63t-150.5 24q-199 0 -321 -135.5 t-123 -370.5v-37h573v-36h-569q2 -42 18 -111h551v-35h-540q60 -192 215.5 -306t357.5 -114q118 0 205.5 45.5t171.5 139.5l25 -21q-18 -33 -45.5 -67t-74 -73.5t-101.5 -69.5t-131.5 -50t-159.5 -20q-153 0 -288 62t-232 185.5t-124 288.5h-129z" />
<glyph unicode="&#x2122;" horiz-adv-x="1196" d="M61 1145l17 127h444l17 -127h-33q-9 21 -13.5 29.5t-16 24t-27 22t-37.5 6.5q-30 0 -44 -11t-14 -42v-261q0 -40 17.5 -55t56.5 -20v-31h-256v31q39 5 56.5 20t17.5 55v261q0 31 -14 42t-44 11q-22 0 -38.5 -6.5t-28 -22t-16 -24t-13.5 -29.5h-31zM580 807v31 q34 4 44.5 22.5t10.5 63.5v231q0 44 -11 63t-44 23v31h139l143 -271l123 271h150v-31q-34 -4 -44 -22.5t-10 -63.5v-231q0 -45 10 -63.5t44 -22.5v-31h-217v31q33 4 44 23t11 63v219l-131 -287h-21l-135 262v-194q0 -44 11.5 -63t43.5 -23v-31h-161z" />
<glyph unicode="&#x25fc;" horiz-adv-x="921" d="M0 0v922h922v-922h-922z" />
</font>
</defs>
</svg>
